<?xml version="1.0" encoding="UTF-8"?>
<svg width="214px" height="50px" viewBox="0 0 214 50" version="1.1" xmlns="http://www.w3.org/2000/svg" xmlns:xlink="http://www.w3.org/1999/xlink">
    <!-- Generator: Sketch 64 (93537) - https://sketch.com -->
    <title>m_ico_sline_main</title>
    <desc>Created with Sketch.</desc>
    <g id="Publish_M" stroke="none" stroke-width="1" fill="none" fill-rule="evenodd">
        <g id="m_02about-" transform="translate(-60.000000, -1168.000000)">
            <g id="m_ico_sline_main" transform="translate(60.000000, 1168.000000)">
                <rect id="Rectangle" fill="#A5A5A5" opacity="0" x="0" y="0" width="214" height="50"></rect>
                <path d="M9.08671875,19.4625 L11.325,9.7359375 L13.6101562,19.4625 L17.8757812,19.4625 L21.496875,2.4 L17.41875,2.4 L15.4617187,13.0992188 L13.0828125,2.4 L9.590625,2.4 L7.246875,13.0992188 L5.28984375,2.4 L1.2,2.4 L4.8328125,19.4625 L9.08671875,19.4625 Z M34.85625,19.4625 L34.85625,16.2984375 L27.215625,16.2984375 L27.215625,12.2320313 L33.684375,12.2320313 L33.684375,9.1734375 L27.215625,9.1734375 L27.215625,5.57578125 L34.8796875,5.57578125 L34.8796875,2.4 L23.1023437,2.4 L23.1023437,19.4625 L34.85625,19.4625 Z M168.780469,19.4625 L169.764844,16.275 L175.401562,16.275 L176.397656,19.4625 L180.815625,19.4625 L174.510937,2.4 L170.64375,2.4 L164.385937,19.4625 L168.780469,19.4625 Z M174.417187,13.0992188 L170.749219,13.0992188 L172.577344,7.18125 L174.417187,13.0992188 Z M186.171094,19.4625 L186.171094,13.4390625 L188.397656,13.4390625 L191.409375,19.4625 L195.815625,19.4625 L195.815625,19.2867187 L192.253125,12.4078125 C193.276562,11.9234375 194.028516,11.290625 194.508984,10.509375 C194.989453,9.728125 195.229687,8.74375 195.229687,7.55625 C195.229687,5.915625 194.659375,4.64609375 193.51875,3.74765625 C192.378125,2.84921875 190.796094,2.4 188.772656,2.4 L188.772656,2.4 L182.057812,2.4 L182.057812,19.4625 L186.171094,19.4625 Z M188.772656,10.2632813 L186.171094,10.2632813 L186.171094,5.57578125 L188.772656,5.57578125 C189.546094,5.57578125 190.132031,5.78476563 190.530469,6.20273438 C190.928906,6.62070313 191.128125,7.196875 191.128125,7.93125 C191.128125,8.665625 190.930859,9.23789063 190.536328,9.64804688 C190.141797,10.0582031 189.553906,10.2632813 188.772656,10.2632813 L188.772656,10.2632813 Z M209.467969,19.4625 L209.467969,16.2984375 L201.827344,16.2984375 L201.827344,12.2320313 L208.296094,12.2320313 L208.296094,9.1734375 L201.827344,9.1734375 L201.827344,5.57578125 L209.491406,5.57578125 L209.491406,2.4 L197.714062,2.4 L197.714062,19.4625 L209.467969,19.4625 Z M8.92265625,48.496875 C10.2976562,48.496875 11.4890625,48.2546875 12.496875,47.7703125 C13.5046875,47.2859375 14.278125,46.5808594 14.8171875,45.6550781 C15.35625,44.7292969 15.6257812,43.6335937 15.6257812,42.3679687 L15.6257812,42.3679687 L15.6257812,31.2 L11.5125,31.2 L11.5125,42.3445312 C11.5125,43.3992187 11.29375,44.1609375 10.85625,44.6296875 C10.41875,45.0984375 9.77421875,45.3328125 8.92265625,45.3328125 C7.23515625,45.3328125 6.36796875,44.3992187 6.32109375,42.5320312 L6.32109375,42.5320312 L6.32109375,31.2 L2.184375,31.2 L2.184375,42.45 C2.2078125,44.325 2.8171875,45.8015625 4.0125,46.8796875 C5.2078125,47.9578125 6.84453125,48.496875 8.92265625,48.496875 Z M21.684375,48.2625 L24.5554687,42.4851562 L27.4265625,48.2625 L32.1726563,48.2625 L27.2742187,39.6609375 L32.04375,31.2 L27.3445312,31.2 L24.5554687,36.871875 L21.7664062,31.2 L17.0789062,31.2 L21.8367187,39.6609375 L16.95,48.2625 L21.684375,48.2625 Z M46.2351563,48.496875 C47.5945313,48.496875 48.8035156,48.246875 49.8621094,47.746875 C50.9207031,47.246875 51.7429688,46.5417969 52.3289063,45.6316406 C52.9148438,44.7214844 53.2351563,43.6726562 53.2898438,42.4851562 L53.2898438,42.4851562 L49.2,42.4851562 C49.16875,43.4539062 48.903125,44.1609375 48.403125,44.60625 C47.903125,45.0515625 47.1804688,45.2742187 46.2351563,45.2742187 C45.1179688,45.2742187 44.3308594,44.8835937 43.8738281,44.1023437 C43.4167969,43.3210937 43.1882813,42.0203125 43.1882813,40.2 L43.1882813,40.2 L43.1882813,38.9929687 C43.2117188,37.3132812 43.4617188,36.090625 43.9382813,35.325 C44.4148438,34.559375 45.1648438,34.1765625 46.1882813,34.1765625 C47.1960938,34.1765625 47.9460938,34.403125 48.4382813,34.85625 C48.9304688,35.309375 49.1921875,36.0554687 49.2234375,37.0945312 L49.2234375,37.0945312 L53.325,37.0945312 C53.153125,35.1804687 52.4382813,33.6785156 51.1804688,32.5886719 C49.9226563,31.4988281 48.2585938,30.9539062 46.1882813,30.9539062 C44.7507813,30.9539062 43.4851563,31.2957031 42.3914063,31.9792969 C41.2976563,32.6628906 40.4597656,33.6316406 39.8777344,34.8855469 C39.2957031,36.1394531 39.0046875,37.6023437 39.0046875,39.2742187 L39.0046875,39.2742187 L39.0046875,40.1179687 C39.0046875,42.7820312 39.6492188,44.8445312 40.9382813,46.3054687 C42.2273438,47.7664062 43.9929688,48.496875 46.2351563,48.496875 Z M62.2429688,48.496875 C63.6960938,48.496875 64.9910156,48.1511719 66.1277344,47.4597656 C67.2644531,46.7683594 68.1414063,45.7820312 68.7585938,44.5007812 C69.3757813,43.2195312 69.684375,41.746875 69.684375,40.0828125 L69.684375,40.0828125 L69.684375,39.2976562 C69.6765625,37.6570312 69.3582031,36.2019531 68.7292969,34.9324219 C68.1003906,33.6628906 67.2195313,32.684375 66.0867188,31.996875 C64.9539063,31.309375 63.6648438,30.965625 62.2195313,30.965625 C60.7585938,30.965625 59.4558594,31.3132812 58.3113281,32.0085937 C57.1667969,32.7039062 56.2878906,33.6902344 55.6746094,34.9675781 C55.0613281,36.2449219 54.7546875,37.7195312 54.7546875,39.3914062 L54.7546875,39.3914062 L54.7546875,40.3523437 C54.7859375,41.9617187 55.1160156,43.3875 55.7449219,44.6296875 C56.3738281,45.871875 57.2507813,46.8269531 58.3757813,47.4949219 C59.5007813,48.1628906 60.7898438,48.496875 62.2429688,48.496875 Z M62.2429688,45.2859375 C61.1492188,45.2859375 60.325,44.8367187 59.7703125,43.9382812 C59.215625,43.0398437 58.9382813,41.7546875 58.9382813,40.0828125 L58.9382813,40.0828125 L58.95,38.8289062 C59.0671875,35.7351562 60.1570313,34.1882812 62.2195313,34.1882812 C63.2742188,34.1882812 64.0847656,34.6277344 64.6511719,35.5066406 C65.2175781,36.3855469 65.5007813,37.6726562 65.5007813,39.3679687 L65.5007813,39.3679687 L65.5007813,40.153125 C65.4929688,41.809375 65.2078125,43.0789062 64.6453125,43.9617187 C64.0828125,44.8445312 63.2820313,45.2859375 62.2429688,45.2859375 Z M75.91875,48.2625 L75.91875,37.6453125 L81.965625,48.2625 L86.0554688,48.2625 L86.0554688,31.2 L81.9539063,31.2 L81.9539063,41.8171875 L75.91875,31.2 L71.8054688,31.2 L71.8054688,48.2625 L75.91875,48.2625 Z M95.2546875,48.496875 C97.215625,48.496875 98.7585938,48.0710937 99.8835938,47.2195312 C101.008594,46.3679687 101.571094,45.1960937 101.571094,43.7039062 C101.571094,41.8367187 100.649219,40.371875 98.8054688,39.309375 C98.0476563,38.871875 97.0789063,38.4636719 95.8992188,38.0847656 C94.7195313,37.7058594 93.8953125,37.3386719 93.4265625,36.9832031 C92.9578125,36.6277344 92.7234375,36.23125 92.7234375,35.79375 C92.7234375,35.29375 92.9363281,34.8816406 93.3621094,34.5574219 C93.7878906,34.2332031 94.3679688,34.0710937 95.1023438,34.0710937 C95.8289063,34.0710937 96.4050781,34.2625 96.8308594,34.6453125 C97.2566406,35.028125 97.4695313,35.5671875 97.4695313,36.2625 L97.4695313,36.2625 L101.571094,36.2625 C101.571094,35.2234375 101.301563,34.2996094 100.7625,33.4910156 C100.223438,32.6824219 99.4675781,32.059375 98.4949219,31.621875 C97.5222656,31.184375 96.4226563,30.965625 95.1960938,30.965625 C93.9382813,30.965625 92.8054688,31.1667969 91.7976563,31.5691406 C90.7898438,31.9714844 90.0105469,32.5339844 89.4597656,33.2566406 C88.9089844,33.9792969 88.6335938,34.8132812 88.6335938,35.7585937 C88.6335938,37.6570312 89.7390625,39.1492187 91.95,40.2351562 C92.6296875,40.5710937 93.5046875,40.91875 94.575,41.278125 C95.6453125,41.6375 96.3933594,41.9851562 96.8191406,42.3210937 C97.2449219,42.6570312 97.4578125,43.1257812 97.4578125,43.7273437 C97.4578125,44.2585937 97.2605469,44.6707031 96.8660156,44.9636719 C96.4714844,45.2566406 95.934375,45.403125 95.2546875,45.403125 C94.1921875,45.403125 93.4246094,45.1863281 92.9519531,44.7527344 C92.4792969,44.3191406 92.2429688,43.6453125 92.2429688,42.73125 L92.2429688,42.73125 L88.1179688,42.73125 C88.1179688,43.85625 88.4011719,44.8503906 88.9675781,45.7136719 C89.5339844,46.5769531 90.3777344,47.2566406 91.4988281,47.7527344 C92.6199219,48.2488281 93.871875,48.496875 95.2546875,48.496875 Z M110.360156,48.496875 C111.735156,48.496875 112.926563,48.2546875 113.934375,47.7703125 C114.942188,47.2859375 115.715625,46.5808594 116.254688,45.6550781 C116.79375,44.7292969 117.063281,43.6335937 117.063281,42.3679687 L117.063281,42.3679687 L117.063281,31.2 L112.95,31.2 L112.95,42.3445312 C112.95,43.3992187 112.73125,44.1609375 112.29375,44.6296875 C111.85625,45.0984375 111.211719,45.3328125 110.360156,45.3328125 C108.672656,45.3328125 107.805469,44.3992187 107.758594,42.5320312 L107.758594,42.5320312 L107.758594,31.2 L103.621875,31.2 L103.621875,42.45 C103.645313,44.325 104.254688,45.8015625 105.45,46.8796875 C106.645313,47.9578125 108.282031,48.496875 110.360156,48.496875 Z M130.903125,48.2625 L130.903125,45.0984375 L123.742969,45.0984375 L123.742969,31.2 L119.629688,31.2 L119.629688,48.2625 L130.903125,48.2625 Z M140.910937,48.2625 L140.910937,34.3757812 L146.032031,34.3757812 L146.032031,31.2 L131.770312,31.2 L131.770312,34.3757812 L136.797656,34.3757812 L136.797656,48.2625 L140.910937,48.2625 Z M150.836719,48.2625 L151.821094,45.075 L157.457812,45.075 L158.453906,48.2625 L162.871875,48.2625 L156.567187,31.2 L152.7,31.2 L146.442187,48.2625 L150.836719,48.2625 Z M156.473437,41.8992187 L152.805469,41.8992187 L154.633594,35.98125 L156.473437,41.8992187 Z M168.227344,48.2625 L168.227344,37.6453125 L174.274219,48.2625 L178.364062,48.2625 L178.364062,31.2 L174.2625,31.2 L174.2625,41.8171875 L168.227344,31.2 L164.114062,31.2 L164.114062,48.2625 L168.227344,48.2625 Z M187.715625,48.496875 C189.075,48.496875 190.283984,48.246875 191.342578,47.746875 C192.401172,47.246875 193.223437,46.5417969 193.809375,45.6316406 C194.395312,44.7214844 194.715625,43.6726562 194.770312,42.4851562 L194.770312,42.4851562 L190.680469,42.4851562 C190.649219,43.4539062 190.383594,44.1609375 189.883594,44.60625 C189.383594,45.0515625 188.660937,45.2742187 187.715625,45.2742187 C186.598437,45.2742187 185.811328,44.8835937 185.354297,44.1023437 C184.897266,43.3210937 184.66875,42.0203125 184.66875,40.2 L184.66875,40.2 L184.66875,38.9929687 C184.692187,37.3132812 184.942187,36.090625 185.41875,35.325 C185.895312,34.559375 186.645312,34.1765625 187.66875,34.1765625 C188.676562,34.1765625 189.426562,34.403125 189.91875,34.85625 C190.410937,35.309375 190.672656,36.0554687 190.703906,37.0945312 L190.703906,37.0945312 L194.805469,37.0945312 C194.633594,35.1804687 193.91875,33.6785156 192.660937,32.5886719 C191.403125,31.4988281 189.739062,30.9539062 187.66875,30.9539062 C186.23125,30.9539062 184.965625,31.2957031 183.871875,31.9792969 C182.778125,32.6628906 181.940234,33.6316406 181.358203,34.8855469 C180.776172,36.1394531 180.485156,37.6023437 180.485156,39.2742187 L180.485156,39.2742187 L180.485156,40.1179687 C180.485156,42.7820312 181.129687,44.8445312 182.41875,46.3054687 C183.707812,47.7664062 185.473437,48.496875 187.715625,48.496875 Z M205.047656,48.2625 L205.047656,42.1335937 L210.54375,31.2 L206.102344,31.2 L202.961719,38.60625 L199.809375,31.2 L195.391406,31.2 L200.875781,42.1335937 L200.875781,48.2625 L205.047656,48.2625 Z" id="WEAREUXCONSULTANCY" fill="#000000" fill-rule="nonzero"></path>
            </g>
        </g>
    </g>
</svg>