<?xml version="1.0" encoding="UTF-8"?>
<svg width="214px" height="29px" viewBox="0 0 214 29" version="1.1" xmlns="http://www.w3.org/2000/svg" xmlns:xlink="http://www.w3.org/1999/xlink">
    <!-- Generator: Sketch 61.2 (89653) - https://sketch.com -->
    <title>m_logo_01</title>
    <desc>Created with Sketch.</desc>
    <g id="Page-1" stroke="none" stroke-width="1" fill="none" fill-rule="evenodd">
        <g id="m_06navi_01" transform="translate(-64.000000, -53.000000)">
            <g id="m_logo_01" transform="translate(60.000000, 44.000000)">
                <rect id="Rectangle" fill="#FFFFFF" opacity="0" x="0" y="0" width="218.4" height="46.2"></rect>
                <path d="M10.7816406,37.1 L10.7816406,19.7585937 L20.6582031,37.1 L27.3382812,37.1 L27.3382812,9.23125 L20.6390625,9.23125 L20.6390625,26.5726562 L10.7816406,9.23125 L4.06328125,9.23125 L4.06328125,37.1 L10.7816406,37.1 Z M50.7855469,37.1 L50.7855469,31.9320312 L38.3058594,31.9320312 L38.3058594,25.2902344 L48.8714844,25.2902344 L48.8714844,20.2945312 L38.3058594,20.2945312 L38.3058594,14.4183594 L50.8238281,14.4183594 L50.8238281,9.23125 L31.5875,9.23125 L31.5875,37.1 L50.7855469,37.1 Z M67.0359375,37.1 L67.0359375,14.4183594 L75.4003906,14.4183594 L75.4003906,9.23125 L52.10625,9.23125 L52.10625,14.4183594 L60.3175781,14.4183594 L60.3175781,37.1 L67.0359375,37.1 Z M85.3917969,37.1 L85.3917969,9.23125 L78.6925781,9.23125 L78.6925781,37.1 L85.3917969,37.1 Z M104.551562,37.1 L113.930469,9.23125 L106.427344,9.23125 L100.876562,29.5203125 L95.3449219,9.23125 L87.8992187,9.23125 L97.2015625,37.1 L104.551562,37.1 Z M135.157422,37.1 L135.157422,31.9320312 L122.677734,31.9320312 L122.677734,25.2902344 L133.243359,25.2902344 L133.243359,20.2945312 L122.677734,20.2945312 L122.677734,14.4183594 L135.195703,14.4183594 L135.195703,9.23125 L115.959375,9.23125 L115.959375,37.1 L135.157422,37.1 Z M154.374609,37.1 L154.374609,27.2617188 L158.011328,27.2617188 L162.930469,37.1 L170.127344,37.1 L170.127344,36.8128906 L164.308594,25.5773438 C165.980208,24.7861979 167.208398,23.7526042 167.993164,22.4765625 C168.77793,21.2005208 169.170312,19.5927083 169.170312,17.653125 C169.170312,14.9734375 168.238802,12.8998698 166.375781,11.4324219 C164.51276,9.96497396 161.928776,9.23125 158.623828,9.23125 L158.623828,9.23125 L147.65625,9.23125 L147.65625,37.1 L154.374609,37.1 Z M158.623828,22.0746094 L154.374609,22.0746094 L154.374609,14.4183594 L158.623828,14.4183594 C159.887109,14.4183594 160.844141,14.7597005 161.494922,15.4423828 C162.145703,16.1250651 162.471094,17.0661458 162.471094,18.265625 C162.471094,19.4651042 162.148893,20.3998047 161.504492,21.0697266 C160.860091,21.7396484 159.89987,22.0746094 158.623828,22.0746094 L158.623828,22.0746094 Z M192.426172,37.1 L192.426172,31.9320312 L179.946484,31.9320312 L179.946484,25.2902344 L190.512109,25.2902344 L190.512109,20.2945312 L179.946484,20.2945312 L179.946484,14.4183594 L192.464453,14.4183594 L192.464453,9.23125 L173.228125,9.23125 L173.228125,37.1 L192.426172,37.1 Z M204.331641,37.1 C206.743359,37.0872396 208.928581,36.5098307 210.887305,35.3677734 C212.846029,34.2257161 214.364518,32.6434245 215.442773,30.6208984 C216.521029,28.5983724 217.060156,26.3110677 217.060156,23.7589844 L217.060156,23.7589844 L217.060156,22.4765625 C217.047396,19.95 216.489128,17.6690755 215.385352,15.6337891 C214.281576,13.5985026 212.747135,12.0225911 210.782031,10.9060547 C208.816927,9.78951823 206.602995,9.23125 204.140234,9.23125 L204.140234,9.23125 L195.163281,9.23125 L195.163281,37.1 L204.331641,37.1 Z M204.216797,31.9320312 L201.881641,31.9320312 L201.881641,14.4183594 L204.140234,14.4183594 C206.118099,14.4183594 207.623828,15.1010417 208.657422,16.4664062 C209.691016,17.8317708 210.207812,19.8606771 210.207812,22.553125 L210.207812,22.553125 L210.207812,23.7589844 C210.207812,26.4641927 209.691016,28.5026693 208.657422,29.8744141 C207.623828,31.2461589 206.14362,31.9320312 204.216797,31.9320312 L204.216797,31.9320312 Z" id="NETIVERED" fill="#000000" fill-rule="nonzero"></path>
            </g>
        </g>
    </g>
</svg>