<?xml version="1.0" encoding="UTF-8"?>
<svg width="476px" height="231px" viewBox="0 0 476 231" version="1.1" xmlns="http://www.w3.org/2000/svg" xmlns:xlink="http://www.w3.org/1999/xlink">
    <!-- Generator: Sketch 64 (93537) - https://sketch.com -->
    <title>pc_ico_contact_03</title>
    <desc>Created with Sketch.</desc>
    <g id="Publish_PC" stroke="none" stroke-width="1" fill="none" fill-rule="evenodd">
        <g id="pc_05contact" transform="translate(-1439.000000, -646.000000)">
            <g id="pc_ico_contact_03" transform="translate(1439.000000, 646.636868)">
                <g id="pc_ico_contact_03_1" stroke="#000000" stroke-width="4">
                    <circle id="Oval-Copy-3" cx="115" cy="115" r="113"></circle>
                </g>
                <g id="pc_ico_contact_03_2" transform="translate(246.000000, 0.363132)" fill="#000000" fill-rule="nonzero">
                    <g id="pc_ico_m_03_1">
                        <path d="M195.156153,31.2028762 C196.115799,32.1002489 197.063914,33.0169781 198,33.953064 L198,33.953064 L33.953064,198 C33.0169781,197.063914 32.1002489,196.115799 31.2028762,195.156153 Z M189.114724,25.9292954 C190.149013,26.7713103 191.172164,27.6338334 192.183633,28.5168646 L28.5168646,192.183633 C27.6338334,191.172164 26.7713103,190.149013 25.9292954,189.114724 Z M182.678339,21.0518577 C183.778636,21.8267477 184.868463,22.6230304 185.947242,23.4407058 L23.4407058,185.947242 C22.6232784,184.86879 21.8272308,183.779297 21.0525629,182.67934 Z M175.832822,16.585122 C177.001197,17.289696 178.159818,18.0167196 179.308066,18.7661928 L18.7661928,179.308066 C18.0167196,178.159818 17.289696,177.001197 16.585122,175.832822 Z M168.554623,12.5476868 C169.795532,13.1784571 171.027453,13.8330094 172.249709,14.511344 L14.511344,172.249709 C13.8330094,171.027453 13.1784571,169.795532 12.5476868,168.554623 Z M160.82,8.97014383 C162.137567,9.52131346 163.447017,10.0978835 164.747601,10.6998542 L10.6998542,164.747601 C10.0977314,163.446688 9.52102205,162.136906 8.96972597,160.819001 Z M152.586899,5.88936477 C153.987743,6.3535329 155.38148,6.84513891 156.767271,7.36418297 L7.364558,156.768272 C6.84525238,155.381822 6.35341108,153.987419 5.88903392,152.585901 Z M143.802712,3.35933397 C145.296936,3.72649481 146.78527,4.12375286 148.266749,4.55110831 L4.55110831,148.266749 C4.12375286,146.78527 3.72649481,145.296936 3.35933397,143.802712 Z M134.392224,1.45589383 C135.994194,1.71154719 137.591822,2.00087016 139.183966,2.32386297 L2.32365989,139.182965 C2.00074889,137.591152 1.71149361,135.993859 1.45589383,134.392224 Z M124.243929,0.290088532 C125.971566,0.412150439 127.696977,0.572732906 129.418768,0.7718362 L0.7718362,129.418768 C0.572732906,127.696977 0.412150439,125.971566 0.290088532,124.243929 Z M113.184561,0.0344744039 C115.070366,-0.0113730994 116.957061,-0.0114912208 118.842839,0.0341203847 L0.0340961961,118.841839 C-0.0114911776,116.956394 -0.0113649934,115.070033 0.0344744039,113.184561 Z M107.233358,0.331347009 L0.331347009,107.233358 C0.490485847,105.126321 0.706947682,103.022781 0.980732028,100.925274 L100.925274,0.980732028 C103.022781,0.706947682 105.126321,0.490485847 107.233358,0.331347009 Z M94.1869746,2.06201482 L2.06182408,94.1879748 C2.52803862,91.7432546 3.07331684,89.31061 3.69765796,86.8941461 L86.8941461,3.69765796 C89.3102805,3.07340198 91.7425911,2.52818734 94.1869746,2.06201482 Z M78.8432638,6.09237252 L6.09203464,78.8442652 C7.14136336,75.7343198 8.32624684,72.6599969 9.64668329,69.6305125 L69.6315121,9.64624764 C72.660348,8.32612793 75.7340019,7.14150231 78.8432638,6.09237252 Z M58.2350962,15.3845261 L15.3839517,58.236095 C20.3714433,49.5633174 26.5716146,41.3972225 33.9844185,33.9844185 C41.3969379,26.5718991 49.5626905,20.3719193 58.2350962,15.3845261 Z" id="Combined-Shape"></path>
                    </g>
                    <g id="pc_ico_m_03_2" transform="translate(32.000000, 32.000000)">
                        <path d="M0,164.046936 C45.2829939,209.32993 118.715271,209.315892 164.015581,164.015581 C209.315892,118.715271 209.32993,45.2829939 164.046936,0 L0,164.046936 Z" id="shape"></path>
                    </g>
                </g>
            </g>
        </g>
    </g>
</svg>