<?xml version="1.0" encoding="UTF-8"?>
<svg width="196px" height="196px" viewBox="0 0 196 196" version="1.1" xmlns="http://www.w3.org/2000/svg" xmlns:xlink="http://www.w3.org/1999/xlink">
    <!-- Generator: Sketch 64 (93537) - https://sketch.com -->
    <title>pc_ico_contact_03_3</title>
    <desc>Created with Sketch.</desc>
    <g id="Publish_PC" stroke="none" stroke-width="1" fill="none" fill-rule="evenodd">
        <g id="pc_05contact" transform="translate(-1725.000000, -648.000000)" fill="#000000" fill-rule="nonzero">
            <g id="pc_ico_contact_03_3" transform="translate(1725.000000, 648.000000)">
                <path d="M192.47169,30.2263528 C193.36723,31.0498538 194.252854,31.8901823 195.128155,32.7473384 L196,33.6101038 L33.6101038,196 C32.4522711,194.842167 31.3243541,193.665744 30.2263528,192.47169 L192.47169,30.2263528 Z M185.130704,24.0184656 C186.601225,25.1603061 188.050354,26.3428604 189.476568,27.5661287 L27.5652693,189.475566 C26.3423065,188.049675 25.1600387,186.60088 24.0184656,185.130704 L185.130704,24.0184656 Z M177.813387,18.7839764 C179.190009,19.6890365 180.551433,20.6268038 181.896561,21.5972783 L21.5972783,181.896561 C20.6268038,180.551433 19.6890365,179.190009 18.7839764,177.813387 L177.813387,18.7839764 Z M169.329888,13.7190105 C171.021396,14.6318022 172.694813,15.5901443 174.348334,16.5940373 L16.5940373,174.348334 C15.5901443,172.694813 14.6318022,171.021396 13.7190105,169.329888 L169.329888,13.7190105 Z M160.892805,9.60573951 C162.474069,10.2975201 164.042913,11.0266667 165.597996,11.7931795 L11.7931795,165.597996 C11.0266667,164.042913 10.2975201,162.474069 9.60573951,160.892805 L160.892805,9.60573951 Z M151.100525,5.84808513 C153.046643,6.494022 154.978878,7.19346886 156.894934,7.94642616 L7.94642616,156.894934 C7.19346886,154.978878 6.494022,153.046643 5.84808513,151.100525 L151.100525,5.84808513 Z M141.320841,3.07750582 C143.150529,3.50924055 144.971664,3.98640098 146.782449,4.50898745 L4.50898745,146.782449 C3.98640098,144.971664 3.50924055,143.150529 3.07750582,141.320841 L141.320841,3.07750582 Z M129.866481,0.980629933 C132.13972,1.27889852 134.405715,1.64520863 136.661175,2.0795609 L2.0795609,136.661175 C1.64520863,134.405715 1.27889852,132.13972 0.980629933,129.866481 L129.866481,0.980629933 Z M117.271052,0.0253911284 C119.771678,0.0778291011 122.27089,0.21148867 124.76439,0.426370657 L0.426370657,124.76439 C0.21148867,122.27089 0.0778291011,119.771678 0.0253911284,117.271052 L117.271052,0.0253911284 Z M111.595738,0.0458182725 L0.0458182725,111.595738 C0.114760055,109.148631 0.26150315,106.703281 0.486046788,104.263716 L104.263716,0.486046788 C106.215368,0.306411877 108.170722,0.176569314 110.127717,0.0965194931 L111.595738,0.0458182725 Z M97.8293386,1.2610944 L1.2610944,97.8293386 C1.75063786,94.5454339 2.38270691,91.2786294 3.15729964,88.0389114 L88.0389114,3.15729964 C90.8158126,2.49336301 93.6126139,1.93413766 96.423027,1.47962479 L97.8293386,1.2610944 Z M80.2208399,5.3214056 L5.3214056,80.2208399 C6.49374828,76.5027769 7.85979434,72.8325267 9.41954077,69.225912 L69.225912,9.41954077 C72.4317917,8.0330995 75.6879513,6.79970543 78.9832781,5.71936069 L80.2208399,5.3214056 Z M57.9114836,15.0774176 L15.0774176,57.9114836 C20.0402246,49.2281439 26.2281486,41.0541345 33.6411416,33.6411416 C41.0541345,26.2281486 49.2281439,20.0402246 57.9114836,15.0774176 Z" id="Shape"></path>
            </g>
        </g>
    </g>
</svg>