<?xml version="1.0" encoding="UTF-8"?>
<svg width="854px" height="418px" viewBox="0 0 854 418" version="1.1" xmlns="http://www.w3.org/2000/svg" xmlns:xlink="http://www.w3.org/1999/xlink">
    <title>pc_ico_b_about02</title>
    <g id="Publish_PC" stroke="none" stroke-width="1" fill="none" fill-rule="evenodd">
        <g id="pc_02about-" transform="translate(-160.000000, -4166.000000)">
            <g id="pc_ico_b_about02" transform="translate(160.000000, 4166.000000)">
                <rect id="Rectangle" fill="#616161" opacity="0" x="0" y="0" width="854" height="418"></rect>
                <path d="M112.092285,392.68 L112.092285,365.866035 L136.137695,318.031563 L116.706543,318.031563 L102.966309,350.433906 L89.1748047,318.031563 L69.8461914,318.031563 L93.840332,365.866035 L93.840332,392.68 L112.092285,392.68 Z M166.567871,392.68 L166.567871,346.229805 L193.022949,392.68 L210.916016,392.68 L210.916016,318.031563 L192.97168,318.031563 L192.97168,364.481758 L166.567871,318.031563 L148.572266,318.031563 L148.572266,392.68 L166.567871,392.68 Z" id="YN" fill="#000000" fill-rule="nonzero"></path>
                <path d="M32.1977539,392.68 C38.6577148,392.64582 44.5109863,391.099189 49.7575684,388.040107 C55.0041504,384.981025 59.0715332,380.742744 61.9597168,375.325264 C64.8479004,369.907783 66.2919922,363.781074 66.2919922,356.945137 L66.2919922,356.945137 L66.2919922,353.510078 C66.2578125,346.7425 64.7624512,340.632881 61.8059082,335.181221 C58.8493652,329.729561 54.7392578,325.508369 49.4755859,322.517646 C44.2119141,319.526924 38.2817383,318.031563 31.6850586,318.031563 L31.6850586,318.031563 L7.63964844,318.031563 L7.63964844,392.68 L32.1977539,392.68 Z M31.8901367,378.837227 L25.6352539,378.837227 L25.6352539,331.925605 L31.6850586,331.925605 C36.9829102,331.925605 41.0161133,333.754219 43.784668,337.411445 C46.5532227,341.068672 47.9375,346.503242 47.9375,353.715156 L47.9375,353.715156 L47.9375,356.945137 C47.9375,364.19123 46.5532227,369.651436 43.784668,373.325752 C41.0161133,377.000068 37.0512695,378.837227 31.8901367,378.837227 L31.8901367,378.837227 Z" id="D" fill="#FF3D32" fill-rule="nonzero"></path>
                <g id="EFFE" transform="translate(5.639648, 170.191563)" fill-rule="nonzero">
                    <polygon id="E" fill="#FF3D32" points="51.4233398 74.6484375 51.4233398 60.8056641 17.9956055 60.8056641 17.9956055 43.0151367 46.2963867 43.0151367 46.2963867 29.6337891 17.9956055 29.6337891 17.9956055 13.894043 51.5258789 13.894043 51.5258789 -1.13686838e-13 0 -1.13686838e-13 0 74.6484375"></polygon>
                    <path d="M83.7504884,74.6484375 L83.7504884,44.9121094 L112.769043,44.9121094 L112.769043,31.0693359 L83.7504884,31.0693359 L83.7504884,13.894043 L115.691406,13.894043 L115.691406,-1.13686838e-13 L65.7548829,-1.13686838e-13 L65.7548829,74.6484375 L83.7504884,74.6484375 Z M148.172363,74.6484375 L148.172363,44.9121094 L177.190918,44.9121094 L177.190918,31.0693359 L148.172363,31.0693359 L148.172363,13.894043 L180.113281,13.894043 L180.113281,-1.13686838e-13 L130.176758,-1.13686838e-13 L130.176758,74.6484375 L148.172363,74.6484375 Z M246.021973,74.6484375 L246.021973,60.8056641 L212.594239,60.8056641 L212.594239,43.0151367 L240.89502,43.0151367 L240.89502,29.6337891 L212.594239,29.6337891 L212.594239,13.894043 L246.124512,13.894043 L246.124512,-1.13686838e-13 L194.598633,-1.13686838e-13 L194.598633,74.6484375 L246.021973,74.6484375 Z" id="FFE" fill="#000000"></path>
                </g>
                <path d="M295.170898,245.865391 C301.118164,245.865391 306.407471,244.771641 311.038818,242.584141 C315.670166,240.396641 319.267578,237.311924 321.831055,233.32999 C324.394531,229.348057 325.795898,224.759434 326.035156,219.564121 L326.035156,219.564121 L308.14209,219.564121 C308.005371,223.802402 306.843262,226.895664 304.655762,228.843906 C302.468262,230.792148 299.306641,231.76627 295.170898,231.76627 C290.283203,231.76627 286.8396,230.057285 284.840088,226.639316 C282.840576,223.221348 281.84082,217.53043 281.84082,209.566563 L281.84082,209.566563 L281.84082,204.285801 C281.943359,196.937168 283.037109,191.588047 285.12207,188.238438 C287.207031,184.888828 290.488281,183.214023 294.96582,183.214023 C299.375,183.214023 302.65625,184.205234 304.80957,186.187656 C306.962891,188.170078 308.10791,191.434238 308.244629,195.980137 L308.244629,195.980137 L326.188965,195.980137 C325.437012,187.606113 322.30957,181.035068 316.806641,176.267002 C311.303711,171.498936 304.023438,169.114902 294.96582,169.114902 C288.676758,169.114902 283.139648,170.610264 278.354492,173.600986 C273.569336,176.591709 269.903564,180.82999 267.357178,186.31583 C264.810791,191.80167 263.537598,198.201816 263.537598,205.51627 L263.537598,205.51627 L263.537598,209.207676 C263.537598,220.862949 266.357422,229.886387 271.99707,236.277988 C277.636719,242.66959 285.361328,245.865391 295.170898,245.865391 Z" id="C" fill="#000000" fill-rule="nonzero"></path>
                <path d="M635.859843,244.84 L635.859843,184.085605 L658.264628,184.085605 L658.264628,170.191563 L595.869609,170.191563 L595.869609,184.085605 L617.864238,184.085605 L617.864238,244.84 L635.859843,244.84 Z M692.027324,244.84 L692.027324,170.191563 L674.082988,170.191563 L674.082988,244.84 L692.027324,244.84 Z M750.348125,244.84 L775.470195,170.191563 L755.372539,170.191563 L740.504375,224.537266 L725.68748,170.191563 L705.743633,170.191563 L730.660625,244.84 L750.348125,244.84 Z M839.328105,244.84 L839.328105,230.997227 L805.900371,230.997227 L805.900371,213.206699 L834.201152,213.206699 L834.201152,199.825352 L805.900371,199.825352 L805.900371,184.085605 L839.430644,184.085605 L839.430644,170.191563 L787.904766,170.191563 L787.904766,244.84 L839.328105,244.84 Z" id="TIVE" fill="#000000" fill-rule="nonzero"></path>
                <path d="M23.6352539,97 L23.6352539,70.6474609 L33.3764648,70.6474609 L46.5527344,97 L65.8300781,97 L65.8300781,96.230957 L50.2441406,66.1357422 C54.7216797,64.0166016 58.0114746,61.2480469 60.1135254,57.8300781 C62.2155762,54.4121094 63.2666016,50.1054688 63.2666016,44.9101562 C63.2666016,37.7324219 60.7714844,32.1782227 55.78125,28.2475586 C50.7910156,24.3168945 43.8696289,22.3515625 35.0170898,22.3515625 L35.0170898,22.3515625 L5.63964844,22.3515625 L5.63964844,97 L23.6352539,97 Z M35.0170898,56.753418 L23.6352539,56.753418 L23.6352539,36.2456055 L35.0170898,36.2456055 C38.4008789,36.2456055 40.9643555,37.1599121 42.7075195,38.9885254 C44.4506836,40.8171387 45.3222656,43.3378906 45.3222656,46.5507812 C45.3222656,49.7636719 44.4592285,52.267334 42.7331543,54.0617676 C41.0070801,55.8562012 38.4350586,56.753418 35.0170898,56.753418 L35.0170898,56.753418 Z" id="R" fill="#FF3D32" fill-rule="nonzero"></path>
                <path d="M604.963554,97 L609.270195,83.0546875 L633.930839,83.0546875 L638.28875,97 L657.617363,97 L630.034355,22.3515625 L613.11541,22.3515625 L585.73748,97 L604.963554,97 Z M629.624199,69.1606445 L613.576836,69.1606445 L621.574882,43.2695312 L629.624199,69.1606445 Z M688.047539,97 L688.047539,71.6728516 L699.531914,71.6728516 C708.623711,71.6728516 715.77581,69.4938965 720.988213,65.1359863 C726.200615,60.7780762 728.806816,54.9589844 728.806816,47.6787109 C728.806816,42.7568359 727.601982,38.3562012 725.192314,34.4768066 C722.782646,30.5974121 719.381767,27.6066895 714.989677,25.5046387 C710.597588,23.4025879 705.547539,22.3515625 699.839531,22.3515625 L699.839531,22.3515625 L670.051933,22.3515625 L670.051933,97 L688.047539,97 Z M699.839531,57.7788086 L688.047539,57.7788086 L688.047539,36.2456055 L700.044609,36.2456055 C703.291679,36.2797852 705.855156,37.3393555 707.735039,39.4243164 C709.614922,41.5092773 710.554863,44.2949219 710.554863,47.78125 C710.554863,50.9599609 709.640556,53.4208984 707.811943,55.1640625 C705.98333,56.9072266 703.325859,57.7788086 699.839531,57.7788086 L699.839531,57.7788086 Z M764.569023,97 L764.569023,22.3515625 L746.624687,22.3515625 L746.624687,97 L764.569023,97 Z M808.636894,97 C815.096855,96.9658203 820.950127,95.4191895 826.196709,92.3601074 C831.443291,89.3010254 835.510674,85.0627441 838.398857,79.6452637 C841.287041,74.2277832 842.731133,68.1010742 842.731133,61.2651367 L842.731133,61.2651367 L842.731133,57.8300781 C842.696953,51.0625 841.201592,44.9528809 838.245049,39.5012207 C835.288506,34.0495605 831.178398,29.8283691 825.914726,26.8376465 C820.651055,23.8469238 814.720879,22.3515625 808.124199,22.3515625 L808.124199,22.3515625 L784.078789,22.3515625 L784.078789,97 L808.636894,97 Z M808.329277,83.1572266 L802.074394,83.1572266 L802.074394,36.2456055 L808.124199,36.2456055 C813.422051,36.2456055 817.455254,38.0742188 820.223808,41.7314453 C822.992363,45.3886719 824.376641,50.8232422 824.376641,58.0351562 L824.376641,58.0351562 L824.376641,61.2651367 C824.376641,68.5112305 822.992363,73.9714355 820.223808,77.645752 C817.455254,81.3200684 813.49041,83.1572266 808.329277,83.1572266 L808.329277,83.1572266 Z" id="APID" fill="#000000" fill-rule="nonzero"></path>
                <path d="M578.41164,392.68 L582.718281,378.734687 L607.378925,378.734687 L611.736836,392.68 L631.065449,392.68 L603.482441,318.031562 L586.563496,318.031562 L559.185566,392.68 L578.41164,392.68 Z M603.072285,364.840645 L587.024921,364.840645 L595.022968,338.949531 L603.072285,364.840645 Z M661.495625,392.68 L661.495625,375.248359 L659.752461,339.513496 L677.850605,392.68 L689.745136,392.68 L707.792011,339.564766 L706.048847,375.248359 L706.048847,392.68 L724.095722,392.68 L724.095722,318.031562 L700.409199,318.031562 L683.797871,369.967598 L667.135273,318.031562 L643.500019,318.031562 L643.500019,392.68 L661.495625,392.68 Z M761.703633,392.68 L761.703633,318.031562 L743.759297,318.031562 L743.759297,392.68 L761.703633,392.68 Z M810.744648,393.705391 C816.691914,393.705391 821.981221,392.611641 826.612568,390.424141 C831.243916,388.236641 834.841328,385.151924 837.404805,381.16999 C839.968281,377.188057 841.369648,372.599434 841.608906,367.404121 L841.608906,367.404121 L823.71584,367.404121 C823.579121,371.642402 822.417012,374.735664 820.229512,376.683906 C818.042012,378.632148 814.880391,379.60627 810.744648,379.60627 C805.856953,379.60627 802.41335,377.897285 800.413838,374.479316 C798.414326,371.061348 797.41457,365.37043 797.41457,357.406562 L797.41457,357.406562 L797.41457,352.125801 C797.517109,344.777168 798.610859,339.428047 800.69582,336.078437 C802.780781,332.728828 806.062031,331.054023 810.53957,331.054023 C814.94875,331.054023 818.23,332.045234 820.38332,334.027656 C822.536641,336.010078 823.68166,339.274238 823.818379,343.820137 L823.818379,343.820137 L841.762715,343.820137 C841.010762,335.446113 837.88332,328.875068 832.380391,324.107002 C826.877461,319.338936 819.597187,316.954902 810.53957,316.954902 C804.250508,316.954902 798.713398,318.450264 793.928242,321.440986 C789.143086,324.431709 785.477314,328.66999 782.930928,334.15583 C780.384541,339.64167 779.111348,346.041816 779.111348,353.35627 L779.111348,353.35627 L779.111348,357.047676 C779.111348,368.702949 781.931172,377.726387 787.57082,384.117988 C793.210469,390.50959 800.935078,393.705391 810.744648,393.705391 Z" id="AMIC" fill="#000000" fill-rule="nonzero"></path>
            </g>
        </g>
    </g>
</svg>