<?xml version="1.0" encoding="UTF-8"?>
<svg width="1560px" height="858px" viewBox="0 0 1560 858" version="1.1" xmlns="http://www.w3.org/2000/svg" xmlns:xlink="http://www.w3.org/1999/xlink">
    <title>pc_ico_b_about05</title>
    <defs>
        <circle id="path-1" cx="1148.496" cy="123" r="123"></circle>
    </defs>
    <g id="Publish_PC" stroke="none" stroke-width="1" fill="none" fill-rule="evenodd">
        <g id="pc_02about-" transform="translate(-180.000000, -8095.000000)">
            <g id="pc_ico_b_about05" transform="translate(180.000000, 8095.000000)">
                <rect id="Rectangle" fill="#D8D8D8" opacity="0" x="0" y="0" width="1560" height="858"></rect>
                <g id="Group-2" transform="translate(50.504000, 20.000000)">
                    <circle id="Oval" stroke="#000000" stroke-width="4" cx="279.496" cy="123" r="121"></circle>
                    <circle id="Oval-Copy" stroke="#000000" stroke-width="4" cx="496.496" cy="123" r="121"></circle>
                    <circle id="Oval-Copy-2" stroke="#000000" stroke-width="4" cx="714.496" cy="123" r="121"></circle>
                    <circle id="Oval-Copy-3" stroke="#000000" stroke-width="4" cx="931.496" cy="123" r="121"></circle>
                    <g id="Oval-Copy-4">
                        <use fill="#000000" fill-rule="evenodd" style="mix-blend-mode: multiply;" xlink:href="#path-1"></use>
                        <circle stroke="#000000" stroke-width="3.402" stroke-linejoin="square" cx="1148.496" cy="123" r="121.299"></circle>
                    </g>
                    <circle id="Oval-Copy-5" fill="#C6C6C6" opacity="0.5" cx="1366.496" cy="123" r="123"></circle>
                    <path d="M238.052055,132.895 C239.917289,132.885234 241.592094,132.455547 243.076469,131.605937 C244.560844,130.756328 245.710746,129.560039 246.526176,128.01707 C247.341605,126.474102 247.74932,124.711406 247.74932,122.728984 L247.74932,122.728984 L247.74932,121.747539 C247.74932,119.765117 247.334281,117.995098 246.504203,116.43748 C245.674125,114.879863 244.51934,113.678691 243.039848,112.833965 C241.560355,111.989238 239.883109,111.566875 238.008109,111.566875 L238.008109,111.566875 L231.445609,111.566875 L231.445609,132.895 L238.052055,132.895 Z M237.964164,129.364727 L235.840141,129.364727 L235.840141,115.126445 L238.008109,115.126445 C239.736625,115.126445 241.050102,115.685527 241.948539,116.803691 C242.846977,117.921855 243.296195,119.564922 243.296195,121.732891 L243.296195,121.732891 L243.296195,122.86082 C243.276664,124.950664 242.812797,126.557109 241.904594,127.680156 C240.996391,128.803203 239.682914,129.364727 237.964164,129.364727 L237.964164,129.364727 Z M265.239555,132.895 L265.239555,129.364727 L255.337211,129.364727 L255.337211,123.651836 L263.774711,123.651836 L263.774711,120.209453 L255.337211,120.209453 L255.337211,115.126445 L265.210258,115.126445 L265.210258,111.566875 L250.94268,111.566875 L250.94268,132.895 L265.239555,132.895 Z M272.212211,132.895 L272.212211,124.17918 L280.649711,124.17918 L280.649711,120.634258 L272.212211,120.634258 L272.212211,115.126445 L281.704398,115.126445 L281.704398,111.566875 L267.81768,111.566875 L267.81768,132.895 L272.212211,132.895 Z M288.926078,132.895 L288.926078,111.566875 L284.531547,111.566875 L284.531547,132.895 L288.926078,132.895 Z M297.392875,132.895 L297.392875,118.861797 L305.947563,132.895 L310.342094,132.895 L310.342094,111.566875 L305.962211,111.566875 L305.962211,125.629375 L297.392875,111.566875 L292.998344,111.566875 L292.998344,132.895 L297.392875,132.895 Z M328.476859,132.895 L328.476859,129.364727 L318.574516,129.364727 L318.574516,123.651836 L327.012016,123.651836 L327.012016,120.209453 L318.574516,120.209453 L318.574516,115.126445 L328.447563,115.126445 L328.447563,111.566875 L314.179984,111.566875 L314.179984,132.895 L328.476859,132.895 Z" id="DEFINE" fill="#000000" fill-rule="nonzero"></path>
                    <path d="M434.348676,132.895 C436.21391,132.885234 437.888715,132.455547 439.37309,131.605937 C440.857465,130.756328 442.007367,129.560039 442.822797,128.01707 C443.638227,126.474102 444.045941,124.711406 444.045941,122.728984 L444.045941,122.728984 L444.045941,121.747539 C444.045941,119.765117 443.630902,117.995098 442.800824,116.43748 C441.970746,114.879863 440.815961,113.678691 439.336469,112.833965 C437.856977,111.989238 436.17973,111.566875 434.30473,111.566875 L434.30473,111.566875 L427.74223,111.566875 L427.74223,132.895 L434.348676,132.895 Z M434.260785,129.364727 L432.136762,129.364727 L432.136762,115.126445 L434.30473,115.126445 C436.033246,115.126445 437.346723,115.685527 438.24516,116.803691 C439.143598,117.921855 439.592816,119.564922 439.592816,121.732891 L439.592816,121.732891 L439.592816,122.86082 C439.573285,124.950664 439.109418,126.557109 438.201215,127.680156 C437.293012,128.803203 435.979535,129.364727 434.260785,129.364727 L434.260785,129.364727 Z M451.912152,132.895 L451.912152,111.566875 L447.517621,111.566875 L447.517621,132.895 L451.912152,132.895 Z M463.718793,133.187969 C466.082074,133.187969 467.961957,132.663066 469.358441,131.613262 C470.754926,130.563457 471.453168,129.115703 471.453168,127.27 C471.453168,125.609844 470.881879,124.223125 469.739301,123.109844 C468.596723,121.996562 466.775434,121.063945 464.275434,120.311992 C462.918012,119.901836 461.89018,119.462383 461.191937,118.993633 C460.493695,118.524883 460.144574,117.943828 460.144574,117.250469 C460.144574,116.508281 460.442426,115.910137 461.038129,115.456035 C461.633832,115.001934 462.468793,114.774883 463.543012,114.774883 C464.656293,114.774883 465.520551,115.045879 466.135785,115.587871 C466.75102,116.129863 467.058637,116.889141 467.058637,117.865703 L467.058637,117.865703 L471.453168,117.865703 C471.453168,116.586406 471.123578,115.443828 470.464398,114.437969 C469.805219,113.432109 468.879926,112.653301 467.68852,112.101543 C466.497113,111.549785 465.139691,111.273906 463.616254,111.273906 C462.102582,111.273906 460.737836,111.527812 459.522016,112.035625 C458.306195,112.543437 457.373578,113.249004 456.724164,114.152324 C456.07475,115.055645 455.750043,116.083477 455.750043,117.23582 C455.750043,119.452617 456.96098,121.215312 459.382855,122.523906 C460.271527,123.002422 461.477582,123.488262 463.00102,123.981426 C464.524457,124.47459 465.579145,124.94334 466.165082,125.387676 C466.75102,125.832012 467.043988,126.469219 467.043988,127.299297 C467.043988,128.061016 466.75102,128.654277 466.165082,129.079082 C465.579145,129.503887 464.763715,129.716289 463.718793,129.716289 C460.906293,129.716289 459.500043,128.539531 459.500043,126.186016 L459.500043,126.186016 L455.090863,126.186016 C455.090863,127.562969 455.444867,128.773906 456.152875,129.818828 C456.860883,130.86375 457.888715,131.686504 459.236371,132.28709 C460.584027,132.887676 462.078168,133.187969 463.718793,133.187969 Z M482.58598,133.187969 C485.08598,133.187969 487.100141,132.528789 488.628461,131.21043 C490.156781,129.89207 491.003949,128.08543 491.169965,125.790508 L491.169965,125.790508 L486.775434,125.790508 C486.677777,127.089336 486.294477,128.048809 485.625531,128.668926 C484.956586,129.289043 483.943402,129.599102 482.58598,129.599102 C481.082074,129.599102 479.981,129.066875 479.282758,128.002422 C478.584516,126.937969 478.235395,125.253398 478.235395,122.948711 L478.235395,122.948711 L478.235395,121.337383 C478.254926,119.130352 478.628461,117.501934 479.356,116.452129 C480.083539,115.402324 481.17973,114.877422 482.644574,114.877422 C483.99223,114.877422 484.995648,115.18748 485.654828,115.807598 C486.314008,116.427715 486.697309,117.42625 486.80473,118.803203 L486.80473,118.803203 L491.199262,118.803203 C490.964887,116.420391 490.095746,114.569805 488.59184,113.251445 C487.087934,111.933086 485.105512,111.273906 482.644574,111.273906 C480.86723,111.273906 479.307172,111.691387 477.964398,112.526348 C476.621625,113.361309 475.58891,114.560039 474.866254,116.122539 C474.143598,117.685039 473.78227,119.49168 473.78227,121.542461 L473.78227,121.542461 L473.78227,122.846172 C473.78227,126.059062 474.565961,128.585918 476.133344,130.426738 C477.700727,132.267559 479.851605,133.187969 482.58598,133.187969 Z M502.522504,133.187969 C504.309613,133.187969 505.894086,132.758281 507.275922,131.898906 C508.657758,131.039531 509.71977,129.818828 510.461957,128.236797 C511.204145,126.654766 511.575238,124.813945 511.575238,122.714336 L511.575238,122.714336 L511.575238,121.762187 C511.575238,119.672344 511.19682,117.829082 510.439984,116.232402 C509.683148,114.635723 508.613812,113.410137 507.231977,112.555645 C505.850141,111.701152 504.270551,111.273906 502.493207,111.273906 C500.715863,111.273906 499.136273,111.701152 497.754437,112.555645 C496.372602,113.410137 495.303266,114.635723 494.54643,116.232402 C493.789594,117.829082 493.411176,119.677227 493.411176,121.776836 L493.411176,121.776836 L493.411176,122.831523 C493.420941,124.882305 493.806684,126.69627 494.568402,128.273418 C495.330121,129.850566 496.40434,131.063945 497.791059,131.913555 C499.177777,132.763164 500.754926,133.187969 502.522504,133.187969 Z M502.522504,129.584453 C501.018598,129.584453 499.866254,128.983867 499.065473,127.782695 C498.264691,126.581523 497.864301,124.89207 497.864301,122.714336 L497.864301,122.714336 L497.864301,121.674297 C497.874066,119.4575 498.27934,117.775371 499.080121,116.62791 C499.880902,115.480449 501.018598,114.906719 502.493207,114.906719 C503.977582,114.906719 505.12016,115.487773 505.920941,116.649883 C506.721723,117.811992 507.122113,119.511211 507.122113,121.747539 L507.122113,121.747539 L507.122113,122.787578 C507.112348,125.004375 506.711957,126.691387 505.920941,127.848613 C505.129926,129.00584 503.997113,129.584453 502.522504,129.584453 Z M524.949262,132.895 L532.37602,111.566875 L527.483441,111.566875 L522.649457,127.606914 L517.84477,111.566875 L512.96684,111.566875 L520.364301,132.895 L524.949262,132.895 Z M548.67973,132.895 L548.67973,129.364727 L538.777387,129.364727 L538.777387,123.651836 L547.214887,123.651836 L547.214887,120.209453 L538.777387,120.209453 L538.777387,115.126445 L548.650434,115.126445 L548.650434,111.566875 L534.382855,111.566875 L534.382855,132.895 L548.67973,132.895 Z M555.652387,132.895 L555.652387,125.087383 L559.153363,125.087383 L563.152387,132.895 L567.869184,132.895 L567.869184,132.689922 L563.254926,123.974102 C564.534223,123.39793 565.488812,122.624004 566.118695,121.652324 C566.748578,120.680645 567.06352,119.467266 567.06352,118.012187 C567.06352,115.961406 566.379926,114.374492 565.012738,113.251445 C563.645551,112.128398 561.702191,111.566875 559.18266,111.566875 L559.18266,111.566875 L551.257855,111.566875 L551.257855,132.895 L555.652387,132.895 Z M559.197309,121.527812 L555.652387,121.527812 L555.652387,115.126445 L559.18266,115.126445 C560.364301,115.126445 561.240766,115.414531 561.812055,115.990703 C562.383344,116.566875 562.668988,117.357891 562.668988,118.36375 C562.668988,119.350078 562.366254,120.124004 561.760785,120.685527 C561.155316,121.247051 560.300824,121.527812 559.197309,121.527812 L559.197309,121.527812 Z" id="DISCOVER" fill="#000000" fill-rule="nonzero"></path>
                    <path d="M678.47602,132.895 C680.341254,132.885234 682.016059,132.455547 683.500434,131.605937 C684.984809,130.756328 686.134711,129.560039 686.950141,128.01707 C687.76557,126.474102 688.173285,124.711406 688.173285,122.728984 L688.173285,122.728984 L688.173285,121.747539 C688.173285,119.765117 687.758246,117.995098 686.928168,116.43748 C686.09809,114.879863 684.943305,113.678691 683.463813,112.833965 C681.98432,111.989238 680.307074,111.566875 678.432074,111.566875 L678.432074,111.566875 L671.869574,111.566875 L671.869574,132.895 L678.47602,132.895 Z M678.388129,129.364727 L676.264105,129.364727 L676.264105,115.126445 L678.432074,115.126445 C680.16059,115.126445 681.474066,115.685527 682.372504,116.803691 C683.270941,117.921855 683.72016,119.564922 683.72016,121.732891 L683.72016,121.732891 L683.72016,122.86082 C683.700629,124.950664 683.236762,126.557109 682.328559,127.680156 C681.420355,128.803203 680.106879,129.364727 678.388129,129.364727 L678.388129,129.364727 Z M705.66352,132.895 L705.66352,129.364727 L695.761176,129.364727 L695.761176,123.651836 L704.198676,123.651836 L704.198676,120.209453 L695.761176,120.209453 L695.761176,115.126445 L705.634223,115.126445 L705.634223,111.566875 L691.366645,111.566875 L691.366645,132.895 L705.66352,132.895 Z M721.96723,132.895 L721.96723,129.364727 L712.636176,129.364727 L712.636176,111.566875 L708.241645,111.566875 L708.241645,132.895 L721.96723,132.895 Z M734.667426,132.895 L742.094184,111.566875 L737.201605,111.566875 L732.367621,127.606914 L727.562934,111.566875 L722.685004,111.566875 L730.082465,132.895 L734.667426,132.895 Z M758.397895,132.895 L758.397895,129.364727 L748.495551,129.364727 L748.495551,123.651836 L756.933051,123.651836 L756.933051,120.209453 L748.495551,120.209453 L748.495551,115.126445 L758.368598,115.126445 L758.368598,111.566875 L744.10102,111.566875 L744.10102,132.895 L758.397895,132.895 Z" id="DELVE" fill="#000000" fill-rule="nonzero"></path>
                    <path d="M887.318852,132.895 C889.184086,132.885234 890.858891,132.455547 892.343266,131.605937 C893.827641,130.756328 894.977543,129.560039 895.792973,128.01707 C896.608402,126.474102 897.016117,124.711406 897.016117,122.728984 L897.016117,122.728984 L897.016117,121.747539 C897.016117,119.765117 896.601078,117.995098 895.771,116.43748 C894.940922,114.879863 893.786137,113.678691 892.306645,112.833965 C890.827152,111.989238 889.149906,111.566875 887.274906,111.566875 L887.274906,111.566875 L880.712406,111.566875 L880.712406,132.895 L887.318852,132.895 Z M887.230961,129.364727 L885.106937,129.364727 L885.106937,115.126445 L887.274906,115.126445 C889.003422,115.126445 890.316898,115.685527 891.215336,116.803691 C892.113773,117.921855 892.562992,119.564922 892.562992,121.732891 L892.562992,121.732891 L892.562992,122.86082 C892.543461,124.950664 892.079594,126.557109 891.171391,127.680156 C890.263187,128.803203 888.949711,129.364727 887.230961,129.364727 L887.230961,129.364727 Z M914.506352,132.895 L914.506352,129.364727 L904.604008,129.364727 L904.604008,123.651836 L913.041508,123.651836 L913.041508,120.209453 L904.604008,120.209453 L904.604008,115.126445 L914.477055,115.126445 L914.477055,111.566875 L900.209477,111.566875 L900.209477,132.895 L914.506352,132.895 Z M924.818852,133.187969 C927.182133,133.187969 929.062016,132.663066 930.4585,131.613262 C931.854984,130.563457 932.553227,129.115703 932.553227,127.27 C932.553227,125.609844 931.981937,124.223125 930.839359,123.109844 C929.696781,121.996562 927.875492,121.063945 925.375492,120.311992 C924.01807,119.901836 922.990238,119.462383 922.291996,118.993633 C921.593754,118.524883 921.244633,117.943828 921.244633,117.250469 C921.244633,116.508281 921.542484,115.910137 922.138187,115.456035 C922.733891,115.001934 923.568852,114.774883 924.64307,114.774883 C925.756352,114.774883 926.620609,115.045879 927.235844,115.587871 C927.851078,116.129863 928.158695,116.889141 928.158695,117.865703 L928.158695,117.865703 L932.553227,117.865703 C932.553227,116.586406 932.223637,115.443828 931.564457,114.437969 C930.905277,113.432109 929.979984,112.653301 928.788578,112.101543 C927.597172,111.549785 926.23975,111.273906 924.716312,111.273906 C923.202641,111.273906 921.837895,111.527812 920.622074,112.035625 C919.406254,112.543437 918.473637,113.249004 917.824223,114.152324 C917.174809,115.055645 916.850102,116.083477 916.850102,117.23582 C916.850102,119.452617 918.061039,121.215312 920.482914,122.523906 C921.371586,123.002422 922.577641,123.488262 924.101078,123.981426 C925.624516,124.47459 926.679203,124.94334 927.265141,125.387676 C927.851078,125.832012 928.144047,126.469219 928.144047,127.299297 C928.144047,128.061016 927.851078,128.654277 927.265141,129.079082 C926.679203,129.503887 925.863773,129.716289 924.818852,129.716289 C922.006352,129.716289 920.600102,128.539531 920.600102,126.186016 L920.600102,126.186016 L916.190922,126.186016 C916.190922,127.562969 916.544926,128.773906 917.252934,129.818828 C917.960941,130.86375 918.988773,131.686504 920.33643,132.28709 C921.684086,132.887676 923.178227,133.187969 924.818852,133.187969 Z M940.199711,132.895 L940.199711,111.566875 L935.80518,111.566875 L935.80518,132.895 L940.199711,132.895 Z M952.987797,133.187969 C954.745609,133.187969 956.347172,132.926738 957.792484,132.404277 C959.237797,131.881816 960.355961,131.146953 961.146977,130.199687 L961.146977,130.199687 L961.146977,121.688945 L952.753422,121.688945 L952.753422,124.92625 L956.752445,124.92625 L956.752445,128.603008 C956.04932,129.306133 954.872562,129.657695 953.222172,129.657695 C951.581547,129.657695 950.33643,129.086406 949.48682,127.943828 C948.637211,126.80125 948.212406,125.111797 948.212406,122.875469 L948.212406,122.875469 L948.212406,121.513164 C948.222172,119.296367 948.61768,117.626445 949.39893,116.503398 C950.18018,115.380352 951.317875,114.818828 952.812016,114.818828 C953.983891,114.818828 954.904301,115.102031 955.573246,115.668437 C956.242191,116.234844 956.67432,117.128398 956.869633,118.349102 L956.869633,118.349102 L961.146977,118.349102 C960.883305,116.044414 960.038578,114.289043 958.612797,113.082988 C957.187016,111.876934 955.209477,111.273906 952.68018,111.273906 C950.863773,111.273906 949.279301,111.686504 947.926762,112.511699 C946.574223,113.336895 945.539066,114.528301 944.821293,116.085918 C944.10352,117.643535 943.744633,119.486797 943.744633,121.615703 L943.744633,121.615703 L943.744633,123.065898 C943.764164,125.136211 944.152348,126.937969 944.909184,128.471172 C945.66602,130.004375 946.740238,131.173809 948.13184,131.979473 C949.523441,132.785137 951.142094,133.187969 952.987797,133.187969 Z M969.101078,132.895 L969.101078,118.861797 L977.655766,132.895 L982.050297,132.895 L982.050297,111.566875 L977.670414,111.566875 L977.670414,125.629375 L969.101078,111.566875 L964.706547,111.566875 L964.706547,132.895 L969.101078,132.895 Z" id="DESIGN" fill="#000000" fill-rule="nonzero"></path>
                    <path d="M1102.73168,132.895 C1104.59692,132.885234 1106.27172,132.455547 1107.7561,131.605937 C1109.24047,130.756328 1110.39037,129.560039 1111.2058,128.01707 C1112.02123,126.474102 1112.42895,124.711406 1112.42895,122.728984 L1112.42895,122.728984 L1112.42895,121.747539 C1112.42895,119.765117 1112.01391,117.995098 1111.18383,116.43748 C1110.35375,114.879863 1109.19897,113.678691 1107.71948,112.833965 C1106.23998,111.989238 1104.56274,111.566875 1102.68774,111.566875 L1102.68774,111.566875 L1096.12524,111.566875 L1096.12524,132.895 L1102.73168,132.895 Z M1102.64379,129.364727 L1100.51977,129.364727 L1100.51977,115.126445 L1102.68774,115.126445 C1104.41625,115.126445 1105.72973,115.685527 1106.62817,116.803691 C1107.52661,117.921855 1107.97582,119.564922 1107.97582,121.732891 L1107.97582,121.732891 L1107.97582,122.86082 C1107.95629,124.950664 1107.49243,126.557109 1106.58422,127.680156 C1105.67602,128.803203 1104.36254,129.364727 1102.64379,129.364727 L1102.64379,129.364727 Z M1129.91918,132.895 L1129.91918,129.364727 L1120.01684,129.364727 L1120.01684,123.651836 L1128.45434,123.651836 L1128.45434,120.209453 L1120.01684,120.209453 L1120.01684,115.126445 L1129.88989,115.126445 L1129.88989,111.566875 L1115.62231,111.566875 L1115.62231,132.895 L1129.91918,132.895 Z M1142.01879,132.895 L1142.01879,115.126445 L1148.552,115.126445 L1148.552,111.566875 L1131.17895,111.566875 L1131.17895,115.126445 L1137.62426,115.126445 L1137.62426,132.895 L1142.01879,132.895 Z M1165.35375,132.895 L1165.35375,129.364727 L1155.45141,129.364727 L1155.45141,123.651836 L1163.88891,123.651836 L1163.88891,120.209453 L1155.45141,120.209453 L1155.45141,115.126445 L1165.32446,115.126445 L1165.32446,111.566875 L1151.05688,111.566875 L1151.05688,132.895 L1165.35375,132.895 Z M1176.09106,133.187969 C1178.59106,133.187969 1180.60522,132.528789 1182.13354,131.21043 C1183.66186,129.89207 1184.50903,128.08543 1184.67504,125.790508 L1184.67504,125.790508 L1180.28051,125.790508 C1180.18286,127.089336 1179.79955,128.048809 1179.13061,128.668926 C1178.46166,129.289043 1177.44848,129.599102 1176.09106,129.599102 C1174.58715,129.599102 1173.48608,129.066875 1172.78784,128.002422 C1172.08959,126.937969 1171.74047,125.253398 1171.74047,122.948711 L1171.74047,122.948711 L1171.74047,121.337383 C1171.76,119.130352 1172.13354,117.501934 1172.86108,116.452129 C1173.58862,115.402324 1174.68481,114.877422 1176.14965,114.877422 C1177.49731,114.877422 1178.50073,115.18748 1179.15991,115.807598 C1179.81909,116.427715 1180.20239,117.42625 1180.30981,118.803203 L1180.30981,118.803203 L1184.70434,118.803203 C1184.46996,116.420391 1183.60082,114.569805 1182.09692,113.251445 C1180.59301,111.933086 1178.61059,111.273906 1176.14965,111.273906 C1174.37231,111.273906 1172.81225,111.691387 1171.46948,112.526348 C1170.1267,113.361309 1169.09399,114.560039 1168.37133,116.122539 C1167.64868,117.685039 1167.28735,119.49168 1167.28735,121.542461 L1167.28735,121.542461 L1167.28735,122.846172 C1167.28735,126.059062 1168.07104,128.585918 1169.63842,130.426738 C1171.2058,132.267559 1173.35668,133.187969 1176.09106,133.187969 Z M1197.08227,132.895 L1197.08227,115.126445 L1203.61547,115.126445 L1203.61547,111.566875 L1186.24243,111.566875 L1186.24243,115.126445 L1192.68774,115.126445 L1192.68774,132.895 L1197.08227,132.895 Z" id="DETECT" fill="#FFFFFF" fill-rule="nonzero"></path>
                    <path d="M1316.58071,132.895 C1318.44594,132.885234 1320.12075,132.455547 1321.60512,131.605937 C1323.0895,130.756328 1324.2394,129.560039 1325.05483,128.01707 C1325.87026,126.474102 1326.27797,124.711406 1326.27797,122.728984 L1326.27797,122.728984 L1326.27797,121.747539 C1326.27797,119.765117 1325.86293,117.995098 1325.03286,116.43748 C1324.20278,114.879863 1323.04799,113.678691 1321.5685,112.833965 C1320.08901,111.989238 1318.41176,111.566875 1316.53676,111.566875 L1316.53676,111.566875 L1309.97426,111.566875 L1309.97426,132.895 L1316.58071,132.895 Z M1316.49282,129.364727 L1314.36879,129.364727 L1314.36879,115.126445 L1316.53676,115.126445 C1318.26528,115.126445 1319.57875,115.685527 1320.47719,116.803691 C1321.37563,117.921855 1321.82485,119.564922 1321.82485,121.732891 L1321.82485,121.732891 L1321.82485,122.86082 C1321.80532,124.950664 1321.34145,126.557109 1320.43325,127.680156 C1319.52504,128.803203 1318.21157,129.364727 1316.49282,129.364727 L1316.49282,129.364727 Z M1343.76821,132.895 L1343.76821,129.364727 L1333.86586,129.364727 L1333.86586,123.651836 L1342.30336,123.651836 L1342.30336,120.209453 L1333.86586,120.209453 L1333.86586,115.126445 L1343.73891,115.126445 L1343.73891,111.566875 L1329.47133,111.566875 L1329.47133,132.895 L1343.76821,132.895 Z M1360.07192,132.895 L1360.07192,129.364727 L1350.74086,129.364727 L1350.74086,111.566875 L1346.34633,111.566875 L1346.34633,132.895 L1360.07192,132.895 Z M1367.2643,132.895 L1367.2643,111.566875 L1362.86977,111.566875 L1362.86977,132.895 L1367.2643,132.895 Z M1381.51723,132.895 L1388.94399,111.566875 L1384.05141,111.566875 L1379.21743,127.606914 L1374.41274,111.566875 L1369.53481,111.566875 L1376.93227,132.895 L1381.51723,132.895 Z M1405.2477,132.895 L1405.2477,129.364727 L1395.34536,129.364727 L1395.34536,123.651836 L1403.78286,123.651836 L1403.78286,120.209453 L1395.34536,120.209453 L1395.34536,115.126445 L1405.2184,115.126445 L1405.2184,111.566875 L1390.95082,111.566875 L1390.95082,132.895 L1405.2477,132.895 Z M1412.22036,132.895 L1412.22036,125.087383 L1415.72133,125.087383 L1419.72036,132.895 L1424.43715,132.895 L1424.43715,132.689922 L1419.82289,123.974102 C1421.10219,123.39793 1422.05678,122.624004 1422.68666,121.652324 C1423.31655,120.680645 1423.63149,119.467266 1423.63149,118.012187 C1423.63149,115.961406 1422.94789,114.374492 1421.58071,113.251445 C1420.21352,112.128398 1418.27016,111.566875 1415.75063,111.566875 L1415.75063,111.566875 L1407.82582,111.566875 L1407.82582,132.895 L1412.22036,132.895 Z M1415.76528,121.527812 L1412.22036,121.527812 L1412.22036,115.126445 L1415.75063,115.126445 C1416.93227,115.126445 1417.80873,115.414531 1418.38002,115.990703 C1418.95131,116.566875 1419.23696,117.357891 1419.23696,118.36375 C1419.23696,119.350078 1418.93422,120.124004 1418.32875,120.685527 C1417.72329,121.247051 1416.86879,121.527812 1415.76528,121.527812 L1415.76528,121.527812 Z" id="DELIVER" fill="#000000" fill-rule="nonzero"></path>
                    <rect id="Rectangle-Copy-13" fill="#000000" opacity="0.100000001" x="278.496" y="798" width="1088" height="15"></rect>
                    <rect id="Rectangle-Copy-14" fill="#000000" opacity="0.100000001" x="278.496" y="670" width="1088" height="15"></rect>
                    <rect id="Rectangle-Copy-15" fill="#000000" opacity="0.100000001" x="278.496" y="542" width="1088" height="15"></rect>
                    <rect id="Rectangle-Copy-16" fill="#000000" opacity="0.100000001" x="278.496" y="414" width="1088" height="15"></rect>
                    <line x1="931.778725" y1="243.81" x2="931.398197" y2="554.809767" id="Path-4-Copy" stroke="#000000" stroke-width="1.89" stroke-dasharray="4.592700076103211,4.592700076103211"></line>
                    <line x1="1147.496" y1="243.81" x2="1148.496" y2="425.5" id="Path-4" stroke="#000000" stroke-width="1.89" stroke-dasharray="4.592700076103211,4.592700076103211"></line>
                    <line x1="497.078725" y1="243.81" x2="496.696" y2="812.7" id="Path-4-Copy-3" stroke="#000000" stroke-width="1.89" stroke-dasharray="4.592700076103211,4.592700076103211"></line>
                    <line x1="714.428725" y1="243.81" x2="714.047141" y2="683.809835" id="Path-4-Copy-2" stroke="#000000" stroke-width="1.89" stroke-dasharray="4.592700076103211,4.592700076103211"></line>
                    <line x1="279.6295" y1="243.4509" x2="279.346" y2="812.7" id="Path-4-Copy-4" stroke="#000000" stroke-width="1.89" stroke-dasharray="4.592700076103211,4.592700076103211"></line>
                    <path d="M7.08,432.336 C10.104,432.336 12.648,430.056 12.648,426.408 C12.648,422.592 10.536,420.816 7.56,420.816 C6.408,420.816 4.872,421.536 3.912,422.712 C4.056,418.272 5.736,416.736 7.776,416.736 C8.808,416.736 9.888,417.312 10.512,418.032 L12.384,415.92 C11.304,414.816 9.72,413.904 7.56,413.904 C3.984,413.904 0.696,416.736 0.696,423.36 C0.696,429.624 3.696,432.336 7.08,432.336 Z M7.008,429.672 C5.52,429.672 4.32,428.424 3.984,425.184 C4.872,423.816 5.928,423.312 6.888,423.312 C8.424,423.312 9.408,424.296 9.408,426.408 C9.408,428.568 8.328,429.672 7.008,429.672 Z M20.88,432 C26.112,432 29.472,429.024 29.472,423.048 C29.472,417.048 26.112,414.24 20.688,414.24 L15.816,414.24 L15.816,432 L20.88,432 Z M20.472,429.144 L19.368,429.144 L19.368,417.072 L20.472,417.072 C23.784,417.072 25.848,418.704 25.848,423.048 C25.848,427.368 23.784,429.144 20.472,429.144 Z M45.216,432.336 C49.56,432.336 52.08,429.912 52.08,424.008 L52.08,414.24 L48.672,414.24 L48.672,424.32 C48.672,428.016 47.328,429.264 45.216,429.264 C43.128,429.264 41.856,428.016 41.856,424.32 L41.856,414.24 L38.304,414.24 L38.304,424.008 C38.304,429.912 40.896,432.336 45.216,432.336 Z M58.272,432 L60.168,428.064 C60.6,427.152 61.008,426.216 61.464,425.136 L61.56,425.136 C62.088,426.216 62.496,427.152 62.952,428.064 L64.944,432 L68.88,432 L63.888,423 L68.568,414.24 L64.824,414.24 L63.144,417.888 C62.76,418.728 62.4,419.592 61.968,420.696 L61.848,420.696 C61.32,419.592 60.936,418.728 60.528,417.888 L58.752,414.24 L54.816,414.24 L59.496,422.832 L54.504,432 L58.272,432 Z M94.128,434.112 L94.128,411.936 L90.96,411.936 L90.96,434.112 L94.128,434.112 Z M77.688,424.632 C80.256,423.936 82.008,422.448 82.992,420.528 C83.976,422.352 85.704,423.768 88.248,424.416 L89.64,422.016 C86.4,421.176 84.792,419.184 84.576,417.072 L89.04,417.072 L89.04,414.552 L84.552,414.552 L84.552,412.152 L81.36,412.152 L81.36,414.552 L76.92,414.552 L76.92,417.072 L81.336,417.072 C81.12,419.28 79.56,421.344 76.272,422.208 L77.688,424.632 Z M76.2,429.984 C79.992,429.96 85.2,429.936 89.952,428.976 L89.76,426.672 C88.08,426.936 86.328,427.08 84.552,427.2 L84.552,423.984 L81.36,423.984 L81.36,427.344 C79.344,427.416 77.424,427.416 75.792,427.416 L76.2,429.984 Z M116.256,425.112 L116.256,411.984 L113.088,411.984 L113.088,417.24 L109.824,417.24 L109.824,419.784 L113.088,419.784 L113.088,425.112 L116.256,425.112 Z M99.264,424.944 C101.832,424.104 103.56,422.328 104.544,420.168 C105.48,422.136 107.136,423.72 109.56,424.512 L111.096,422.04 C107.688,420.888 106.152,418.224 106.104,415.704 L110.4,415.704 L110.4,413.184 L98.52,413.184 L98.52,415.704 L102.864,415.704 C102.816,418.44 101.208,421.248 97.656,422.448 L99.264,424.944 Z M116.256,434.088 L116.256,426.096 L101.184,426.096 L101.184,428.616 L113.088,428.616 L113.088,434.088 L116.256,434.088 Z M137.424,434.064 L137.424,423.576 L140.184,423.576 L140.184,420.96 L137.424,420.96 L137.424,411.96 L134.256,411.96 L134.256,434.064 L137.424,434.064 Z M133.032,416.88 L133.032,414.384 L128.136,414.384 L128.136,412.056 L124.968,412.056 L124.968,414.384 L120.024,414.384 L120.024,416.88 L133.032,416.88 Z M133.368,429.48 L133.128,427.2 C131.544,427.44 129.84,427.56 128.136,427.656 L128.136,425.904 C130.44,425.448 131.952,423.936 131.952,421.92 C131.952,419.424 129.72,417.744 126.552,417.744 C123.384,417.744 121.152,419.424 121.152,421.92 C121.152,423.936 122.664,425.448 124.968,425.904 L124.968,427.776 C123.024,427.824 121.2,427.824 119.616,427.824 L120,430.392 L121.050284,430.391315 C124.644694,430.384463 129.135273,430.309091 133.368,429.48 Z M126.552,423.696 C125.112,423.696 124.152,423.072 124.152,421.92 C124.152,420.768 125.112,420.144 126.552,420.144 C127.992,420.144 128.952,420.768 128.952,421.92 C128.952,423.072 127.992,423.696 126.552,423.696 Z M6.12,559.336 C9.408,559.336 12.336,557.056 12.336,553.096 C12.336,549.232 9.84,547.456 6.864,547.456 C6.048,547.456 5.424,547.624 4.728,547.96 L5.064,544.192 L11.52,544.192 L11.52,541.24 L2.016,541.24 L1.536,549.856 L3.144,550.912 C4.176,550.24 4.752,549.976 5.808,549.976 C7.608,549.976 8.808,551.128 8.808,553.192 C8.808,555.28 7.512,556.456 5.664,556.456 C4.008,556.456 2.76,555.64 1.752,554.656 L0.12,556.912 C1.44,558.232 3.312,559.336 6.12,559.336 Z M20.88,559 C26.112,559 29.472,556.024 29.472,550.048 C29.472,544.048 26.112,541.24 20.688,541.24 L15.816,541.24 L15.816,559 L20.88,559 Z M20.472,556.144 L19.368,556.144 L19.368,544.072 L20.472,544.072 C23.784,544.072 25.848,545.704 25.848,550.048 C25.848,554.368 23.784,556.144 20.472,556.144 Z M55.728,555.088 L55.728,538.96 L52.56,538.96 L52.56,544.672 L49.104,544.672 L49.104,547.24 L52.56,547.24 L52.56,555.088 L55.728,555.088 Z M38.712,552.664 C41.304,551.8 43.032,550.048 44.016,547.864 C44.952,549.856 46.608,551.44 49.032,552.232 L50.568,549.76 C47.088,548.584 45.576,545.872 45.576,543.256 L45.576,542.968 L49.872,542.968 L49.872,540.448 L37.992,540.448 L37.992,542.968 L42.336,542.968 L42.336,543.28 C42.336,546.064 40.752,548.968 37.128,550.144 L38.712,552.664 Z M56.232,560.68 L56.232,558.16 L44.328,558.16 L44.328,553.744 L41.16,553.744 L41.16,560.68 L56.232,560.68 Z M76.728,552.4 L76.728,549.304 L79.632,549.304 L79.632,546.736 L76.728,546.736 L76.728,544.576 L79.632,544.576 L79.632,542.008 L76.728,542.008 L76.728,538.96 L73.56,538.96 L73.56,552.4 L76.728,552.4 Z M72.312,550.936 L72.048,548.392 C69.288,548.896 66.864,549.04 63.264,549.064 L63.264,546.976 L70.176,546.976 L70.176,540.184 L60.096,540.184 L60.096,542.704 L67.056,542.704 L67.056,544.624 L60.12,544.624 L60.12,551.608 L62.016,551.608 C66.432,551.608 69.24,551.512 72.312,550.936 Z M76.728,561.064 L76.728,553.408 L61.992,553.408 L61.992,555.928 L73.56,555.928 L73.56,561.064 L76.728,561.064 Z M99.72,561.112 L99.72,538.936 L96.552,538.936 L96.552,561.112 L99.72,561.112 Z M83.016,556.72 C85.656,555.472 87.456,553.096 88.44,550.144 C89.424,552.856 91.128,555.04 93.672,556.192 L95.472,553.624 C91.728,552.016 89.976,547.984 89.976,543.88 L89.976,540.664 L86.808,540.664 L86.808,543.88 C86.808,548.176 84.984,552.448 81.12,554.104 L83.016,556.72 Z M120.888,551.776 L120.888,546.712 L123.816,546.712 L123.816,544.12 L120.888,544.12 L120.888,538.96 L117.72,538.96 L117.72,551.776 L120.888,551.776 Z M104.496,551.8 C111.048,550.096 114.744,546.112 114.744,540.208 L104.304,540.208 L104.304,542.728 L111.312,542.728 C110.856,545.656 108.144,548.104 103.224,549.328 L104.496,551.8 Z M120.888,561.088 L120.888,552.712 L106.152,552.712 L106.152,555.232 L117.72,555.232 L117.72,561.088 L120.888,561.088 Z M143.136,561.064 L143.136,550.576 L145.896,550.576 L145.896,547.96 L143.136,547.96 L143.136,538.96 L139.968,538.96 L139.968,561.064 L143.136,561.064 Z M138.744,543.88 L138.744,541.384 L133.848,541.384 L133.848,539.056 L130.68,539.056 L130.68,541.384 L125.736,541.384 L125.736,543.88 L138.744,543.88 Z M139.08,556.48 L138.84,554.2 C137.256,554.44 135.552,554.56 133.848,554.656 L133.848,552.904 C136.152,552.448 137.664,550.936 137.664,548.92 C137.664,546.424 135.432,544.744 132.264,544.744 C129.096,544.744 126.864,546.424 126.864,548.92 C126.864,550.936 128.376,552.448 130.68,552.904 L130.68,554.776 C128.736,554.824 126.912,554.824 125.328,554.824 L125.712,557.392 L126.762284,557.391315 C130.356694,557.384463 134.847273,557.309091 139.08,556.48 Z M132.264,550.696 C130.824,550.696 129.864,550.072 129.864,548.92 C129.864,547.768 130.824,547.144 132.264,547.144 C133.704,547.144 134.664,547.768 134.664,548.92 C134.664,550.072 133.704,550.696 132.264,550.696 Z M10.848,686 L10.848,681.392 L12.96,681.392 L12.96,678.704 L10.848,678.704 L10.848,668.24 L6.624,668.24 L-4.12114787e-13,678.992 L-4.12114787e-13,681.392 L7.56,681.392 L7.56,686 L10.848,686 Z M7.56,678.704 L3.432,678.704 L6.192,674.288 C6.696,673.328 7.176,672.344 7.608,671.408 L7.704,671.408 C7.656,672.44 7.56,674.048 7.56,675.08 L7.56,678.704 Z M20.88,686 C26.112,686 29.472,683.024 29.472,677.048 C29.472,671.048 26.112,668.24 20.688,668.24 L15.816,668.24 L15.816,686 L20.88,686 Z M20.472,683.144 L19.368,683.144 L19.368,671.072 L20.472,671.072 C23.784,671.072 25.848,672.704 25.848,677.048 C25.848,681.368 23.784,683.144 20.472,683.144 Z M56.088,679.784 L56.088,665.96 L53.088,665.96 L53.088,671.816 L51.456,671.816 L51.456,666.32 L48.504,666.32 L48.504,679.688 L51.456,679.688 L51.456,674.36 L53.088,674.36 L53.088,679.784 L56.088,679.784 Z M47.88,670.616 L47.88,668.168 L44.064,668.168 L44.064,666.152 L40.944,666.152 L40.944,668.168 L37.128,668.168 L37.128,670.616 L47.88,670.616 Z M42.552,679.256 C45.336,679.256 47.304,677.624 47.304,675.296 C47.304,672.968 45.336,671.336 42.552,671.336 C39.744,671.336 37.776,672.968 37.776,675.296 C37.776,677.624 39.744,679.256 42.552,679.256 Z M42.552,676.952 C41.376,676.952 40.584,676.376 40.584,675.296 C40.584,674.216 41.376,673.64 42.552,673.64 C43.704,673.64 44.496,674.216 44.496,675.296 C44.496,676.376 43.704,676.952 42.552,676.952 Z M56.088,688.088 L56.088,680.816 L40.872,680.816 L40.872,683.336 L52.92,683.336 L52.92,688.088 L56.088,688.088 Z M77.688,678.44 L77.688,665.96 L74.496,665.96 L74.496,678.44 L77.688,678.44 Z M60.768,678.08 C63.36,677.264 65.16,675.584 66.168,673.472 C67.152,675.416 68.856,676.928 71.352,677.672 L72.864,675.2 C69.288,674.168 67.728,671.576 67.728,668.912 L67.728,666.776 L64.512,666.776 L64.512,668.912 C64.512,671.624 62.928,674.432 59.232,675.584 L60.768,678.08 Z M77.688,687.8 L77.688,679.472 L62.976,679.472 L62.976,687.8 L77.688,687.8 Z M74.592,685.328 L66.096,685.328 L66.096,681.944 L74.592,681.944 L74.592,685.328 Z M89.376,686.336 C93.72,686.336 96.24,683.912 96.24,678.008 L96.24,668.24 L92.832,668.24 L92.832,678.32 C92.832,682.016 91.488,683.264 89.376,683.264 C87.288,683.264 86.016,682.016 86.016,678.32 L86.016,668.24 L82.464,668.24 L82.464,678.008 C82.464,683.912 85.056,686.336 89.376,686.336 Z M102.432,686 L104.328,682.064 C104.76,681.152 105.168,680.216 105.624,679.136 L105.72,679.136 C106.248,680.216 106.656,681.152 107.112,682.064 L109.104,686 L113.04,686 L108.048,677 L112.728,668.24 L108.984,668.24 L107.304,671.888 C106.92,672.728 106.56,673.592 106.128,674.696 L106.008,674.696 C105.48,673.592 105.096,672.728 104.688,671.888 L102.912,668.24 L98.976,668.24 L103.656,676.832 L98.664,686 L102.432,686 Z M132.888,677.192 L132.888,665.96 L129.72,665.96 L129.72,669.2 L125.688,669.2 L125.688,671.72 L129.72,671.72 L129.72,677.192 L132.888,677.192 Z M115.872,677.36 C118.392,676.568 120.12,674.936 121.104,672.872 C122.04,674.72 123.672,676.184 126,676.928 L127.608,674.504 C124.152,673.448 122.64,670.88 122.64,668.264 L122.64,666.68 L119.448,666.68 L119.448,668.264 C119.448,671.072 117.912,673.784 114.24,674.888 L115.872,677.36 Z M133.512,687.824 L133.512,685.352 L121.464,685.352 L121.464,684.056 L132.888,684.056 L132.888,678.128 L118.32,678.128 L118.32,680.552 L129.768,680.552 L129.768,681.776 L118.344,681.776 L118.344,687.824 L133.512,687.824 Z M155.496,688.064 L155.496,665.936 L152.496,665.936 L152.496,688.064 L155.496,688.064 Z M150.912,687.104 L150.912,666.44 L147.96,666.44 L147.96,671.792 L145.824,671.792 C145.944,670.76 146.016,669.704 146.016,668.576 L137.424,668.576 L137.424,671.096 L142.872,671.096 C142.464,675.416 140.544,678.608 136.176,681.272 L137.976,683.48 C142.104,681.032 144.312,677.96 145.296,674.312 L147.96,674.312 L147.96,677.312 L144.888,677.312 L144.888,679.856 L147.96,679.856 L147.96,687.104 L150.912,687.104 Z M6.072,813.336 C9.456,813.336 12.312,811.44 12.312,808.176 C12.312,805.848 10.776,804.36 8.76,803.808 L8.76,803.688 C10.656,802.944 11.736,801.552 11.736,799.632 C11.736,796.584 9.408,794.904 5.976,794.904 C3.888,794.904 2.184,795.744 0.648,797.088 L2.448,799.248 C3.504,798.288 4.536,797.688 5.808,797.664 C7.32,797.688 8.184,798.504 8.184,799.896 C8.184,801.48 7.128,802.608 3.864,802.608 L3.864,805.152 C7.728,805.152 8.76,806.232 8.76,807.984 C8.76,809.568 7.536,810.456 5.736,810.456 C4.128,810.456 2.832,809.664 1.776,808.632 L0.12,810.864 C1.368,812.28 3.264,813.336 6.072,813.336 Z M20.88,813 C26.112,813 29.472,810.024 29.472,804.048 C29.472,798.048 26.112,795.24 20.688,795.24 L15.816,795.24 L15.816,813 L20.88,813 Z M20.472,810.144 L19.368,810.144 L19.368,798.072 L20.472,798.072 C23.784,798.072 25.848,799.704 25.848,804.048 C25.848,808.368 23.784,810.144 20.472,810.144 Z M39.264,806.016 C43.104,805.32 45.888,803.4 47.256,800.76 C48.648,803.352 51.456,805.2 55.344,805.896 L56.544,803.4 C51.792,802.704 49.224,800.04 48.936,797.16 L55.56,797.16 L55.56,794.64 L38.904,794.64 L38.904,797.16 L45.528,797.16 C45.24,800.04 42.672,802.8 38.04,803.52 L39.264,806.016 Z M57.264,812.496 L57.264,809.928 L48.84,809.928 L48.84,805.056 L45.672,805.056 L45.672,809.928 L37.248,809.928 L37.248,812.496 L57.264,812.496 Z M76.632,815.064 L76.632,804.096 L79.848,804.096 L79.848,801.456 L76.632,801.456 L76.632,792.96 L73.464,792.96 L73.464,815.064 L76.632,815.064 Z M60.768,810.528 C63.264,809.304 64.92,806.976 65.88,804.168 C66.792,806.808 68.352,808.944 70.656,810.12 L72.576,807.624 C69.024,805.872 67.464,801.864 67.464,797.88 L67.464,794.664 L64.272,794.664 L64.272,797.88 C64.272,801.984 62.592,806.208 58.872,807.96 L60.768,810.528 Z M88.512,817.368 L94.464,793.68 L92.112,793.68 L86.16,817.368 L88.512,817.368 Z M119.064,802.752 L119.064,793.656 L115.92,793.656 L115.92,795.912 L107.304,795.912 L107.304,793.656 L104.16,793.656 L104.16,802.752 L119.064,802.752 Z M115.92,800.28 L107.304,800.28 L107.304,798.288 L115.92,798.288 L115.92,800.28 Z M113.472,810.264 L113.472,806.784 L121.632,806.784 L121.632,804.288 L101.592,804.288 L101.592,806.784 L110.304,806.784 L110.304,810.264 L113.472,810.264 Z M119.424,814.68 L119.424,812.16 L107.088,812.16 L107.088,808.608 L103.92,808.608 L103.92,814.68 L119.424,814.68 Z M142.176,806.112 L142.176,792.96 L139.008,792.96 L139.008,797.088 L134.976,797.088 L134.976,799.656 L139.008,799.656 L139.008,806.112 L142.176,806.112 Z M125.208,805.8 C127.704,804.936 129.408,803.232 130.368,801.096 C131.304,803.04 132.888,804.6 135.24,805.416 L136.896,802.968 C133.416,801.816 131.952,799.128 131.952,796.368 L131.952,794.088 L128.736,794.088 L128.736,796.176 C128.736,799.176 127.224,802.104 123.552,803.304 L125.208,805.8 Z M142.176,815.088 L142.176,807.12 L127.104,807.12 L127.104,809.616 L139.008,809.616 L139.008,815.088 L142.176,815.088 Z" id="6DUX최적화5D전략시각화4D핵심UX설계3D조사/분석" fill="#000000" fill-rule="nonzero"></path>
                </g>
            </g>
        </g>
    </g>
</svg>