<?xml version="1.0" encoding="UTF-8"?>
<svg width="580px" height="240px" viewBox="0 0 580 240" version="1.1" xmlns="http://www.w3.org/2000/svg" xmlns:xlink="http://www.w3.org/1999/xlink">
    <title>pc_ico_detail_title02</title>
    <g id="Page-1" stroke="none" stroke-width="1" fill="none" fill-rule="evenodd">
        <g id="pc_04detail_02" transform="translate(-160.000000, -396.000000)">
            <g id="pc_ico_detail_title02" transform="translate(160.000000, 396.000000)">
                <rect id="Rectangle" fill="#ACACAC" opacity="0" x="0" y="0" width="580" height="240"></rect>
                <path d="M26.4604706,65.8521593 C32.0493359,65.8521593 36.446949,64.6792896 39.6533099,62.3335503 C42.8596709,59.9878111 44.4628513,56.7597295 44.4628513,52.6493056 C44.4628513,47.5058955 41.8354167,43.4707935 36.5805473,40.5439996 C34.420707,39.3388491 31.6596739,38.2144007 28.2974482,37.1706543 C24.9352225,36.1269079 22.5861178,35.1154423 21.2501341,34.1362576 C19.9141503,33.1570728 19.2461585,32.0649052 19.2461585,30.8597548 C19.2461585,29.48244 19.8529177,28.3472313 21.0664363,27.4541287 C22.2799549,26.5610261 23.9332347,26.1144748 26.0262759,26.1144748 C28.0970507,26.1144748 29.7391973,26.6417282 30.9527159,27.6962348 C32.1662344,28.7507415 32.7729937,30.235659 32.7729937,32.1509874 L32.7729937,32.1509874 L44.4628513,32.1509874 C44.4628513,29.2887551 43.6946607,26.7439507 42.1582794,24.5165744 C40.6218981,22.2891981 38.4676244,20.5729348 35.6954581,19.3677843 C32.9232919,18.1626338 29.7892967,17.5600586 26.2934726,17.5600586 C22.708583,17.5600586 19.4799556,18.1142126 16.6075906,19.2225206 C13.7352256,20.3308286 11.5141526,21.8803078 9.94437176,23.8709581 C8.37459088,25.8616084 7.58970044,28.1589265 7.58970044,30.7629123 C7.58970044,35.9924045 10.7403954,40.1028284 17.0417853,43.094184 C18.9789617,44.0195674 21.472798,44.9772316 24.5232942,45.9671766 C27.5737904,46.9571217 29.7057977,47.9147859 30.9193163,48.8401693 C32.1328348,49.7655527 32.7395941,51.0567853 32.7395941,52.7138672 C32.7395941,54.1772642 32.1773676,55.3124729 31.0529147,56.1194933 C29.9284617,56.9265137 28.397647,57.3300239 26.4604706,57.3300239 C23.4322408,57.3300239 21.2445675,56.7328288 19.8974505,55.5384386 C18.5503336,54.3440484 17.8767751,52.4879015 17.8767751,49.9699978 L17.8767751,49.9699978 L6.12011834,49.9699978 C6.12011834,53.0689562 6.92727518,55.8074454 8.54158885,58.1854655 C10.1559025,60.5634856 12.5606732,62.4357729 15.755901,63.8023275 C18.9511287,65.168882 22.5193186,65.8521593 26.4604706,65.8521593 Z M66.065708,65.206543 L68.8712739,56.426161 L84.9364782,56.426161 L87.7754436,65.206543 L100.36709,65.206543 L82.3981091,18.2056749 L71.3762433,18.2056749 L53.5408606,65.206543 L66.065708,65.206543 Z M82.1309124,47.6780599 L71.6768397,47.6780599 L76.8871762,31.3762478 L82.1309124,47.6780599 Z M122.470941,65.206543 L122.470941,54.2310655 L121.335355,31.7313368 L133.125411,65.206543 L140.874117,65.206543 L152.630773,31.7636176 L151.495187,54.2310655 L151.495187,65.206543 L163.251844,65.206543 L163.251844,18.2056749 L147.821232,18.2056749 L136.999764,50.9061415 L126.144896,18.2056749 L110.747684,18.2056749 L110.747684,65.206543 L122.470941,65.206543 Z M196.344161,65.8521593 C201.933026,65.8521593 206.330639,64.6792896 209.537,62.3335503 C212.743361,59.9878111 214.346542,56.7597295 214.346542,52.6493056 C214.346542,47.5058955 211.719107,43.4707935 206.464238,40.5439996 C204.304397,39.3388491 201.543364,38.2144007 198.181139,37.1706543 C194.818913,36.1269079 192.469808,35.1154423 191.133824,34.1362576 C189.797841,33.1570728 189.129849,32.0649052 189.129849,30.8597548 C189.129849,29.48244 189.736608,28.3472313 190.950127,27.4541287 C192.163645,26.5610261 193.816925,26.1144748 195.909966,26.1144748 C197.980741,26.1144748 199.622888,26.6417282 200.836406,27.6962348 C202.049925,28.7507415 202.656684,30.235659 202.656684,32.1509874 L202.656684,32.1509874 L214.346542,32.1509874 C214.346542,29.2887551 213.578351,26.7439507 212.04197,24.5165744 C210.505588,22.2891981 208.351315,20.5729348 205.579148,19.3677843 C202.806982,18.1626338 199.672987,17.5600586 196.177163,17.5600586 C192.592273,17.5600586 189.363646,18.1142126 186.491281,19.2225206 C183.618916,20.3308286 181.397843,21.8803078 179.828062,23.8709581 C178.258281,25.8616084 177.473391,28.1589265 177.473391,30.7629123 C177.473391,35.9924045 180.624086,40.1028284 186.925476,43.094184 C188.862652,44.0195674 191.356488,44.9772316 194.406984,45.9671766 C197.457481,46.9571217 199.589488,47.9147859 200.803007,48.8401693 C202.016525,49.7655527 202.623284,51.0567853 202.623284,52.7138672 C202.623284,54.1772642 202.061058,55.3124729 200.936605,56.1194933 C199.812152,56.9265137 198.281337,57.3300239 196.344161,57.3300239 C193.315931,57.3300239 191.128258,56.7328288 189.781141,55.5384386 C188.434024,54.3440484 187.760465,52.4879015 187.760465,49.9699978 L187.760465,49.9699978 L176.003809,49.9699978 C176.003809,53.0689562 176.810965,55.8074454 178.425279,58.1854655 C180.039593,60.5634856 182.444364,62.4357729 185.639591,63.8023275 C188.834819,65.168882 192.403009,65.8521593 196.344161,65.8521593 Z M246.236473,65.8521593 C250.155359,65.8521593 253.550984,65.1850224 256.423349,63.8507487 C259.295714,62.516475 261.500087,60.5742459 263.036468,58.0240614 C264.57285,55.473877 265.34104,52.4556207 265.34104,48.9692925 L265.34104,48.9692925 L265.34104,18.2056749 L253.617783,18.2056749 L253.617783,48.9047309 C253.617783,51.8100043 252.994324,53.9082574 251.747406,55.19949 C250.500488,56.4907227 248.66351,57.136339 246.236473,57.136339 C241.426932,57.136339 238.955362,54.564634 238.821763,49.421224 L238.821763,49.421224 L238.821763,18.2056749 L227.031707,18.2056749 L227.031707,49.1952582 C227.098506,54.3601888 228.835285,58.4275716 232.242043,61.3974067 C235.648802,64.3672418 240.313612,65.8521593 246.236473,65.8521593 Z M291.219045,65.206543 L291.219045,35.9601237 L308.453235,65.206543 L320.109693,65.206543 L320.109693,18.2056749 L308.419835,18.2056749 L308.419835,47.4520942 L291.219045,18.2056749 L279.495788,18.2056749 L279.495788,65.206543 L291.219045,65.206543 Z M545.830822,65.8521593 C549.972372,65.8521593 553.779925,65.2603443 557.253483,64.0767144 C560.727041,62.8930845 563.365609,61.3328451 565.169187,59.3959961 L565.169187,59.3959961 L565.169187,40.0920681 L545.296429,40.0920681 L545.296429,47.8717448 L553.445929,47.8717448 L553.445929,55.1672092 C551.954081,56.4799624 549.682909,57.136339 546.632412,57.136339 C543.069789,57.136339 540.459054,55.9580892 538.800208,53.6015896 C537.141361,51.2450901 536.311938,47.721101 536.311938,43.0296224 L536.311938,43.0296224 L536.311938,40.1889106 C536.334205,35.7126374 537.146928,32.2693504 538.750108,29.8590495 C540.353289,27.4487486 542.624461,26.2435981 545.563625,26.2435981 C548.012929,26.2435981 549.905573,26.8031322 551.241556,27.9222005 C552.57754,29.0412688 553.445929,30.9135561 553.846725,33.5390625 L553.846725,33.5390625 L565.135787,33.5390625 C564.579127,28.2234881 562.625251,24.2260471 559.274158,21.5467394 C555.923066,18.8674316 551.21929,17.5277778 545.16283,17.5277778 C541.021281,17.5277778 537.375158,18.4585413 534.224464,20.3200684 C531.073769,22.1815954 528.652298,24.8393826 526.960052,28.2934299 C525.267806,31.7474772 524.421683,35.7879593 524.421683,40.4148763 L524.421683,40.4148763 L524.455083,44.4822591 C524.722279,51.1966688 526.759654,56.4369213 530.567208,60.2030165 C534.374762,63.9691117 539.462633,65.8521593 545.830822,65.8521593 Z M21.8045669,142.887099 L21.8045669,124.164225 L40.7087367,124.164225 L40.7087367,115.448405 L21.8045669,115.448405 L21.8045669,104.634332 L42.6125135,104.634332 L42.6125135,95.8862305 L10.0813097,95.8862305 L10.0813097,142.887099 L21.8045669,142.887099 Z M66.8205385,142.887099 L66.8205385,95.8862305 L55.1306809,95.8862305 L55.1306809,142.887099 L66.8205385,142.887099 Z M93.5335329,142.887099 L93.5335329,126.294759 L99.8794556,126.294759 L108.463151,142.887099 L121.021398,142.887099 L121.021398,142.402886 L110.867922,123.454047 C113.78482,122.119774 115.92796,120.37661 117.297343,118.224555 C118.666727,116.072501 119.351418,113.360912 119.351418,110.089789 C119.351418,105.570475 117.725972,102.073387 114.475078,99.5985243 C111.224184,97.1236617 106.715239,95.8862305 100.948243,95.8862305 L100.948243,95.8862305 L81.8102757,95.8862305 L81.8102757,142.887099 L93.5335329,142.887099 Z M100.948243,117.546658 L93.5335329,117.546658 L93.5335329,104.634332 L100.948243,104.634332 C103.152616,104.634332 104.822595,105.210006 105.958182,106.361355 C107.093768,107.512704 107.661561,109.099844 107.661561,111.122776 C107.661561,113.145707 107.099334,114.722087 105.974881,115.851915 C104.850428,116.981744 103.174882,117.546658 100.948243,117.546658 L100.948243,117.546658 Z M166.772161,142.887099 L166.772161,134.171278 L144.995626,134.171278 L144.995626,122.969835 L163.432201,122.969835 L163.432201,114.544542 L144.995626,114.544542 L144.995626,104.634332 L166.83896,104.634332 L166.83896,95.8862305 L133.272369,95.8862305 L133.272369,142.887099 L166.772161,142.887099 Z M216.357196,143.564996 C218.8065,143.564996 221.005306,143.306749 222.953616,142.790256 C224.901926,142.273763 226.811269,141.477503 228.681646,140.401476 L228.681646,140.401476 L230.952819,142.887099 L243.511066,142.887099 L236.096356,134.65549 C239.124586,130.824834 240.638701,125.735225 240.638701,119.386664 L240.638701,119.386664 L231.186616,119.386664 C231.186616,122.205856 230.57429,124.799081 229.349638,127.166341 L229.349638,127.166341 L221.868129,118.870171 L224.406498,117.159288 C228.971109,114.06033 231.253415,110.50944 231.253415,106.506619 C231.253415,103.300058 230.05103,100.61537 227.646259,98.4525553 C225.241488,96.2897407 222.202125,95.2083333 218.52817,95.2083333 C214.431153,95.2083333 211.11346,96.3758228 208.575091,98.7108019 C206.036722,101.045781 204.767538,104.107078 204.767538,107.894694 C204.767538,109.637858 205.1405,111.327221 205.886424,112.962782 C206.632348,114.598343 207.662169,116.319987 208.975886,118.127713 L208.975886,118.127713 L208.875688,118.192274 C205.557995,120.538014 203.325788,122.593226 202.179069,124.35791 C201.03235,126.122595 200.45899,128.091725 200.45899,130.265299 C200.45899,134.2466 201.906306,137.458541 204.800937,139.901123 C207.695569,142.343705 211.547655,143.564996 216.357196,143.564996 Z M217.025188,113.253309 C215.332942,111.101255 214.486819,109.272009 214.486819,107.765571 C214.486819,106.517379 214.843082,105.511294 215.555606,104.747314 C216.268131,103.983335 217.247852,103.601345 218.49477,103.601345 C219.541291,103.601345 220.420814,103.967195 221.133338,104.698893 C221.845863,105.430592 222.202125,106.291413 222.202125,107.281359 C222.202125,108.335865 221.968328,109.207447 221.500734,109.896105 C221.033139,110.584762 220.287215,111.251899 219.262961,111.897515 L219.262961,111.897515 L217.025188,113.253309 Z M217.091987,135.171984 C215.577873,135.171984 214.308688,134.62321 213.284434,133.525662 C212.26018,132.428114 211.748053,131.09384 211.748053,129.522841 C211.748053,127.629033 212.382645,125.92891 213.651829,124.422472 L213.651829,124.422472 L213.952426,124.228787 L222.703119,133.84847 C220.921807,134.730812 219.05143,135.171984 217.091987,135.171984 Z M290.791529,142.887099 L290.791529,131.911621 L289.655943,109.411892 L301.446,142.887099 L309.194705,142.887099 L320.951362,109.444173 L319.815776,131.911621 L319.815776,142.887099 L331.572433,142.887099 L331.572433,95.8862305 L316.141821,95.8862305 L305.320352,128.586697 L294.465485,95.8862305 L279.068272,95.8862305 L279.068272,142.887099 L290.791529,142.887099 Z M355.212665,142.887099 L358.01823,134.106717 L374.083435,134.106717 L376.9224,142.887099 L389.514047,142.887099 L371.545066,95.8862305 L360.5232,95.8862305 L342.687817,142.887099 L355.212665,142.887099 Z M371.277869,125.358615 L360.823796,125.358615 L366.034133,109.056803 L371.277869,125.358615 Z M411.617897,142.887099 L411.617897,126.294759 L417.96382,126.294759 L426.547516,142.887099 L439.105763,142.887099 L439.105763,142.402886 L428.952286,123.454047 C431.869184,122.119774 434.012325,120.37661 435.381708,118.224555 C436.751091,116.072501 437.435783,113.360912 437.435783,110.089789 C437.435783,105.570475 435.810336,102.073387 432.559442,99.5985243 C429.308549,97.1236617 424.799604,95.8862305 419.032607,95.8862305 L419.032607,95.8862305 L399.89464,95.8862305 L399.89464,142.887099 L411.617897,142.887099 Z M419.032607,117.546658 L411.617897,117.546658 L411.617897,104.634332 L419.032607,104.634332 C421.23698,104.634332 422.90696,105.210006 424.042546,106.361355 C425.178132,107.512704 425.745925,109.099844 425.745925,111.122776 C425.745925,113.145707 425.183699,114.722087 424.059246,115.851915 C422.934793,116.981744 421.259247,117.546658 419.032607,117.546658 L419.032607,117.546658 Z M463.848181,142.887099 L463.848181,95.8862305 L452.158323,95.8862305 L452.158323,142.887099 L463.848181,142.887099 Z M490.561176,142.887099 L490.561176,113.640679 L507.795366,142.887099 L519.451824,142.887099 L519.451824,95.8862305 L507.761966,95.8862305 L507.761966,125.13265 L490.561176,95.8862305 L478.837918,95.8862305 L478.837918,142.887099 L490.561176,142.887099 Z M567.206562,142.887099 L567.206562,134.171278 L545.430027,134.171278 L545.430027,122.969835 L563.866602,122.969835 L563.866602,114.544542 L545.430027,114.544542 L545.430027,104.634332 L567.273361,104.634332 L567.273361,95.8862305 L533.70677,95.8862305 L533.70677,142.887099 L567.206562,142.887099 Z M20.3891641,220.567654 L20.3891641,173.566786 L8.69930643,173.566786 L8.69930643,220.567654 L20.3891641,220.567654 Z M48.6222115,220.567654 L48.6222115,191.321235 L65.8564016,220.567654 L77.5128596,220.567654 L77.5128596,173.566786 L65.823002,173.566786 L65.823002,202.813205 L48.6222115,173.566786 L36.8989543,173.566786 L36.8989543,220.567654 L48.6222115,220.567654 Z M239.06224,221.21327 C244.651105,221.21327 249.048718,220.040401 252.255079,217.694661 C255.46144,215.348922 257.06462,212.120841 257.06462,208.010417 C257.06462,202.867007 254.437186,198.831905 249.182316,195.905111 C247.022476,194.69996 244.261443,193.575512 240.899217,192.531765 C237.536992,191.488019 235.187887,190.476553 233.851903,189.497369 C232.515919,188.518184 231.847928,187.426016 231.847928,186.220866 C231.847928,184.843551 232.454687,183.708342 233.668205,182.81524 C234.881724,181.922137 236.535004,181.475586 238.628045,181.475586 C240.69882,181.475586 242.340966,182.002839 243.554485,183.057346 C244.768004,184.111853 245.374763,185.59677 245.374763,187.512099 L245.374763,187.512099 L257.06462,187.512099 C257.06462,184.649866 256.29643,182.105062 254.760048,179.877686 C253.223667,177.650309 251.069393,175.934046 248.297227,174.728895 C245.525061,173.523745 242.391066,172.92117 238.895242,172.92117 C235.310352,172.92117 232.081725,173.475324 229.20936,174.583632 C226.336995,175.69194 224.115922,177.241419 222.546141,179.232069 C220.97636,181.22272 220.19147,183.520038 220.19147,186.124023 C220.19147,191.353516 223.342164,195.46394 229.643554,198.455295 C231.580731,199.380679 234.074567,200.338343 237.125063,201.328288 C240.175559,202.318233 242.307567,203.275897 243.521085,204.20128 C244.734604,205.126664 245.341363,206.417896 245.341363,208.074978 C245.341363,209.538375 244.779137,210.673584 243.654684,211.480604 C242.530231,212.287625 240.999416,212.691135 239.06224,212.691135 C236.03401,212.691135 233.846337,212.09394 232.49922,210.89955 C231.152103,209.70516 230.478544,207.849013 230.478544,205.331109 L230.478544,205.331109 L218.721887,205.331109 C218.721887,208.430067 219.529044,211.168556 221.143358,213.546577 C222.757672,215.924597 225.162442,217.796884 228.35767,219.163439 C231.552898,220.529993 235.121088,221.21327 239.06224,221.21327 Z M288.954552,221.21327 C292.873437,221.21327 296.269063,220.546134 299.141428,219.21186 C302.013793,217.877586 304.218166,215.935357 305.754547,213.385173 C307.290928,210.834988 308.059119,207.816732 308.059119,204.330404 L308.059119,204.330404 L308.059119,173.566786 L296.335862,173.566786 L296.335862,204.265842 C296.335862,207.171115 295.712403,209.269368 294.465485,210.560601 C293.218567,211.851834 291.381589,212.49745 288.954552,212.49745 C284.14501,212.49745 281.67344,209.925745 281.539842,204.782335 L281.539842,204.782335 L281.539842,173.566786 L269.749786,173.566786 L269.749786,204.556369 C269.816585,209.7213 271.553364,213.788683 274.960122,216.758518 C278.366881,219.728353 283.031691,221.21327 288.954552,221.21327 Z M333.937124,220.567654 L333.937124,203.975315 L340.283046,203.975315 L348.866742,220.567654 L361.424989,220.567654 L361.424989,220.083442 L351.271513,201.134603 C354.18841,199.800329 356.331551,198.057165 357.700934,195.905111 C359.070318,193.753056 359.755009,191.041468 359.755009,187.770345 C359.755009,183.251031 358.129562,179.753942 354.878669,177.27908 C351.627775,174.804217 347.11883,173.566786 341.351833,173.566786 L341.351833,173.566786 L322.213867,173.566786 L322.213867,220.567654 L333.937124,220.567654 Z M341.351833,195.227214 L333.937124,195.227214 L333.937124,182.314887 L341.351833,182.314887 C343.556207,182.314887 345.226186,182.890562 346.361772,184.041911 C347.497359,185.19326 348.065152,186.7804 348.065152,188.803331 C348.065152,190.826262 347.502925,192.402642 346.378472,193.532471 C345.254019,194.662299 343.578473,195.227214 341.351833,195.227214 L341.351833,195.227214 Z M382.426653,220.567654 L385.232219,211.787272 L401.297423,211.787272 L404.136389,220.567654 L416.728035,220.567654 L398.759054,173.566786 L387.737188,173.566786 L369.901806,220.567654 L382.426653,220.567654 Z M398.491857,203.039171 L388.037785,203.039171 L393.248121,186.737359 L398.491857,203.039171 Z M438.831886,220.567654 L438.831886,191.321235 L456.066076,220.567654 L467.722534,220.567654 L467.722534,173.566786 L456.032676,173.566786 L456.032676,202.813205 L438.831886,173.566786 L427.108629,173.566786 L427.108629,220.567654 L438.831886,220.567654 Z M501.215646,221.21327 C505.089999,221.21327 508.535723,220.524613 511.55282,219.147298 C514.569916,217.769983 516.913455,215.827754 518.583434,213.320611 C520.253414,210.813468 521.166336,207.924334 521.322201,204.653212 L521.322201,204.653212 L509.665743,204.653212 C509.576677,207.321759 508.81962,209.269368 507.39457,210.496039 C505.969521,211.722711 503.90988,212.336046 501.215646,212.336046 C498.031551,212.336046 495.788212,211.260019 494.485628,209.107964 C493.183044,206.95591 492.531752,203.372739 492.531752,198.358453 L492.531752,198.358453 L492.531752,195.033529 C492.598551,190.406612 493.311075,187.038647 494.669325,184.929633 C496.027576,182.82062 498.16515,181.766113 501.082047,181.766113 C503.954412,181.766113 506.091986,182.390209 507.494769,183.638401 C508.897552,184.886592 509.643476,186.941804 509.732542,189.804036 L509.732542,189.804036 L521.4224,189.804036 C520.932539,184.531503 518.895164,180.394179 515.310274,177.392063 C511.725384,174.389947 506.982642,172.888889 501.082047,172.888889 C496.985031,172.888889 493.377875,173.830413 490.260579,175.71346 C487.143284,177.596508 484.755213,180.265055 483.096366,183.719103 C481.43752,187.17315 480.608097,191.202872 480.608097,195.808268 L480.608097,195.808268 L480.608097,198.132487 C480.608097,205.470992 482.445074,211.152416 486.11903,215.176758 C489.792985,219.2011 494.82519,221.21327 501.215646,221.21327 Z M567.206562,220.567654 L567.206562,211.851834 L545.430027,211.851834 L545.430027,200.650391 L563.866602,200.650391 L563.866602,192.225098 L545.430027,192.225098 L545.430027,182.314887 L567.273361,182.314887 L567.273361,173.566786 L533.70677,173.566786 L533.70677,220.567654 L567.206562,220.567654 Z" id="SAMSUNGFIRE&amp;MARINEINSURANCE" fill="#000000" fill-rule="nonzero"></path>
                <g id="tit-copy-2" transform="translate(91.100000, 194.000000)"></g>
            </g>
        </g>
    </g>
</svg>