<?xml version="1.0" encoding="UTF-8"?>
<svg width="470px" height="590px" viewBox="0 0 470 590" version="1.1" xmlns="http://www.w3.org/2000/svg" xmlns:xlink="http://www.w3.org/1999/xlink">
    <title>pc_ico_b_about04</title>
    <g id="Publish_PC" stroke="none" stroke-width="1" fill="none" fill-rule="evenodd">
        <g id="pc_02about-" transform="translate(-1268.000000, -8910.000000)">
            <g id="pc_ico_b_about04" transform="translate(1268.000000, 8910.000000)">
                <polygon id="Rectangle" fill="#FFFFFF" opacity="0" points="0 0 470 0 470 589 0 589"></polygon>
                <path d="M74.3935264,260 L74.3935264,171.744505 L107.085179,171.744505 L151.30494,260 L216,260 L216,257.424451 L163.693356,156.634615 C178.720045,149.537546 189.760647,140.265568 196.815162,128.818681 C203.869676,117.371795 207.396934,102.948718 207.396934,85.5494505 C207.396934,61.510989 199.023282,42.9097985 182.27598,29.7458791 C165.528677,16.5819597 142.300398,10 112.591141,10 L112.591141,10 L14,10 L14,260 L74.3935264,260 Z M112.312057,126 L74,126 L74,57 L112.312057,57 C123.702128,57 132.330969,60.07625 138.198582,66.22875 C144.066194,72.38125 147,80.8625 147,91.6725 C147,102.4825 144.094957,110.90625 138.28487,116.94375 C132.474783,122.98125 123.817179,126 112.312057,126 L112.312057,126 Z" id="R" fill="#DDDDDD" fill-rule="nonzero"></path>
                <path d="M347.409178,264 C363.814532,264 378.75717,260.251726 392.237094,252.755177 C405.717017,245.258628 416.214149,234.872189 423.728489,221.595858 C431.24283,208.319528 435,193.72701 435,177.818303 C435,152.181251 428.575526,131.465598 415.726577,115.671343 C402.877629,99.8770875 385.611855,91.9799599 363.929254,91.9799599 C343.967495,91.9799599 327.447419,98.3892229 314.369025,111.207749 C317.581262,92.7811178 326.156788,78.3888889 340.095602,68.0310621 C354.034417,57.6732354 371.845124,52.494322 393.527725,52.494322 L393.527725,52.494322 L396.108987,52.494322 L396.108987,7 L387.332696,7 C362.323136,7 339.550669,12.8370073 319.015296,24.511022 C298.479924,36.1850367 282.676864,52.2940325 271.606119,72.8380094 C260.535373,93.3819862 255,116.529726 255,142.281229 L255,142.281229 L255,165.457582 C255.229446,185.028724 259.244742,202.310844 267.045889,217.303941 C274.847036,232.297039 285.745698,243.827989 299.741874,251.896794 C313.73805,259.965598 329.627151,264 347.409178,264 Z M345.948787,219 C323.982929,219 313,203.22314 313,171.669421 L313,171.669421 L313,154.349174 C315.530099,149.204545 319.382749,144.860193 324.557951,141.316116 C329.733154,137.772039 336.173405,136 343.878706,136 C353.884097,136 361.90566,139.858471 367.943396,147.575413 C373.981132,155.292355 377,165.267218 377,177.5 C377,189.389807 374.038634,199.278926 368.115903,207.167355 C362.193172,215.055785 354.804133,219 345.948787,219 Z" id="6" fill="#000000" fill-rule="nonzero"></path>
                <polygon id="E" fill="#DDDDDD" fill-rule="nonzero" points="186.655721 578 186.655721 531.64011 74.4208955 531.64011 74.4208955 472.059066 169.441791 472.059066 169.441791 427.244505 74.4208955 427.244505 74.4208955 374.531593 187 374.531593 187 328 14 328 14 578"></polygon>
                <path d="M342.48514,578 C364.182692,577.885531 383.842512,572.705815 401.464598,562.460852 C419.086684,552.215888 432.748106,538.021749 442.448864,519.878434 C452.149621,501.735119 457,481.216575 457,458.322802 L457,458.322802 L457,446.818681 C456.885198,424.153846 451.862617,403.692537 441.932255,385.434753 C432.001894,367.176969 418.19697,353.040064 400.517483,343.024038 C382.837995,333.008013 362.919872,328 340.763112,328 L340.763112,328 L260,328 L260,578 L342.48514,578 Z M341.034483,532 L320,532 L320,375 L340.344828,375 C358.16092,375 371.724138,381.119854 381.034483,393.359563 C390.344828,405.599271 395,423.78725 395,447.923497 L395,447.923497 L395,458.733333 C395,482.983971 390.344828,501.257741 381.034483,513.554645 C371.724138,525.851548 358.390805,532 341.034483,532 L341.034483,532 Z" id="D" fill="#FF3D32" fill-rule="nonzero"></path>
            </g>
        </g>
    </g>
</svg>