<?xml version="1.0" encoding="UTF-8"?>
<svg width="156px" height="156px" viewBox="0 0 156 156" version="1.1" xmlns="http://www.w3.org/2000/svg" xmlns:xlink="http://www.w3.org/1999/xlink">
    <title>pc_ico_m_about07_1</title>
    <defs>
        <path d="M102.6954,152.00111 C94.9271311,154.595042 86.6147317,156 77.9741868,156 C69.3336203,156 61.0212011,154.595035 53.2529158,152.001091 Z M119.558296,144.002602 C117.256914,145.455606 114.874256,146.79157 112.418682,148.002131 L43.529692,148.002131 C41.0739445,146.791484 38.6911231,145.455418 36.3895899,144.002294 Z M130.12626,136.002303 C128.574753,137.398233 126.966942,138.732807 125.306646,140.002203 L30.6417277,140.002203 C28.9812376,138.732658 27.373244,137.397921 25.8215689,136.001813 Z M137.842392,128.000943 C136.692941,129.375751 135.497018,130.710368 134.257038,132.002379 L21.6913359,132.002379 C20.4513559,130.710368 19.2554326,129.375751 18.1059811,128.000943 Z M143.711776,120.000931 C142.839183,121.363832 141.925366,122.697804 140.972086,124.001088 L14.9762874,124.001088 C14.0230071,122.697804 13.1091908,121.363832 12.2365976,120.000931 Z M148.192899,112.001632 C147.535399,113.356965 146.839815,114.690393 146.107538,116.000526 L9.84083584,116.000526 C9.10855865,114.690393 8.41297462,113.356965 7.75547461,112.001632 Z M151.535529,104.000874 C151.058017,105.351828 150.544345,106.6857 149.995674,108.001326 L5.95269999,108.001326 C5.40402899,106.6857 4.89035606,105.351828 4.41284421,104.000874 Z M153.886658,96.0014663 C153.56844,97.3484942 153.215295,98.6820272 152.828234,100.001057 L3.12013926,100.001057 C2.73307823,98.6820272 2.37993402,97.3484942 2.06171523,96.0014663 Z M155.339035,88.000803 C155.166992,89.3450137 154.960733,90.6785252 154.721159,92.0004364 L1.2272144,92.0004364 C0.987640711,90.6785252 0.781381567,89.3450137 0.60933807,88.000803 Z M155.94901,80.0014069 C155.915213,81.3432693 155.847529,82.6767129 155.746779,84.0009141 L0.201594117,84.0009141 C0.100844826,82.6767129 0.0331601541,81.3432693 -0.000636126842,80.0014069 Z M155.746855,72.0000848 C155.847588,73.3242865 155.915256,74.6577304 155.949035,75.9995927 L-0.000661297871,75.9995927 C0.0331180466,74.6577304 0.100785774,73.3242865 0.201518121,72.0000848 Z M154.721341,64.0005661 C154.960896,65.3224763 155.167138,66.6559863 155.339163,68.0001953 L0.609210304,68.0001953 C0.781235956,66.6559863 0.987477119,65.3224763 1.22703271,64.0005661 Z M152.828527,55.9999417 C153.215569,57.3189723 153.568695,58.6525059 153.886895,59.999534 L2.06147893,59.999534 C2.37967889,58.6525059 2.7328042,57.3189723 3.11984624,55.9999417 Z M149.99609,47.9996718 C150.54474,49.3153002 151.058392,50.6491733 151.535884,52.0001281 L4.41248989,52.0001281 C4.88998123,50.6491733 5.40363354,49.3153002 5.95228382,47.9996718 Z M146.108099,40.0004792 C146.840351,41.3106118 147.53591,42.6440389 148.193385,43.9993694 L7.75498879,43.9993694 C8.41246386,42.6440389 9.10802258,41.3106118 9.84027411,40.0004792 Z M140.972814,31.999908 C141.926064,33.3031928 142.83985,34.637165 143.712414,36.0000656 L12.2359598,36.0000656 C13.1085233,34.637165 14.0223093,33.3031928 14.9755591,31.999908 Z M134.257995,23.9986192 C135.497936,25.2906337 136.69382,26.6252531 137.843233,28.0000624 L18.1051408,28.0000624 C19.2545538,26.6252531 20.450438,25.2906337 21.6903782,23.9986192 Z M125.307648,15.9985635 C126.967945,17.2680028 128.575755,18.6026204 130.127259,19.9985955 L25.8205693,19.9990865 C27.3722413,18.6029333 28.9802341,17.2681516 30.6407256,15.9985635 Z M112.420677,7.99885253 C114.876258,9.20950477 117.258917,10.5455609 119.560295,11.9986599 L36.3885894,11.9983372 C38.689809,10.5453631 41.0722976,9.20941516 43.5276961,7.99885253 Z M77.9741868,-4.54747351e-12 C86.6158468,-4.54747351e-12 94.9292765,1.40532099 102.698407,3.9998943 L53.2499058,3.99991454 C61.0190539,1.4053283 69.3325043,-4.54747351e-12 77.9741868,-4.54747351e-12 Z" id="path-1"></path>
    </defs>
    <g id="Publish_PC" stroke="none" stroke-width="1" fill="none" fill-rule="evenodd">
        <g id="pc_02about-" transform="translate(-1500.000000, -5011.000000)">
            <g id="pc_ico_m_about07" transform="translate(1500.000000, 5011.000000)">
                <g id="pc_ico_m_about07_1">
                    <mask id="mask-2" fill="white">
                        <use xlink:href="#path-1"></use>
                    </mask>
                    <use id="Combined-Shape" fill="#000000" xlink:href="#path-1"></use>
                </g>
            </g>
        </g>
    </g>
</svg>