<?xml version="1.0" encoding="UTF-8"?>
<svg width="985px" height="65px" viewBox="0 0 985 65" version="1.1" xmlns="http://www.w3.org/2000/svg" xmlns:xlink="http://www.w3.org/1999/xlink">
    <!-- Generator: Sketch 61.2 (89653) - https://sketch.com -->
    <title>pc_ico_contact_02</title>
    <desc>Created with Sketch.</desc>
    <g id="Page-1" stroke="none" stroke-width="1" fill="none" fill-rule="evenodd">
        <g id="pc_05contact" transform="translate(-161.000000, -413.000000)">
            <g id="pc_ico_contact_02" transform="translate(160.000000, 410.000000)">
                <polygon id="Rectangle" fill="#909090" opacity="0" points="0 0.00663598909 990 0.00663598909 990 69.0207205 0 69.0207205"></polygon>
                <path d="M21.9600982,52.9148666 C25.8194574,52.9148666 29.2518472,52.2165098 32.2572678,50.8197962 C35.2626883,49.4230826 37.597157,47.4534982 39.2606739,44.9110429 C40.9241908,42.3685876 41.83358,39.4387626 41.9888416,36.1215678 L41.9888416,36.1215678 L30.3774937,36.1215678 C30.2887728,38.8277004 29.5346451,40.8027407 28.1151107,42.0466888 C26.6955763,43.2906369 24.6439055,43.9126109 21.9600982,43.9126109 C18.788326,43.9126109 16.5536683,42.8214284 15.2561251,40.6390634 C13.958582,38.4566983 13.3098104,34.8230606 13.3098104,29.7381501 L13.3098104,29.7381501 L13.3098104,26.3663961 C13.3763511,21.6743113 14.0861183,18.2589101 15.439112,16.1201923 C16.7921057,13.9814746 18.9214074,12.9121157 21.8270169,12.9121157 C24.6882659,12.9121157 26.8175675,13.5450016 28.2149217,14.8107733 C29.6122759,16.076545 30.3553134,18.1607036 30.4440343,21.0632491 L30.4440343,21.0632491 L42.0886526,21.0632491 C41.6006876,15.7164548 39.571197,11.520858 36.0001808,8.47645883 C32.4291645,5.43205962 27.7047765,3.90986002 21.8270169,3.90986002 C17.7458554,3.90986002 14.1526589,4.86464472 11.0474274,6.77421411 C7.94219588,8.68378351 5.56336673,11.3899161 3.91093995,14.892612 C2.25851317,18.3953079 1.43229978,22.4817864 1.43229978,27.1520475 L1.43229978,27.1520475 L1.43229978,29.5090017 C1.43229978,36.9508665 3.26216836,42.7123101 6.92190552,46.7933327 C10.5816427,50.8743553 15.5943736,52.9148666 21.9600982,52.9148666 Z M71.94989,52.9148666 C76.0754119,52.9148666 79.7517842,51.9491701 82.979007,50.0177771 C86.2062298,48.086384 88.69596,45.3311482 90.4481978,41.7520695 C92.2004356,38.1729909 93.0765545,34.0592328 93.0765545,29.4107953 L93.0765545,29.4107953 L93.0765545,27.2175185 C93.0543743,22.6345519 92.1505301,18.5698971 90.365022,15.0235539 C88.5795139,11.4772107 86.0786935,8.74379855 82.8625608,6.82331733 C79.6464282,4.90283611 75.986691,3.9425955 71.8833493,3.9425955 C67.7356472,3.9425955 64.0370947,4.91374793 60.7876917,6.8560528 C57.5382887,8.79835767 55.0430133,11.5535935 53.3018657,15.1217603 C51.560718,18.6899271 50.6901442,22.8091411 50.6901442,27.4794023 L50.6901442,27.4794023 L50.6901442,30.1637113 C50.7788651,34.6593832 51.7159796,38.6421994 53.5014877,42.1121598 C55.2869958,45.5821201 57.7767261,48.2500614 60.9706785,50.1159835 C64.164631,51.9819056 67.8243681,52.9148666 71.94989,52.9148666 Z M71.94989,43.9453464 C68.8446585,43.9453464 66.5046447,42.6904865 64.9298487,40.1807667 C63.3550527,37.6710469 62.5676547,34.0810565 62.5676547,29.4107953 L62.5676547,29.4107953 L62.6009251,25.9080995 C62.9336285,17.265934 66.0277699,12.9448512 71.8833493,12.9448512 C74.8776797,12.9448512 77.1788781,14.1724315 78.7869444,16.6275922 C80.3950108,19.0827528 81.1990439,22.6781992 81.1990439,27.4139313 L81.1990439,27.4139313 L81.1990439,29.6072082 C81.1768637,34.233822 80.3672855,37.7801652 78.7703093,40.2462377 C77.173333,42.7123101 74.89986,43.9453464 71.94989,43.9453464 Z M115.318885,52.2601571 L115.318885,22.6018164 L132.486379,52.2601571 L144.097727,52.2601571 L144.097727,4.597305 L132.453109,4.597305 L132.453109,34.2556457 L115.318885,4.597305 L103.640996,4.597305 L103.640996,52.2601571 L115.318885,52.2601571 Z M178.550271,52.2601571 L178.550271,13.4686188 L193.089408,13.4686188 L193.089408,4.597305 L152.599407,4.597305 L152.599407,13.4686188 L166.872382,13.4686188 L166.872382,52.2601571 L178.550271,52.2601571 Z M207.280317,52.2601571 L210.075025,43.3561078 L226.078058,43.3561078 L228.906036,52.2601571 L241.448954,52.2601571 L223.549512,4.597305 L212.5703,4.597305 L194.80394,52.2601571 L207.280317,52.2601571 Z M223.283349,34.484794 L212.869734,34.484794 L218.059906,17.9533789 L223.283349,34.484794 Z M267.983157,52.9148666 C271.842517,52.9148666 275.274906,52.2165098 278.280327,50.8197962 C281.285747,49.4230826 283.620216,47.4534982 285.283733,44.9110429 C286.94725,42.3685876 287.856639,39.4387626 288.011901,36.1215678 L288.011901,36.1215678 L276.400553,36.1215678 C276.311832,38.8277004 275.557704,40.8027407 274.13817,42.0466888 C272.718635,43.2906369 270.666965,43.9126109 267.983157,43.9126109 C264.811385,43.9126109 262.576727,42.8214284 261.279184,40.6390634 C259.981641,38.4566983 259.33287,34.8230606 259.33287,29.7381501 L259.33287,29.7381501 L259.33287,26.3663961 C259.39941,21.6743113 260.109177,18.2589101 261.462171,16.1201923 C262.815165,13.9814746 264.944466,12.9121157 267.850076,12.9121157 C270.711325,12.9121157 272.840627,13.5450016 274.237981,14.8107733 C275.635335,16.076545 276.378373,18.1607036 276.467093,21.0632491 L276.467093,21.0632491 L288.111712,21.0632491 C287.623747,15.7164548 285.594256,11.520858 282.02324,8.47645883 C278.452224,5.43205962 273.727836,3.90986002 267.850076,3.90986002 C263.768915,3.90986002 260.175718,4.86464472 257.070487,6.77421411 C253.965255,8.68378351 251.586426,11.3899161 249.933999,14.892612 C248.281572,18.3953079 247.455359,22.4817864 247.455359,27.1520475 L247.455359,27.1520475 L247.455359,29.5090017 C247.455359,36.9508665 249.285227,42.7123101 252.944965,46.7933327 C256.604702,50.8743553 261.617433,52.9148666 267.983157,52.9148666 Z M320.601306,52.2601571 L320.601306,13.4686188 L335.140443,13.4686188 L335.140443,4.597305 L294.650442,4.597305 L294.650442,13.4686188 L308.923417,13.4686188 L308.923417,52.2601571 L320.601306,52.2601571 Z M370.657638,67.0893275 C372.964382,67.0893275 375.26558,66.8219877 377.561233,66.2873083 C379.856887,65.7526289 381.68121,65.0488162 383.034204,64.1758701 L383.034204,64.1758701 L381.803201,58.7417812 C380.494568,59.3091961 378.797781,59.8056842 376.71284,60.2312454 C374.627899,60.6568065 372.653859,60.8695871 370.79072,60.8695871 C363.870489,60.8695871 358.680317,58.8454436 355.220202,54.7971565 C351.760086,50.7488693 350.207471,44.905587 350.562354,37.2673094 C350.806337,32.2915172 351.887623,27.8558602 353.806212,23.9603387 C355.724802,20.0648171 358.330978,17.0531534 361.624742,14.9253475 C364.918505,12.7975416 368.683598,11.7336386 372.920021,11.7336386 C379.574089,11.7336386 384.625635,13.7195908 388.07466,17.6914951 C391.523685,21.6633995 393.059666,27.2939012 392.682602,34.5830004 C392.549521,38.2711973 391.845298,41.2992288 390.569935,43.6670948 C389.294573,46.0349609 387.714231,47.2188939 385.828912,47.2188939 C383.322547,47.2188939 382.257896,45.7021502 382.63496,42.6686628 L382.63496,42.6686628 L384.331747,23.4529388 L382.235716,22.0780488 C379.884612,20.5940406 377.078813,19.8520365 373.81832,19.8520365 C369.604078,19.8520365 366.044151,21.5106339 363.138542,24.8278288 C360.232932,28.1450236 358.447424,32.5315773 357.782018,37.9874899 C357.493675,40.8682117 357.721022,43.4434024 358.464059,45.713062 C359.207097,47.9827217 360.377104,49.7340696 361.97408,50.9671058 C363.571056,52.2001421 365.434195,52.8166602 367.563497,52.8166602 C371.223234,52.8166602 374.139934,51.3762993 376.313596,48.4955775 C377.089904,49.9141147 378.176735,51.0107531 379.574089,51.7854927 C380.971443,52.5602323 382.579509,52.9476021 384.398288,52.9476021 C388.834333,52.9476021 392.383169,51.2562692 395.044796,47.8736034 C397.706423,44.4909376 399.148138,39.9516184 399.36994,34.2556457 C399.613922,28.6033203 398.715623,23.6384398 396.675042,19.3610044 C394.634462,15.0835689 391.584681,11.8045655 387.5257,9.52399404 C383.466718,7.24342259 378.642519,6.10313687 373.053103,6.10313687 C367.463686,6.10313687 362.44541,7.40709997 357.998275,10.0150262 C353.55114,12.6229524 350.046664,16.3111493 347.484848,21.0796168 C344.923032,25.8480844 343.509043,31.2439819 343.24288,37.2673094 C343.021078,43.6398153 343.930467,49.0629924 345.971048,53.5368407 C348.011628,58.010689 351.122405,61.3878988 355.303377,63.6684703 C359.48435,65.9490417 364.602437,67.0893275 370.657638,67.0893275 Z M370.158583,46.5969199 C368.605967,46.5969199 367.480321,45.8712835 366.781644,44.4200108 C366.082967,42.968738 365.85562,40.8245644 366.099602,37.9874899 C366.521026,33.8846436 367.40269,30.8784358 368.744594,28.9688664 C370.086497,27.059297 371.999542,26.1045123 374.483727,26.1045123 C375.193494,26.1045123 375.881081,26.1918069 376.546488,26.3663961 L376.546488,26.3663961 L375.215675,41.2937729 C374.638989,42.9960176 373.912586,44.3054366 373.036467,45.2220299 C372.160349,46.1386232 371.201054,46.5969199 370.158583,46.5969199 Z M421.845162,52.2601571 L421.845162,22.6018164 L439.012657,52.2601571 L450.624004,52.2601571 L450.624004,4.597305 L438.979386,4.597305 L438.979386,34.2556457 L421.845162,4.597305 L410.167274,4.597305 L410.167274,52.2601571 L421.845162,52.2601571 Z M495.922679,52.2601571 L495.922679,43.4215788 L474.230418,43.4215788 L474.230418,32.0623688 L492.595645,32.0623688 L492.595645,23.5184098 L474.230418,23.5184098 L474.230418,13.4686188 L495.989219,13.4686188 L495.989219,4.597305 L462.55253,4.597305 L462.55253,52.2601571 L495.922679,52.2601571 Z M529.377113,52.2601571 L529.377113,13.4686188 L543.91625,13.4686188 L543.91625,4.597305 L503.426249,4.597305 L503.426249,13.4686188 L517.699224,13.4686188 L517.699224,52.2601571 L529.377113,52.2601571 Z M565.825877,52.2601571 L565.825877,4.597305 L554.181259,4.597305 L554.181259,52.2601571 L565.825877,52.2601571 Z M603.671995,52.2601571 L619.974461,4.597305 L606.932488,4.597305 L597.28409,39.2969089 L587.668963,4.597305 L574.726801,4.597305 L590.896186,52.2601571 L603.671995,52.2601571 Z M661.413776,52.2601571 L661.413776,43.4215788 L639.721516,43.4215788 L639.721516,32.0623688 L658.086742,32.0623688 L658.086742,23.5184098 L639.721516,23.5184098 L639.721516,13.4686188 L661.480317,13.4686188 L661.480317,4.597305 L628.043627,4.597305 L628.043627,52.2601571 L661.413776,52.2601571 Z M682.391833,52.2601571 L682.391833,35.4341228 L688.713197,35.4341228 L697.263674,52.2601571 L709.773321,52.2601571 L709.773321,51.769125 L699.659138,32.553401 C702.564748,31.2003346 704.699595,29.432619 706.063678,27.2502539 C707.427762,25.0678889 708.109804,22.318109 708.109804,19.0009142 C708.109804,14.4179476 706.490648,10.8716044 703.252335,8.36188467 C700.014022,5.85216489 695.522526,4.597305 689.777848,4.597305 L689.777848,4.597305 L670.713945,4.597305 L670.713945,52.2601571 L682.391833,52.2601571 Z M689.777848,26.562809 L682.391833,26.562809 L682.391833,13.4686188 L689.777848,13.4686188 C691.97369,13.4686188 693.637207,14.0524015 694.768399,15.2199668 C695.89959,16.387532 696.465186,17.9970262 696.465186,20.0484494 C696.465186,22.0998725 695.905135,23.6984549 694.785034,24.8441965 C693.664933,25.9899381 691.995871,26.562809 689.777848,26.562809 L689.777848,26.562809 Z M753.075775,52.2601571 L753.075775,43.4215788 L731.383515,43.4215788 L731.383515,32.0623688 L749.748741,32.0623688 L749.748741,23.5184098 L731.383515,23.5184098 L731.383515,13.4686188 L753.142316,13.4686188 L753.142316,4.597305 L719.705626,4.597305 L719.705626,52.2601571 L753.075775,52.2601571 Z M778.312435,52.2601571 C782.504498,52.2383335 786.302862,51.2508133 789.707526,49.2975966 C793.112191,47.3443799 795.751638,44.6382473 797.625867,41.1791987 C799.500096,37.7201501 800.43721,33.8082608 800.43721,29.4435308 L800.43721,29.4435308 L800.43721,27.2502539 C800.41503,22.9291712 799.444645,19.0281937 797.526056,15.5473215 C795.607466,12.0664493 792.940294,9.37122849 789.524539,7.4616591 C786.108785,5.5520897 782.260516,4.597305 777.979732,4.597305 L777.979732,4.597305 L762.375944,4.597305 L762.375944,52.2601571 L778.312435,52.2601571 Z M778.112813,43.4215788 L774.053832,43.4215788 L774.053832,13.4686188 L777.979732,13.4686188 C781.417667,13.4686188 784.034934,14.6361841 785.831532,16.9713147 C787.62813,19.3064453 788.526429,22.7764056 788.526429,27.3811958 L788.526429,27.3811958 L788.526429,29.4435308 C788.526429,34.0701446 787.62813,37.5564728 785.831532,39.9025152 C784.034934,42.2485576 781.462027,43.4215788 778.112813,43.4215788 L778.112813,43.4215788 Z M813.330575,52.6202473 C815.104993,52.6202473 816.579978,52.1019357 817.75553,51.0653123 C818.931082,50.0286889 819.518858,48.7029021 819.518858,47.087952 C819.518858,45.4730019 818.931082,44.1472151 817.75553,43.1105918 C816.579978,42.0739684 815.104993,41.5556567 813.330575,41.5556567 C811.533977,41.5556567 810.053447,42.0794243 808.888985,43.1269595 C807.724523,44.1744947 807.142292,45.4948255 807.142292,47.087952 C807.142292,48.6810785 807.724523,50.0014093 808.888985,51.0489445 C810.053447,52.0964797 811.533977,52.6202473 813.330575,52.6202473 Z M851.209964,52.9148666 C855.069323,52.9148666 858.501713,52.2165098 861.507134,50.8197962 C864.512554,49.4230826 866.847023,47.4534982 868.51054,44.9110429 C870.174057,42.3685876 871.083446,39.4387626 871.238707,36.1215678 L871.238707,36.1215678 L859.62736,36.1215678 C859.538639,38.8277004 858.784511,40.8027407 857.364977,42.0466888 C855.945442,43.2906369 853.893771,43.9126109 851.209964,43.9126109 C848.038192,43.9126109 845.803534,42.8214284 844.505991,40.6390634 C843.208448,38.4566983 842.559676,34.8230606 842.559676,29.7381501 L842.559676,29.7381501 L842.559676,26.3663961 C842.626217,21.6743113 843.335984,18.2589101 844.688978,16.1201923 C846.041972,13.9814746 848.171273,12.9121157 851.076883,12.9121157 C853.938132,12.9121157 856.067433,13.5450016 857.464788,14.8107733 C858.862142,16.076545 859.605179,18.1607036 859.6939,21.0632491 L859.6939,21.0632491 L871.338518,21.0632491 C870.850554,15.7164548 868.821063,11.520858 865.250047,8.47645883 C861.67903,5.43205962 856.954642,3.90986002 851.076883,3.90986002 C846.995721,3.90986002 843.402525,4.86464472 840.297293,6.77421411 C837.192062,8.68378351 834.813233,11.3899161 833.160806,14.892612 C831.508379,18.3953079 830.682166,22.4817864 830.682166,27.1520475 L830.682166,27.1520475 L830.682166,29.5090017 C830.682166,36.9508665 832.512034,42.7123101 836.171771,46.7933327 C839.831509,50.8743553 844.844239,52.9148666 851.209964,52.9148666 Z M901.199756,52.9148666 C905.325278,52.9148666 909.00165,51.9491701 912.228873,50.0177771 C915.456096,48.086384 917.945826,45.3311482 919.698064,41.7520695 C921.450302,38.1729909 922.32642,34.0592328 922.32642,29.4107953 L922.32642,29.4107953 L922.32642,27.2175185 C922.30424,22.6345519 921.400396,18.5698971 919.614888,15.0235539 C917.82938,11.4772107 915.328559,8.74379855 912.112427,6.82331733 C908.896294,4.90283611 905.236557,3.9425955 901.133215,3.9425955 C896.985513,3.9425955 893.286961,4.91374793 890.037558,6.8560528 C886.788155,8.79835767 884.292879,11.5535935 882.551732,15.1217603 C880.810584,18.6899271 879.94001,22.8091411 879.94001,27.4794023 L879.94001,27.4794023 L879.94001,30.1637113 C880.028731,34.6593832 880.965845,38.6421994 882.751354,42.1121598 C884.536862,45.5821201 887.026592,48.2500614 890.220544,50.1159835 C893.414497,51.9819056 897.074234,52.9148666 901.199756,52.9148666 Z M901.199756,43.9453464 C898.094524,43.9453464 895.754511,42.6904865 894.179715,40.1807667 C892.604919,37.6710469 891.817521,34.0810565 891.817521,29.4107953 L891.817521,29.4107953 L891.850791,25.9080995 C892.183494,17.265934 895.277636,12.9448512 901.133215,12.9448512 C904.127546,12.9448512 906.428744,14.1724315 908.03681,16.6275922 C909.644877,19.0827528 910.44891,22.6781992 910.44891,27.4139313 L910.44891,27.4139313 L910.44891,29.6072082 C910.42673,34.233822 909.617151,37.7801652 908.020175,40.2462377 C906.423199,42.7123101 904.149726,43.9453464 901.199756,43.9453464 Z M944.56875,52.2601571 L944.56875,41.1300955 L943.437559,18.3134692 L955.181988,52.2601571 L962.900707,52.2601571 L974.611866,18.3462047 L973.480674,41.1300955 L973.480674,52.2601571 L985.191833,52.2601571 L985.191833,4.597305 L969.820937,4.597305 L959.041347,37.7583415 L948.228488,4.597305 L932.890862,4.597305 L932.890862,52.2601571 L944.56875,52.2601571 Z" id="CONTACT@NETIVERED.COM" fill="#000000" fill-rule="nonzero"></path>
            </g>
        </g>
    </g>
</svg>