<?xml version="1.0" encoding="UTF-8"?>
<svg width="142px" height="80px" viewBox="0 0 142 80" version="1.1" xmlns="http://www.w3.org/2000/svg" xmlns:xlink="http://www.w3.org/1999/xlink">
    <!-- Generator: Sketch 64 (93537) - https://sketch.com -->
    <title>pc_ico_list_01</title>
    <desc>Created with Sketch.</desc>
    <g id="Publish_PC" stroke="none" stroke-width="1" fill="none" fill-rule="evenodd">
        <g id="pc_03list" transform="translate(-300.000000, -240.000000)">
            <g id="pc_ico_list_01" transform="translate(300.000000, 240.000000)">
                <rect id="Rectangle" fill="#414141" opacity="0" x="0" y="0" width="142" height="80"></rect>
                <path d="M6.40234375,22 L6.40234375,18.015625 L6.00390625,9.84765625 L10.140625,22 L12.859375,22 L16.984375,9.859375 L16.5859375,18.015625 L16.5859375,22 L20.7109375,22 L20.7109375,4.9375 L15.296875,4.9375 L11.5,16.8085938 L7.69140625,4.9375 L2.2890625,4.9375 L2.2890625,22 L6.40234375,22 Z M26.3945312,22 L27.3789062,18.8125 L33.015625,18.8125 L34.0117188,22 L38.4296875,22 L32.125,4.9375 L28.2578125,4.9375 L22,22 L26.3945312,22 Z M32.03125,15.6367188 L28.3632812,15.6367188 L30.1914062,9.71875 L32.03125,15.6367188 Z M43.7851562,22 L43.7851562,17.5 L45.4726562,15.6484375 L49.1054688,22 L53.9804688,22 L48.2148438,12.484375 L53.9804688,4.9375 L48.8945312,4.9375 L45.2148438,10.2929688 L43.7851562,12.4609375 L43.7851562,4.9375 L39.671875,4.9375 L39.671875,22 L43.7851562,22 Z M66.7773438,22 L66.7773438,18.8359375 L59.1367188,18.8359375 L59.1367188,14.7695312 L65.6054688,14.7695312 L65.6054688,11.7109375 L59.1367188,11.7109375 L59.1367188,8.11328125 L66.8007812,8.11328125 L66.8007812,4.9375 L55.0234375,4.9375 L55.0234375,22 L66.7773438,22 Z M116.96875,22.234375 C118.34375,22.234375 119.535156,21.9921875 120.542969,21.5078125 C121.550781,21.0234375 122.324219,20.3183594 122.863281,19.3925781 C123.402344,18.4667969 123.671875,17.3710938 123.671875,16.1054688 L123.671875,16.1054688 L123.671875,4.9375 L119.558594,4.9375 L119.558594,16.0820312 C119.558594,17.1367188 119.339844,17.8984375 118.902344,18.3671875 C118.464844,18.8359375 117.820312,19.0703125 116.96875,19.0703125 C115.28125,19.0703125 114.414062,18.1367188 114.367188,16.2695312 L114.367188,16.2695312 L114.367188,4.9375 L110.230469,4.9375 L110.230469,16.1875 C110.253906,18.0625 110.863281,19.5390625 112.058594,20.6171875 C113.253906,21.6953125 114.890625,22.234375 116.96875,22.234375 Z M129.730469,22 L132.601562,16.2226562 L135.472656,22 L140.21875,22 L135.320312,13.3984375 L140.089844,4.9375 L135.390625,4.9375 L132.601562,10.609375 L129.8125,4.9375 L125.125,4.9375 L129.882812,13.3984375 L124.996094,22 L129.730469,22 Z M5.359375,49 L6.34375,45.8125 L11.9804688,45.8125 L12.9765625,49 L17.3945312,49 L11.0898438,31.9375 L7.22265625,31.9375 L0.96484375,49 L5.359375,49 Z M10.9960938,42.6367188 L7.328125,42.6367188 L9.15625,36.71875 L10.9960938,42.6367188 Z M25.234375,49.234375 C27.1953125,49.234375 28.7382812,48.8085938 29.8632812,47.9570312 C30.9882812,47.1054688 31.5507812,45.9335938 31.5507812,44.4414062 C31.5507812,42.5742188 30.6289062,41.109375 28.7851562,40.046875 C28.0273438,39.609375 27.0585938,39.2011719 25.8789062,38.8222656 C24.6992188,38.4433594 23.875,38.0761719 23.40625,37.7207031 C22.9375,37.3652344 22.703125,36.96875 22.703125,36.53125 C22.703125,36.03125 22.9160156,35.6191406 23.3417969,35.2949219 C23.7675781,34.9707031 24.3476562,34.8085938 25.0820312,34.8085938 C25.8085938,34.8085938 26.3847656,35 26.8105469,35.3828125 C27.2363281,35.765625 27.4492188,36.3046875 27.4492188,37 L27.4492188,37 L31.5507812,37 C31.5507812,35.9609375 31.28125,35.0371094 30.7421875,34.2285156 C30.203125,33.4199219 29.4472656,32.796875 28.4746094,32.359375 C27.5019531,31.921875 26.4023438,31.703125 25.1757812,31.703125 C23.9179688,31.703125 22.7851562,31.9042969 21.7773438,32.3066406 C20.7695312,32.7089844 19.9902344,33.2714844 19.4394531,33.9941406 C18.8886719,34.7167969 18.6132812,35.5507812 18.6132812,36.4960938 C18.6132812,38.3945312 19.71875,39.8867188 21.9296875,40.9726562 C22.609375,41.3085938 23.484375,41.65625 24.5546875,42.015625 C25.625,42.375 26.3730469,42.7226562 26.7988281,43.0585938 C27.2246094,43.3945312 27.4375,43.8632812 27.4375,44.4648438 C27.4375,44.9960938 27.2402344,45.4082031 26.8457031,45.7011719 C26.4511719,45.9941406 25.9140625,46.140625 25.234375,46.140625 C24.171875,46.140625 23.4042969,45.9238281 22.9316406,45.4902344 C22.4589844,45.0566406 22.2226562,44.3828125 22.2226562,43.46875 L22.2226562,43.46875 L18.0976562,43.46875 C18.0976562,44.59375 18.3808594,45.5878906 18.9472656,46.4511719 C19.5136719,47.3144531 20.3574219,47.9941406 21.4785156,48.4902344 C22.5996094,48.9863281 23.8515625,49.234375 25.234375,49.234375 Z M46.8203125,49.234375 C48.2734375,49.234375 49.609375,49.0195312 50.828125,48.5898438 C52.046875,48.1601562 52.9726562,47.59375 53.6054688,46.890625 L53.6054688,46.890625 L53.6054688,39.8828125 L46.6328125,39.8828125 L46.6328125,42.7070312 L49.4921875,42.7070312 L49.4921875,45.3554688 C48.96875,45.8320312 48.171875,46.0703125 47.1015625,46.0703125 C45.8515625,46.0703125 44.9355469,45.6425781 44.3535156,44.7871094 C43.7714844,43.9316406 43.4804688,42.6523438 43.4804688,40.9492188 L43.4804688,40.9492188 L43.4804688,39.9179688 C43.4882812,38.2929688 43.7734375,37.0429688 44.3359375,36.1679688 C44.8984375,35.2929688 45.6953125,34.8554688 46.7265625,34.8554688 C47.5859375,34.8554688 48.25,35.0585938 48.71875,35.4648438 C49.1875,35.8710938 49.4921875,36.5507812 49.6328125,37.5039062 L49.6328125,37.5039062 L53.59375,37.5039062 C53.3984375,35.5742188 52.7128906,34.1230469 51.5371094,33.1503906 C50.3613281,32.1777344 48.7109375,31.6914062 46.5859375,31.6914062 C45.1328125,31.6914062 43.8535156,32.0292969 42.7480469,32.7050781 C41.6425781,33.3808594 40.7929688,34.3457031 40.1992188,35.5996094 C39.6054688,36.8535156 39.3085938,38.3203125 39.3085938,40 L39.3085938,40 L39.3203125,41.4765625 C39.4140625,43.9140625 40.1289062,45.8164062 41.4648438,47.1835938 C42.8007812,48.5507812 44.5859375,49.234375 46.8203125,49.234375 Z M63.0039062,49.234375 C64.4570312,49.234375 65.7519531,48.8886719 66.8886719,48.1972656 C68.0253906,47.5058594 68.9023438,46.5195312 69.5195312,45.2382812 C70.1367188,43.9570312 70.4453125,42.484375 70.4453125,40.8203125 L70.4453125,40.8203125 L70.4453125,40.0351562 C70.4375,38.3945312 70.1191406,36.9394531 69.4902344,35.6699219 C68.8613281,34.4003906 67.9804688,33.421875 66.8476562,32.734375 C65.7148438,32.046875 64.4257812,31.703125 62.9804688,31.703125 C61.5195312,31.703125 60.2167969,32.0507812 59.0722656,32.7460938 C57.9277344,33.4414062 57.0488281,34.4277344 56.4355469,35.7050781 C55.8222656,36.9824219 55.515625,38.4570312 55.515625,40.1289062 L55.515625,40.1289062 L55.515625,41.0898438 C55.546875,42.6992188 55.8769531,44.125 56.5058594,45.3671875 C57.1347656,46.609375 58.0117188,47.5644531 59.1367188,48.2324219 C60.2617188,48.9003906 61.5507812,49.234375 63.0039062,49.234375 Z M63.0039062,46.0234375 C61.9101562,46.0234375 61.0859375,45.5742188 60.53125,44.6757812 C59.9765625,43.7773438 59.6992188,42.4921875 59.6992188,40.8203125 L59.6992188,40.8203125 L59.7109375,39.5664062 C59.828125,36.4726562 60.9179688,34.9257812 62.9804688,34.9257812 C64.0351562,34.9257812 64.8457031,35.3652344 65.4121094,36.2441406 C65.9785156,37.1230469 66.2617188,38.4101562 66.2617188,40.1054688 L66.2617188,40.1054688 L66.2617188,40.890625 C66.2539062,42.546875 65.96875,43.8164062 65.40625,44.6992188 C64.84375,45.5820312 64.0429688,46.0234375 63.0039062,46.0234375 Z M79.5742188,49.234375 C81.0273438,49.234375 82.3222656,48.8886719 83.4589844,48.1972656 C84.5957031,47.5058594 85.4726562,46.5195312 86.0898438,45.2382812 C86.7070312,43.9570312 87.015625,42.484375 87.015625,40.8203125 L87.015625,40.8203125 L87.015625,40.0351562 C87.0078125,38.3945312 86.6894531,36.9394531 86.0605469,35.6699219 C85.4316406,34.4003906 84.5507812,33.421875 83.4179688,32.734375 C82.2851562,32.046875 80.9960938,31.703125 79.5507812,31.703125 C78.0898438,31.703125 76.7871094,32.0507812 75.6425781,32.7460938 C74.4980469,33.4414062 73.6191406,34.4277344 73.0058594,35.7050781 C72.3925781,36.9824219 72.0859375,38.4570312 72.0859375,40.1289062 L72.0859375,40.1289062 L72.0859375,41.0898438 C72.1171875,42.6992188 72.4472656,44.125 73.0761719,45.3671875 C73.7050781,46.609375 74.5820312,47.5644531 75.7070312,48.2324219 C76.8320312,48.9003906 78.1210938,49.234375 79.5742188,49.234375 Z M79.5742188,46.0234375 C78.4804688,46.0234375 77.65625,45.5742188 77.1015625,44.6757812 C76.546875,43.7773438 76.2695312,42.4921875 76.2695312,40.8203125 L76.2695312,40.8203125 L76.28125,39.5664062 C76.3984375,36.4726562 77.4882812,34.9257812 79.5507812,34.9257812 C80.6054688,34.9257812 81.4160156,35.3652344 81.9824219,36.2441406 C82.5488281,37.1230469 82.8320312,38.4101562 82.8320312,40.1054688 L82.8320312,40.1054688 L82.8320312,40.890625 C82.8242188,42.546875 82.5390625,43.8164062 81.9765625,44.6992188 C81.4140625,45.5820312 80.6132812,46.0234375 79.5742188,46.0234375 Z M94.75,49 C96.2265625,48.9921875 97.5644531,48.6386719 98.7636719,47.9394531 C99.9628906,47.2402344 100.892578,46.2714844 101.552734,45.0332031 C102.212891,43.7949219 102.542969,42.3945312 102.542969,40.8320312 L102.542969,40.8320312 L102.542969,40.046875 C102.535156,38.5 102.193359,37.1035156 101.517578,35.8574219 C100.841797,34.6113281 99.9023438,33.6464844 98.6992188,32.9628906 C97.4960938,32.2792969 96.140625,31.9375 94.6328125,31.9375 L94.6328125,31.9375 L89.1367188,31.9375 L89.1367188,49 L94.75,49 Z M94.6796875,45.8359375 L93.25,45.8359375 L93.25,35.1132812 L94.6328125,35.1132812 C95.84375,35.1132812 96.765625,35.53125 97.3984375,36.3671875 C98.03125,37.203125 98.3476562,38.4453125 98.3476562,40.09375 L98.3476562,40.09375 L98.3476562,40.8320312 C98.3476562,42.4882812 98.03125,43.7363281 97.3984375,44.5761719 C96.765625,45.4160156 95.859375,45.8359375 94.6796875,45.8359375 L94.6796875,45.8359375 Z M113.699219,49 L114.683594,45.8125 L120.320312,45.8125 L121.316406,49 L125.734375,49 L119.429688,31.9375 L115.5625,31.9375 L109.304688,49 L113.699219,49 Z M119.335938,42.6367188 L115.667969,42.6367188 L117.496094,36.71875 L119.335938,42.6367188 Z M133.574219,49.234375 C135.535156,49.234375 137.078125,48.8085938 138.203125,47.9570312 C139.328125,47.1054688 139.890625,45.9335938 139.890625,44.4414062 C139.890625,42.5742188 138.96875,41.109375 137.125,40.046875 C136.367188,39.609375 135.398438,39.2011719 134.21875,38.8222656 C133.039062,38.4433594 132.214844,38.0761719 131.746094,37.7207031 C131.277344,37.3652344 131.042969,36.96875 131.042969,36.53125 C131.042969,36.03125 131.255859,35.6191406 131.681641,35.2949219 C132.107422,34.9707031 132.6875,34.8085938 133.421875,34.8085938 C134.148438,34.8085938 134.724609,35 135.150391,35.3828125 C135.576172,35.765625 135.789062,36.3046875 135.789062,37 L135.789062,37 L139.890625,37 C139.890625,35.9609375 139.621094,35.0371094 139.082031,34.2285156 C138.542969,33.4199219 137.787109,32.796875 136.814453,32.359375 C135.841797,31.921875 134.742188,31.703125 133.515625,31.703125 C132.257812,31.703125 131.125,31.9042969 130.117188,32.3066406 C129.109375,32.7089844 128.330078,33.2714844 127.779297,33.9941406 C127.228516,34.7167969 126.953125,35.5507812 126.953125,36.4960938 C126.953125,38.3945312 128.058594,39.8867188 130.269531,40.9726562 C130.949219,41.3085938 131.824219,41.65625 132.894531,42.015625 C133.964844,42.375 134.712891,42.7226562 135.138672,43.0585938 C135.564453,43.3945312 135.777344,43.8632812 135.777344,44.4648438 C135.777344,44.9960938 135.580078,45.4082031 135.185547,45.7011719 C134.791016,45.9941406 134.253906,46.140625 133.574219,46.140625 C132.511719,46.140625 131.744141,45.9238281 131.271484,45.4902344 C130.798828,45.0566406 130.5625,44.3828125 130.5625,43.46875 L130.5625,43.46875 L126.4375,43.46875 C126.4375,44.59375 126.720703,45.5878906 127.287109,46.4511719 C127.853516,47.3144531 128.697266,47.9941406 129.818359,48.4902344 C130.939453,48.9863281 132.191406,49.234375 133.574219,49.234375 Z M6.40234375,76 L6.40234375,70.2109375 L9.02734375,70.2109375 C11.1054688,70.2109375 12.7402344,69.7128906 13.9316406,68.7167969 C15.1230469,67.7207031 15.71875,66.390625 15.71875,64.7265625 C15.71875,63.6015625 15.4433594,62.5957031 14.8925781,61.7089844 C14.3417969,60.8222656 13.5644531,60.1386719 12.5605469,59.6582031 C11.5566406,59.1777344 10.4023438,58.9375 9.09765625,58.9375 L9.09765625,58.9375 L2.2890625,58.9375 L2.2890625,76 L6.40234375,76 Z M9.09765625,67.0351562 L6.40234375,67.0351562 L6.40234375,62.1132812 L9.14453125,62.1132812 C9.88671875,62.1210938 10.4726562,62.3632812 10.9023438,62.8398438 C11.3320312,63.3164062 11.546875,63.953125 11.546875,64.75 C11.546875,65.4765625 11.3378906,66.0390625 10.9199219,66.4375 C10.5019531,66.8359375 9.89453125,67.0351562 9.09765625,67.0351562 L9.09765625,67.0351562 Z M24.9179688,76.234375 C26.3710938,76.234375 27.6660156,75.8886719 28.8027344,75.1972656 C29.9394531,74.5058594 30.8164062,73.5195312 31.4335938,72.2382812 C32.0507812,70.9570312 32.359375,69.484375 32.359375,67.8203125 L32.359375,67.8203125 L32.359375,67.0351562 C32.3515625,65.3945312 32.0332031,63.9394531 31.4042969,62.6699219 C30.7753906,61.4003906 29.8945312,60.421875 28.7617188,59.734375 C27.6289062,59.046875 26.3398438,58.703125 24.8945312,58.703125 C23.4335938,58.703125 22.1308594,59.0507812 20.9863281,59.7460938 C19.8417969,60.4414062 18.9628906,61.4277344 18.3496094,62.7050781 C17.7363281,63.9824219 17.4296875,65.4570312 17.4296875,67.1289062 L17.4296875,67.1289062 L17.4296875,68.0898438 C17.4609375,69.6992188 17.7910156,71.125 18.4199219,72.3671875 C19.0488281,73.609375 19.9257812,74.5644531 21.0507812,75.2324219 C22.1757812,75.9003906 23.4648438,76.234375 24.9179688,76.234375 Z M24.9179688,73.0234375 C23.8242188,73.0234375 23,72.5742188 22.4453125,71.6757812 C21.890625,70.7773438 21.6132812,69.4921875 21.6132812,67.8203125 L21.6132812,67.8203125 L21.625,66.5664062 C21.7421875,63.4726562 22.8320312,61.9257812 24.8945312,61.9257812 C25.9492188,61.9257812 26.7597656,62.3652344 27.3261719,63.2441406 C27.8925781,64.1230469 28.1757812,65.4101562 28.1757812,67.1054688 L28.1757812,67.1054688 L28.1757812,67.890625 C28.1679688,69.546875 27.8828125,70.8164062 27.3203125,71.6992188 C26.7578125,72.5820312 25.9570312,73.0234375 24.9179688,73.0234375 Z M41.078125,76.234375 C43.0390625,76.234375 44.5820312,75.8085938 45.7070312,74.9570312 C46.8320312,74.1054688 47.3945312,72.9335938 47.3945312,71.4414062 C47.3945312,69.5742188 46.4726562,68.109375 44.6289062,67.046875 C43.8710938,66.609375 42.9023438,66.2011719 41.7226562,65.8222656 C40.5429688,65.4433594 39.71875,65.0761719 39.25,64.7207031 C38.78125,64.3652344 38.546875,63.96875 38.546875,63.53125 C38.546875,63.03125 38.7597656,62.6191406 39.1855469,62.2949219 C39.6113281,61.9707031 40.1914062,61.8085938 40.9257812,61.8085938 C41.6523438,61.8085938 42.2285156,62 42.6542969,62.3828125 C43.0800781,62.765625 43.2929688,63.3046875 43.2929688,64 L43.2929688,64 L47.3945312,64 C47.3945312,62.9609375 47.125,62.0371094 46.5859375,61.2285156 C46.046875,60.4199219 45.2910156,59.796875 44.3183594,59.359375 C43.3457031,58.921875 42.2460938,58.703125 41.0195312,58.703125 C39.7617188,58.703125 38.6289062,58.9042969 37.6210938,59.3066406 C36.6132812,59.7089844 35.8339844,60.2714844 35.2832031,60.9941406 C34.7324219,61.7167969 34.4570312,62.5507812 34.4570312,63.4960938 C34.4570312,65.3945312 35.5625,66.8867188 37.7734375,67.9726562 C38.453125,68.3085938 39.328125,68.65625 40.3984375,69.015625 C41.46875,69.375 42.2167969,69.7226562 42.6425781,70.0585938 C43.0683594,70.3945312 43.28125,70.8632812 43.28125,71.4648438 C43.28125,71.9960938 43.0839844,72.4082031 42.6894531,72.7011719 C42.2949219,72.9941406 41.7578125,73.140625 41.078125,73.140625 C40.015625,73.140625 39.2480469,72.9238281 38.7753906,72.4902344 C38.3027344,72.0566406 38.0664062,71.3828125 38.0664062,70.46875 L38.0664062,70.46875 L33.9414062,70.46875 C33.9414062,71.59375 34.2246094,72.5878906 34.7910156,73.4511719 C35.3574219,74.3144531 36.2011719,74.9941406 37.3222656,75.4902344 C38.4433594,75.9863281 39.6953125,76.234375 41.078125,76.234375 Z M56.1015625,76.234375 C58.0625,76.234375 59.6054688,75.8085938 60.7304688,74.9570312 C61.8554688,74.1054688 62.4179688,72.9335938 62.4179688,71.4414062 C62.4179688,69.5742188 61.4960938,68.109375 59.6523438,67.046875 C58.8945312,66.609375 57.9257812,66.2011719 56.7460938,65.8222656 C55.5664062,65.4433594 54.7421875,65.0761719 54.2734375,64.7207031 C53.8046875,64.3652344 53.5703125,63.96875 53.5703125,63.53125 C53.5703125,63.03125 53.7832031,62.6191406 54.2089844,62.2949219 C54.6347656,61.9707031 55.2148438,61.8085938 55.9492188,61.8085938 C56.6757812,61.8085938 57.2519531,62 57.6777344,62.3828125 C58.1035156,62.765625 58.3164062,63.3046875 58.3164062,64 L58.3164062,64 L62.4179688,64 C62.4179688,62.9609375 62.1484375,62.0371094 61.609375,61.2285156 C61.0703125,60.4199219 60.3144531,59.796875 59.3417969,59.359375 C58.3691406,58.921875 57.2695312,58.703125 56.0429688,58.703125 C54.7851562,58.703125 53.6523438,58.9042969 52.6445312,59.3066406 C51.6367188,59.7089844 50.8574219,60.2714844 50.3066406,60.9941406 C49.7558594,61.7167969 49.4804688,62.5507812 49.4804688,63.4960938 C49.4804688,65.3945312 50.5859375,66.8867188 52.796875,67.9726562 C53.4765625,68.3085938 54.3515625,68.65625 55.421875,69.015625 C56.4921875,69.375 57.2402344,69.7226562 57.6660156,70.0585938 C58.0917969,70.3945312 58.3046875,70.8632812 58.3046875,71.4648438 C58.3046875,71.9960938 58.1074219,72.4082031 57.7128906,72.7011719 C57.3183594,72.9941406 56.78125,73.140625 56.1015625,73.140625 C55.0390625,73.140625 54.2714844,72.9238281 53.7988281,72.4902344 C53.3261719,72.0566406 53.0898438,71.3828125 53.0898438,70.46875 L53.0898438,70.46875 L48.9648438,70.46875 C48.9648438,71.59375 49.2480469,72.5878906 49.8144531,73.4511719 C50.3808594,74.3144531 51.2246094,74.9941406 52.3457031,75.4902344 C53.4667969,75.9863281 54.71875,76.234375 56.1015625,76.234375 Z M94.6659307,76 L94.6659307,58.9375 L90.5643682,58.9375 L90.5643682,76 L94.6659307,76 Z M104.451087,76 C106.529212,75.984375 108.097571,75.5566406 109.156165,74.7167969 C110.214759,73.8769531 110.744056,72.6210938 110.744056,70.9492188 C110.744056,70.0273438 110.505774,69.2460938 110.029212,68.6054688 C109.552649,67.9648438 108.869056,67.5273438 107.978431,67.2929688 C108.767493,66.9960938 109.365149,66.5351562 109.771399,65.9101562 C110.177649,65.2851562 110.380774,64.53125 110.380774,63.6484375 C110.380774,62.1171875 109.808509,60.9492188 108.663978,60.1445312 C107.519446,59.3398438 105.849524,58.9375 103.654212,58.9375 L103.654212,58.9375 L97.5253057,58.9375 L97.5253057,76 L104.451087,76 Z M103.783118,66.0507812 L101.638587,66.0507812 L101.638587,62.1132812 L103.654212,62.1132812 C104.576087,62.1132812 105.244056,62.2714844 105.658118,62.5878906 C106.072181,62.9042969 106.279212,63.421875 106.279212,64.140625 C106.279212,64.765625 106.087806,65.2382812 105.704993,65.5585938 C105.322181,65.8789062 104.681556,66.0429688 103.783118,66.0507812 L103.783118,66.0507812 Z M104.333899,72.8359375 L101.638587,72.8359375 L101.638587,68.7460938 L104.521399,68.7460938 C105.935462,68.7539062 106.642493,69.46875 106.642493,70.890625 C106.642493,71.5078125 106.443274,71.9863281 106.044837,72.3261719 C105.646399,72.6660156 105.076087,72.8359375 104.333899,72.8359375 L104.333899,72.8359375 Z M124.279212,76 L124.279212,72.8359375 L117.119056,72.8359375 L117.119056,58.9375 L113.005774,58.9375 L113.005774,76 L124.279212,76 Z M137.767493,76 L137.767493,72.8359375 L130.126868,72.8359375 L130.126868,68.7695312 L136.595618,68.7695312 L136.595618,65.7109375 L130.126868,65.7109375 L130.126868,62.1132812 L137.790931,62.1132812 L137.790931,58.9375 L126.013587,58.9375 L126.013587,76 L137.767493,76 Z" id="MAKEUXASGOODASPOSSIBLE" fill="#000000" fill-rule="nonzero"></path>
            </g>
        </g>
    </g>
</svg>