<?xml version="1.0" encoding="UTF-8"?>
<svg width="990px" height="60px" viewBox="0 0 990 60" version="1.1" xmlns="http://www.w3.org/2000/svg" xmlns:xlink="http://www.w3.org/1999/xlink">
    <!-- Generator: Sketch 64 (93537) - https://sketch.com -->
    <title>pc_ico_contact_01</title>
    <desc>Created with Sketch.</desc>
    <g id="Publish_PC" stroke="none" stroke-width="1" fill="none" fill-rule="evenodd">
        <g id="pc_05contact" transform="translate(-160.000000, -316.000000)">
            <g id="pc_ico_contact_01" transform="translate(160.000000, 316.000000)">
                <polygon id="Rectangle" fill="#909090" opacity="0" points="0.860739941 0.403847336 989.861749 0.403847336 989.861749 59.4202408 0.860739941 59.4202408"></polygon>
                <path d="M26.8703114,51.0819314 L26.8703114,36.0264805 L40.3997859,36.0264805 L40.3997859,26.3954201 L26.8703114,26.3954201 L26.8703114,11.9672797 L16.563925,11.9672797 L16.563925,26.3954201 L2.99697275,26.3954201 L2.99697275,36.0264805 L16.563925,36.0264805 L16.563925,51.0819314 L26.8703114,51.0819314 Z M70.1771226,57.2074334 C76.0736249,57.2074334 80.7021293,55.8175102 84.0626359,53.0376639 C87.4231425,50.2578176 89.1033958,46.4693545 89.1033958,41.6722746 C89.1033958,38.695625 88.3413478,36.1187321 86.8172519,33.9415958 C85.293156,31.7644595 83.2318787,30.0485809 80.6334201,28.79396 C82.9320565,27.58854 84.7372357,25.9895133 86.0489576,23.9968801 C87.3606795,22.0042469 88.0165405,19.7041086 88.0165405,17.0964652 C88.0165405,12.4223873 86.4049964,8.73232582 83.1819083,6.02628074 C79.9588202,3.32023566 75.5864139,1.96721311 70.0646893,1.96721311 C64.5929351,1.96721311 60.2455139,3.32023566 57.0224258,6.02628074 C53.7993377,8.73232582 52.1877936,12.4223873 52.1877936,17.0964652 C52.1877936,19.7041086 52.8499009,22.0042469 54.1741154,23.9968801 C55.4983299,25.9895133 57.322248,27.58854 59.6458696,28.79396 C56.8974999,30.0731814 54.7737597,31.8198105 53.2746489,34.0338473 C51.7755382,36.2478842 51.0259828,38.7940266 51.0259828,41.6722746 C51.0259828,46.4447541 52.7374676,50.2270671 56.1604371,53.0192136 C59.5834067,55.8113601 64.2556352,57.2074334 70.1771226,57.2074334 Z M70.1771226,24.1813832 C68.4281601,24.1813832 67.1039456,23.5909734 66.2044791,22.4101537 C65.3050127,21.229334 64.8552795,19.6795082 64.8552795,17.7606762 C64.8552795,15.8172439 65.2987664,14.2981685 66.1857402,13.2034503 C67.0727141,12.1087321 68.3656971,11.561373 70.0646893,11.561373 C71.8136518,11.561373 73.13162,12.1148822 74.0185939,13.2219006 C74.9055678,14.3289191 75.3490547,15.8418443 75.3490547,17.7606762 C75.3490547,19.6795082 74.9180603,21.229334 74.0560717,22.4101537 C73.194083,23.5909734 71.9011,24.1813832 70.1771226,24.1813832 Z M70.1771226,47.6132736 C68.2532638,47.6132736 66.6979364,46.9921132 65.5111404,45.7497925 C64.3243444,44.5074718 63.7309464,42.8161936 63.7309464,40.675958 C63.7309464,38.4619211 64.3180981,36.7583427 65.4924015,35.5652228 C66.6667049,34.372103 68.2032935,33.775543 70.1021671,33.775543 C72.0010407,33.775543 73.5313829,34.372103 74.6931937,35.5652228 C75.8550046,36.7583427 76.43591,38.4619211 76.43591,40.675958 C76.43591,42.8407941 75.8612509,44.5382223 74.7119326,45.7682428 C73.5626144,46.9982633 72.051011,47.6132736 70.1771226,47.6132736 Z M138.856383,56.4694211 L138.856383,46.8752613 L117.381622,46.8752613 L124.427442,38.8678279 C128.175219,35.1777664 130.892357,32.2318673 132.578857,30.0301306 C134.265357,27.828394 135.508369,25.7250589 136.307895,23.7201255 C137.107421,21.7151921 137.507184,19.6549078 137.507184,17.5392725 C137.507184,12.5207889 135.914378,8.6708248 132.728768,5.98938012 C129.543158,3.30793545 125.002101,1.96721311 119.105599,1.96721311 C115.432778,1.96721311 112.109749,2.75442623 109.136513,4.32885246 C106.163276,5.90327869 103.839655,8.08656506 102.165648,10.8787116 C100.491641,13.6708581 99.6546372,16.7151588 99.6546372,20.0116137 L99.6546372,20.0116137 L112.322123,20.0116137 C112.322123,17.6007736 112.921767,15.5896901 114.121056,13.9783632 C115.320344,12.3670364 116.881918,11.561373 118.805777,11.561373 C120.754621,11.561373 122.241239,12.164083 123.265631,13.3695031 C124.290024,14.5749232 124.80222,16.3338525 124.80222,18.646291 C124.80222,21.4999385 122.641002,25.3499027 118.318566,30.1961834 L118.318566,30.1961834 L100.77897,48.3512859 L100.77897,56.4694211 L138.856383,56.4694211 Z" id="+82" fill="#000000" fill-rule="nonzero"></path>
                <path d="M265.646231,57.2074334 C271.66766,57.2074334 276.333642,55.2394006 279.644178,51.303335 C282.954714,47.3672695 284.609982,41.7706762 284.609982,34.5135553 L284.609982,34.5135553 L284.609982,24.7348924 C284.609982,17.5023719 282.948468,11.9057787 279.625439,7.9451127 C276.30241,3.98444672 271.617689,2.00411373 265.571276,2.00411373 C259.524863,2.00411373 254.846388,3.97214652 251.535852,7.90821209 C248.225315,11.8442777 246.570047,17.4408709 246.570047,24.6979918 L246.570047,24.6979918 L246.570047,34.5135553 C246.570047,41.7214754 248.231562,47.3057684 251.55459,51.2664344 C254.877619,55.2271004 259.574833,57.2074334 265.646231,57.2074334 Z M265.646231,47.6132736 C263.42255,47.6132736 261.798514,46.6846081 260.774121,44.8272772 C259.749729,42.9699462 259.237533,40.0363473 259.237533,36.0264805 L259.237533,36.0264805 L259.237533,22.2994518 C259.312489,18.707792 259.843424,16.0263473 260.830338,14.2551178 C261.817253,12.4838883 263.397565,11.5982736 265.571276,11.5982736 C267.794957,11.5982736 269.418993,12.5515394 270.443386,14.4580712 C271.467778,16.364603 271.979974,19.249001 271.979974,23.1112654 L271.979974,23.1112654 L271.979974,36.3954867 C271.954989,40.257751 271.4303,43.0929483 270.405908,44.9010784 C269.381516,46.7092085 267.794957,47.6132736 265.646231,47.6132736 Z M334.36297,56.4694211 L334.36297,46.8752613 L312.888208,46.8752613 L319.934029,38.8678279 C323.681806,35.1777664 326.398944,32.2318673 328.085444,30.0301306 C329.771943,27.828394 331.014956,25.7250589 331.814482,23.7201255 C332.614007,21.7151921 333.01377,19.6549078 333.01377,17.5392725 C333.01377,12.5207889 331.420965,8.6708248 328.235355,5.98938012 C325.049744,3.30793545 320.508688,1.96721311 314.612186,1.96721311 C310.939364,1.96721311 307.616336,2.75442623 304.643099,4.32885246 C301.669863,5.90327869 299.346241,8.08656506 297.672234,10.8787116 C295.998227,13.6708581 295.161224,16.7151588 295.161224,20.0116137 L295.161224,20.0116137 L307.82871,20.0116137 C307.82871,17.6007736 308.428354,15.5896901 309.627642,13.9783632 C310.826931,12.3670364 312.388505,11.561373 314.312364,11.561373 C316.261208,11.561373 317.747826,12.164083 318.772218,13.3695031 C319.79661,14.5749232 320.308807,16.3338525 320.308807,18.646291 C320.308807,21.4999385 318.147589,25.3499027 313.825153,30.1961834 L313.825153,30.1961834 L296.285557,48.3512859 L296.285557,56.4694211 L334.36297,56.4694211 Z" id="02" fill="#000000" fill-rule="nonzero"></path>
                <path d="M383.673332,57.2074334 C389.769715,57.2074334 394.691796,55.7683094 398.439573,52.8900615 C402.187349,50.0118135 404.061238,46.1741496 404.061238,41.3770697 C404.061238,38.277418 403.236727,35.6759247 401.587705,33.5725897 C399.938683,31.4692546 397.665032,29.9009785 394.766751,28.8677613 C397.515121,27.58854 399.60763,25.9218622 401.044277,23.867728 C402.480925,21.8135937 403.199249,19.6303074 403.199249,17.3178689 C403.199249,12.5453893 401.462779,8.79382684 397.989839,6.06318135 C394.516899,3.33253586 389.74473,1.96721311 383.673332,1.96721311 C380.275347,1.96721311 377.158446,2.58837346 374.322628,3.83069416 C371.486811,5.07301486 369.269376,6.80119365 367.670324,9.01523053 C366.071273,11.2292674 365.271747,13.7508094 365.271747,16.5798566 L365.271747,16.5798566 L377.901755,16.5798566 C377.901755,15.1530328 378.520138,13.9599129 379.756905,13.0004969 C380.993671,12.0410809 382.449058,11.561373 384.123065,11.561373 C386.17185,11.561373 387.758408,12.1210323 388.882742,13.2403509 C390.007075,14.3596696 390.569241,15.8049436 390.569241,17.5761732 C390.569241,22.127249 388.208142,24.4027869 383.485943,24.4027869 L383.485943,24.4027869 L377.526978,24.4027869 L377.526978,33.6648412 L383.673332,33.6648412 C386.096894,33.6648412 387.995768,34.2306506 389.369953,35.3622695 C390.744137,36.4938883 391.43123,38.4127203 391.43123,41.1187654 C391.43123,43.0129969 390.769123,44.5689728 389.444908,45.7866931 C388.120694,47.0044134 386.346746,47.6132736 384.123065,47.6132736 C382.149236,47.6132736 380.487721,47.0105635 379.138522,45.8051434 C377.789322,44.5997234 377.114722,43.1728996 377.114722,41.5246721 L377.114722,41.5246721 L364.409759,41.5246721 C364.409759,44.5505225 365.196792,47.2504175 366.770858,49.6243571 C368.344924,51.9982966 370.6623,53.8556276 373.722984,55.1963499 C376.783669,56.5370722 380.100451,57.2074334 383.673332,57.2074334 Z M453.626836,56.4694211 L453.626836,46.8752613 L432.152075,46.8752613 L439.197895,38.8678279 C442.945672,35.1777664 445.662811,32.2318673 447.34931,30.0301306 C449.03581,27.828394 450.278822,25.7250589 451.078348,23.7201255 C451.877874,21.7151921 452.277637,19.6549078 452.277637,17.5392725 C452.277637,12.5207889 450.684832,8.6708248 447.499221,5.98938012 C444.313611,3.30793545 439.772555,1.96721311 433.876052,1.96721311 C430.203231,1.96721311 426.880202,2.75442623 423.906966,4.32885246 C420.93373,5.90327869 418.610108,8.08656506 416.936101,10.8787116 C415.262094,13.6708581 414.42509,16.7151588 414.42509,20.0116137 L414.42509,20.0116137 L427.092576,20.0116137 C427.092576,17.6007736 427.69222,15.5896901 428.891509,13.9783632 C430.090798,12.3670364 431.652371,11.561373 433.57623,11.561373 C435.525074,11.561373 437.011692,12.164083 438.036085,13.3695031 C439.060477,14.5749232 439.572673,16.3338525 439.572673,18.646291 C439.572673,21.4999385 437.411455,25.3499027 433.089019,30.1961834 L433.089019,30.1961834 L415.549423,48.3512859 L415.549423,56.4694211 L453.626836,56.4694211 Z M498.470236,56.4694211 L498.470236,45.0671311 L504.016946,45.0671311 L504.016946,35.4729713 L498.470236,35.4729713 L498.470236,2.74212602 L485.840228,2.74212602 L485.840228,2.85282787 L463.990689,37.4656045 L464.740244,45.0671311 L485.840228,45.0671311 L485.840228,56.4694211 L498.470236,56.4694211 Z M485.840228,35.4729713 L476.021053,35.4729713 L485.053195,20.1961168 L485.840228,18.9414959 L485.840228,35.4729713 Z" id="324" fill="#000000" fill-rule="nonzero"></path>
                <path d="M815.621356,57.2074334 C821.717739,57.2074334 826.63982,55.7683094 830.387597,52.8900615 C834.135373,50.0118135 836.009262,46.1741496 836.009262,41.3770697 C836.009262,38.277418 835.184751,35.6759247 833.535729,33.5725897 C831.886707,31.4692546 829.613056,29.9009785 826.714775,28.8677613 C829.463145,27.58854 831.555654,25.9218622 832.992301,23.867728 C834.428949,21.8135937 835.147273,19.6303074 835.147273,17.3178689 C835.147273,12.5453893 833.410803,8.79382684 829.937863,6.06318135 C826.464923,3.33253586 821.692754,1.96721311 815.621356,1.96721311 C812.223371,1.96721311 809.10647,2.58837346 806.270652,3.83069416 C803.434835,5.07301486 801.2174,6.80119365 799.618348,9.01523053 C798.019297,11.2292674 797.219771,13.7508094 797.219771,16.5798566 L797.219771,16.5798566 L809.849779,16.5798566 C809.849779,15.1530328 810.468162,13.9599129 811.704929,13.0004969 C812.941695,12.0410809 814.397082,11.561373 816.071089,11.561373 C818.119874,11.561373 819.706432,12.1210323 820.830766,13.2403509 C821.955099,14.3596696 822.517265,15.8049436 822.517265,17.5761732 C822.517265,22.127249 820.156166,24.4027869 815.433967,24.4027869 L815.433967,24.4027869 L809.475002,24.4027869 L809.475002,33.6648412 L815.621356,33.6648412 C818.044918,33.6648412 819.943792,34.2306506 821.317977,35.3622695 C822.692161,36.4938883 823.379254,38.4127203 823.379254,41.1187654 C823.379254,43.0129969 822.717147,44.5689728 821.392932,45.7866931 C820.068718,47.0044134 818.29477,47.6132736 816.071089,47.6132736 C814.09726,47.6132736 812.435745,47.0105635 811.086546,45.8051434 C809.737346,44.5997234 809.062746,43.1728996 809.062746,41.5246721 L809.062746,41.5246721 L796.357783,41.5246721 C796.357783,44.5505225 797.144816,47.2504175 798.718882,49.6243571 C800.292948,51.9982966 802.610324,53.8556276 805.671008,55.1963499 C808.731693,56.5370722 812.048475,57.2074334 815.621356,57.2074334 Z M880.852662,56.4694211 L880.852662,45.0671311 L886.399371,45.0671311 L886.399371,35.4729713 L880.852662,35.4729713 L880.852662,2.74212602 L868.222654,2.74212602 L868.222654,2.85282787 L846.373114,37.4656045 L847.12267,45.0671311 L868.222654,45.0671311 L868.222654,56.4694211 L880.852662,56.4694211 Z M868.222654,35.4729713 L858.403478,35.4729713 L867.43562,20.1961168 L868.222654,18.9414959 L868.222654,35.4729713 Z M930.41826,56.4694211 L930.41826,45.0671311 L935.96497,45.0671311 L935.96497,35.4729713 L930.41826,35.4729713 L930.41826,2.74212602 L917.788252,2.74212602 L917.788252,2.85282787 L895.938713,37.4656045 L896.688268,45.0671311 L917.788252,45.0671311 L917.788252,56.4694211 L930.41826,56.4694211 Z M917.788252,35.4729713 L907.969077,35.4729713 L917.001219,20.1961168 L917.788252,18.9414959 L917.788252,35.4729713 Z M964.16824,56.4694211 L984.556147,9.38423668 L984.556147,2.74212602 L945.241967,2.74212602 L945.241967,12.3362859 L971.251539,12.3362859 L950.826155,56.4694211 L964.16824,56.4694211 Z" id="3447" fill="#000000" fill-rule="nonzero"></path>
            </g>
        </g>
    </g>
</svg>