<?xml version="1.0" encoding="UTF-8"?>
<svg width="350px" height="124px" viewBox="0 0 350 124" version="1.1" xmlns="http://www.w3.org/2000/svg" xmlns:xlink="http://www.w3.org/1999/xlink">
    <!-- Generator: Sketch 60.1 (88133) - https://sketch.com -->
    <title>pc_ico_list_title04</title>
    <desc>Created with Sketch.</desc>
    <g id="Publish" stroke="none" stroke-width="1" fill="none" fill-rule="evenodd">
        <g id="pc_03list" transform="translate(-160.000000, -1081.000000)">
            <g id="pc_ico_list_title04" transform="translate(160.000000, 1074.000000)">
                <rect id="Rectangle" fill="#ACACAC" opacity="0" x="0" y="0" width="350" height="140"></rect>
                <path d="M16.1796892,36 L16.1796892,12.8554688 L24.7148454,12.8554688 L24.7148454,7.5625 L0.945314195,7.5625 L0.945314195,12.8554688 L9.32422045,12.8554688 L9.32422045,36 L16.1796892,36 Z M148.976563,36 L148.976563,25.9609375 L152.687501,25.9609375 L157.707032,36 L165.050782,36 L165.050782,35.7070312 L159.113282,24.2421875 C160.819011,23.4348958 162.072266,22.3802083 162.873048,21.078125 C163.673829,19.7760417 164.074219,18.1354167 164.074219,16.15625 C164.074219,13.421875 163.123699,11.3059896 161.222657,9.80859375 C159.321615,8.31119792 156.684897,7.5625 153.312501,7.5625 L153.312501,7.5625 L142.121094,7.5625 L142.121094,36 L148.976563,36 Z M153.312501,20.6679688 L148.976563,20.6679688 L148.976563,12.8554688 L153.312501,12.8554688 C154.601563,12.8554688 155.578126,13.203776 156.242188,13.9003906 C156.906251,14.5970052 157.238282,15.5572917 157.238282,16.78125 C157.238282,18.0052083 156.909506,18.9589844 156.251954,19.6425781 C155.594402,20.3261719 154.614584,20.6679688 153.312501,20.6679688 L153.312501,20.6679688 Z M183.894532,36.390625 C186.316407,36.390625 188.47461,35.8144531 190.369141,34.6621094 C192.263673,33.5097656 193.725261,31.8658854 194.753907,29.7304688 C195.782553,27.5950521 196.296876,25.140625 196.296876,22.3671875 L196.296876,22.3671875 L196.296876,21.0585938 C196.283855,18.3242188 195.753256,15.8990885 194.705079,13.7832031 C193.656902,11.6673177 192.188803,10.0364583 190.300782,8.890625 C188.412761,7.74479167 186.264324,7.171875 183.855469,7.171875 C181.420574,7.171875 179.24935,7.75130208 177.341798,8.91015625 C175.434245,10.0690104 173.969402,11.7128906 172.947266,13.8417969 C171.925131,15.9707031 171.414063,18.4283854 171.414063,21.2148438 L171.414063,21.2148438 L171.414063,22.8164062 C171.466146,25.4986979 172.016277,27.875 173.064454,29.9453125 C174.112631,32.015625 175.574219,33.6074219 177.449219,34.7207031 C179.324219,35.8339844 181.472657,36.390625 183.894532,36.390625 Z M183.894532,31.0390625 C182.071615,31.0390625 180.697917,30.2903646 179.773438,28.7929688 C178.848959,27.2955729 178.386719,25.1536458 178.386719,22.3671875 L178.386719,22.3671875 L178.406251,20.2773438 C178.601563,15.1210938 180.417969,12.5429688 183.855469,12.5429688 C185.613282,12.5429688 186.964193,13.2753906 187.908204,14.7402344 C188.852214,16.2050781 189.324219,18.3502604 189.324219,21.1757812 L189.324219,21.1757812 L189.324219,22.484375 C189.311199,25.2447917 188.835938,27.3606771 187.898438,28.8320312 C186.960938,30.3033854 185.626303,31.0390625 183.894532,31.0390625 Z M208.539063,36 L210.179688,30.6875 L219.574219,30.6875 L221.234376,36 L228.597657,36 L218.089844,7.5625 L211.644532,7.5625 L201.214844,36 L208.539063,36 Z M217.933594,25.3945312 L211.820313,25.3945312 L214.867188,15.53125 L217.933594,25.3945312 Z M241.523438,36 L241.523438,29.359375 L240.859375,15.7460938 L247.753907,36 L252.285157,36 L259.160157,15.765625 L258.496094,29.359375 L258.496094,36 L265.371094,36 L265.371094,7.5625 L256.347657,7.5625 L250.019532,27.3476562 L243.671875,7.5625 L234.667969,7.5625 L234.667969,36 L241.523438,36 Z M281.03125,36 L281.03125,7.5625 L274.195313,7.5625 L274.195313,36 L281.03125,36 Z M296.652344,36 L296.652344,18.3046875 L306.730469,36 L313.546875,36 L313.546875,7.5625 L306.710938,7.5625 L306.710938,25.2578125 L296.652344,7.5625 L289.796875,7.5625 L289.796875,36 L296.652344,36 Z M333.855469,36.390625 C336.277344,36.390625 338.503906,36.0325521 340.535156,35.3164062 C342.566406,34.6002604 344.109375,33.65625 345.164063,32.484375 L345.164063,32.484375 L345.164063,20.8046875 L333.542969,20.8046875 L333.542969,25.5117188 L338.308594,25.5117188 L338.308594,29.9257812 C337.436198,30.7200521 336.108073,31.1171875 334.324219,31.1171875 C332.240886,31.1171875 330.714193,30.4042969 329.744141,28.9785156 C328.774089,27.5527344 328.289063,25.4205729 328.289063,22.5820312 L328.289063,22.5820312 L328.289063,20.8632812 C328.302083,18.1549479 328.777344,16.0716146 329.714844,14.6132812 C330.652344,13.1549479 331.980469,12.4257812 333.699219,12.4257812 C335.131511,12.4257812 336.238281,12.7643229 337.019531,13.4414062 C337.800781,14.1184896 338.308594,15.2513021 338.542969,16.8398438 L338.542969,16.8398438 L345.144531,16.8398438 C344.819011,13.6236979 343.676432,11.2050781 341.716797,9.58398438 C339.757162,7.96289062 337.006511,7.15234375 333.464844,7.15234375 C331.042969,7.15234375 328.910807,7.71549479 327.068359,8.84179688 C325.225912,9.96809896 323.809896,11.5761719 322.820313,13.6660156 C321.830729,15.7558594 321.335938,18.2005208 321.335938,21 L321.335938,21 L321.355469,23.4609375 C321.511719,27.5234375 322.703125,30.6940104 324.929688,32.9726562 C327.15625,35.2513021 330.131511,36.390625 333.855469,36.390625 Z" id="TROAMING" fill="#000000" fill-rule="nonzero"></path>
                <path d="M13.28125,83.390625 C15.5729167,83.390625 17.5585938,82.9869792 19.2382812,82.1796875 C20.9179688,81.3723958 22.2070312,80.1972656 23.1054688,78.6542969 C24.0039062,77.1113281 24.453125,75.2851562 24.453125,73.1757812 L24.453125,73.1757812 L24.453125,54.5625 L17.5976562,54.5625 L17.5976562,73.1367188 C17.5976562,74.8945312 17.2330729,76.1640625 16.5039062,76.9453125 C15.7747396,77.7265625 14.7005208,78.1171875 13.28125,78.1171875 C10.46875,78.1171875 9.0234375,76.5611979 8.9453125,73.4492188 L8.9453125,73.4492188 L8.9453125,54.5625 L2.05078125,54.5625 L2.05078125,73.3125 C2.08984375,76.4375 3.10546875,78.8984375 5.09765625,80.6953125 C7.08984375,82.4921875 9.81770833,83.390625 13.28125,83.390625 Z M43.7265624,83.390625 C46.9947916,83.390625 49.5664061,82.6809896 51.4414061,81.2617188 C53.3164061,79.8424479 54.2539061,77.8893229 54.2539061,75.4023438 C54.2539061,72.2903646 52.7174478,69.8489583 49.6445311,68.078125 C48.3815103,67.3489583 46.766927,66.6686198 44.8007811,66.0371094 C42.8346353,65.405599 41.4609374,64.7936198 40.6796874,64.2011719 C39.8984374,63.608724 39.5078124,62.9479167 39.5078124,62.21875 C39.5078124,61.3854167 39.8626301,60.6985677 40.5722655,60.1582031 C41.2819009,59.6178385 42.2486978,59.3476562 43.4726561,59.3476562 C44.6835936,59.3476562 45.6438801,59.6666667 46.3535155,60.3046875 C47.0631509,60.9427083 47.4179686,61.8411458 47.4179686,63 L47.4179686,63 L54.2539061,63 C54.2539061,61.2682292 53.8046874,59.7285156 52.9062499,58.3808594 C52.0078124,57.0332031 50.7480468,55.9947917 49.126953,55.265625 C47.5058593,54.5364583 45.673177,54.171875 43.6289061,54.171875 C41.532552,54.171875 39.6445311,54.5071615 37.9648436,55.1777344 C36.2851561,55.8483073 34.986328,56.7858073 34.0683593,57.9902344 C33.1503905,59.1946615 32.6914061,60.5846354 32.6914061,62.1601562 C32.6914061,65.3242188 34.5338541,67.8111979 38.2187499,69.6210938 C39.3515624,70.1809896 40.8098957,70.7604167 42.5937499,71.359375 C44.3776041,71.9583333 45.6243489,72.5377604 46.3339843,73.0976562 C47.0436197,73.6575521 47.3984374,74.4388021 47.3984374,75.4414062 C47.3984374,76.3268229 47.0696614,77.0136719 46.4121093,77.5019531 C45.7545572,77.9902344 44.8593749,78.234375 43.7265624,78.234375 C41.9557291,78.234375 40.6764322,77.8730469 39.8886718,77.1503906 C39.1009114,76.4277344 38.7070311,75.3046875 38.7070311,73.78125 L38.7070311,73.78125 L31.8320311,73.78125 C31.8320311,75.65625 32.3040364,77.313151 33.2480468,78.7519531 C34.1920572,80.1907552 35.5983072,81.3235677 37.4667968,82.1503906 C39.3352864,82.9772135 41.4218749,83.390625 43.7265624,83.390625 Z M66.8867185,83 L68.5273435,77.6875 L77.9218748,77.6875 L79.582031,83 L86.9453123,83 L76.4374998,54.5625 L69.9921873,54.5625 L59.5624998,83 L66.8867185,83 Z M76.2812498,72.3945312 L70.1679685,72.3945312 L73.2148435,62.53125 L76.2812498,72.3945312 Z M104.558593,83 C108.022135,82.9739583 110.636067,82.2610677 112.40039,80.8613281 C114.164713,79.4615885 115.046875,77.3684896 115.046875,74.5820312 C115.046875,73.0455729 114.649739,71.7434896 113.855468,70.6757812 C113.061198,69.6080729 111.921875,68.8789062 110.4375,68.4882812 C111.752604,67.9934896 112.748698,67.2252604 113.425781,66.1835938 C114.102864,65.1419271 114.441406,63.8854167 114.441406,62.4140625 C114.441406,59.8619792 113.48763,57.9153646 111.580078,56.5742188 C109.672526,55.2330729 106.889323,54.5625 103.230468,54.5625 L103.230468,54.5625 L93.0156247,54.5625 L93.0156247,83 L104.558593,83 Z M103.445312,66.4179688 L99.8710934,66.4179688 L99.8710934,59.8554688 L103.230468,59.8554688 C104.766927,59.8554688 105.880208,60.1191406 106.570312,60.6464844 C107.260416,61.1738281 107.605468,62.0364583 107.605468,63.234375 C107.605468,64.2760417 107.286458,65.0638021 106.648437,65.5976562 C106.010416,66.1315104 104.942708,66.4049479 103.445312,66.4179688 L103.445312,66.4179688 Z M104.363281,77.7265625 L99.8710934,77.7265625 L99.8710934,70.9101562 L104.675781,70.9101562 C107.032552,70.9231771 108.210937,72.1145833 108.210937,74.484375 C108.210937,75.5130208 107.878906,76.3105469 107.214843,76.8769531 C106.550781,77.4433594 105.60026,77.7265625 104.363281,77.7265625 L104.363281,77.7265625 Z M130.121093,83 L130.121093,54.5625 L123.285156,54.5625 L123.285156,83 L130.121093,83 Z" id="USABI" fill="#000000" fill-rule="nonzero"></path>
                <path d="M272.109375,83 L272.109375,77.7265625 L260.175782,77.7265625 L260.175782,54.5625 L253.320313,54.5625 L253.320313,83 L272.109375,83 Z M286.304688,83 L286.304688,54.5625 L279.46875,54.5625 L279.46875,83 L286.304688,83 Z M308.292969,83 L308.292969,59.8554688 L316.828125,59.8554688 L316.828125,54.5625 L293.058594,54.5625 L293.058594,59.8554688 L301.4375,59.8554688 L301.4375,83 L308.292969,83 Z M337.917969,83 L337.917969,72.7851562 L347.078125,54.5625 L339.675781,54.5625 L334.441406,66.90625 L329.1875,54.5625 L321.824219,54.5625 L330.964844,72.7851562 L330.964844,83 L337.917969,83 Z" id="LITY" fill="#000000" fill-rule="nonzero"></path>
                <path d="M9.453125,130 L9.453125,101.5625 L2.6171875,101.5625 L2.6171875,130 L9.453125,130 Z M27.5742188,130 L27.5742188,123.359375 L26.9101562,109.746094 L33.8046875,130 L38.3359375,130 L45.2109375,109.765625 L44.546875,123.359375 L44.546875,130 L51.421875,130 L51.421875,101.5625 L42.3984375,101.5625 L36.0703125,121.347656 L29.7226562,101.5625 L20.71875,101.5625 L20.71875,130 L27.5742188,130 Z M69.1328125,130 L69.1328125,120.351562 L73.5078125,120.351562 C76.9713542,120.351562 79.6959635,119.521484 81.6816406,117.861328 C83.6673177,116.201172 84.6601562,113.984375 84.6601562,111.210938 C84.6601562,109.335938 84.2011719,107.659505 83.2832031,106.181641 C82.3652344,104.703776 81.0696615,103.564453 79.3964844,102.763672 C77.7233073,101.962891 75.7994792,101.5625 73.625,101.5625 L73.625,101.5625 L62.2773438,101.5625 L62.2773438,130 L69.1328125,130 Z M73.625,115.058594 L69.1328125,115.058594 L69.1328125,106.855469 L73.703125,106.855469 C74.9401042,106.86849 75.9166667,107.272135 76.6328125,108.066406 C77.3489583,108.860677 77.7070312,109.921875 77.7070312,111.25 C77.7070312,112.460938 77.358724,113.398438 76.6621094,114.0625 C75.9654948,114.726562 74.953125,115.058594 73.625,115.058594 L73.625,115.058594 Z M101.667969,130 L101.667969,119.960938 L105.378906,119.960938 L110.398438,130 L117.742188,130 L117.742188,129.707031 L111.804688,118.242188 C113.510417,117.434896 114.763672,116.380208 115.564453,115.078125 C116.365234,113.776042 116.765625,112.135417 116.765625,110.15625 C116.765625,107.421875 115.815104,105.30599 113.914062,103.808594 C112.013021,102.311198 109.376302,101.5625 106.003906,101.5625 L106.003906,101.5625 L94.8125,101.5625 L94.8125,130 L101.667969,130 Z M106.003906,114.667969 L101.667969,114.667969 L101.667969,106.855469 L106.003906,106.855469 C107.292969,106.855469 108.269531,107.203776 108.933594,107.900391 C109.597656,108.597005 109.929688,109.557292 109.929688,110.78125 C109.929688,112.005208 109.600911,112.958984 108.943359,113.642578 C108.285807,114.326172 107.30599,114.667969 106.003906,114.667969 L106.003906,114.667969 Z M139.085938,130.390625 C141.507812,130.390625 143.666016,129.814453 145.560547,128.662109 C147.455078,127.509766 148.916667,125.865885 149.945312,123.730469 C150.973958,121.595052 151.488281,119.140625 151.488281,116.367188 L151.488281,116.367188 L151.488281,115.058594 C151.47526,112.324219 150.944661,109.899089 149.896484,107.783203 C148.848307,105.667318 147.380208,104.036458 145.492188,102.890625 C143.604167,101.744792 141.455729,101.171875 139.046875,101.171875 C136.611979,101.171875 134.440755,101.751302 132.533203,102.910156 C130.625651,104.06901 129.160807,105.712891 128.138672,107.841797 C127.116536,109.970703 126.605469,112.428385 126.605469,115.214844 L126.605469,115.214844 L126.605469,116.816406 C126.657552,119.498698 127.207682,121.875 128.255859,123.945312 C129.304036,126.015625 130.765625,127.607422 132.640625,128.720703 C134.515625,129.833984 136.664062,130.390625 139.085938,130.390625 Z M139.085938,125.039062 C137.263021,125.039062 135.889323,124.290365 134.964844,122.792969 C134.040365,121.295573 133.578125,119.153646 133.578125,116.367188 L133.578125,116.367188 L133.597656,114.277344 C133.792969,109.121094 135.609375,106.542969 139.046875,106.542969 C140.804688,106.542969 142.155599,107.275391 143.099609,108.740234 C144.04362,110.205078 144.515625,112.35026 144.515625,115.175781 L144.515625,115.175781 L144.515625,116.484375 C144.502604,119.244792 144.027344,121.360677 143.089844,122.832031 C142.152344,124.303385 140.817708,125.039062 139.085938,125.039062 Z M175.878906,130 L185.449219,101.5625 L177.792969,101.5625 L172.128906,122.265625 L166.484375,101.5625 L158.886719,101.5625 L168.378906,130 L175.878906,130 Z M213.609375,130 L213.609375,124.726562 L200.875,124.726562 L200.875,117.949219 L211.65625,117.949219 L211.65625,112.851562 L200.875,112.851562 L200.875,106.855469 L213.648438,106.855469 L213.648438,101.5625 L194.019531,101.5625 L194.019531,130 L213.609375,130 Z M229.757812,130 L229.757812,123.359375 L229.09375,109.746094 L235.988281,130 L240.519531,130 L247.394531,109.765625 L246.730469,123.359375 L246.730469,130 L253.605469,130 L253.605469,101.5625 L244.582031,101.5625 L238.253906,121.347656 L231.90625,101.5625 L222.902344,101.5625 L222.902344,130 L229.757812,130 Z M284.050781,130 L284.050781,124.726562 L271.316406,124.726562 L271.316406,117.949219 L282.097656,117.949219 L282.097656,112.851562 L271.316406,112.851562 L271.316406,106.855469 L284.089844,106.855469 L284.089844,101.5625 L264.460938,101.5625 L264.460938,130 L284.050781,130 Z M300.199219,130 L300.199219,112.304688 L310.277344,130 L317.09375,130 L317.09375,101.5625 L310.257812,101.5625 L310.257812,119.257812 L300.199219,101.5625 L293.34375,101.5625 L293.34375,130 L300.199219,130 Z M341.152344,130 L341.152344,106.855469 L349.6875,106.855469 L349.6875,101.5625 L325.917969,101.5625 L325.917969,106.855469 L334.296875,106.855469 L334.296875,130 L341.152344,130 Z" id="IMPROVEMENT" fill="#000000" fill-rule="nonzero"></path>
            </g>
        </g>
    </g>
</svg>