<?xml version="1.0" encoding="UTF-8"?>
<svg width="340px" height="140px" viewBox="0 0 340 140" version="1.1" xmlns="http://www.w3.org/2000/svg" xmlns:xlink="http://www.w3.org/1999/xlink">
    <!-- Generator: Sketch 64 (93537) - https://sketch.com -->
    <title>pc_ico_list_title01</title>
    <desc>Created with Sketch.</desc>
    <g id="Publish_PC" stroke="none" stroke-width="1" fill="none" fill-rule="evenodd">
        <g id="pc_03list" transform="translate(-160.000000, -1070.000000)">
            <g id="pc_ico_list_title01" transform="translate(160.000000, 1070.000000)">
                <rect id="Rectangle" fill="#ACACAC" opacity="0" x="0" y="0" width="340" height="140"></rect>
                <path d="M14.9767474,38.148329 C18.2643152,38.148329 20.8511464,37.4584057 22.7372411,36.078559 C24.6233358,34.6987124 25.5663831,32.7998409 25.5663831,30.3819444 C25.5663831,27.3564091 24.0208333,24.9828197 20.9297337,23.2611762 C19.6592394,22.5522642 18.0351023,21.8908239 16.0573225,21.2768555 C14.0795427,20.662887 12.6977163,20.0679073 11.9118436,19.4919162 C11.1259708,18.9159252 10.7330344,18.2734737 10.7330344,17.5645616 C10.7330344,16.7543764 11.0899516,16.0866066 11.8037861,15.5612522 C12.5176205,15.0358977 13.4901381,14.7732205 14.7213388,14.7732205 C15.9394416,14.7732205 16.9054102,15.0833695 17.6192446,15.7036675 C18.3330791,16.3239656 18.6899963,17.1974465 18.6899963,18.3241102 L18.6899963,18.3241102 L25.5663831,18.3241102 C25.5663831,16.6404442 25.1145063,15.1435004 24.2107526,13.8332791 C23.3069989,12.5230577 22.039779,11.513491 20.409093,10.804579 C18.778407,10.095667 16.9348804,9.74121094 14.8785133,9.74121094 C12.7697547,9.74121094 10.8705621,10.0671839 9.18093565,10.7191298 C7.49130917,11.3710757 6.18479567,12.282534 5.26139516,13.4535048 C4.33799464,14.6244755 3.87629438,15.9758391 3.87629438,17.5075955 C3.87629438,20.5837674 5.72964435,23.0016638 9.4363443,24.7612847 C10.5758598,25.3056279 12.0428224,25.8689598 13.8372319,26.4512804 C15.6316414,27.033601 16.8857634,27.5969329 17.5995978,28.141276 C18.3134323,28.6856192 18.6703495,29.4451678 18.6703495,30.4199219 C18.6703495,31.2807436 18.339628,31.9485135 17.6781851,32.4232313 C17.0167422,32.8979492 16.1162629,33.1353082 14.9767474,33.1353082 C13.1954358,33.1353082 11.9085691,32.7840169 11.1161474,32.0814345 C10.3237257,31.378852 9.92751479,30.2870009 9.92751479,28.8058811 L9.92751479,28.8058811 L3.01183432,28.8058811 C3.01183432,30.6287977 3.48663246,32.2396738 4.43622874,33.6385091 C5.38582501,35.0373445 6.80039602,36.13869 8.67994175,36.9425456 C10.5594875,37.7464012 12.6584227,38.148329 14.9767474,38.148329 Z M38.2739459,37.7685547 L39.9242787,32.6036241 L49.3743989,32.6036241 L51.0443786,37.7685547 L58.4512296,37.7685547 L47.8812406,10.1209852 L41.3977902,10.1209852 L30.9063886,37.7685547 L38.2739459,37.7685547 Z M47.7240661,27.4576823 L41.5746116,27.4576823 L44.6395154,17.8683811 L47.7240661,27.4576823 Z M71.4534946,37.7685547 L71.4534946,31.3123915 L70.7855027,18.0772569 L77.72083,37.7685547 L82.2788922,37.7685547 L89.1945726,18.0962457 L88.5265808,31.3123915 L88.5265808,37.7685547 L95.4422613,37.7685547 L95.4422613,10.1209852 L86.3654306,10.1209852 L79.9998611,29.3565538 L73.6146448,10.1209852 L64.557461,10.1209852 L64.557461,37.7685547 L71.4534946,37.7685547 Z M114.90833,38.148329 C118.195898,38.148329 120.782729,37.4584057 122.668824,36.078559 C124.554918,34.6987124 125.497966,32.7998409 125.497966,30.3819444 C125.497966,27.3564091 123.952416,24.9828197 120.861316,23.2611762 C119.590822,22.5522642 117.966685,21.8908239 115.988905,21.2768555 C114.011125,20.662887 112.629299,20.0679073 111.843426,19.4919162 C111.057553,18.9159252 110.664617,18.2734737 110.664617,17.5645616 C110.664617,16.7543764 111.021534,16.0866066 111.735369,15.5612522 C112.449203,15.0358977 113.421721,14.7732205 114.652921,14.7732205 C115.871024,14.7732205 116.836993,15.0833695 117.550827,15.7036675 C118.264662,16.3239656 118.621579,17.1974465 118.621579,18.3241102 L118.621579,18.3241102 L125.497966,18.3241102 C125.497966,16.6404442 125.046089,15.1435004 124.142335,13.8332791 C123.238581,12.5230577 121.971362,11.513491 120.340676,10.804579 C118.70999,10.095667 116.866463,9.74121094 114.810096,9.74121094 C112.701337,9.74121094 110.802145,10.0671839 109.112518,10.7191298 C107.422892,11.3710757 106.116378,12.282534 105.192978,13.4535048 C104.269577,14.6244755 103.807877,15.9758391 103.807877,17.5075955 C103.807877,20.5837674 105.661227,23.0016638 109.367927,24.7612847 C110.507442,25.3056279 111.974405,25.8689598 113.768814,26.4512804 C115.563224,27.033601 116.817346,27.5969329 117.53118,28.141276 C118.245015,28.6856192 118.601932,29.4451678 118.601932,30.4199219 C118.601932,31.2807436 118.271211,31.9485135 117.609768,32.4232313 C116.948325,32.8979492 116.047845,33.1353082 114.90833,33.1353082 C113.127018,33.1353082 111.840152,32.7840169 111.04773,32.0814345 C110.255308,31.378852 109.859097,30.2870009 109.859097,28.8058811 L109.859097,28.8058811 L102.943417,28.8058811 C102.943417,30.6287977 103.418215,32.2396738 104.367811,33.6385091 C105.317408,35.0373445 106.731979,36.13869 108.611524,36.9425456 C110.49107,37.7464012 112.590005,38.148329 114.90833,38.148329 Z M144.256749,38.148329 C146.561976,38.148329 148.559402,37.7558955 150.249029,36.9710286 C151.938655,36.1861617 153.235345,35.043674 154.139099,33.5435655 C155.042853,32.043457 155.49473,30.2680122 155.49473,28.2172309 L155.49473,28.2172309 L155.49473,10.1209852 L148.598696,10.1209852 L148.598696,28.1792535 C148.598696,29.8882378 148.231955,31.1225043 147.498474,31.882053 C146.764993,32.6416016 145.684418,33.0213759 144.256749,33.0213759 C141.427607,33.0213759 139.973742,31.5086082 139.895155,28.4830729 L139.895155,28.4830729 L139.895155,10.1209852 L132.959828,10.1209852 L132.959828,28.3501519 C132.999121,31.3883464 134.020756,33.7809245 136.024731,35.5278863 C138.028707,37.2748481 140.772713,38.148329 144.256749,38.148329 Z M170.717085,37.7685547 L170.717085,20.5647786 L180.854844,37.7685547 L187.711584,37.7685547 L187.711584,10.1209852 L180.835197,10.1209852 L180.835197,27.3247613 L170.717085,10.1209852 L163.821052,10.1209852 L163.821052,37.7685547 L170.717085,37.7685547 Z M320.488719,38.148329 C322.924925,38.148329 325.164662,37.8002025 327.207931,37.1039497 C329.2512,36.4076968 330.803299,35.4899089 331.864227,34.3505859 L331.864227,34.3505859 L331.864227,22.9953342 L320.17437,22.9953342 L320.17437,27.5716146 L324.968194,27.5716146 L324.968194,31.8630642 C324.090636,32.635272 322.754652,33.0213759 320.960243,33.0213759 C318.864582,33.0213759 317.328855,32.3282878 316.353063,30.9421115 C315.377271,29.5559353 314.889375,27.4830006 314.889375,24.7233073 L314.889375,24.7233073 L314.889375,23.0523003 C314.902473,20.4191985 315.380546,18.3937355 316.323593,16.9759115 C317.266641,15.5580874 318.602624,14.8491753 320.331544,14.8491753 C321.772311,14.8491753 322.885631,15.1783131 323.671504,15.8365885 C324.457376,16.494864 324.968194,17.5962095 325.203956,19.140625 L325.203956,19.140625 L331.844581,19.140625 C331.517134,16.0138166 330.367795,13.6623806 328.396564,12.0863173 C326.425333,10.5102539 323.658406,9.72222222 320.095783,9.72222222 C317.659577,9.72222222 315.514799,10.2697302 313.661449,11.3647461 C311.808099,12.459762 310.383705,14.0231662 309.388266,16.0549588 C308.392827,18.0867513 307.895108,20.4635055 307.895108,23.1852214 L307.895108,23.1852214 L307.914754,25.5777995 C308.071929,29.5274523 309.270385,32.6099537 311.510122,34.8253038 C313.74986,37.0406539 316.742725,38.148329 320.488719,38.148329 Z M12.2379806,83.4629991 L12.2379806,72.4495443 L23.3580804,72.4495443 L23.3580804,67.3225911 L12.2379806,67.3225911 L12.2379806,60.9613715 L24.4779491,60.9613715 L24.4779491,55.8154297 L5.3419469,55.8154297 L5.3419469,83.4629991 L12.2379806,83.4629991 Z M38.7179638,83.4629991 L38.7179638,55.8154297 L31.841577,55.8154297 L31.841577,83.4629991 L38.7179638,83.4629991 Z M54.43149,83.4629991 L54.43149,73.7027995 L58.1643857,73.7027995 L63.2136183,83.4629991 L70.6008224,83.4629991 L70.6008224,83.1781684 L64.6281893,72.0317925 C66.3440115,71.2469256 67.6046825,70.221535 68.4102021,68.9556207 C69.2157217,67.6897063 69.6184815,66.0946542 69.6184815,64.1704644 C69.6184815,61.5120443 68.6623362,59.4549334 66.7500458,57.9991319 C64.8377554,56.5433304 62.1854347,55.8154297 58.7930839,55.8154297 L58.7930839,55.8154297 L47.5354563,55.8154297 L47.5354563,83.4629991 L54.43149,83.4629991 Z M58.7930839,68.5568576 L54.43149,68.5568576 L54.43149,60.9613715 L58.7930839,60.9613715 C60.089774,60.9613715 61.072115,61.3000036 61.7401068,61.9772678 C62.4080987,62.654532 62.7420946,63.5881438 62.7420946,64.7781033 C62.7420946,65.9680628 62.4113732,66.8953451 61.7499302,67.5599501 C61.0884873,68.2245551 60.1028719,68.5568576 58.7930839,68.5568576 L58.7930839,68.5568576 Z M97.5130357,83.4629991 L97.5130357,78.336046 L84.7033094,78.336046 L84.7033094,71.7469618 L95.5483538,71.7469618 L95.5483538,66.7909071 L84.7033094,66.7909071 L84.7033094,60.9613715 L97.5523293,60.9613715 L97.5523293,55.8154297 L77.8072757,55.8154297 L77.8072757,83.4629991 L97.5130357,83.4629991 Z M126.680704,83.8617622 C128.121471,83.8617622 129.414886,83.7098524 130.560951,83.406033 C131.707015,83.1022135 132.830158,82.6338252 133.93038,82.0008681 L133.93038,82.0008681 L135.266364,83.4629991 L142.653568,83.4629991 L138.291974,78.6208767 C140.073286,76.3675492 140.963942,73.3736617 140.963942,69.6392144 L140.963942,69.6392144 L135.403892,69.6392144 C135.403892,71.2975622 135.0437,72.822989 134.323317,74.2154948 L134.323317,74.2154948 L129.922429,69.335395 L131.415587,68.3289931 C134.100653,66.5060764 135.443185,64.4173177 135.443185,62.062717 C135.443185,60.1765046 134.7359,58.5972765 133.321329,57.3250326 C131.906758,56.0527886 130.118897,55.4166667 127.957747,55.4166667 C125.547737,55.4166667 123.596153,56.1034252 122.102995,57.4769423 C120.609837,58.8504593 119.863257,60.6512225 119.863257,62.8792318 C119.863257,63.9046224 120.082647,64.8983652 120.521426,65.8604601 C120.960205,66.822555 121.565982,67.8352865 122.338757,68.8986545 L122.338757,68.8986545 L122.279816,68.9366319 C120.328232,70.3164786 119.01517,71.5254268 118.340629,72.5634766 C117.666088,73.6015263 117.328818,74.759838 117.328818,76.0384115 C117.328818,78.380353 118.18018,80.2697302 119.882904,81.706543 C121.585629,83.1433558 123.851562,83.8617622 126.680704,83.8617622 Z M127.07364,66.0313585 C126.078201,64.7654442 125.580482,63.689417 125.580482,62.8032769 C125.580482,62.0690466 125.790048,61.4772316 126.20918,61.027832 C126.628312,60.5784324 127.204619,60.3537326 127.9381,60.3537326 C128.553701,60.3537326 129.071067,60.5689381 129.490199,60.999349 C129.909331,61.4297598 130.118897,61.9361256 130.118897,62.5184462 C130.118897,63.1387442 129.981369,63.6514395 129.706314,64.0565321 C129.431258,64.4616247 128.99248,64.8540582 128.389977,65.2338325 L128.389977,65.2338325 L127.07364,66.0313585 Z M127.112934,78.9246962 C126.222278,78.9246962 125.475699,78.601888 124.873196,77.9562717 C124.270694,77.3106554 123.969443,76.5257885 123.969443,75.601671 C123.969443,74.4876664 124.342732,73.487594 125.089311,72.601454 L125.089311,72.601454 L125.266133,72.4875217 L130.413599,78.1461589 C129.365769,78.6651837 128.265547,78.9246962 127.112934,78.9246962 Z M170.465606,83.4629991 L170.465606,77.0068359 L169.797614,63.7717014 L176.732941,83.4629991 L181.291003,83.4629991 L188.206684,63.7906901 L187.538692,77.0068359 L187.538692,83.4629991 L194.454372,83.4629991 L194.454372,55.8154297 L185.377542,55.8154297 L179.011972,75.0509983 L172.626756,55.8154297 L163.569572,55.8154297 L163.569572,83.4629991 L170.465606,83.4629991 Z M208.360391,83.4629991 L210.010724,78.2980686 L219.460844,78.2980686 L221.130824,83.4629991 L228.537675,83.4629991 L217.967686,55.8154297 L211.484235,55.8154297 L200.992834,83.4629991 L208.360391,83.4629991 Z M217.810511,73.1521267 L211.661057,73.1521267 L214.72596,63.5628255 L217.810511,73.1521267 Z M241.53994,83.4629991 L241.53994,73.7027995 L245.272835,73.7027995 L250.322068,83.4629991 L257.709272,83.4629991 L257.709272,83.1781684 L251.736639,72.0317925 C253.452461,71.2469256 254.713132,70.221535 255.518652,68.9556207 C256.324171,67.6897063 256.726931,66.0946542 256.726931,64.1704644 C256.726931,61.5120443 255.770786,59.4549334 253.858495,57.9991319 C251.946205,56.5433304 249.293884,55.8154297 245.901534,55.8154297 L245.901534,55.8154297 L234.643906,55.8154297 L234.643906,83.4629991 L241.53994,83.4629991 Z M245.901534,68.5568576 L241.53994,68.5568576 L241.53994,60.9613715 L245.901534,60.9613715 C247.198224,60.9613715 248.180565,61.3000036 248.848557,61.9772678 C249.516548,62.654532 249.850544,63.5881438 249.850544,64.7781033 C249.850544,65.9680628 249.519823,66.8953451 248.85838,67.5599501 C248.196937,68.2245551 247.211322,68.5568576 245.901534,68.5568576 L245.901534,68.5568576 Z M272.263636,83.4629991 L272.263636,55.8154297 L265.387249,55.8154297 L265.387249,83.4629991 L272.263636,83.4629991 Z M287.977162,83.4629991 L287.977162,66.2592231 L298.114921,83.4629991 L304.971661,83.4629991 L304.971661,55.8154297 L298.095274,55.8154297 L298.095274,73.0192057 L287.977162,55.8154297 L281.081128,55.8154297 L281.081128,83.4629991 L287.977162,83.4629991 Z M333.062683,83.4629991 L333.062683,78.336046 L320.252957,78.336046 L320.252957,71.7469618 L331.098001,71.7469618 L331.098001,66.7909071 L320.252957,66.7909071 L320.252957,60.9613715 L333.101977,60.9613715 L333.101977,55.8154297 L313.356923,55.8154297 L313.356923,83.4629991 L333.062683,83.4629991 Z M11.4053906,129.157444 L11.4053906,101.509874 L4.52900378,101.509874 L4.52900378,129.157444 L11.4053906,129.157444 Z M28.0130656,129.157444 L28.0130656,111.953668 L38.1508244,129.157444 L45.0075645,129.157444 L45.0075645,101.509874 L38.1311776,101.509874 L38.1311776,118.71365 L28.0130656,101.509874 L21.1170319,101.509874 L21.1170319,129.157444 L28.0130656,129.157444 Z M140.036612,129.537218 C143.324179,129.537218 145.911011,128.847295 147.797105,127.467448 C149.6832,126.087601 150.626247,124.18873 150.626247,121.770833 C150.626247,118.745298 149.080697,116.371709 145.989598,114.650065 C144.719104,113.941153 143.094966,113.279713 141.117187,112.665744 C139.139407,112.051776 137.757581,111.456796 136.971708,110.880805 C136.185835,110.304814 135.792899,109.662363 135.792899,108.953451 C135.792899,108.143265 136.149816,107.475496 136.86365,106.950141 C137.577485,106.424787 138.550002,106.162109 139.781203,106.162109 C140.999306,106.162109 141.965274,106.472258 142.679109,107.092556 C143.392943,107.712854 143.74986,108.586335 143.74986,109.712999 L143.74986,109.712999 L150.626247,109.712999 C150.626247,108.029333 150.17437,106.532389 149.270617,105.222168 C148.366863,103.911947 147.099643,102.90238 145.468957,102.193468 C143.838271,101.484556 141.994745,101.1301 139.938377,101.1301 C137.829619,101.1301 135.930426,101.456073 134.2408,102.108019 C132.551173,102.759965 131.24466,103.671423 130.321259,104.842394 C129.397859,106.013364 128.936159,107.364728 128.936159,108.896484 C128.936159,111.972656 130.789509,114.390553 134.496208,116.150174 C135.635724,116.694517 137.102687,117.257849 138.897096,117.840169 C140.691506,118.42249 141.945628,118.985822 142.659462,119.530165 C143.373296,120.074508 143.730214,120.834057 143.730214,121.808811 C143.730214,122.669633 143.399492,123.337402 142.738049,123.81212 C142.076606,124.286838 141.176127,124.524197 140.036612,124.524197 C138.2553,124.524197 136.968433,124.172906 136.176012,123.470323 C135.38359,122.767741 134.987379,121.67589 134.987379,120.19477 L134.987379,120.19477 L128.071698,120.19477 C128.071698,122.017687 128.546497,123.628563 129.496093,125.027398 C130.445689,126.426233 131.86026,127.527579 133.739806,128.331434 C135.619352,129.13529 137.718287,129.537218 140.036612,129.537218 Z M169.38503,129.537218 C171.690257,129.537218 173.687684,129.144784 175.37731,128.359918 C177.066937,127.575051 178.363627,126.432563 179.267381,124.932454 C180.171134,123.432346 180.623011,121.656901 180.623011,119.60612 L180.623011,119.60612 L180.623011,101.509874 L173.726978,101.509874 L173.726978,119.568142 C173.726978,121.277127 173.360237,122.511393 172.626756,123.270942 C171.893274,124.03049 170.812699,124.410265 169.38503,124.410265 C166.555888,124.410265 165.102024,122.897497 165.023437,119.871962 L165.023437,119.871962 L165.023437,101.509874 L158.088109,101.509874 L158.088109,119.739041 C158.127403,122.777235 159.149038,125.169813 161.153013,126.916775 C163.156989,128.663737 165.900994,129.537218 169.38503,129.537218 Z M195.845367,129.157444 L195.845367,119.397244 L199.578263,119.397244 L204.627495,129.157444 L212.014699,129.157444 L212.014699,128.872613 L206.042066,117.726237 C207.757888,116.94137 209.018559,115.915979 209.824079,114.650065 C210.629599,113.384151 211.032358,111.789099 211.032358,109.864909 C211.032358,107.206489 210.076213,105.149378 208.163923,103.693576 C206.251632,102.237775 203.599312,101.509874 200.206961,101.509874 L200.206961,101.509874 L188.949333,101.509874 L188.949333,129.157444 L195.845367,129.157444 Z M200.206961,114.251302 L195.845367,114.251302 L195.845367,106.655816 L200.206961,106.655816 C201.503651,106.655816 202.485992,106.994448 203.153984,107.671712 C203.821976,108.348976 204.155972,109.282588 204.155972,110.472548 C204.155972,111.662507 203.82525,112.589789 203.163807,113.254395 C202.502364,113.919 201.516749,114.251302 200.206961,114.251302 L200.206961,114.251302 Z M224.368619,129.157444 L226.018952,123.992513 L235.469072,123.992513 L237.139052,129.157444 L244.545903,129.157444 L233.975914,101.509874 L227.492464,101.509874 L217.001062,129.157444 L224.368619,129.157444 Z M233.81874,118.846571 L227.669285,118.846571 L230.734189,109.25727 L233.81874,118.846571 Z M257.548168,129.157444 L257.548168,111.953668 L267.685927,129.157444 L274.542667,129.157444 L274.542667,101.509874 L267.66628,101.509874 L267.66628,118.71365 L257.548168,101.509874 L250.652134,101.509874 L250.652134,129.157444 L257.548168,129.157444 Z M294.244498,129.537218 C296.523529,129.537218 298.550425,129.132125 300.325188,128.32194 C302.099951,127.511755 303.478503,126.369267 304.460844,124.894477 C305.443185,123.419687 305.980198,121.720197 306.071883,119.796007 L306.071883,119.796007 L299.215143,119.796007 C299.162751,121.365741 298.717423,122.511393 297.879159,123.232964 C297.040895,123.954536 295.829341,124.315321 294.244498,124.315321 C292.371501,124.315321 291.051889,123.682364 290.285663,122.41645 C289.519437,121.150535 289.136324,119.042788 289.136324,116.093207 L289.136324,116.093207 L289.136324,114.13737 C289.175618,111.415654 289.59475,109.434498 290.393721,108.193902 C291.192692,106.953306 292.450088,106.333008 294.16591,106.333008 C295.855537,106.333008 297.112933,106.700123 297.9381,107.434353 C298.763266,108.168584 299.202045,109.377532 299.254436,111.061198 L299.254436,111.061198 L306.130823,111.061198 C305.84267,107.959708 304.644214,105.525987 302.535455,103.760037 C300.426697,101.994086 297.636848,101.111111 294.16591,101.111111 C291.7559,101.111111 289.634044,101.664949 287.800341,102.772624 C285.966638,103.880299 284.56189,105.450033 283.586098,107.481825 C282.610306,109.513618 282.12241,111.884042 282.12241,114.593099 L282.12241,114.593099 L282.12241,115.960286 C282.12241,120.277054 283.202985,123.619068 285.364135,125.986328 C287.525285,128.353588 290.485406,129.537218 294.244498,129.537218 Z M333.062683,129.157444 L333.062683,124.03049 L320.252957,124.03049 L320.252957,117.441406 L331.098001,117.441406 L331.098001,112.485352 L320.252957,112.485352 L320.252957,106.655816 L333.101977,106.655816 L333.101977,101.509874 L313.356923,101.509874 L313.356923,129.157444 L333.062683,129.157444 Z" id="SAMSUNGFIRE&amp;MARINEINSURANCE" fill="#000000" fill-rule="nonzero"></path>
                <g id="tit-copy-2" transform="translate(54.000000, 114.000000)"></g>
            </g>
        </g>
    </g>
</svg>