<?xml version="1.0" encoding="UTF-8"?>
<svg width="572px" height="208px" viewBox="0 0 572 208" version="1.1" xmlns="http://www.w3.org/2000/svg" xmlns:xlink="http://www.w3.org/1999/xlink">
    <!-- Generator: Sketch 60.1 (88133) - https://sketch.com -->
    <title>pc_ico_detail_title04</title>
    <desc>Created with Sketch.</desc>
    <g id="Design" stroke="none" stroke-width="1" fill="none" fill-rule="evenodd">
        <g id="pc_05detail_05" transform="translate(-165.000000, -412.000000)" fill="#000000" fill-rule="nonzero">
            <g id="pc_ico_detail_title04" transform="translate(162.000000, 400.000000)">
                <path d="M29.8984375,59 L29.8984375,21.3901367 L43.7680664,21.3901367 L43.7680664,12.7890625 L5.14257812,12.7890625 L5.14257812,21.3901367 L18.7583008,21.3901367 L18.7583008,59 L29.8984375,59 Z M250.193359,59 L250.193359,42.6865234 L256.223633,42.6865234 L264.380371,59 L276.313965,59 L276.313965,58.5239258 L266.665527,39.8935547 C269.437337,38.5817057 271.473877,36.8678385 272.775146,34.7519531 C274.076416,32.6360677 274.727051,29.9700521 274.727051,26.7539062 C274.727051,22.3105469 273.182454,18.8722331 270.093262,16.4389648 C267.004069,14.0056966 262.719401,12.7890625 257.239258,12.7890625 L257.239258,12.7890625 L239.053223,12.7890625 L239.053223,59 L250.193359,59 Z M257.239258,34.0854492 L250.193359,34.0854492 L250.193359,21.3901367 L257.239258,21.3901367 C259.333984,21.3901367 260.920898,21.9561361 262,23.0881348 C263.079102,24.2201335 263.618652,25.780599 263.618652,27.7695312 C263.618652,29.7584635 263.084391,31.3083496 262.015869,32.4191895 C260.947347,33.5300293 259.355143,34.0854492 257.239258,34.0854492 L257.239258,34.0854492 Z M307.435059,59.6347656 C311.370605,59.6347656 314.877686,58.6984863 317.956299,56.8259277 C321.034912,54.9533691 323.409993,52.2820638 325.081543,48.8120117 C326.753092,45.3419596 327.588867,41.3535156 327.588867,36.8466797 L327.588867,36.8466797 L327.588867,34.7202148 C327.567708,30.2768555 326.705485,26.3360189 325.002197,22.8977051 C323.29891,19.4593913 320.913249,16.8092448 317.845215,14.9472656 C314.777181,13.0852865 311.28597,12.1542969 307.371582,12.1542969 C303.414876,12.1542969 299.886637,13.0958659 296.786865,14.9790039 C293.687093,16.8621419 291.306722,19.5334473 289.645752,22.9929199 C287.984782,26.4523926 287.154297,30.4461263 287.154297,34.9741211 L287.154297,34.9741211 L287.154297,37.5766602 C287.238932,41.9353841 288.132894,45.796875 289.836182,49.1611328 C291.539469,52.5253906 293.914551,55.1120605 296.961426,56.9211426 C300.008301,58.7302246 303.499512,59.6347656 307.435059,59.6347656 Z M307.435059,50.9384766 C304.472819,50.9384766 302.24056,49.7218424 300.738281,47.2885742 C299.236003,44.855306 298.484863,41.3746745 298.484863,36.8466797 L298.484863,36.8466797 L298.516602,33.4506836 C298.833984,25.0717773 301.785645,20.8823242 307.371582,20.8823242 C310.228027,20.8823242 312.423258,22.0725098 313.957275,24.4528809 C315.491292,26.833252 316.258301,30.3191732 316.258301,34.9106445 L316.258301,34.9106445 L316.258301,37.0371094 C316.237142,41.5227865 315.464844,44.9611003 313.941406,47.3520508 C312.417969,49.7430013 310.249186,50.9384766 307.435059,50.9384766 Z M347.982422,59 L350.648438,50.3671875 L365.914551,50.3671875 L368.612305,59 L380.577637,59 L363.502441,12.7890625 L353.028809,12.7890625 L336.080566,59 L347.982422,59 Z M363.248535,41.7661133 L353.314453,41.7661133 L358.265625,25.7382812 L363.248535,41.7661133 Z M402.082031,59 L402.082031,48.2089844 L401.00293,26.0874023 L412.206543,59 L419.569824,59 L430.741699,26.1191406 L429.662598,48.2089844 L429.662598,59 L440.834473,59 L440.834473,12.7890625 L426.171387,12.7890625 L415.888184,44.9399414 L405.573242,12.7890625 L390.941895,12.7890625 L390.941895,59 L402.082031,59 Z M466.782227,59 L466.782227,12.7890625 L455.673828,12.7890625 L455.673828,59 L466.782227,59 Z M492.666504,59 L492.666504,30.2451172 L509.043457,59 L520.120117,59 L520.120117,12.7890625 L509.011719,12.7890625 L509.011719,41.5439453 L492.666504,12.7890625 L481.526367,12.7890625 L481.526367,59 L492.666504,59 Z M553.621582,59.6347656 C557.557129,59.6347656 561.175293,59.0528971 564.476074,57.8891602 C567.776855,56.7254232 570.28418,55.1914062 571.998047,53.2871094 L571.998047,53.2871094 L571.998047,34.3076172 L553.11377,34.3076172 L553.11377,41.956543 L560.85791,41.956543 L560.85791,49.1293945 C559.440267,50.4200846 557.282064,51.0654297 554.383301,51.0654297 C550.997884,51.0654297 548.517008,49.9069824 546.940674,47.5900879 C545.364339,45.2731934 544.576172,41.808431 544.576172,37.1958008 L544.576172,37.1958008 L544.576172,34.402832 C544.597331,30.0017904 545.369629,26.6163737 546.893066,24.246582 C548.416504,21.8767904 550.574707,20.6918945 553.367676,20.6918945 C555.69515,20.6918945 557.493652,21.2420247 558.763184,22.3422852 C560.032715,23.4425456 560.85791,25.2833659 561.23877,27.8647461 L561.23877,27.8647461 L571.966309,27.8647461 C571.437337,22.6385091 569.580648,18.708252 566.39624,16.0739746 C563.211833,13.4396973 558.742025,12.1225586 552.986816,12.1225586 C549.05127,12.1225586 545.586507,13.037679 542.592529,14.8679199 C539.598551,16.6981608 537.297526,19.3112793 535.689453,22.7072754 C534.08138,26.1032715 533.277344,30.0758464 533.277344,34.625 L533.277344,34.625 L533.309082,38.6240234 C533.562988,45.2255859 535.499023,50.3777669 539.117188,54.0805664 C542.735352,57.7833659 547.57015,59.6347656 553.621582,59.6347656 Z" id="TROAMING"></path>
                <path d="M21.5820312,139.634766 C25.3059896,139.634766 28.5327148,138.978841 31.262207,137.666992 C33.9916992,136.355143 36.0864258,134.445557 37.5463867,131.938232 C39.0063477,129.430908 39.7363281,126.463379 39.7363281,123.035645 L39.7363281,123.035645 L39.7363281,92.7890625 L28.5961914,92.7890625 L28.5961914,122.972168 C28.5961914,125.828613 28.0037435,127.891602 26.8188477,129.161133 C25.6339518,130.430664 23.8883464,131.06543 21.5820312,131.06543 C17.0117188,131.06543 14.6630859,128.536947 14.5361328,123.47998 L14.5361328,123.47998 L14.5361328,92.7890625 L3.33251953,92.7890625 L3.33251953,123.257812 C3.39599609,128.335938 5.04638672,132.334961 8.28369141,135.254883 C11.5209961,138.174805 15.953776,139.634766 21.5820312,139.634766 Z M72.5556641,139.634766 C77.8665365,139.634766 82.0454102,138.481608 85.0922852,136.175293 C88.1391602,133.868978 89.6625977,130.69515 89.6625977,126.653809 C89.6625977,121.596842 87.1658529,117.629557 82.1723633,114.751953 C80.1199544,113.567057 77.4962565,112.461507 74.3012695,111.435303 C71.1062826,110.409098 68.8740234,109.414632 67.6044922,108.451904 C66.3349609,107.489176 65.7001953,106.415365 65.7001953,105.230469 C65.7001953,103.876302 66.2767741,102.760173 67.4299316,101.88208 C68.5830892,101.003988 70.1541341,100.564941 72.1430664,100.564941 C74.1108398,100.564941 75.6713053,101.083333 76.8244629,102.120117 C77.9776204,103.156901 78.5541992,104.616862 78.5541992,106.5 L78.5541992,106.5 L89.6625977,106.5 C89.6625977,103.685872 88.9326172,101.183838 87.4726562,98.9938965 C86.0126953,96.8039551 83.9655762,95.1165365 81.3312988,93.9316406 C78.6970215,92.7467448 75.7189128,92.1542969 72.3969727,92.1542969 C68.9903971,92.1542969 65.9223633,92.6991374 63.1928711,93.7888184 C60.4633789,94.8784993 58.3527832,96.4019368 56.861084,98.3591309 C55.3693848,100.316325 54.6235352,102.575033 54.6235352,105.135254 C54.6235352,110.276855 57.617513,114.318197 63.6054688,117.259277 C65.4462891,118.169108 67.8160807,119.110677 70.7148438,120.083984 C73.6136068,121.057292 75.6395671,121.998861 76.7927246,122.908691 C77.9458822,123.818522 78.5224609,125.088053 78.5224609,126.717285 C78.5224609,128.156087 77.9881999,129.272217 76.9196777,130.065674 C75.8511556,130.859131 74.3964844,131.255859 72.5556641,131.255859 C69.6780599,131.255859 67.5992025,130.668701 66.3190918,129.494385 C65.0389811,128.320068 64.3989258,126.495117 64.3989258,124.019531 L64.3989258,124.019531 L53.2270508,124.019531 C53.2270508,127.066406 53.9940592,129.75887 55.5280762,132.096924 C57.0620931,134.434977 59.3472493,136.275798 62.3835449,137.619385 C65.4198405,138.962972 68.8105469,139.634766 72.5556641,139.634766 Z M111.690918,139 L114.356934,130.367188 L129.623047,130.367188 L132.320801,139 L144.286133,139 L127.210938,92.7890625 L116.737305,92.7890625 L99.7890625,139 L111.690918,139 Z M126.957031,121.766113 L117.022949,121.766113 L121.974121,105.738281 L126.957031,121.766113 Z M174.407715,139 C180.03597,138.957682 184.28361,137.799235 187.150635,135.524658 C190.01766,133.250081 191.451172,129.848796 191.451172,125.320801 C191.451172,122.824056 190.805827,120.708171 189.515137,118.973145 C188.224447,117.238118 186.373047,116.053223 183.960938,115.418457 C186.097982,114.614421 187.716634,113.366048 188.816895,111.67334 C189.917155,109.980632 190.467285,107.938802 190.467285,105.547852 C190.467285,101.400716 188.917399,98.2374674 185.817627,96.0581055 C182.717855,93.8787435 178.19515,92.7890625 172.249512,92.7890625 L172.249512,92.7890625 L155.650391,92.7890625 L155.650391,139 L174.407715,139 Z M172.598633,112.054199 L166.790527,112.054199 L166.790527,101.390137 L172.249512,101.390137 C174.746257,101.390137 176.555339,101.818604 177.676758,102.675537 C178.798177,103.532471 179.358887,104.934245 179.358887,106.880859 C179.358887,108.573568 178.840495,109.853678 177.803711,110.721191 C176.766927,111.588704 175.031901,112.03304 172.598633,112.054199 L172.598633,112.054199 Z M174.090332,130.430664 L166.790527,130.430664 L166.790527,119.354004 L174.598145,119.354004 C178.427897,119.375163 180.342773,121.311198 180.342773,125.162109 C180.342773,126.833659 179.803223,128.129639 178.724121,129.050049 C177.64502,129.970459 176.100423,130.430664 174.090332,130.430664 L174.090332,130.430664 Z M217.446777,139 L217.446777,92.7890625 L206.338379,92.7890625 L206.338379,139 L217.446777,139 Z" id="USABI"></path>
                <path d="M448.023438,139 L448.023438,130.430664 L428.631348,130.430664 L428.631348,92.7890625 L417.491211,92.7890625 L417.491211,139 L448.023438,139 Z M472.59082,139 L472.59082,92.7890625 L461.482422,92.7890625 L461.482422,139 L472.59082,139 Z M509.821777,139 L509.821777,101.390137 L523.691406,101.390137 L523.691406,92.7890625 L485.065918,92.7890625 L485.065918,101.390137 L498.681641,101.390137 L498.681641,139 L509.821777,139 Z M559.462402,139 L559.462402,122.400879 L574.347656,92.7890625 L562.318848,92.7890625 L553.812988,112.847656 L545.275391,92.7890625 L533.310059,92.7890625 L548.163574,122.400879 L548.163574,139 L559.462402,139 Z" id="LITY"></path>
                <path d="M19.3613281,219 L19.3613281,172.789062 L8.25292969,172.789062 L8.25292969,219 L19.3613281,219 Z M48.7456055,219 L48.7456055,208.208984 L47.6665039,186.087402 L58.8701172,219 L66.2333984,219 L77.4052734,186.119141 L76.3261719,208.208984 L76.3261719,219 L87.4980469,219 L87.4980469,172.789062 L72.8349609,172.789062 L62.5517578,204.939941 L52.2368164,172.789062 L37.6054688,172.789062 L37.6054688,219 L48.7456055,219 Z M116.21582,219 L116.21582,203.321289 L123.325195,203.321289 C128.953451,203.321289 133.380941,201.972412 136.607666,199.274658 C139.834391,196.576904 141.447754,192.974609 141.447754,188.467773 C141.447754,185.420898 140.701904,182.696696 139.210205,180.295166 C137.718506,177.893636 135.6132,176.042236 132.894287,174.740967 C130.175374,173.439697 127.049154,172.789062 123.515625,172.789062 L123.515625,172.789062 L105.075684,172.789062 L105.075684,219 L116.21582,219 Z M123.515625,194.720215 L116.21582,194.720215 L116.21582,181.390137 L123.642578,181.390137 C125.652669,181.411296 127.239583,182.06722 128.40332,183.35791 C129.567057,184.6486 130.148926,186.373047 130.148926,188.53125 C130.148926,190.499023 129.582926,192.022461 128.450928,193.101562 C127.318929,194.180664 125.673828,194.720215 123.515625,194.720215 L123.515625,194.720215 Z M169.022949,219 L169.022949,202.686523 L175.053223,202.686523 L183.209961,219 L195.143555,219 L195.143555,218.523926 L185.495117,199.893555 C188.266927,198.581706 190.303467,196.867839 191.604736,194.751953 C192.906006,192.636068 193.556641,189.970052 193.556641,186.753906 C193.556641,182.310547 192.012044,178.872233 188.922852,176.438965 C185.833659,174.005697 181.548991,172.789062 176.068848,172.789062 L176.068848,172.789062 L157.882812,172.789062 L157.882812,219 L169.022949,219 Z M176.068848,194.085449 L169.022949,194.085449 L169.022949,181.390137 L176.068848,181.390137 C178.163574,181.390137 179.750488,181.956136 180.82959,183.088135 C181.908691,184.220133 182.448242,185.780599 182.448242,187.769531 C182.448242,189.758464 181.913981,191.30835 180.845459,192.419189 C179.776937,193.530029 178.184733,194.085449 176.068848,194.085449 L176.068848,194.085449 Z M229.764648,219.634766 C233.700195,219.634766 237.207275,218.698486 240.285889,216.825928 C243.364502,214.953369 245.739583,212.282064 247.411133,208.812012 C249.082682,205.34196 249.918457,201.353516 249.918457,196.84668 L249.918457,196.84668 L249.918457,194.720215 C249.897298,190.276855 249.035075,186.336019 247.331787,182.897705 C245.628499,179.459391 243.242839,176.809245 240.174805,174.947266 C237.106771,173.085286 233.61556,172.154297 229.701172,172.154297 C225.744466,172.154297 222.216227,173.095866 219.116455,174.979004 C216.016683,176.862142 213.636312,179.533447 211.975342,182.99292 C210.314372,186.452393 209.483887,190.446126 209.483887,194.974121 L209.483887,194.974121 L209.483887,197.57666 C209.568522,201.935384 210.462484,205.796875 212.165771,209.161133 C213.869059,212.525391 216.244141,215.112061 219.291016,216.921143 C222.337891,218.730225 225.829102,219.634766 229.764648,219.634766 Z M229.764648,210.938477 C226.802409,210.938477 224.57015,209.721842 223.067871,207.288574 C221.565592,204.855306 220.814453,201.374674 220.814453,196.84668 L220.814453,196.84668 L220.846191,193.450684 C221.163574,185.071777 224.115234,180.882324 229.701172,180.882324 C232.557617,180.882324 234.752848,182.07251 236.286865,184.452881 C237.820882,186.833252 238.587891,190.319173 238.587891,194.910645 L238.587891,194.910645 L238.587891,197.037109 C238.566732,201.522786 237.794434,204.9611 236.270996,207.352051 C234.747559,209.743001 232.578776,210.938477 229.764648,210.938477 Z M289.490723,219 L305.04248,172.789062 L292.601074,172.789062 L283.396973,206.431641 L274.224609,172.789062 L261.878418,172.789062 L277.303223,219 L289.490723,219 Z M350.740234,219 L350.740234,210.430664 L330.046875,210.430664 L330.046875,199.41748 L347.566406,199.41748 L347.566406,191.133789 L330.046875,191.133789 L330.046875,181.390137 L350.803711,181.390137 L350.803711,172.789062 L318.906738,172.789062 L318.906738,219 L350.740234,219 Z M376.918945,219 L376.918945,208.208984 L375.839844,186.087402 L387.043457,219 L394.406738,219 L405.578613,186.119141 L404.499512,208.208984 L404.499512,219 L415.671387,219 L415.671387,172.789062 L401.008301,172.789062 L390.725098,204.939941 L380.410156,172.789062 L365.778809,172.789062 L365.778809,219 L376.918945,219 Z M465.08252,219 L465.08252,210.430664 L444.38916,210.430664 L444.38916,199.41748 L461.908691,199.41748 L461.908691,191.133789 L444.38916,191.133789 L444.38916,181.390137 L465.145996,181.390137 L465.145996,172.789062 L433.249023,172.789062 L433.249023,219 L465.08252,219 Z M491.26123,219 L491.26123,190.245117 L507.638184,219 L518.714844,219 L518.714844,172.789062 L507.606445,172.789062 L507.606445,201.543945 L491.26123,172.789062 L480.121094,172.789062 L480.121094,219 L491.26123,219 Z M557.747559,219 L557.747559,181.390137 L571.617188,181.390137 L571.617188,172.789062 L532.991699,172.789062 L532.991699,181.390137 L546.607422,181.390137 L546.607422,219 L557.747559,219 Z" id="IMPROVEMENT"></path>
            </g>
        </g>
    </g>
</svg>