<?xml version="1.0" encoding="UTF-8"?>
<svg width="854px" height="418px" viewBox="0 0 854 418" version="1.1" xmlns="http://www.w3.org/2000/svg" xmlns:xlink="http://www.w3.org/1999/xlink">
    <title>pc_ico_b_about01</title>
    <g id="Publish_PC" stroke="none" stroke-width="1" fill="none" fill-rule="evenodd">
        <g id="pc_02about-" transform="translate(-160.000000, -1455.000000)">
            <g id="pc_ico_b_about01" transform="translate(160.000000, 1455.000000)">
                <rect id="Rectangle" fill="#616161" opacity="0" x="0" y="0" width="854" height="418"></rect>
                <g id="copy_3" transform="translate(0.462402, 20.673828)"></g>
                <path d="M35.3256836,97.6992188 C41.3413086,97.6992188 46.5537109,96.6396484 50.9628906,94.5205078 C55.3720703,92.4013672 58.7558594,89.3166504 61.1142578,85.2663574 C63.4726562,81.2160645 64.6518555,76.4223633 64.6518555,70.8852539 L64.6518555,22.0253906 L46.65625,22.0253906 L46.65625,70.7827148 C46.65625,75.3969727 45.6992188,78.7294922 43.7851562,80.7802734 C41.8710938,82.8310547 39.0512695,83.8564453 35.3256836,83.8564453 C27.9428711,83.8564453 24.1489258,79.7719727 23.9438477,71.6030273 L23.9438477,22.0253906 L5.84570312,22.0253906 L5.84570312,71.2441406 C5.94824219,79.4472656 8.61425781,85.9072266 13.84375,90.6240234 C19.0732422,95.3408203 26.2338867,97.6992188 35.3256836,97.6992188 Z" id="U" fill="#FF3D32" fill-rule="nonzero"></path>
                <polygon id="X" fill="#FF3D32" fill-rule="nonzero" points="84.3803711 243.673828 96.9414062 218.397949 109.502441 243.673828 130.266602 243.673828 108.835938 206.041992 129.702637 169.025391 109.143555 169.025391 96.9414062 193.839844 84.7392578 169.025391 64.2314453 169.025391 85.046875 206.041992 63.6674805 243.673828"></polygon>
                <polygon id="E" fill="#000000" fill-rule="nonzero" points="57.5253906 243.673828 57.5253906 229.831055 24.0976562 229.831055 24.0976562 212.040527 52.3984375 212.040527 52.3984375 198.65918 24.0976562 198.65918 24.0976562 182.919434 57.6279297 182.919434 57.6279297 169.025391 6.10205078 169.025391 6.10205078 243.673828"></polygon>
                <path d="M35.6333008,392.699219 C41.5805664,392.699219 46.869873,391.605469 51.5012207,389.417969 C56.1325684,387.230469 59.7299805,384.145752 62.293457,380.163818 C64.8569336,376.181885 66.2583008,371.593262 66.4975586,366.397949 L66.4975586,366.397949 L48.6044922,366.397949 C48.4677734,370.63623 47.3056641,373.729492 45.1181641,375.677734 C42.9306641,377.625977 39.769043,378.600098 35.6333008,378.600098 C30.7456055,378.600098 27.302002,376.891113 25.3024902,373.473145 C23.3029785,370.055176 22.3032227,364.364258 22.3032227,356.400391 L22.3032227,356.400391 L22.3032227,351.119629 C22.4057617,343.770996 23.4995117,338.421875 25.5844727,335.072266 C27.6694336,331.722656 30.9506836,330.047852 35.4282227,330.047852 C39.8374023,330.047852 43.1186523,331.039062 45.2719727,333.021484 C47.425293,335.003906 48.5703125,338.268066 48.7070312,342.813965 L48.7070312,342.813965 L66.6513672,342.813965 C65.8994141,334.439941 62.7719727,327.868896 57.269043,323.10083 C51.7661133,318.332764 44.4858398,315.94873 35.4282227,315.94873 C29.1391602,315.94873 23.6020508,317.444092 18.8168945,320.434814 C14.0317383,323.425537 10.3659668,327.663818 7.81958008,333.149658 C5.27319336,338.635498 4,345.035645 4,352.350098 L4,352.350098 L4,356.041504 C4,367.696777 6.81982422,376.720215 12.4594727,383.111816 C18.0991211,389.503418 25.8237305,392.699219 35.6333008,392.699219 Z M114.85498,392.699219 C121.212402,392.699219 126.877685,391.186768 131.85083,388.161865 C136.823974,385.136963 140.660644,380.821777 143.360839,375.216309 C146.061035,369.61084 147.411132,363.167969 147.411132,355.887695 L147.411132,355.887695 L147.411132,352.452637 C147.376953,345.274902 145.98413,338.908936 143.232666,333.354736 C140.481201,327.800537 136.627441,323.519531 131.671386,320.511719 C126.715332,317.503906 121.075683,316 114.752441,316 C108.360839,316 102.661377,317.520996 97.6540523,320.562988 C92.6467281,323.60498 88.8015133,327.920166 86.1184078,333.508545 C83.4353023,339.096924 82.0937496,345.54834 82.0937496,352.862793 L82.0937496,352.862793 L82.0937496,357.066895 C82.2304683,364.10791 83.6745601,370.345703 86.426025,375.780273 C89.1774898,381.214844 93.0141597,385.393311 97.9360347,388.315674 C102.85791,391.238037 108.497558,392.699219 114.85498,392.699219 Z M114.85498,378.651367 C110.069824,378.651367 106.463867,376.686035 104.037109,372.755371 C101.610351,368.824707 100.396972,363.202148 100.396972,355.887695 L100.396972,355.887695 L100.448242,350.401855 C100.960937,336.866699 105.729003,330.099121 114.752441,330.099121 C119.366699,330.099121 122.912841,332.021729 125.390869,335.866943 C127.868896,339.712158 129.10791,345.343262 129.10791,352.760254 L129.10791,352.760254 L129.10791,356.195312 C129.07373,363.441406 127.826171,368.995605 125.365234,372.85791 C122.904296,376.720215 119.400878,378.651367 114.85498,378.651367 Z M183.874023,391.673828 L183.874023,345.223633 L210.329101,391.673828 L228.222167,391.673828 L228.222167,317.025391 L210.277831,317.025391 L210.277831,363.475586 L183.874023,317.025391 L165.878417,317.025391 L165.878417,391.673828 L183.874023,391.673828 Z M277.656249,392.699219 C286.23535,392.699219 292.985839,390.836426 297.907714,387.11084 C302.829589,383.385254 305.290526,378.258301 305.290526,371.72998 C305.290526,363.561035 301.257323,357.152344 293.190917,352.503906 C289.875487,350.589844 285.637206,348.803955 280.476073,347.14624 C275.31494,345.488525 271.708983,343.88208 269.658202,342.326904 C267.607421,340.771729 266.58203,339.037109 266.58203,337.123047 C266.58203,334.935547 267.513426,333.132568 269.376219,331.714111 C271.239012,330.295654 273.776854,329.586426 276.989745,329.586426 C280.168456,329.586426 282.689208,330.423828 284.552001,332.098633 C286.414794,333.773438 287.34619,336.131836 287.34619,339.173828 L287.34619,339.173828 L305.290526,339.173828 C305.290526,334.62793 304.111327,330.586182 301.752928,327.048584 C299.39453,323.510986 296.087645,320.785156 291.832274,318.871094 C287.576903,316.957031 282.766112,316 277.399901,316 C271.896971,316 266.940917,316.880127 262.531737,318.640381 C258.122557,320.400635 254.713134,322.861572 252.303466,326.023193 C249.893798,329.184814 248.688964,332.833496 248.688964,336.969238 C248.688964,345.274902 253.525389,351.803223 263.198241,356.554199 C266.171874,358.023926 269.999999,359.544922 274.682616,361.117188 C279.365233,362.689453 282.637938,364.210449 284.500731,365.680176 C286.363524,367.149902 287.294921,369.200684 287.294921,371.83252 C287.294921,374.156738 286.431884,375.959717 284.705809,377.241455 C282.979735,378.523193 280.629882,379.164062 277.656249,379.164062 C273.007811,379.164062 269.649657,378.215576 267.581786,376.318604 C265.513915,374.421631 264.479979,371.473633 264.479979,367.474609 L264.479979,367.474609 L246.433104,367.474609 C246.433104,372.396484 247.672118,376.74585 250.150145,380.522705 C252.628173,384.299561 256.319579,387.273193 261.224364,389.443604 C266.129149,391.614014 271.606444,392.699219 277.656249,392.699219 Z M352.930174,392.699219 C358.945799,392.699219 364.158201,391.639648 368.567381,389.520508 C372.976561,387.401367 376.36035,384.31665 378.718748,380.266357 C381.077147,376.216064 382.256346,371.422363 382.256346,365.885254 L382.256346,365.885254 L382.256346,317.025391 L364.260741,317.025391 L364.260741,365.782715 C364.260741,370.396973 363.303709,373.729492 361.389647,375.780273 C359.475584,377.831055 356.65576,378.856445 352.930174,378.856445 C345.547362,378.856445 341.753416,374.771973 341.548338,366.603027 L341.548338,366.603027 L341.548338,317.025391 L323.450194,317.025391 L323.450194,366.244141 C323.552733,374.447266 326.218748,380.907227 331.448241,385.624023 C336.677733,390.34082 343.838377,392.699219 352.930174,392.699219 Z M451.993162,391.673828 L451.993162,377.831055 L420.667478,377.831055 L420.667478,317.025391 L402.671873,317.025391 L402.671873,391.673828 L451.993162,391.673828 Z M494.454587,391.673828 L494.454587,330.919434 L516.859372,330.919434 L516.859372,317.025391 L454.464353,317.025391 L454.464353,330.919434 L476.458982,330.919434 L476.458982,391.673828 L494.454587,391.673828 Z M540.915036,391.673828 L545.221677,377.728516 L569.882321,377.728516 L574.240231,391.673828 L593.568845,391.673828 L565.985837,317.025391 L549.066892,317.025391 L521.688962,391.673828 L540.915036,391.673828 Z M565.575681,363.834473 L549.528317,363.834473 L557.526364,337.943359 L565.575681,363.834473 Z M626.18652,391.673828 L626.18652,345.223633 L652.641598,391.673828 L670.534665,391.673828 L670.534665,317.025391 L652.590329,317.025391 L652.590329,363.475586 L626.18652,317.025391 L608.190915,317.025391 L608.190915,391.673828 L626.18652,391.673828 Z M720.63525,392.699219 C726.582516,392.699219 731.871822,391.605469 736.50317,389.417969 C741.134518,387.230469 744.73193,384.145752 747.295406,380.163818 C749.858883,376.181885 751.26025,371.593262 751.499508,366.397949 L751.499508,366.397949 L733.606442,366.397949 C733.469723,370.63623 732.307613,373.729492 730.120113,375.677734 C727.932613,377.625977 724.770992,378.600098 720.63525,378.600098 C715.747555,378.600098 712.303951,376.891113 710.30444,373.473145 C708.304928,370.055176 707.305172,364.364258 707.305172,356.400391 L707.305172,356.400391 L707.305172,351.119629 C707.407711,343.770996 708.501461,338.421875 710.586422,335.072266 C712.671383,331.722656 715.952633,330.047852 720.430172,330.047852 C724.839352,330.047852 728.120602,331.039062 730.273922,333.021484 C732.427242,335.003906 733.572262,338.268066 733.708981,342.813965 L733.708981,342.813965 L751.653317,342.813965 C750.901363,334.439941 747.773922,327.868896 742.270992,323.10083 C736.768063,318.332764 729.487789,315.94873 720.430172,315.94873 C714.14111,315.94873 708.604,317.444092 703.818844,320.434814 C699.033688,323.425537 695.367916,327.663818 692.821529,333.149658 C690.275143,338.635498 689.001949,345.035645 689.001949,352.350098 L689.001949,352.350098 L689.001949,356.041504 C689.001949,367.696777 691.821774,376.720215 697.461422,383.111816 C703.10107,389.503418 710.82568,392.699219 720.63525,392.699219 Z M805.650386,391.673828 L805.650386,364.859863 L829.695797,317.025391 L810.264644,317.025391 L796.52441,349.427734 L782.732906,317.025391 L763.404293,317.025391 L787.398433,364.859863 L787.398433,391.673828 L805.650386,391.673828 Z" id="CONSULTANCY" fill="#000000" fill-rule="nonzero"></path>
                <path d="M304.678223,243.673828 L304.678223,218.34668 L316.162598,218.34668 C325.254395,218.34668 332.406494,216.167725 337.618896,211.809814 C342.831299,207.451904 345.4375,201.632812 345.4375,194.352539 C345.4375,189.430664 344.232666,185.030029 341.822998,181.150635 C339.41333,177.27124 336.012451,174.280518 331.620361,172.178467 C327.228271,170.076416 322.178223,169.025391 316.470215,169.025391 L316.470215,169.025391 L286.682617,169.025391 L286.682617,243.673828 L304.678223,243.673828 Z M316.470215,204.452637 L304.678223,204.452637 L304.678223,182.919434 L316.675293,182.919434 C319.922363,182.953613 322.48584,184.013184 324.365723,186.098145 C326.245605,188.183105 327.185547,190.96875 327.185547,194.455078 C327.185547,197.633789 326.27124,200.094727 324.442627,201.837891 C322.614014,203.581055 319.956543,204.452637 316.470215,204.452637 L316.470215,204.452637 Z M415.198242,243.673828 L415.198242,229.831055 L381.770508,229.831055 L381.770508,212.040527 L410.071289,212.040527 L410.071289,198.65918 L381.770508,198.65918 L381.770508,182.919434 L415.300781,182.919434 L415.300781,169.025391 L363.774902,169.025391 L363.774902,243.673828 L415.198242,243.673828 Z M449.275391,243.673828 L449.275391,217.321289 L459.016602,217.321289 L472.192871,243.673828 L491.470215,243.673828 L491.470215,242.904785 L475.884277,212.80957 C480.361816,210.69043 483.651611,207.921875 485.753662,204.503906 C487.855713,201.085938 488.906738,196.779297 488.906738,191.583984 C488.906738,184.40625 486.411621,178.852051 481.421387,174.921387 C476.431152,170.990723 469.509766,169.025391 460.657227,169.025391 L460.657227,169.025391 L431.279785,169.025391 L431.279785,243.673828 L449.275391,243.673828 Z M460.657227,203.427246 L449.275391,203.427246 L449.275391,182.919434 L460.657227,182.919434 C464.041016,182.919434 466.604492,183.83374 468.347656,185.662354 C470.09082,187.490967 470.962402,190.011719 470.962402,193.224609 C470.962402,196.4375 470.099365,198.941162 468.373291,200.735596 C466.647217,202.530029 464.075195,203.427246 460.657227,203.427246 L460.657227,203.427246 Z M527.700684,243.673828 L527.700684,169.025391 L509.756348,169.025391 L509.756348,243.673828 L527.700684,243.673828 Z M600.383789,243.673828 L600.383789,229.831055 L566.956055,229.831055 L566.956055,212.040527 L595.256836,212.040527 L595.256836,198.65918 L566.956055,198.65918 L566.956055,182.919434 L600.486328,182.919434 L600.486328,169.025391 L548.960449,169.025391 L548.960449,243.673828 L600.383789,243.673828 Z M634.460938,243.673828 L634.460938,197.223633 L660.916016,243.673828 L678.809082,243.673828 L678.809082,169.025391 L660.864746,169.025391 L660.864746,215.475586 L634.460938,169.025391 L616.465332,169.025391 L616.465332,243.673828 L634.460938,243.673828 Z M728.472168,244.699219 C734.419434,244.699219 739.70874,243.605469 744.340088,241.417969 C748.971436,239.230469 752.568848,236.145752 755.132324,232.163818 C757.695801,228.181885 759.097168,223.593262 759.336426,218.397949 L759.336426,218.397949 L741.443359,218.397949 C741.306641,222.63623 740.144531,225.729492 737.957031,227.677734 C735.769531,229.625977 732.60791,230.600098 728.472168,230.600098 C723.584473,230.600098 720.140869,228.891113 718.141357,225.473145 C716.141846,222.055176 715.14209,216.364258 715.14209,208.400391 L715.14209,208.400391 L715.14209,203.119629 C715.244629,195.770996 716.338379,190.421875 718.42334,187.072266 C720.508301,183.722656 723.789551,182.047852 728.26709,182.047852 C732.67627,182.047852 735.95752,183.039062 738.11084,185.021484 C740.26416,187.003906 741.40918,190.268066 741.545898,194.813965 L741.545898,194.813965 L759.490234,194.813965 C758.738281,186.439941 755.61084,179.868896 750.10791,175.10083 C744.60498,170.332764 737.324707,167.94873 728.26709,167.94873 C721.978027,167.94873 716.440918,169.444092 711.655762,172.434814 C706.870605,175.425537 703.204834,179.663818 700.658447,185.149658 C698.112061,190.635498 696.838867,197.035645 696.838867,204.350098 L696.838867,204.350098 L696.838867,208.041504 C696.838867,219.696777 699.658691,228.720215 705.29834,235.111816 C710.937988,241.503418 718.662598,244.699219 728.472168,244.699219 Z M828.020508,243.673828 L828.020508,229.831055 L794.592773,229.831055 L794.592773,212.040527 L822.893555,212.040527 L822.893555,198.65918 L794.592773,198.65918 L794.592773,182.919434 L828.123047,182.919434 L828.123047,169.025391 L776.597168,169.025391 L776.597168,243.673828 L828.020508,243.673828 Z" id="PERIENCE" fill="#000000" fill-rule="nonzero"></path>
                <path d="M660.738281,97.6992188 C669.317383,97.6992188 676.067871,95.8364258 680.989746,92.1108398 C685.911621,88.3852539 688.372559,83.2583008 688.372559,76.7299805 C688.372559,68.5610352 684.339355,62.1523438 676.272949,57.5039062 C672.95752,55.5898438 668.719238,53.8039551 663.558105,52.1462402 C658.396973,50.4885254 654.791016,48.8820801 652.740234,47.3269043 C650.689453,45.7717285 649.664062,44.0371094 649.664062,42.1230469 C649.664062,39.9355469 650.595459,38.1325684 652.458252,36.7141113 C654.321045,35.2956543 656.858887,34.5864258 660.071777,34.5864258 C663.250488,34.5864258 665.77124,35.4238281 667.634033,37.0986328 C669.496826,38.7734375 670.428223,41.1318359 670.428223,44.1738281 L670.428223,44.1738281 L688.372559,44.1738281 C688.372559,39.6279297 687.193359,35.5861816 684.834961,32.048584 C682.476562,28.5109863 679.169678,25.7851562 674.914307,23.8710938 C670.658936,21.9570312 665.848145,21 660.481934,21 C654.979004,21 650.022949,21.880127 645.61377,23.6403809 C641.20459,25.4006348 637.795166,27.8615723 635.385498,31.0231934 C632.97583,34.1848145 631.770996,37.8334961 631.770996,41.9692383 C631.770996,50.2749023 636.607422,56.8032227 646.280273,61.5541992 C649.253906,63.0239258 653.082031,64.5449219 657.764648,66.1171875 C662.447266,67.6894531 665.719971,69.2104492 667.582764,70.6801758 C669.445557,72.1499023 670.376953,74.2006836 670.376953,76.8325195 C670.376953,79.1567383 669.513916,80.9597168 667.787842,82.2414551 C666.061768,83.5231934 663.711914,84.1640625 660.738281,84.1640625 C656.089844,84.1640625 652.731689,83.2155762 650.663818,81.3186035 C648.595947,79.4216309 647.562012,76.4736328 647.562012,72.4746094 L647.562012,72.4746094 L629.515137,72.4746094 C629.515137,77.3964844 630.75415,81.7458496 633.232178,85.5227051 C635.710205,89.2995605 639.401611,92.2731934 644.306396,94.4436035 C649.211182,96.6140137 654.688477,97.6992188 660.738281,97.6992188 Z M757.774414,96.6738281 L757.774414,82.8310547 L724.34668,82.8310547 L724.34668,65.0405273 L752.647461,65.0405273 L752.647461,51.6591797 L724.34668,51.6591797 L724.34668,35.9194336 L757.876953,35.9194336 L757.876953,22.0253906 L706.351074,22.0253906 L706.351074,96.6738281 L757.774414,96.6738281 Z M791.851562,96.6738281 L791.851562,70.3212891 L801.592773,70.3212891 L814.769043,96.6738281 L834.046387,96.6738281 L834.046387,95.9047852 L818.460449,65.8095703 C822.937988,63.6904297 826.227783,60.921875 828.329834,57.5039062 C830.431885,54.0859375 831.48291,49.7792969 831.48291,44.5839844 C831.48291,37.40625 828.987793,31.8520508 823.997559,27.9213867 C819.007324,23.9907227 812.085938,22.0253906 803.233398,22.0253906 L803.233398,22.0253906 L773.855957,22.0253906 L773.855957,96.6738281 L791.851562,96.6738281 Z M803.233398,56.4272461 L791.851562,56.4272461 L791.851562,35.9194336 L803.233398,35.9194336 C806.617188,35.9194336 809.180664,36.8337402 810.923828,38.6623535 C812.666992,40.4909668 813.538574,43.0117188 813.538574,46.2246094 C813.538574,49.4375 812.675537,51.9411621 810.949463,53.7355957 C809.223389,55.5300293 806.651367,56.4272461 803.233398,56.4272461 L803.233398,56.4272461 Z" id="SER" fill="#000000" fill-rule="nonzero"></path>
            </g>
        </g>
    </g>
</svg>