<?xml version="1.0" encoding="UTF-8"?>
<svg width="15px" height="16px" viewBox="0 0 15 16" version="1.1" xmlns="http://www.w3.org/2000/svg" xmlns:xlink="http://www.w3.org/1999/xlink">
    <title>favicon_a_v2</title>
    <g id="Publish_PC" stroke="none" stroke-width="1" fill="none" fill-rule="evenodd">
        <g id="favicon_a_v2">
            <rect id="Rectangle-Copy-16" fill="#000000" x="0" y="0" width="15" height="16" rx="0.2"></rect>
            <g id="Group-3" transform="translate(3.000000, 1.800000)" fill="#FFFFFF" fill-rule="nonzero">
                <path d="M6.59372175,12.088692 C7.05214125,12.0862665 7.46750813,11.9765126 7.83982238,11.7594304 C8.21213663,11.5423481 8.50077113,11.2415861 8.70572588,10.8571444 C8.91068063,10.4727026 9.013158,10.0379317 9.013158,9.55283175 L9.013158,9.55283175 L9.013158,9.309069 C9.0107325,8.82882 8.90461688,8.39526187 8.69481113,8.00839462 C8.48500538,7.62152737 8.193339,7.32197813 7.819812,7.10974688 C7.446285,6.89751563 7.02546075,6.7914 6.55733925,6.7914 L6.55733925,6.7914 L4.851,6.7914 L4.851,12.088692 L6.59372175,12.088692 Z M6.57189225,11.1063645 L6.12802575,11.1063645 L6.12802575,7.77736575 L6.55733925,7.77736575 C6.93329175,7.77736575 7.21950075,7.90713 7.41596625,8.1666585 C7.61243175,8.426187 7.7106645,8.8118415 7.7106645,9.323622 L7.7106645,9.323622 L7.7106645,9.55283175 C7.7106645,10.0670377 7.61243175,10.4545114 7.41596625,10.7152526 C7.21950075,10.9759939 6.93814275,11.1063645 6.57189225,11.1063645 L6.57189225,11.1063645 Z" id="D"></path>
                <polygon id="E" points="3.64916475 12.088692 3.64916475 11.1063645 1.27702575 11.1063645 1.27702575 9.84389175 3.28533975 9.84389175 3.28533975 8.8943085 1.27702575 8.8943085 1.27702575 7.77736575 3.65644125 7.77736575 3.65644125 6.7914 -2.66453526e-15 6.7914 -2.66453526e-15 12.088692"></polygon>
                <path d="M1.27702575,5.297292 L1.27702575,3.4272315 L1.96829325,3.4272315 L2.9033235,5.297292 L4.2713055,5.297292 L4.2713055,5.24271825 L3.1652775,3.1070655 C3.483018,2.9566845 3.71647238,2.760219 3.86564063,2.517669 C4.01480888,2.275119 4.089393,1.969506 4.089393,1.60083 C4.089393,1.091475 3.9123315,0.69733125 3.5582085,0.41839875 C3.2040855,0.13946625 2.71292175,6.79456491e-14 2.08471725,6.79456491e-14 L2.08471725,6.79456491e-14 L1.19459997e-13,6.79456491e-14 L1.19459997e-13,5.297292 L1.27702575,5.297292 Z M2.08471725,2.44126575 L1.27702575,2.44126575 L1.27702575,0.98596575 L2.08471725,0.98596575 C2.32484175,0.98596575 2.50675425,1.05084787 2.63045475,1.18061212 C2.75415525,1.31037637 2.8160055,1.489257 2.8160055,1.717254 C2.8160055,1.945251 2.75476163,2.12291887 2.63227388,2.25025762 C2.50978613,2.37759637 2.32726725,2.44126575 2.08471725,2.44126575 L2.08471725,2.44126575 Z" id="R"></path>
            </g>
        </g>
    </g>
</svg>