<?xml version="1.0" encoding="UTF-8"?>
<svg width="178px" height="42px" viewBox="0 0 178 42" version="1.1" xmlns="http://www.w3.org/2000/svg" xmlns:xlink="http://www.w3.org/1999/xlink">
    <!-- Generator: Sketch 64 (93537) - https://sketch.com -->
    <title>pc_ico_sline_main</title>
    <desc>Created with Sketch.</desc>
    <g id="Publish_PC" stroke="none" stroke-width="1" fill="none" fill-rule="evenodd">
        <g id="pc_02about-" transform="translate(-80.000000, -853.000000)">
            <g id="Group-15" transform="translate(80.000000, 853.000000)">
                <rect id="Rectangle" fill="#A5A5A5" opacity="0" x="0" y="0" width="178" height="42"></rect>
                <path d="M7.57226562,16.21875 L9.4375,8.11328125 L11.3417969,16.21875 L14.8964844,16.21875 L17.9140625,2 L14.515625,2 L12.8847656,10.9160156 L10.9023438,2 L7.9921875,2 L6.0390625,10.9160156 L4.40820312,2 L1,2 L4.02734375,16.21875 L7.57226562,16.21875 Z M29.046875,16.21875 L29.046875,13.5820312 L22.6796875,13.5820312 L22.6796875,10.1933594 L28.0703125,10.1933594 L28.0703125,7.64453125 L22.6796875,7.64453125 L22.6796875,4.64648438 L29.0664062,4.64648438 L29.0664062,2 L19.2519531,2 L19.2519531,16.21875 L29.046875,16.21875 Z M140.650391,16.21875 L141.470703,13.5625 L146.167969,13.5625 L146.998047,16.21875 L150.679688,16.21875 L145.425781,2 L142.203125,2 L136.988281,16.21875 L140.650391,16.21875 Z M145.347656,10.9160156 L142.291016,10.9160156 L143.814453,5.984375 L145.347656,10.9160156 Z M155.142578,16.21875 L155.142578,11.1992188 L156.998047,11.1992188 L159.507812,16.21875 L163.179688,16.21875 L163.179688,16.0722656 L160.210938,10.3398438 C161.063802,9.93619792 161.69043,9.40885417 162.09082,8.7578125 C162.491211,8.10677083 162.691406,7.28645833 162.691406,6.296875 C162.691406,4.9296875 162.216146,3.87174479 161.265625,3.12304688 C160.315104,2.37434896 158.996745,2 157.310547,2 L157.310547,2 L151.714844,2 L151.714844,16.21875 L155.142578,16.21875 Z M157.310547,8.55273438 L155.142578,8.55273438 L155.142578,4.64648438 L157.310547,4.64648438 C157.955078,4.64648438 158.443359,4.82063802 158.775391,5.16894531 C159.107422,5.5172526 159.273438,5.99739583 159.273438,6.609375 C159.273438,7.22135417 159.109049,7.69824219 158.780273,8.04003906 C158.451497,8.38183594 157.961589,8.55273438 157.310547,8.55273438 L157.310547,8.55273438 Z M174.556641,16.21875 L174.556641,13.5820312 L168.189453,13.5820312 L168.189453,10.1933594 L173.580078,10.1933594 L173.580078,7.64453125 L168.189453,7.64453125 L168.189453,4.64648438 L174.576172,4.64648438 L174.576172,2 L164.761719,2 L164.761719,16.21875 L174.556641,16.21875 Z M7.43554687,40.4140625 C8.58138021,40.4140625 9.57421875,40.2122396 10.4140625,39.8085938 C11.2539062,39.4049479 11.8984375,38.8173828 12.3476562,38.0458984 C12.796875,37.2744141 13.0214844,36.3613281 13.0214844,35.3066406 L13.0214844,35.3066406 L13.0214844,26 L9.59375,26 L9.59375,35.2871094 C9.59375,36.1660156 9.41145833,36.8007812 9.046875,37.1914062 C8.68229167,37.5820312 8.14518229,37.7773438 7.43554687,37.7773438 C6.02929688,37.7773438 5.30664062,36.999349 5.26757812,35.4433594 L5.26757812,35.4433594 L5.26757812,26 L1.8203125,26 L1.8203125,35.375 C1.83984375,36.9375 2.34765625,38.1679688 3.34375,39.0664062 C4.33984375,39.9648438 5.70377604,40.4140625 7.43554687,40.4140625 Z M18.0703125,40.21875 L20.4628906,35.4042969 L22.8554688,40.21875 L26.8105469,40.21875 L22.7285156,33.0507812 L26.703125,26 L22.7871094,26 L20.4628906,30.7265625 L18.1386719,26 L14.2324219,26 L18.1972656,33.0507812 L14.125,40.21875 L18.0703125,40.21875 Z M38.5292969,40.4140625 C39.6621094,40.4140625 40.6695964,40.2057292 41.5517578,39.7890625 C42.4339193,39.3723958 43.1191406,38.7848307 43.6074219,38.0263672 C44.0957031,37.2679036 44.3626302,36.3938802 44.4082031,35.4042969 L44.4082031,35.4042969 L41,35.4042969 C40.9739583,36.2115885 40.7526042,36.8007812 40.3359375,37.171875 C39.9192708,37.5429688 39.3170573,37.7285156 38.5292969,37.7285156 C37.5983073,37.7285156 36.9423828,37.4029948 36.5615234,36.7519531 C36.1806641,36.1009115 35.9902344,35.0169271 35.9902344,33.5 L35.9902344,33.5 L35.9902344,32.4941406 C36.0097656,31.094401 36.218099,30.0755208 36.6152344,29.4375 C37.0123698,28.7994792 37.6373698,28.4804688 38.4902344,28.4804688 C39.3300781,28.4804688 39.9550781,28.6692708 40.3652344,29.046875 C40.7753906,29.4244792 40.9934896,30.046224 41.0195312,30.9121094 L41.0195312,30.9121094 L44.4375,30.9121094 C44.2942708,29.3170573 43.6985677,28.0654297 42.6503906,27.1572266 C41.6022135,26.2490234 40.2154948,25.7949219 38.4902344,25.7949219 C37.2923177,25.7949219 36.2376302,26.0797526 35.3261719,26.6494141 C34.4147135,27.2190755 33.7164714,28.0263672 33.2314453,29.0712891 C32.7464193,30.1162109 32.5039062,31.3352865 32.5039062,32.7285156 L32.5039062,32.7285156 L32.5039062,33.4316406 C32.5039062,35.6516927 33.0410156,37.3704427 34.1152344,38.5878906 C35.1894531,39.8053385 36.6608073,40.4140625 38.5292969,40.4140625 Z M51.8691406,40.4140625 C53.0800781,40.4140625 54.1591797,40.1259766 55.1064453,39.5498047 C56.0537109,38.9736328 56.7845052,38.1516927 57.2988281,37.0839844 C57.813151,36.016276 58.0703125,34.7890625 58.0703125,33.4023438 L58.0703125,33.4023438 L58.0703125,32.7480469 C58.0638021,31.3808594 57.7985026,30.1682943 57.2744141,29.1103516 C56.7503255,28.0524089 56.016276,27.2369792 55.0722656,26.6640625 C54.1282552,26.0911458 53.0540365,25.8046875 51.8496094,25.8046875 C50.6321615,25.8046875 49.5465495,26.094401 48.5927734,26.6738281 C47.6389974,27.2532552 46.9065755,28.0751953 46.3955078,29.1396484 C45.8844401,30.2041016 45.6289062,31.4329427 45.6289062,32.8261719 L45.6289062,32.8261719 L45.6289062,33.6269531 C45.6549479,34.968099 45.930013,36.15625 46.4541016,37.1914062 C46.9781901,38.2265625 47.7089844,39.0224609 48.6464844,39.5791016 C49.5839844,40.1357422 50.6582031,40.4140625 51.8691406,40.4140625 Z M51.8691406,37.7382812 C50.9576823,37.7382812 50.2708333,37.3639323 49.8085938,36.6152344 C49.3463542,35.8665365 49.1152344,34.7955729 49.1152344,33.4023438 L49.1152344,33.4023438 L49.125,32.3574219 C49.2226562,29.7792969 50.1308594,28.4902344 51.8496094,28.4902344 C52.7285156,28.4902344 53.4039714,28.8564453 53.8759766,29.5888672 C54.3479818,30.3212891 54.5839844,31.3938802 54.5839844,32.8066406 L54.5839844,32.8066406 L54.5839844,33.4609375 C54.577474,34.8411458 54.3398438,35.8990885 53.8710938,36.6347656 C53.4023438,37.3704427 52.735026,37.7382812 51.8691406,37.7382812 Z M63.265625,40.21875 L63.265625,31.3710938 L68.3046875,40.21875 L71.7128906,40.21875 L71.7128906,26 L68.2949219,26 L68.2949219,34.8476562 L63.265625,26 L59.8378906,26 L59.8378906,40.21875 L63.265625,40.21875 Z M79.3789062,40.4140625 C81.0130208,40.4140625 82.2988281,40.0592448 83.2363281,39.3496094 C84.1738281,38.639974 84.6425781,37.6634115 84.6425781,36.4199219 C84.6425781,34.8639323 83.874349,33.6432292 82.3378906,32.7578125 C81.7063802,32.3932292 80.8990885,32.0530599 79.9160156,31.7373047 C78.9329427,31.4215495 78.2460938,31.1155599 77.8554688,30.8193359 C77.4648438,30.523112 77.2695312,30.1927083 77.2695312,29.828125 C77.2695312,29.4114583 77.4469401,29.0680339 77.8017578,28.7978516 C78.1565755,28.5276693 78.639974,28.3925781 79.2519531,28.3925781 C79.8574219,28.3925781 80.3375651,28.5520833 80.6923828,28.8710938 C81.0472005,29.1901042 81.2246094,29.6393229 81.2246094,30.21875 L81.2246094,30.21875 L84.6425781,30.21875 C84.6425781,29.3528646 84.4179688,28.5830078 83.96875,27.9091797 C83.5195312,27.2353516 82.8896484,26.7161458 82.0791016,26.3515625 C81.2685547,25.9869792 80.3522135,25.8046875 79.3300781,25.8046875 C78.281901,25.8046875 77.3378906,25.9723307 76.4980469,26.3076172 C75.6582031,26.6429036 75.0087891,27.1116536 74.5498047,27.7138672 C74.0908203,28.3160807 73.8613281,29.0110677 73.8613281,29.7988281 C73.8613281,31.3808594 74.7825521,32.624349 76.625,33.5292969 C77.1914062,33.8092448 77.9205729,34.0989583 78.8125,34.3984375 C79.7044271,34.6979167 80.3277995,34.9876302 80.6826172,35.2675781 C81.0374349,35.547526 81.2148438,35.938151 81.2148438,36.4394531 C81.2148438,36.8821615 81.0504557,37.2255859 80.7216797,37.4697266 C80.3929036,37.7138672 79.9453125,37.8359375 79.3789062,37.8359375 C78.4934896,37.8359375 77.8538411,37.6552734 77.4599609,37.2939453 C77.0660807,36.9326172 76.8691406,36.3710938 76.8691406,35.609375 L76.8691406,35.609375 L73.4316406,35.609375 C73.4316406,36.546875 73.6676432,37.3753255 74.1396484,38.0947266 C74.6116536,38.8141276 75.3147786,39.3805339 76.2490234,39.7939453 C77.1832682,40.2073568 78.2265625,40.4140625 79.3789062,40.4140625 Z M91.9667969,40.4140625 C93.1126302,40.4140625 94.1054688,40.2122396 94.9453125,39.8085938 C95.7851562,39.4049479 96.4296875,38.8173828 96.8789062,38.0458984 C97.328125,37.2744141 97.5527344,36.3613281 97.5527344,35.3066406 L97.5527344,35.3066406 L97.5527344,26 L94.125,26 L94.125,35.2871094 C94.125,36.1660156 93.9427083,36.8007812 93.578125,37.1914062 C93.2135417,37.5820312 92.6764323,37.7773438 91.9667969,37.7773438 C90.5605469,37.7773438 89.8378906,36.999349 89.7988281,35.4433594 L89.7988281,35.4433594 L89.7988281,26 L86.3515625,26 L86.3515625,35.375 C86.3710938,36.9375 86.8789062,38.1679688 87.875,39.0664062 C88.8710938,39.9648438 90.235026,40.4140625 91.9667969,40.4140625 Z M109.085938,40.21875 L109.085938,37.5820312 L103.119141,37.5820312 L103.119141,26 L99.6914062,26 L99.6914062,40.21875 L109.085938,40.21875 Z M117.425781,40.21875 L117.425781,28.6464844 L121.693359,28.6464844 L121.693359,26 L109.808594,26 L109.808594,28.6464844 L113.998047,28.6464844 L113.998047,40.21875 L117.425781,40.21875 Z M125.697266,40.21875 L126.517578,37.5625 L131.214844,37.5625 L132.044922,40.21875 L135.726562,40.21875 L130.472656,26 L127.25,26 L122.035156,40.21875 L125.697266,40.21875 Z M130.394531,34.9160156 L127.337891,34.9160156 L128.861328,29.984375 L130.394531,34.9160156 Z M140.189453,40.21875 L140.189453,31.3710938 L145.228516,40.21875 L148.636719,40.21875 L148.636719,26 L145.21875,26 L145.21875,34.8476562 L140.189453,26 L136.761719,26 L136.761719,40.21875 L140.189453,40.21875 Z M156.429688,40.4140625 C157.5625,40.4140625 158.569987,40.2057292 159.452148,39.7890625 C160.33431,39.3723958 161.019531,38.7848307 161.507812,38.0263672 C161.996094,37.2679036 162.263021,36.3938802 162.308594,35.4042969 L162.308594,35.4042969 L158.900391,35.4042969 C158.874349,36.2115885 158.652995,36.8007812 158.236328,37.171875 C157.819661,37.5429688 157.217448,37.7285156 156.429688,37.7285156 C155.498698,37.7285156 154.842773,37.4029948 154.461914,36.7519531 C154.081055,36.1009115 153.890625,35.0169271 153.890625,33.5 L153.890625,33.5 L153.890625,32.4941406 C153.910156,31.094401 154.11849,30.0755208 154.515625,29.4375 C154.91276,28.7994792 155.53776,28.4804688 156.390625,28.4804688 C157.230469,28.4804688 157.855469,28.6692708 158.265625,29.046875 C158.675781,29.4244792 158.89388,30.046224 158.919922,30.9121094 L158.919922,30.9121094 L162.337891,30.9121094 C162.194661,29.3170573 161.598958,28.0654297 160.550781,27.1572266 C159.502604,26.2490234 158.115885,25.7949219 156.390625,25.7949219 C155.192708,25.7949219 154.138021,26.0797526 153.226562,26.6494141 C152.315104,27.2190755 151.616862,28.0263672 151.131836,29.0712891 C150.64681,30.1162109 150.404297,31.3352865 150.404297,32.7285156 L150.404297,32.7285156 L150.404297,33.4316406 C150.404297,35.6516927 150.941406,37.3704427 152.015625,38.5878906 C153.089844,39.8053385 154.561198,40.4140625 156.429688,40.4140625 Z M170.873047,40.21875 L170.873047,35.1113281 L175.453125,26 L171.751953,26 L169.134766,32.171875 L166.507812,26 L162.826172,26 L167.396484,35.1113281 L167.396484,40.21875 L170.873047,40.21875 Z" id="WEAREUXCONSULTANCY" fill="#000000" fill-rule="nonzero"></path>
            </g>
        </g>
    </g>
</svg>