<?xml version="1.0" encoding="UTF-8"?>
<svg width="484px" height="105px" viewBox="0 0 484 105" version="1.1" xmlns="http://www.w3.org/2000/svg" xmlns:xlink="http://www.w3.org/1999/xlink">
    <title>pc_ico_b_navi03</title>
    <g id="Publish_PC" stroke="none" stroke-width="1" fill="none" fill-rule="evenodd">
        <g id="pc_06navi_01" transform="translate(-1289.000000, -560.000000)">
            <g id="pc_ico_b_navi03" transform="translate(1289.000000, 560.000000)">
                <rect id="Rectangle-Copy-4" fill="#D8D8D8" opacity="0" x="0" y="0" width="484" height="105"></rect>
                <path d="M34.6640625,83.8789062 C39.7617188,83.8789062 44.2954102,82.9414062 48.2651367,81.0664062 C52.2348633,79.1914062 55.3183594,76.5473633 57.515625,73.1342773 C59.7128906,69.7211914 60.9140625,65.7880859 61.1191406,61.3349609 L61.1191406,61.3349609 L45.7822266,61.3349609 C45.6650391,64.9677734 44.6689453,67.6191406 42.7939453,69.2890625 C40.9189453,70.9589844 38.2089844,71.7939453 34.6640625,71.7939453 C30.4746094,71.7939453 27.5229492,70.3291016 25.809082,67.3994141 C24.0952148,64.4697266 23.2382812,59.5917969 23.2382812,52.765625 L23.2382812,52.765625 L23.2382812,48.2392578 C23.3261719,41.9404297 24.2636719,37.3554688 26.0507812,34.484375 C27.8378906,31.6132812 30.6503906,30.1777344 34.4882812,30.1777344 C38.2675781,30.1777344 41.0800781,31.0273438 42.9257812,32.7265625 C44.7714844,34.4257812 45.7529297,37.2236328 45.8701172,41.1201172 L45.8701172,41.1201172 L61.2509766,41.1201172 C60.6064453,33.9423828 57.9257812,28.3100586 53.2089844,24.2231445 C48.4921875,20.1362305 42.2519531,18.0927734 34.4882812,18.0927734 C29.0976562,18.0927734 24.3515625,19.3745117 20.25,21.9379883 C16.1484375,24.5014648 13.0063477,28.1342773 10.8237305,32.8364258 C8.64111328,37.5385742 7.54980469,43.0244141 7.54980469,49.2939453 L7.54980469,49.2939453 L7.54980469,52.4580078 C7.54980469,62.4482422 9.96679688,70.1826172 14.8007812,75.6611328 C19.6347656,81.1396484 26.2558594,83.8789062 34.6640625,83.8789062 Z M104.693359,83.8789062 C110.142578,83.8789062 114.998535,82.5825195 119.26123,79.9897461 C123.523926,77.3969727 126.8125,73.6982422 129.126953,68.8935547 C131.441406,64.0888672 132.598633,58.5664062 132.598633,52.3261719 L132.598633,52.3261719 L132.598633,49.3818359 C132.569336,43.2294922 131.375488,37.7729492 129.01709,33.012207 C126.658691,28.2514648 123.355469,24.5820312 119.107422,22.0039062 C114.859375,19.4257812 110.025391,18.1367188 104.605469,18.1367188 C99.1269531,18.1367188 94.2416992,19.4404297 89.949707,22.0478516 C85.6577148,24.6552734 82.3618164,28.3540039 80.0620117,33.144043 C77.762207,37.934082 76.6123047,43.4638672 76.6123047,49.7333984 L76.6123047,49.7333984 L76.6123047,53.3369141 C76.7294922,59.3720703 77.9672852,64.71875 80.3256836,69.3769531 C82.684082,74.0351562 85.9726562,77.6166992 90.1914062,80.121582 C94.4101562,82.6264648 99.2441406,83.8789062 104.693359,83.8789062 Z M104.693359,71.8378906 C100.591797,71.8378906 97.5009766,70.1533203 95.4208984,66.7841797 C93.3408203,63.4150391 92.3007812,58.5957031 92.3007812,52.3261719 L92.3007812,52.3261719 L92.3447266,47.6240234 C92.7841797,36.0224609 96.8710938,30.2216797 104.605469,30.2216797 C108.560547,30.2216797 111.600098,31.8696289 113.724121,35.1655273 C115.848145,38.4614258 116.910156,43.2880859 116.910156,49.6455078 L116.910156,49.6455078 L116.910156,52.5898438 C116.880859,58.8007812 115.811523,63.5615234 113.702148,66.8720703 C111.592773,70.1826172 108.589844,71.8378906 104.693359,71.8378906 Z M165.977539,83 L165.977539,43.1855469 L188.65332,83 L203.990234,83 L203.990234,19.015625 L188.609375,19.015625 L188.609375,58.8300781 L165.977539,19.015625 L150.552734,19.015625 L150.552734,83 L165.977539,83 Z M253.49707,83 L253.49707,30.9248047 L272.701172,30.9248047 L272.701172,19.015625 L219.219727,19.015625 L219.219727,30.9248047 L238.072266,30.9248047 L238.072266,83 L253.49707,83 Z M295.445312,83 L299.136719,71.046875 L320.274414,71.046875 L324.009766,83 L340.577148,83 L316.93457,19.015625 L302.432617,19.015625 L278.96582,83 L295.445312,83 Z M316.583008,59.1376953 L302.828125,59.1376953 L309.683594,36.9453125 L316.583008,59.1376953 Z M379.625,83.8789062 C384.722656,83.8789062 389.256348,82.9414062 393.226074,81.0664062 C397.195801,79.1914062 400.279297,76.5473633 402.476562,73.1342773 C404.673828,69.7211914 405.875,65.7880859 406.080078,61.3349609 L406.080078,61.3349609 L390.743164,61.3349609 C390.625977,64.9677734 389.629883,67.6191406 387.754883,69.2890625 C385.879883,70.9589844 383.169922,71.7939453 379.625,71.7939453 C375.435547,71.7939453 372.483887,70.3291016 370.77002,67.3994141 C369.056152,64.4697266 368.199219,59.5917969 368.199219,52.765625 L368.199219,52.765625 L368.199219,48.2392578 C368.287109,41.9404297 369.224609,37.3554688 371.011719,34.484375 C372.798828,31.6132812 375.611328,30.1777344 379.449219,30.1777344 C383.228516,30.1777344 386.041016,31.0273438 387.886719,32.7265625 C389.732422,34.4257812 390.713867,37.2236328 390.831055,41.1201172 L390.831055,41.1201172 L406.211914,41.1201172 C405.567383,33.9423828 402.886719,28.3100586 398.169922,24.2231445 C393.453125,20.1362305 387.212891,18.0927734 379.449219,18.0927734 C374.058594,18.0927734 369.3125,19.3745117 365.210938,21.9379883 C361.109375,24.5014648 357.967285,28.1342773 355.784668,32.8364258 C353.602051,37.5385742 352.510742,43.0244141 352.510742,49.2939453 L352.510742,49.2939453 L352.510742,52.4580078 C352.510742,62.4482422 354.927734,70.1826172 359.761719,75.6611328 C364.595703,81.1396484 371.216797,83.8789062 379.625,83.8789062 Z M453.125977,83 L453.125977,30.9248047 L472.330078,30.9248047 L472.330078,19.015625 L418.848633,19.015625 L418.848633,30.9248047 L437.701172,30.9248047 L437.701172,83 L453.125977,83 Z" id="CONTACT" fill="#000000" fill-rule="nonzero"></path>
            </g>
        </g>
    </g>
</svg>