<?xml version="1.0" encoding="UTF-8"?>
<svg width="484px" height="105px" viewBox="0 0 484 105" version="1.1" xmlns="http://www.w3.org/2000/svg" xmlns:xlink="http://www.w3.org/1999/xlink">
    <title>pc_ico_b_navi01</title>
    <g id="Publish_PC" stroke="none" stroke-width="1" fill="none" fill-rule="evenodd">
        <g id="pc_06navi_01" transform="translate(-1289.000000, -310.000000)">
            <g id="pc_ico_b_navi01" transform="translate(1289.000000, 310.000000)">
                <rect id="Rectangle" fill="#D8D8D8" opacity="0" x="0" y="0" width="484" height="105"></rect>
                <path d="M22.6621094,83 L26.3535156,71.046875 L47.4912109,71.046875 L51.2265625,83 L67.7939453,83 L44.1513672,19.015625 L29.6494141,19.015625 L6.18261719,83 L22.6621094,83 Z M43.7998047,59.1376953 L30.0449219,59.1376953 L36.9003906,36.9453125 L43.7998047,59.1376953 Z M238.072266,83 C245.865234,82.9414062 251.746582,81.3374023 255.716309,78.1879883 C259.686035,75.0385742 261.670898,70.3291016 261.670898,64.0595703 C261.670898,60.6025391 260.777344,57.6728516 258.990234,55.2705078 C257.203125,52.8681641 254.639648,51.2275391 251.299805,50.3486328 C254.258789,49.2353516 256.5,47.5068359 258.023438,45.1630859 C259.546875,42.8193359 260.308594,39.9921875 260.308594,36.6816406 C260.308594,30.9394531 258.162598,26.5595703 253.870605,23.5419922 C249.578613,20.5244141 243.316406,19.015625 235.083984,19.015625 L235.083984,19.015625 L212.100586,19.015625 L212.100586,83 L238.072266,83 Z M235.567383,45.6904297 L227.525391,45.6904297 L227.525391,30.9248047 L235.083984,30.9248047 C238.541016,30.9248047 241.045898,31.5180664 242.598633,32.7045898 C244.151367,33.8911133 244.927734,35.8320312 244.927734,38.5273438 C244.927734,40.8710938 244.209961,42.6435547 242.774414,43.8447266 C241.338867,45.0458984 238.936523,45.6611328 235.567383,45.6904297 L235.567383,45.6904297 Z M237.632812,71.1347656 L227.525391,71.1347656 L227.525391,55.7978516 L238.335938,55.7978516 C243.638672,55.8271484 246.290039,58.5078125 246.290039,63.8398438 C246.290039,66.1542969 245.542969,67.9487305 244.048828,69.2231445 C242.554688,70.4975586 240.416016,71.1347656 237.632812,71.1347656 L237.632812,71.1347656 Z M306.431641,83.8789062 C311.880859,83.8789062 316.736816,82.5825195 320.999512,79.9897461 C325.262207,77.3969727 328.550781,73.6982422 330.865234,68.8935547 C333.179688,64.0888672 334.336914,58.5664062 334.336914,52.3261719 L334.336914,52.3261719 L334.336914,49.3818359 C334.307617,43.2294922 333.11377,37.7729492 330.755371,33.012207 C328.396973,28.2514648 325.09375,24.5820312 320.845703,22.0039062 C316.597656,19.4257812 311.763672,18.1367188 306.34375,18.1367188 C300.865234,18.1367188 295.97998,19.4404297 291.687988,22.0478516 C287.395996,24.6552734 284.100098,28.3540039 281.800293,33.144043 C279.500488,37.934082 278.350586,43.4638672 278.350586,49.7333984 L278.350586,49.7333984 L278.350586,53.3369141 C278.467773,59.3720703 279.705566,64.71875 282.063965,69.3769531 C284.422363,74.0351562 287.710938,77.6166992 291.929688,80.121582 C296.148438,82.6264648 300.982422,83.8789062 306.431641,83.8789062 Z M306.431641,71.8378906 C302.330078,71.8378906 299.239258,70.1533203 297.15918,66.7841797 C295.079102,63.4150391 294.039062,58.5957031 294.039062,52.3261719 L294.039062,52.3261719 L294.083008,47.6240234 C294.522461,36.0224609 298.609375,30.2216797 306.34375,30.2216797 C310.298828,30.2216797 313.338379,31.8696289 315.462402,35.1655273 C317.586426,38.4614258 318.648438,43.2880859 318.648438,49.6455078 L318.648438,49.6455078 L318.648438,52.5898438 C318.619141,58.8007812 317.549805,63.5615234 315.44043,66.8720703 C313.331055,70.1826172 310.328125,71.8378906 306.431641,71.8378906 Z M377.339844,83.8789062 C382.496094,83.8789062 386.963867,82.9707031 390.743164,81.1542969 C394.522461,79.3378906 397.422852,76.6938477 399.444336,73.222168 C401.46582,69.7504883 402.476562,65.6416016 402.476562,60.8955078 L402.476562,60.8955078 L402.476562,19.015625 L387.051758,19.015625 L387.051758,60.8076172 C387.051758,64.7626953 386.231445,67.6191406 384.59082,69.3769531 C382.950195,71.1347656 380.533203,72.0136719 377.339844,72.0136719 C371.011719,72.0136719 367.759766,68.5126953 367.583984,61.5107422 L367.583984,61.5107422 L367.583984,19.015625 L352.071289,19.015625 L352.071289,61.203125 C352.15918,68.234375 354.444336,73.7714844 358.926758,77.8144531 C363.40918,81.8574219 369.546875,83.8789062 377.339844,83.8789062 Z M453.125977,83 L453.125977,30.9248047 L472.330078,30.9248047 L472.330078,19.015625 L418.848633,19.015625 L418.848633,30.9248047 L437.701172,30.9248047 L437.701172,83 L453.125977,83 Z" id="ABOUT" fill="#000000" fill-rule="nonzero"></path>
            </g>
        </g>
    </g>
</svg>
