<?xml version="1.0" encoding="UTF-8"?>
<svg width="292px" height="168px" viewBox="0 0 292 168" version="1.1" xmlns="http://www.w3.org/2000/svg" xmlns:xlink="http://www.w3.org/1999/xlink">
    <!-- Generator: Sketch 64 (93537) - https://sketch.com -->
    <title>pc_ico_b_main05</title>
    <desc>Created with Sketch.</desc>
    <g id="Publish_PC" stroke="none" stroke-width="1" fill="none" fill-rule="evenodd">
        <g id="pc_02about-" transform="translate(-1553.000000, -400.000000)">
            <g id="Group-12" transform="translate(1553.000000, 400.000000)">
                <polygon id="Rectangle-Copy-9" fill="#AFAFAF" opacity="0" points="8.00708631e-12 0 292 0 292 168 8.00708631e-12 168"></polygon>
                <path d="M23.0039062,53 L23.0039062,46.359375 L22.3398438,32.7460938 L29.234375,53 L33.765625,53 L40.640625,32.765625 L39.9765625,46.359375 L39.9765625,53 L46.8515625,53 L46.8515625,24.5625 L37.828125,24.5625 L31.5,44.3476562 L25.1523438,24.5625 L16.1484375,24.5625 L16.1484375,53 L23.0039062,53 Z M56.3242188,53 L57.9648438,47.6875 L67.359375,47.6875 L69.0195312,53 L76.3828125,53 L65.875,24.5625 L59.4296875,24.5625 L49,53 L56.3242188,53 Z M65.71875,42.3945312 L59.6054688,42.3945312 L62.6523438,32.53125 L65.71875,42.3945312 Z M85.3085938,53 L85.3085938,45.5 L88.1210938,42.4140625 L94.1757812,53 L102.300781,53 L92.6914062,37.140625 L102.300781,24.5625 L93.8242188,24.5625 L87.6914062,33.4882812 L85.3085938,37.1015625 L85.3085938,24.5625 L78.453125,24.5625 L78.453125,53 L85.3085938,53 Z M123.628906,53 L123.628906,47.7265625 L110.894531,47.7265625 L110.894531,40.9492188 L121.675781,40.9492188 L121.675781,35.8515625 L110.894531,35.8515625 L110.894531,29.8554688 L123.667969,29.8554688 L123.667969,24.5625 L104.039062,24.5625 L104.039062,53 L123.628906,53 Z M207.28125,53.390625 C209.572917,53.390625 211.558594,52.9869792 213.238281,52.1796875 C214.917969,51.3723958 216.207031,50.1972656 217.105469,48.6542969 C218.003906,47.1113281 218.453125,45.2851562 218.453125,43.1757812 L218.453125,43.1757812 L218.453125,24.5625 L211.597656,24.5625 L211.597656,43.1367188 C211.597656,44.8945312 211.233073,46.1640625 210.503906,46.9453125 C209.77474,47.7265625 208.700521,48.1171875 207.28125,48.1171875 C204.46875,48.1171875 203.023438,46.5611979 202.945312,43.4492188 L202.945312,43.4492188 L202.945312,24.5625 L196.050781,24.5625 L196.050781,43.3125 C196.089844,46.4375 197.105469,48.8984375 199.097656,50.6953125 C201.089844,52.4921875 203.817708,53.390625 207.28125,53.390625 Z M228.550781,53 L233.335938,43.3710938 L238.121094,53 L246.03125,53 L237.867188,38.6640625 L245.816406,24.5625 L237.984375,24.5625 L233.335938,34.015625 L228.6875,24.5625 L220.875,24.5625 L228.804688,38.6640625 L220.660156,53 L228.550781,53 Z M21.265625,98 L22.90625,92.6875 L32.3007812,92.6875 L33.9609375,98 L41.3242188,98 L30.8164062,69.5625 L24.3710938,69.5625 L13.9414062,98 L21.265625,98 Z M30.6601562,87.3945312 L24.546875,87.3945312 L27.59375,77.53125 L30.6601562,87.3945312 Z M54.390625,98.390625 C57.6588542,98.390625 60.2304688,97.6809896 62.1054688,96.2617188 C63.9804688,94.8424479 64.9179688,92.8893229 64.9179688,90.4023438 C64.9179688,87.2903646 63.3815104,84.8489583 60.3085938,83.078125 C59.0455729,82.3489583 57.4309896,81.6686198 55.4648438,81.0371094 C53.4986979,80.405599 52.125,79.7936198 51.34375,79.2011719 C50.5625,78.608724 50.171875,77.9479167 50.171875,77.21875 C50.171875,76.3854167 50.5266927,75.6985677 51.2363281,75.1582031 C51.9459635,74.6178385 52.9127604,74.3476562 54.1367188,74.3476562 C55.3476562,74.3476562 56.3079427,74.6666667 57.0175781,75.3046875 C57.7272135,75.9427083 58.0820312,76.8411458 58.0820312,78 L58.0820312,78 L64.9179688,78 C64.9179688,76.2682292 64.46875,74.7285156 63.5703125,73.3808594 C62.671875,72.0332031 61.4121094,70.9947917 59.7910156,70.265625 C58.1699219,69.5364583 56.3372396,69.171875 54.2929688,69.171875 C52.1966146,69.171875 50.3085938,69.5071615 48.6289062,70.1777344 C46.9492188,70.8483073 45.6503906,71.7858073 44.7324219,72.9902344 C43.8144531,74.1946615 43.3554688,75.5846354 43.3554688,77.1601562 C43.3554688,80.3242188 45.1979167,82.8111979 48.8828125,84.6210938 C50.015625,85.1809896 51.4739583,85.7604167 53.2578125,86.359375 C55.0416667,86.9583333 56.2884115,87.5377604 56.9980469,88.0976562 C57.7076823,88.6575521 58.0625,89.4388021 58.0625,90.4414062 C58.0625,91.3268229 57.733724,92.0136719 57.0761719,92.5019531 C56.4186198,92.9902344 55.5234375,93.234375 54.390625,93.234375 C52.6197917,93.234375 51.3404948,92.8730469 50.5527344,92.1503906 C49.764974,91.4277344 49.3710938,90.3046875 49.3710938,88.78125 L49.3710938,88.78125 L42.4960938,88.78125 C42.4960938,90.65625 42.968099,92.313151 43.9121094,93.7519531 C44.8561198,95.1907552 46.2623698,96.3235677 48.1308594,97.1503906 C49.999349,97.9772135 52.0859375,98.390625 54.390625,98.390625 Z M90.3671875,98.390625 C92.7890625,98.390625 95.015625,98.0325521 97.046875,97.3164062 C99.078125,96.6002604 100.621094,95.65625 101.675781,94.484375 L101.675781,94.484375 L101.675781,82.8046875 L90.0546875,82.8046875 L90.0546875,87.5117188 L94.8203125,87.5117188 L94.8203125,91.9257812 C93.9479167,92.7200521 92.6197917,93.1171875 90.8359375,93.1171875 C88.7526042,93.1171875 87.2259115,92.4042969 86.2558594,90.9785156 C85.2858073,89.5527344 84.8007812,87.4205729 84.8007812,84.5820312 L84.8007812,84.5820312 L84.8007812,82.8632812 C84.8138021,80.1549479 85.2890625,78.0716146 86.2265625,76.6132812 C87.1640625,75.1549479 88.4921875,74.4257812 90.2109375,74.4257812 C91.6432292,74.4257812 92.75,74.7643229 93.53125,75.4414062 C94.3125,76.1184896 94.8203125,77.2513021 95.0546875,78.8398438 L95.0546875,78.8398438 L101.65625,78.8398438 C101.330729,75.6236979 100.188151,73.2050781 98.2285156,71.5839844 C96.2688802,69.9628906 93.5182292,69.1523438 89.9765625,69.1523438 C87.5546875,69.1523438 85.422526,69.7154948 83.5800781,70.8417969 C81.7376302,71.968099 80.3216146,73.5761719 79.3320312,75.6660156 C78.3424479,77.7558594 77.8476562,80.2005208 77.8476562,83 L77.8476562,83 L77.8671875,85.4609375 C78.0234375,89.5234375 79.2148438,92.6940104 81.4414062,94.9726562 C83.6679688,97.2513021 86.6432292,98.390625 90.3671875,98.390625 Z M117.339844,98.390625 C119.761719,98.390625 121.919922,97.8144531 123.814453,96.6621094 C125.708984,95.5097656 127.170573,93.8658854 128.199219,91.7304688 C129.227865,89.5950521 129.742188,87.140625 129.742188,84.3671875 L129.742188,84.3671875 L129.742188,83.0585938 C129.729167,80.3242188 129.198568,77.8990885 128.150391,75.7832031 C127.102214,73.6673177 125.634115,72.0364583 123.746094,70.890625 C121.858073,69.7447917 119.709635,69.171875 117.300781,69.171875 C114.865885,69.171875 112.694661,69.7513021 110.787109,70.9101562 C108.879557,72.0690104 107.414714,73.7128906 106.392578,75.8417969 C105.370443,77.9707031 104.859375,80.4283854 104.859375,83.2148438 L104.859375,83.2148438 L104.859375,84.8164062 C104.911458,87.4986979 105.461589,89.875 106.509766,91.9453125 C107.557943,94.015625 109.019531,95.6074219 110.894531,96.7207031 C112.769531,97.8339844 114.917969,98.390625 117.339844,98.390625 Z M117.339844,93.0390625 C115.516927,93.0390625 114.143229,92.2903646 113.21875,90.7929688 C112.294271,89.2955729 111.832031,87.1536458 111.832031,84.3671875 L111.832031,84.3671875 L111.851562,82.2773438 C112.046875,77.1210938 113.863281,74.5429688 117.300781,74.5429688 C119.058594,74.5429688 120.409505,75.2753906 121.353516,76.7402344 C122.297526,78.2050781 122.769531,80.3502604 122.769531,83.1757812 L122.769531,83.1757812 L122.769531,84.484375 C122.75651,87.2447917 122.28125,89.3606771 121.34375,90.8320312 C120.40625,92.3033854 119.071615,93.0390625 117.339844,93.0390625 Z M144.957031,98.390625 C147.378906,98.390625 149.537109,97.8144531 151.431641,96.6621094 C153.326172,95.5097656 154.78776,93.8658854 155.816406,91.7304688 C156.845052,89.5950521 157.359375,87.140625 157.359375,84.3671875 L157.359375,84.3671875 L157.359375,83.0585938 C157.346354,80.3242188 156.815755,77.8990885 155.767578,75.7832031 C154.719401,73.6673177 153.251302,72.0364583 151.363281,70.890625 C149.47526,69.7447917 147.326823,69.171875 144.917969,69.171875 C142.483073,69.171875 140.311849,69.7513021 138.404297,70.9101562 C136.496745,72.0690104 135.031901,73.7128906 134.009766,75.8417969 C132.98763,77.9707031 132.476562,80.4283854 132.476562,83.2148438 L132.476562,83.2148438 L132.476562,84.8164062 C132.528646,87.4986979 133.078776,89.875 134.126953,91.9453125 C135.17513,94.015625 136.636719,95.6074219 138.511719,96.7207031 C140.386719,97.8339844 142.535156,98.390625 144.957031,98.390625 Z M144.957031,93.0390625 C143.134115,93.0390625 141.760417,92.2903646 140.835938,90.7929688 C139.911458,89.2955729 139.449219,87.1536458 139.449219,84.3671875 L139.449219,84.3671875 L139.46875,82.2773438 C139.664062,77.1210938 141.480469,74.5429688 144.917969,74.5429688 C146.675781,74.5429688 148.026693,75.2753906 148.970703,76.7402344 C149.914714,78.2050781 150.386719,80.3502604 150.386719,83.1757812 L150.386719,83.1757812 L150.386719,84.484375 C150.373698,87.2447917 149.898438,89.3606771 148.960938,90.8320312 C148.023438,92.3033854 146.688802,93.0390625 144.957031,93.0390625 Z M170.25,98 C172.710938,97.9869792 174.940755,97.3977865 176.939453,96.2324219 C178.938151,95.0670573 180.48763,93.452474 181.587891,91.3886719 C182.688151,89.3248698 183.238281,86.9908854 183.238281,84.3867188 L183.238281,84.3867188 L183.238281,83.078125 C183.22526,80.5 182.655599,78.172526 181.529297,76.0957031 C180.402995,74.0188802 178.83724,72.4108073 176.832031,71.2714844 C174.826823,70.1321615 172.567708,69.5625 170.054688,69.5625 L170.054688,69.5625 L160.894531,69.5625 L160.894531,98 L170.25,98 Z M170.132812,92.7265625 L167.75,92.7265625 L167.75,74.8554688 L170.054688,74.8554688 C172.072917,74.8554688 173.609375,75.5520833 174.664062,76.9453125 C175.71875,78.3385417 176.246094,80.4088542 176.246094,83.15625 L176.246094,83.15625 L176.246094,84.3867188 C176.246094,87.1471354 175.71875,89.2272135 174.664062,90.6269531 C173.609375,92.0266927 172.098958,92.7265625 170.132812,92.7265625 L170.132812,92.7265625 Z M201.832031,98 L203.472656,92.6875 L212.867188,92.6875 L214.527344,98 L221.890625,98 L211.382812,69.5625 L204.9375,69.5625 L194.507812,98 L201.832031,98 Z M211.226562,87.3945312 L205.113281,87.3945312 L208.160156,77.53125 L211.226562,87.3945312 Z M234.957031,98.390625 C238.22526,98.390625 240.796875,97.6809896 242.671875,96.2617188 C244.546875,94.8424479 245.484375,92.8893229 245.484375,90.4023438 C245.484375,87.2903646 243.947917,84.8489583 240.875,83.078125 C239.611979,82.3489583 237.997396,81.6686198 236.03125,81.0371094 C234.065104,80.405599 232.691406,79.7936198 231.910156,79.2011719 C231.128906,78.608724 230.738281,77.9479167 230.738281,77.21875 C230.738281,76.3854167 231.093099,75.6985677 231.802734,75.1582031 C232.51237,74.6178385 233.479167,74.3476562 234.703125,74.3476562 C235.914062,74.3476562 236.874349,74.6666667 237.583984,75.3046875 C238.29362,75.9427083 238.648438,76.8411458 238.648438,78 L238.648438,78 L245.484375,78 C245.484375,76.2682292 245.035156,74.7285156 244.136719,73.3808594 C243.238281,72.0332031 241.978516,70.9947917 240.357422,70.265625 C238.736328,69.5364583 236.903646,69.171875 234.859375,69.171875 C232.763021,69.171875 230.875,69.5071615 229.195312,70.1777344 C227.515625,70.8483073 226.216797,71.7858073 225.298828,72.9902344 C224.380859,74.1946615 223.921875,75.5846354 223.921875,77.1601562 C223.921875,80.3242188 225.764323,82.8111979 229.449219,84.6210938 C230.582031,85.1809896 232.040365,85.7604167 233.824219,86.359375 C235.608073,86.9583333 236.854818,87.5377604 237.564453,88.0976562 C238.274089,88.6575521 238.628906,89.4388021 238.628906,90.4414062 C238.628906,91.3268229 238.30013,92.0136719 237.642578,92.5019531 C236.985026,92.9902344 236.089844,93.234375 234.957031,93.234375 C233.186198,93.234375 231.906901,92.8730469 231.119141,92.1503906 C230.33138,91.4277344 229.9375,90.3046875 229.9375,88.78125 L229.9375,88.78125 L223.0625,88.78125 C223.0625,90.65625 223.534505,92.313151 224.478516,93.7519531 C225.422526,95.1907552 226.828776,96.3235677 228.697266,97.1503906 C230.565755,97.9772135 232.652344,98.390625 234.957031,98.390625 Z M23.0039062,143 L23.0039062,133.351562 L27.3789062,133.351562 C30.8424479,133.351562 33.5670573,132.521484 35.5527344,130.861328 C37.5384115,129.201172 38.53125,126.984375 38.53125,124.210938 C38.53125,122.335938 38.0722656,120.659505 37.1542969,119.181641 C36.2363281,117.703776 34.9407552,116.564453 33.2675781,115.763672 C31.594401,114.962891 29.6705729,114.5625 27.4960938,114.5625 L27.4960938,114.5625 L16.1484375,114.5625 L16.1484375,143 L23.0039062,143 Z M27.4960938,128.058594 L23.0039062,128.058594 L23.0039062,119.855469 L27.5742188,119.855469 C28.8111979,119.86849 29.7877604,120.272135 30.5039062,121.066406 C31.2200521,121.860677 31.578125,122.921875 31.578125,124.25 C31.578125,125.460938 31.2298177,126.398438 30.5332031,127.0625 C29.8365885,127.726562 28.8242188,128.058594 27.4960938,128.058594 L27.4960938,128.058594 Z M53.8632812,143.390625 C56.2851562,143.390625 58.4433594,142.814453 60.3378906,141.662109 C62.2324219,140.509766 63.6940104,138.865885 64.7226562,136.730469 C65.7513021,134.595052 66.265625,132.140625 66.265625,129.367188 L66.265625,129.367188 L66.265625,128.058594 C66.2526042,125.324219 65.7220052,122.899089 64.6738281,120.783203 C63.625651,118.667318 62.1575521,117.036458 60.2695312,115.890625 C58.3815104,114.744792 56.2330729,114.171875 53.8242188,114.171875 C51.3893229,114.171875 49.218099,114.751302 47.3105469,115.910156 C45.4029948,117.06901 43.938151,118.712891 42.9160156,120.841797 C41.8938802,122.970703 41.3828125,125.428385 41.3828125,128.214844 L41.3828125,128.214844 L41.3828125,129.816406 C41.4348958,132.498698 41.985026,134.875 43.0332031,136.945312 C44.0813802,139.015625 45.5429688,140.607422 47.4179688,141.720703 C49.2929688,142.833984 51.4414062,143.390625 53.8632812,143.390625 Z M53.8632812,138.039062 C52.0403646,138.039062 50.6666667,137.290365 49.7421875,135.792969 C48.8177083,134.295573 48.3554688,132.153646 48.3554688,129.367188 L48.3554688,129.367188 L48.375,127.277344 C48.5703125,122.121094 50.3867188,119.542969 53.8242188,119.542969 C55.5820312,119.542969 56.9329427,120.275391 57.8769531,121.740234 C58.8209635,123.205078 59.2929688,125.35026 59.2929688,128.175781 L59.2929688,128.175781 L59.2929688,129.484375 C59.2799479,132.244792 58.8046875,134.360677 57.8671875,135.832031 C56.9296875,137.303385 55.5950521,138.039062 53.8632812,138.039062 Z M80.796875,143.390625 C84.0651042,143.390625 86.6367188,142.68099 88.5117188,141.261719 C90.3867188,139.842448 91.3242188,137.889323 91.3242188,135.402344 C91.3242188,132.290365 89.7877604,129.848958 86.7148438,128.078125 C85.4518229,127.348958 83.8372396,126.66862 81.8710938,126.037109 C79.9049479,125.405599 78.53125,124.79362 77.75,124.201172 C76.96875,123.608724 76.578125,122.947917 76.578125,122.21875 C76.578125,121.385417 76.9329427,120.698568 77.6425781,120.158203 C78.3522135,119.617839 79.3190104,119.347656 80.5429688,119.347656 C81.7539062,119.347656 82.7141927,119.666667 83.4238281,120.304688 C84.1334635,120.942708 84.4882812,121.841146 84.4882812,123 L84.4882812,123 L91.3242188,123 C91.3242188,121.268229 90.875,119.728516 89.9765625,118.380859 C89.078125,117.033203 87.8183594,115.994792 86.1972656,115.265625 C84.5761719,114.536458 82.7434896,114.171875 80.6992188,114.171875 C78.6028646,114.171875 76.7148438,114.507161 75.0351562,115.177734 C73.3554688,115.848307 72.0566406,116.785807 71.1386719,117.990234 C70.2207031,119.194661 69.7617188,120.584635 69.7617188,122.160156 C69.7617188,125.324219 71.6041667,127.811198 75.2890625,129.621094 C76.421875,130.18099 77.8802083,130.760417 79.6640625,131.359375 C81.4479167,131.958333 82.6946615,132.53776 83.4042969,133.097656 C84.1139323,133.657552 84.46875,134.438802 84.46875,135.441406 C84.46875,136.326823 84.139974,137.013672 83.4824219,137.501953 C82.8248698,137.990234 81.9296875,138.234375 80.796875,138.234375 C79.0260417,138.234375 77.7467448,137.873047 76.9589844,137.150391 C76.171224,136.427734 75.7773438,135.304688 75.7773438,133.78125 L75.7773438,133.78125 L68.9023438,133.78125 C68.9023438,135.65625 69.374349,137.313151 70.3183594,138.751953 C71.2623698,140.190755 72.6686198,141.323568 74.5371094,142.150391 C76.405599,142.977214 78.4921875,143.390625 80.796875,143.390625 Z M105.835938,143.390625 C109.104167,143.390625 111.675781,142.68099 113.550781,141.261719 C115.425781,139.842448 116.363281,137.889323 116.363281,135.402344 C116.363281,132.290365 114.826823,129.848958 111.753906,128.078125 C110.490885,127.348958 108.876302,126.66862 106.910156,126.037109 C104.94401,125.405599 103.570312,124.79362 102.789062,124.201172 C102.007812,123.608724 101.617188,122.947917 101.617188,122.21875 C101.617188,121.385417 101.972005,120.698568 102.681641,120.158203 C103.391276,119.617839 104.358073,119.347656 105.582031,119.347656 C106.792969,119.347656 107.753255,119.666667 108.462891,120.304688 C109.172526,120.942708 109.527344,121.841146 109.527344,123 L109.527344,123 L116.363281,123 C116.363281,121.268229 115.914062,119.728516 115.015625,118.380859 C114.117188,117.033203 112.857422,115.994792 111.236328,115.265625 C109.615234,114.536458 107.782552,114.171875 105.738281,114.171875 C103.641927,114.171875 101.753906,114.507161 100.074219,115.177734 C98.3945312,115.848307 97.0957031,116.785807 96.1777344,117.990234 C95.2597656,119.194661 94.8007812,120.584635 94.8007812,122.160156 C94.8007812,125.324219 96.6432292,127.811198 100.328125,129.621094 C101.460938,130.18099 102.919271,130.760417 104.703125,131.359375 C106.486979,131.958333 107.733724,132.53776 108.443359,133.097656 C109.152995,133.657552 109.507812,134.438802 109.507812,135.441406 C109.507812,136.326823 109.179036,137.013672 108.521484,137.501953 C107.863932,137.990234 106.96875,138.234375 105.835938,138.234375 C104.065104,138.234375 102.785807,137.873047 101.998047,137.150391 C101.210286,136.427734 100.816406,135.304688 100.816406,133.78125 L100.816406,133.78125 L93.9414062,133.78125 C93.9414062,135.65625 94.4134115,137.313151 95.3574219,138.751953 C96.3014323,140.190755 97.7076823,141.323568 99.5761719,142.150391 C101.444661,142.977214 103.53125,143.390625 105.835938,143.390625 Z M170.109885,143 L170.109885,114.5625 L163.273947,114.5625 L163.273947,143 L170.109885,143 Z M187.384662,143 C190.848204,142.973958 193.462136,142.261068 195.226459,140.861328 C196.990782,139.461589 197.872943,137.36849 197.872943,134.582031 C197.872943,133.045573 197.475808,131.74349 196.681537,130.675781 C195.887266,129.608073 194.747943,128.878906 193.263568,128.488281 C194.578672,127.99349 195.574766,127.22526 196.251849,126.183594 C196.928933,125.141927 197.267474,123.885417 197.267474,122.414062 C197.267474,119.861979 196.313698,117.915365 194.406146,116.574219 C192.498594,115.233073 189.715391,114.5625 186.056537,114.5625 L186.056537,114.5625 L175.841693,114.5625 L175.841693,143 L187.384662,143 Z M186.271381,126.417969 L182.697162,126.417969 L182.697162,119.855469 L186.056537,119.855469 C187.592995,119.855469 188.706276,120.119141 189.396381,120.646484 C190.086485,121.173828 190.431537,122.036458 190.431537,123.234375 C190.431537,124.276042 190.112526,125.063802 189.474506,125.597656 C188.836485,126.13151 187.768776,126.404948 186.271381,126.417969 L186.271381,126.417969 Z M187.189349,137.726562 L182.697162,137.726562 L182.697162,130.910156 L187.501849,130.910156 C189.85862,130.923177 191.037006,132.114583 191.037006,134.484375 C191.037006,135.513021 190.704974,136.310547 190.040912,136.876953 C189.376849,137.443359 188.426329,137.726562 187.189349,137.726562 L187.189349,137.726562 Z M221.39772,143 L221.39772,137.726562 L209.464127,137.726562 L209.464127,114.5625 L202.608658,114.5625 L202.608658,143 L221.39772,143 Z M244.844373,143 L244.844373,137.726562 L232.109998,137.726562 L232.109998,130.949219 L242.891248,130.949219 L242.891248,125.851562 L232.109998,125.851562 L232.109998,119.855469 L244.883435,119.855469 L244.883435,114.5625 L225.254529,114.5625 L225.254529,143 L244.844373,143 Z" id="MAKEUXASGOODASPOSSIBLE" fill="#000000" fill-rule="nonzero"></path>
            </g>
        </g>
    </g>
</svg>