<?xml version="1.0" encoding="UTF-8"?>
<svg width="484px" height="105px" viewBox="0 0 484 105" version="1.1" xmlns="http://www.w3.org/2000/svg" xmlns:xlink="http://www.w3.org/1999/xlink">
    <title>pc_ico_b_navi02</title>
    <g id="Publish_PC" stroke="none" stroke-width="1" fill="none" fill-rule="evenodd">
        <g id="pc_06navi_01" transform="translate(-1289.000000, -435.000000)">
            <g id="pc_ico_b_navi02" transform="translate(1289.000000, 435.000000)">
                <rect id="Rectangle-Copy-4" fill="#D8D8D8" opacity="0" x="0" y="0" width="484" height="105"></rect>
                <path d="M30.8710938,83 L39.2646484,46.5253906 L47.8339844,83 L63.8300781,83 L77.4091797,19.015625 L62.1162109,19.015625 L54.7773437,59.1376953 L45.8564453,19.015625 L32.7607422,19.015625 L23.9716797,59.1376953 L16.6328125,19.015625 L1.29589844,19.015625 L14.9189453,83 L30.8710938,83 Z M118.708984,83.8789062 C124.158203,83.8789062 129.01416,82.5825195 133.276855,79.9897461 C137.539551,77.3969727 140.828125,73.6982422 143.142578,68.8935547 C145.457031,64.0888672 146.614258,58.5664062 146.614258,52.3261719 L146.614258,52.3261719 L146.614258,49.3818359 C146.584961,43.2294922 145.391113,37.7729492 143.032715,33.012207 C140.674316,28.2514648 137.371094,24.5820312 133.123047,22.0039062 C128.875,19.4257812 124.041016,18.1367188 118.621094,18.1367188 C113.142578,18.1367188 108.257324,19.4404297 103.965332,22.0478516 C99.6733398,24.6552734 96.3774414,28.3540039 94.0776367,33.144043 C91.777832,37.934082 90.6279297,43.4638672 90.6279297,49.7333984 L90.6279297,49.7333984 L90.6279297,53.3369141 C90.7451172,59.3720703 91.9829102,64.71875 94.3413086,69.3769531 C96.699707,74.0351562 99.9882812,77.6166992 104.207031,80.121582 C108.425781,82.6264648 113.259766,83.8789062 118.708984,83.8789062 Z M118.708984,71.8378906 C114.607422,71.8378906 111.516602,70.1533203 109.436523,66.7841797 C107.356445,63.4150391 106.316406,58.5957031 106.316406,52.3261719 L106.316406,52.3261719 L106.360352,47.6240234 C106.799805,36.0224609 110.886719,30.2216797 118.621094,30.2216797 C122.576172,30.2216797 125.615723,31.8696289 127.739746,35.1655273 C129.86377,38.4614258 130.925781,43.2880859 130.925781,49.6455078 L130.925781,49.6455078 L130.925781,52.5898438 C130.896484,58.8007812 129.827148,63.5615234 127.717773,66.8720703 C125.608398,70.1826172 122.605469,71.8378906 118.708984,71.8378906 Z M178.993164,83 L178.993164,60.4121094 L187.342773,60.4121094 L198.636719,83 L215.160156,83 L215.160156,82.3408203 L201.800781,56.5449219 C205.638672,54.7285156 208.458496,52.3554688 210.260254,49.4257812 C212.062012,46.4960938 212.962891,42.8046875 212.962891,38.3515625 C212.962891,32.1992188 210.824219,27.4384766 206.546875,24.0693359 C202.269531,20.7001953 196.336914,19.015625 188.749023,19.015625 L188.749023,19.015625 L163.568359,19.015625 L163.568359,83 L178.993164,83 Z M188.749023,48.5029297 L178.993164,48.5029297 L178.993164,30.9248047 L188.749023,30.9248047 C191.649414,30.9248047 193.84668,31.7084961 195.34082,33.2758789 C196.834961,34.8432617 197.582031,37.0039062 197.582031,39.7578125 C197.582031,42.5117188 196.842285,44.6577148 195.362793,46.1958008 C193.883301,47.7338867 191.678711,48.5029297 188.749023,48.5029297 L188.749023,48.5029297 Z M246.704102,83 L246.704102,66.125 L253.032227,59.1816406 L266.655273,83 L284.936523,83 L263.31543,47.3164062 L284.936523,19.015625 L265.864258,19.015625 L252.06543,39.0986328 L246.704102,47.2285156 L246.704102,19.015625 L231.279297,19.015625 L231.279297,83 L246.704102,83 Z M448.237305,83.8789062 C455.59082,83.8789062 461.376953,82.2822266 465.595703,79.0888672 C469.814453,75.8955078 471.923828,71.5009766 471.923828,65.9052734 C471.923828,58.9033203 468.466797,53.4101562 461.552734,49.4257812 C458.710938,47.7851562 455.078125,46.2543945 450.654297,44.8334961 C446.230469,43.4125977 443.139648,42.0356445 441.381836,40.7026367 C439.624023,39.3696289 438.745117,37.8828125 438.745117,36.2421875 C438.745117,34.3671875 439.543457,32.8217773 441.140137,31.605957 C442.736816,30.3901367 444.912109,29.7822266 447.666016,29.7822266 C450.390625,29.7822266 452.55127,30.5 454.147949,31.9355469 C455.744629,33.3710938 456.542969,35.3925781 456.542969,38 L456.542969,38 L471.923828,38 C471.923828,34.1035156 470.913086,30.6391602 468.891602,27.6069336 C466.870117,24.574707 464.035645,22.2382812 460.388184,20.5976562 C456.740723,18.9570312 452.617188,18.1367188 448.017578,18.1367188 C443.300781,18.1367188 439.052734,18.8911133 435.273438,20.3999023 C431.494141,21.9086914 428.571777,24.0180664 426.506348,26.7280273 C424.440918,29.4379883 423.408203,32.5654297 423.408203,36.1103516 C423.408203,43.2294922 427.553711,48.8251953 435.844727,52.8974609 C438.393555,54.1572266 441.674805,55.4609375 445.688477,56.8085938 C449.702148,58.15625 452.507324,59.4599609 454.104004,60.7197266 C455.700684,61.9794922 456.499023,63.7373047 456.499023,65.9931641 C456.499023,67.9853516 455.759277,69.5307617 454.279785,70.6293945 C452.800293,71.7280273 450.786133,72.2773438 448.237305,72.2773438 C444.25293,72.2773438 441.374512,71.4643555 439.602051,69.8383789 C437.82959,68.2124023 436.943359,65.6855469 436.943359,62.2578125 L436.943359,62.2578125 L421.474609,62.2578125 C421.474609,66.4765625 422.536621,70.2045898 424.660645,73.4418945 C426.784668,76.6791992 429.94873,79.2280273 434.152832,81.0883789 C438.356934,82.9487305 443.051758,83.8789062 448.237305,83.8789062 Z" id="WORKS" fill="#000000" fill-rule="nonzero"></path>
            </g>
        </g>
    </g>
</svg>
