<?xml version="1.0" encoding="UTF-8"?>
<svg width="156px" height="33px" viewBox="0 0 156 33" version="1.1" xmlns="http://www.w3.org/2000/svg" xmlns:xlink="http://www.w3.org/1999/xlink">
    <!-- Generator: Sketch 64 (93537) - https://sketch.com -->
    <title>pc_logo_01</title>
    <desc>Created with Sketch.</desc>
    <g id="Publish_PC" stroke="none" stroke-width="1" fill="none" fill-rule="evenodd">
        <g id="pc_02about-" transform="translate(-80.000000, -70.000000)">
            <g id="Group-13" transform="translate(80.000000, 70.000000)">
                <rect id="Rectangle" fill="#FFFFFF" opacity="0" x="0" y="0" width="156" height="33"></rect>
                <path d="M7.70117188,26.5 L7.70117188,14.1132812 L14.7558594,26.5 L19.5273438,26.5 L19.5273438,6.59375 L14.7421875,6.59375 L14.7421875,18.9804688 L7.70117188,6.59375 L2.90234375,6.59375 L2.90234375,26.5 L7.70117188,26.5 Z M36.2753906,26.5 L36.2753906,22.8085938 L27.3613281,22.8085938 L27.3613281,18.0644531 L34.9082031,18.0644531 L34.9082031,14.4960938 L27.3613281,14.4960938 L27.3613281,10.2988281 L36.3027344,10.2988281 L36.3027344,6.59375 L22.5625,6.59375 L22.5625,26.5 L36.2753906,26.5 Z M47.8828125,26.5 L47.8828125,10.2988281 L53.8574219,10.2988281 L53.8574219,6.59375 L37.21875,6.59375 L37.21875,10.2988281 L43.0839844,10.2988281 L43.0839844,26.5 L47.8828125,26.5 Z M60.9941406,26.5 L60.9941406,6.59375 L56.2089844,6.59375 L56.2089844,26.5 L60.9941406,26.5 Z M74.6796875,26.5 L81.3789062,6.59375 L76.0195312,6.59375 L72.0546875,21.0859375 L68.1035156,6.59375 L62.7851562,6.59375 L69.4296875,26.5 L74.6796875,26.5 Z M96.5410156,26.5 L96.5410156,22.8085938 L87.6269531,22.8085938 L87.6269531,18.0644531 L95.1738281,18.0644531 L95.1738281,14.4960938 L87.6269531,14.4960938 L87.6269531,10.2988281 L96.5683594,10.2988281 L96.5683594,6.59375 L82.828125,6.59375 L82.828125,26.5 L96.5410156,26.5 Z M110.267578,26.5 L110.267578,19.4726562 L112.865234,19.4726562 L116.378906,26.5 L121.519531,26.5 L121.519531,26.2949219 L117.363281,18.2695312 C118.557292,17.7044271 119.43457,16.9661458 119.995117,16.0546875 C120.555664,15.1432292 120.835938,13.9947917 120.835938,12.609375 C120.835938,10.6953125 120.170573,9.21419271 118.839844,8.16601562 C117.509115,7.11783854 115.663411,6.59375 113.302734,6.59375 L113.302734,6.59375 L105.46875,6.59375 L105.46875,26.5 L110.267578,26.5 Z M113.302734,15.7675781 L110.267578,15.7675781 L110.267578,10.2988281 L113.302734,10.2988281 C114.205078,10.2988281 114.888672,10.5426432 115.353516,11.0302734 C115.818359,11.5179036 116.050781,12.1901042 116.050781,13.046875 C116.050781,13.9036458 115.820638,14.5712891 115.360352,15.0498047 C114.900065,15.5283203 114.214193,15.7675781 113.302734,15.7675781 L113.302734,15.7675781 Z M137.447266,26.5 L137.447266,22.8085938 L128.533203,22.8085938 L128.533203,18.0644531 L136.080078,18.0644531 L136.080078,14.4960938 L128.533203,14.4960938 L128.533203,10.2988281 L137.474609,10.2988281 L137.474609,6.59375 L123.734375,6.59375 L123.734375,26.5 L137.447266,26.5 Z M145.951172,26.5 C147.673828,26.4908854 149.234701,26.0784505 150.633789,25.2626953 C152.032878,24.4469401 153.117513,23.3167318 153.887695,21.8720703 C154.657878,20.4274089 155.042969,18.7936198 155.042969,16.9707031 L155.042969,16.9707031 L155.042969,16.0546875 C155.033854,14.25 154.635091,12.6207682 153.84668,11.1669922 C153.058268,9.71321615 151.96224,8.5875651 150.558594,7.79003906 C149.154948,6.99251302 147.573568,6.59375 145.814453,6.59375 L145.814453,6.59375 L139.402344,6.59375 L139.402344,26.5 L145.951172,26.5 Z M145.869141,22.8085938 L144.201172,22.8085938 L144.201172,10.2988281 L145.814453,10.2988281 C147.227214,10.2988281 148.302734,10.7864583 149.041016,11.7617188 C149.779297,12.7369792 150.148438,14.1861979 150.148438,16.109375 L150.148438,16.109375 L150.148438,16.9707031 C150.148438,18.9029948 149.779297,20.3590495 149.041016,21.3388672 C148.302734,22.3186849 147.245443,22.8085938 145.869141,22.8085938 L145.869141,22.8085938 Z" id="NETIVERED" fill="#000000" fill-rule="nonzero"></path>
            </g>
        </g>
    </g>
</svg>