<?xml version="1.0" encoding="UTF-8"?>
<svg width="148px" height="168px" viewBox="0 0 148 168" version="1.1" xmlns="http://www.w3.org/2000/svg" xmlns:xlink="http://www.w3.org/1999/xlink">
    <!-- Generator: Sketch 64 (93537) - https://sketch.com -->
    <title>pc_ico_white_main03</title>
    <desc>Created with Sketch.</desc>
    <g id="Publish_PC" stroke="none" stroke-width="1" fill="none" fill-rule="evenodd">
        <g id="pc_01main_0" transform="translate(-1125.000000, -722.000000)">
            <g id="pc_ico_white_main03" transform="translate(1125.000000, 722.000000)">
                <polygon id="Rectangle-Copy-4" fill="#AFAFAF" opacity="0" points="4.40538578e-12 0 148 0 148 168 4.40538578e-12 168"></polygon>
                <path d="M66.2714844,163 C79.8066406,162.928385 92.070638,159.687826 103.063477,153.27832 C114.056315,146.868815 122.578451,137.988607 128.629883,126.637695 C134.681315,115.286784 137.707031,102.44987 137.707031,88.1269531 L137.707031,88.1269531 L137.707031,80.9296875 C137.635417,66.75 134.502279,53.9488932 128.307617,42.5263672 C122.112956,31.1038411 113.501302,22.2594401 102.472656,15.9931641 C91.4440104,9.72688802 79.0188802,6.59375 65.1972656,6.59375 L65.1972656,6.59375 L14.8164062,6.59375 L14.8164062,163 L66.2714844,163 Z M65.6269531,133.996094 L52.5214844,133.996094 L52.5214844,35.7050781 L65.1972656,35.7050781 C76.297526,35.7050781 84.7480469,39.5364583 90.5488281,47.1992188 C96.3496094,54.8619792 99.25,66.2486979 99.25,81.359375 L99.25,81.359375 L99.25,88.1269531 C99.25,103.309245 96.3496094,114.749674 90.5488281,122.448242 C84.7480469,130.14681 76.4407552,133.996094 65.6269531,133.996094 L65.6269531,133.996094 Z" id="D" fill="#FFFFFF" fill-rule="nonzero"></path>
            </g>
        </g>
    </g>
</svg>