<?xml version="1.0" encoding="UTF-8"?>
<svg width="148px" height="168px" viewBox="0 0 148 168" version="1.1" xmlns="http://www.w3.org/2000/svg" xmlns:xlink="http://www.w3.org/1999/xlink">
    <!-- Generator: Sketch 64 (93537) - https://sketch.com -->
    <title>pc_ico_white_main01</title>
    <desc>Created with Sketch.</desc>
    <g id="Publish_PC" stroke="none" stroke-width="1" fill="none" fill-rule="evenodd">
        <g id="pc_01main_0" transform="translate(-1125.000000, -78.000000)">
            <g id="pc_ico_white_main01" transform="translate(1125.000000, 78.000000)">
                <polygon id="333" fill="#AFAFAF" opacity="0" points="4.40538578e-12 0 148 0 148 168 4.40538578e-12 168"></polygon>
                <path d="M53.0214844,163 L53.0214844,107.785156 L73.4316406,107.785156 L101.039062,163 L141.429688,163 L141.429688,161.388672 L108.773438,98.3320312 C118.154948,93.8919271 125.047852,88.0911458 129.452148,80.9296875 C133.856445,73.7682292 136.058594,64.7447917 136.058594,53.859375 C136.058594,38.8203125 130.830729,27.1829427 120.375,18.9472656 C109.919271,10.7115885 95.4173177,6.59375 76.8691406,6.59375 L76.8691406,6.59375 L15.3164062,6.59375 L15.3164062,163 L53.0214844,163 Z M76.8691406,78.6738281 L53.0214844,78.6738281 L53.0214844,35.7050781 L76.8691406,35.7050781 C83.9589844,35.7050781 89.3300781,37.6207682 92.9824219,41.4521484 C96.6347656,45.2835286 98.4609375,50.5651042 98.4609375,57.296875 C98.4609375,64.0286458 96.6526693,69.2744141 93.0361328,73.0341797 C89.4195964,76.7939453 84.030599,78.6738281 76.8691406,78.6738281 L76.8691406,78.6738281 Z" id="R" fill="#FFFFFF" fill-rule="nonzero"></path>
            </g>
        </g>
    </g>
</svg>