<?xml version="1.0" encoding="UTF-8"?>
<svg width="148px" height="168px" viewBox="0 0 148 168" version="1.1" xmlns="http://www.w3.org/2000/svg" xmlns:xlink="http://www.w3.org/1999/xlink">
    <!-- Generator: Sketch 64 (93537) - https://sketch.com -->
    <title>pc_ico_b_main04</title>
    <desc>Created with Sketch.</desc>
    <g id="Publish_PC" stroke="none" stroke-width="1" fill="none" fill-rule="evenodd">
        <g id="pc_02about-" transform="translate(-1553.000000, -78.000000)">
            <g id="Group-10" transform="translate(1553.000000, 78.000000)">
                <polygon id="Rectangle-Copy-6" fill="#AFAFAF" opacity="0" points="4.40538578e-12 0 148 0 148 168 4.40538578e-12 168"></polygon>
                <path d="M73.546875,165.148438 C86.1510417,165.148438 97.0722656,162.928385 106.310547,158.488281 C115.548828,154.048177 122.638672,147.584961 127.580078,139.098633 C132.521484,130.612305 134.992188,120.568359 134.992188,108.966797 L134.992188,108.966797 L134.992188,6.59375 L97.2871094,6.59375 L97.2871094,108.751953 C97.2871094,118.419922 95.281901,125.402344 91.2714844,129.699219 C87.2610677,133.996094 81.3528646,136.144531 73.546875,136.144531 C58.078125,136.144531 50.1289062,127.586589 49.6992188,110.470703 L49.6992188,110.470703 L49.6992188,6.59375 L11.7792969,6.59375 L11.7792969,109.71875 C11.9941406,126.90625 17.5800781,140.441406 28.5371094,150.324219 C39.4941406,160.207031 54.4973958,165.148438 73.546875,165.148438 Z" id="U" fill="#000000" fill-rule="nonzero"></path>
            </g>
        </g>
    </g>
</svg>