<?xml version="1.0" encoding="UTF-8"?>
<svg width="106px" height="121px" viewBox="0 0 106 121" version="1.1" xmlns="http://www.w3.org/2000/svg" xmlns:xlink="http://www.w3.org/1999/xlink">
    <!-- Generator: Sketch 64 (93537) - https://sketch.com -->
    <title>m_ico_b_main04</title>
    <desc>Created with Sketch.</desc>
    <g id="Publish_M" stroke="none" stroke-width="1" fill="none" fill-rule="evenodd">
        <g id="m_02about-" transform="translate(-474.000000, -354.000000)">
            <g id="m_ico_b_main04" transform="translate(474.000000, 354.000000)">
                <polygon id="Rectangle-Copy-6" fill="#AFAFAF" opacity="0" points="3.1278239e-12 0 105.08 0 105.08 119.28 3.1278239e-12 119.28"></polygon>
                <path d="M52.2182812,117.255391 C61.1672396,117.255391 68.9213086,115.679154 75.4804883,112.52668 C82.039668,109.374206 87.073457,104.785322 90.5818555,98.7600293 C94.0902539,92.7347363 95.8444531,85.6035352 95.8444531,77.3664258 L95.8444531,77.3664258 L95.8444531,4.6815625 L69.0738477,4.6815625 L69.0738477,77.2138867 C69.0738477,84.0781445 67.6501497,89.0356641 64.8027539,92.0864453 C61.9553581,95.1372266 57.7605339,96.6626172 52.2182812,96.6626172 C41.2354687,96.6626172 35.5915234,90.5864779 35.2864453,78.4341992 L35.2864453,78.4341992 L35.2864453,4.6815625 L8.36330078,4.6815625 L8.36330078,77.9003125 C8.51583984,90.1034375 12.4818555,99.7133984 20.2613477,106.730195 C28.0408398,113.746992 38.693151,117.255391 52.2182812,117.255391 Z" id="U" fill="#000000" fill-rule="nonzero"></path>
            </g>
        </g>
    </g>
</svg>