<?xml version="1.0" encoding="UTF-8"?>
<svg width="106px" height="121px" viewBox="0 0 106 121" version="1.1" xmlns="http://www.w3.org/2000/svg" xmlns:xlink="http://www.w3.org/1999/xlink">
    <!-- Generator: Sketch 64 (93537) - https://sketch.com -->
    <title>m_ico_b_main01</title>
    <desc>Created with Sketch.</desc>
    <g id="Publish_M" stroke="none" stroke-width="1" fill="none" fill-rule="evenodd">
        <g id="m_02about-" transform="translate(-284.000000, -354.000000)">
            <g id="m_ico_b_main01" transform="translate(284.000000, 354.000000)">
                <polygon id="333" fill="#AFAFAF" opacity="0" points="3.1278239e-12 0 105.08 0 105.08 119.28 3.1278239e-12 119.28"></polygon>
                <path d="M37.6452539,115.73 L37.6452539,76.5274609 L52.1364648,76.5274609 L71.7377344,115.73 L100.415078,115.73 L100.415078,114.585957 L77.2291406,69.8157422 C83.890013,66.6632682 88.7839746,62.5447135 91.9110254,57.4600781 C95.0380762,52.3754427 96.6016016,45.9688021 96.6016016,38.2401562 C96.6016016,27.5624219 92.8898177,19.2998893 85.46625,13.4525586 C78.0426823,7.60522786 67.7462956,4.6815625 54.5770898,4.6815625 L54.5770898,4.6815625 L10.8746484,4.6815625 L10.8746484,115.73 L37.6452539,115.73 Z M54.5770898,55.858418 L37.6452539,55.858418 L37.6452539,25.3506055 L54.5770898,25.3506055 C59.6108789,25.3506055 63.4243555,26.7107454 66.0175195,29.4310254 C68.6106836,32.1513053 69.9072656,35.901224 69.9072656,40.6807812 C69.9072656,45.4603385 68.6233952,49.184834 66.0556543,51.8542676 C63.4879134,54.5237012 59.6617253,55.858418 54.5770898,55.858418 L54.5770898,55.858418 Z" id="R" fill="#ED4947" fill-rule="nonzero"></path>
            </g>
        </g>
    </g>
</svg>