<?xml version="1.0" encoding="UTF-8"?>
<svg width="290px" height="200px" viewBox="0 0 290 200" version="1.1" xmlns="http://www.w3.org/2000/svg" xmlns:xlink="http://www.w3.org/1999/xlink">
    <!-- Generator: Sketch 64 (93537) - https://sketch.com -->
    <title>m_ico_02</title>
    <desc>Created with Sketch.</desc>
    <defs>
        <path d="M93.3765077,136.001591 C86.0661354,138.59086 78.1976289,140 70,140 C61.8023711,140 53.9338646,138.59086 46.6234923,136.001591 Z M109.201624,128.001839 C107.057033,129.454137 104.827613,130.790619 102.522346,132.002304 L37.4776538,132.002304 C35.1723869,130.790619 32.9429673,129.454137 30.7983762,128.001839 Z M118.98787,120.001918 C117.564025,121.397066 116.080841,122.731883 114.542455,124.002232 L25.4575455,124.002232 C23.9191594,122.731883 22.4359753,121.397066 21.01213,120.001918 Z M126.00395,112.001566 C124.972317,113.374929 123.891345,114.709112 122.763664,116.001483 L17.2363364,116.001483 C16.1086555,114.709112 15.0276828,113.374929 13.99605,112.001566 Z M131.202169,104.001117 C130.443938,105.36302 129.641567,106.696981 128.796991,108.001063 L11.2030091,108.001063 C10.3584326,106.696981 9.55606179,105.36302 8.79783051,104.001117 Z M135.011971,96.0009718 C134.46962,97.3558221 133.886144,98.6897684 133.263086,100.001267 L6.73691355,100.001267 C6.11385615,98.6897684 5.5303801,97.3558221 4.98802915,96.0009718 Z M137.663864,88.000581 C137.305696,89.3504391 136.908207,90.6842868 136.472699,92.0008237 L3.52730147,92.0008237 C3.09179291,90.6842868 2.69430418,89.3504391 2.33613585,88.000581 Z M139.290937,80.001221 C139.098362,81.3473649 138.867487,82.6811535 138.599453,84.0014474 L1.40054745,84.0014474 C1.13251276,82.6811535 0.901638276,81.3473649 0.70906325,80.001221 Z M139.971948,72.0010627 C139.93425,73.344063 139.858724,74.6776009 139.746399,76.0006487 L0.253601065,76.0006487 C0.141275768,74.6776009 0.0657500924,73.344063 0.0280516642,72.0010627 Z M139.746484,64.0003529 C139.85879,65.3234002 139.934297,66.6569373 139.971976,67.9999364 L0.0280236257,67.9999364 C0.0657031281,66.6569373 0.141209801,65.3234002 0.253516033,64.0003529 Z M138.599656,55.9995528 C138.86767,57.3198467 139.098525,58.6536348 139.29108,59.9997778 L0.708920372,59.9997778 C0.901475452,58.6536348 1.13232987,57.3198467 1.4003444,55.9995528 Z M136.473028,48.0001735 C136.908516,49.3167128 137.305983,50.6505626 137.66413,52.0004222 L2.33586967,52.0004222 C2.69401682,50.6505626 3.09148432,49.3167128 3.52697163,48.0001735 Z M133.26356,39.9997302 C133.886593,41.3112297 134.470044,42.6451762 135.01237,44.000026 L4.98762975,44.000026 C5.52995619,42.6451762 6.11340745,41.3112297 6.73643981,39.9997302 Z M128.797641,31.99994 C129.642185,33.3040214 130.444524,34.6379792 131.202724,35.9998794 L8.797276,35.9998794 C9.55547614,34.6379792 10.3578152,33.3040214 11.2023593,31.99994 Z M122.764535,23.999516 C123.892175,25.2918885 124.973107,26.6260708 126.004699,27.9994313 L13.9953005,27.9994313 C15.0268934,26.6260708 16.1078253,25.2918885 17.2354646,23.999516 Z M114.544449,15.9994142 C116.082483,17.2695687 117.565336,18.6041634 118.988872,19.9990642 L21.0111277,19.9990642 C22.4346641,18.6041634 23.9175168,17.2695687 25.4555515,15.9994142 Z M102.52435,7.9987491 C104.829263,9.21034348 107.058346,10.5466988 109.202623,11.9988377 L30.7973773,11.9988377 C32.9416536,10.5466988 35.1707368,9.21034348 37.4756497,7.9987491 Z M70,-3.09228199e-11 C78.1987527,-3.09228199e-11 86.0682929,1.40952675 93.3795142,3.9994741 L46.6204858,3.9994741 C53.9317071,1.40952675 61.8012473,-3.09228199e-11 70,-3.09228199e-11 Z" id="path-1"></path>
    </defs>
    <g id="Publish_M" stroke="none" stroke-width="1" fill="none" fill-rule="evenodd">
        <g id="m_01main_3" transform="translate(-430.000000, -540.000000)">
            <g id="m_ico_02" transform="translate(430.000000, 540.000000)">
                <polygon id="Rectangle-Copy-9" fill="#AFAFAF" opacity="0" points="7.95224326e-12 0 290 0 290 200 7.95224326e-12 200"></polygon>
                <g id="m_ico_m_about07_1" transform="translate(23.000000, 30.000000)">
                    <mask id="mask-2" fill="white">
                        <use xlink:href="#path-1"></use>
                    </mask>
                    <use id="Combined-Shape" fill="#000000" xlink:href="#path-1"></use>
                </g>
                <g id="m_ico_m_about07_2" transform="translate(103.000000, 30.000000)" fill="#000000" fill-rule="nonzero">
                    <circle id="Oval" cx="69.4814815" cy="69.4814815" r="69.4814815"></circle>
                </g>
            </g>
        </g>
    </g>
</svg>