<?xml version="1.0" encoding="UTF-8"?>
<svg width="290px" height="200px" viewBox="0 0 290 200" version="1.1" xmlns="http://www.w3.org/2000/svg" xmlns:xlink="http://www.w3.org/1999/xlink">
    <!-- Generator: Sketch 64 (93537) - https://sketch.com -->
    <title>m_ico_04</title>
    <desc>Created with Sketch.</desc>
    <defs>
        <path d="M137.341544,23.0165441 L138,23.6642567 L23.6642567,138 C23.4463443,137.782088 23.2299369,137.56324 23.0150345,137.34347 L137.341544,23.0165441 Z M131.345052,17.6984807 C132.384243,18.5318918 133.407613,19.3947375 134.414046,20.2870182 L20.2870182,134.414046 C19.3947375,133.407613 18.5318918,132.384243 17.6984807,131.345052 Z M124.777769,12.9529033 C125.91165,13.6883369 127.03113,14.4550886 128.134981,15.2531584 L15.2531584,128.134981 C14.4550886,127.03113 13.6883369,125.91165 12.9529033,124.777769 Z M117.604681,8.8101659 C118.839875,9.44080208 120.062226,10.105295 121.270356,10.803645 L10.803645,121.270356 C10.105295,120.062226 9.44080208,118.839875 8.8101659,117.604681 Z M109.775701,5.32700783 C111.121382,5.84154235 112.456066,6.39335166 113.778159,6.98243605 L6.98243605,113.778159 C6.39335166,112.456066 5.84154235,111.121382 5.32700783,109.775701 Z M101.201257,2.5874079 C102.673292,2.96861121 104.136661,3.39193714 105.589452,3.85738606 L3.85738606,105.589452 C3.39193714,104.136661 2.96861121,102.673292 2.5874079,101.201257 Z M91.7439101,0.73136197 C93.3668444,0.950614892 94.9843784,1.21916506 96.5940912,1.53701295 L1.53701295,96.5940912 C1.21916506,94.9843784 0.950614892,93.3668444 0.73136197,91.7439101 Z M81.1596316,0.000540407644 C82.9786848,0.00717130626 84.7975357,0.0748239514 86.6128503,0.20349898 L0.20349898,86.6128503 C0.0748239514,84.7975357 0.00717130626,82.9786848 0.000540407646,81.1596316 Z M75.314192,0.189506461 L0.189506461,75.314192 C0.334508557,73.1939468 0.562722326,71.0782983 0.874146755,68.9725557 L68.9725557,0.874146755 C71.0782983,0.562722326 73.1939468,0.334508557 75.314192,0.189506461 Z M61.9620979,2.22885431 L2.22885431,61.9620979 C2.87653545,59.2569089 3.66537176,56.5785816 4.59536101,53.9388461 L53.9388461,4.59536101 C56.5785816,3.66537176 59.2569089,2.87653545 61.9620979,2.22885431 Z M44.0141406,8.86154248 L8.86154248,44.0141406 C12.6123894,36.6900977 17.5539302,29.8182896 23.6861099,23.6861099 C29.8182896,17.5539302 36.6900977,12.6123894 44.0141406,8.86154248 Z" id="path-1"></path>
    </defs>
    <g id="Publish_M" stroke="none" stroke-width="1" fill="none" fill-rule="evenodd">
        <g id="m_01main_5" transform="translate(-430.000000, -540.000000)">
            <g id="m_ico_04" transform="translate(430.000000, 540.000000)">
                <polygon id="Rectangle-Copy-9" fill="#AFAFAF" opacity="0" points="7.95224326e-12 0 290 0 290 200 7.95224326e-12 200"></polygon>
                <g id="m_ico_contact_03_2" transform="translate(57.000000, 42.000000)" fill="#000000" fill-rule="nonzero">
                    <path d="M4.54747351e-13,114.335743 C31.5608745,145.896618 82.7409464,145.886834 114.31389,114.31389 C145.886834,82.7409464 145.896618,31.5608745 114.335743,0 L4.54747351e-13,114.335743 Z"></path>
                </g>
                <g id="m_ico_contact_03_1" transform="translate(34.000000, 19.000000)">
                    <mask id="mask-2" fill="white">
                        <use xlink:href="#path-1"></use>
                    </mask>
                    <use id="Combined-Shape" fill="#000000" fill-rule="nonzero" xlink:href="#path-1"></use>
                </g>
            </g>
        </g>
    </g>
</svg>