<?xml version="1.0" encoding="UTF-8"?>
<svg width="106px" height="121px" viewBox="0 0 106 121" version="1.1" xmlns="http://www.w3.org/2000/svg" xmlns:xlink="http://www.w3.org/1999/xlink">
    <!-- Generator: Sketch 64 (93537) - https://sketch.com -->
    <title>m_ico_b_main03</title>
    <desc>Created with Sketch.</desc>
    <g id="Publish_M" stroke="none" stroke-width="1" fill="none" fill-rule="evenodd">
        <g id="m_02about-" transform="translate(-284.000000, -806.000000)">
            <g id="m_ico_b_main03" transform="translate(284.000000, 806.000000)">
                <polygon id="Rectangle-Copy-4" fill="#AFAFAF" opacity="0" points="3.1278239e-12 0 105.08 0 105.08 119.28 3.1278239e-12 119.28"></polygon>
                <path d="M47.0527539,115.73 C56.6627148,115.679154 65.370153,113.378356 73.1750684,108.827607 C80.9799837,104.276859 87.0306999,97.9719108 91.3272168,89.9127637 C95.6237337,81.8536165 97.7719922,72.7394076 97.7719922,62.5701367 L97.7719922,62.5701367 L97.7719922,57.4600781 C97.7211458,47.3925 95.4966178,38.3037142 91.0984082,30.1937207 C86.7001986,22.0837272 80.5859245,15.8042025 72.7555859,11.3551465 C64.9252474,6.90609049 56.1034049,4.6815625 46.2900586,4.6815625 L46.2900586,4.6815625 L10.5196484,4.6815625 L10.5196484,115.73 L47.0527539,115.73 Z M46.5951367,95.1372266 L37.2902539,95.1372266 L37.2902539,25.3506055 L46.2900586,25.3506055 C54.1712435,25.3506055 60.1711133,28.0708854 64.289668,33.5114453 C68.4082227,38.9520052 70.4675,47.0365755 70.4675,57.7651562 L70.4675,57.7651562 L70.4675,62.5701367 C70.4675,73.3495638 68.4082227,81.4722689 64.289668,86.938252 C60.1711133,92.404235 54.2729362,95.1372266 46.5951367,95.1372266 L46.5951367,95.1372266 Z" id="D" fill="#ED4947" fill-rule="nonzero"></path>
            </g>
        </g>
    </g>
</svg>