<?xml version="1.0" encoding="UTF-8"?>
<svg width="208px" height="121px" viewBox="0 0 208 121" version="1.1" xmlns="http://www.w3.org/2000/svg" xmlns:xlink="http://www.w3.org/1999/xlink">
    <!-- Generator: Sketch 64 (93537) - https://sketch.com -->
    <title>m_ico_b_main05</title>
    <desc>Created with Sketch.</desc>
    <g id="Publish_M" stroke="none" stroke-width="1" fill="none" fill-rule="evenodd">
        <g id="m_02about-" transform="translate(-474.000000, -580.000000)">
            <g id="m_ico_b_main05" transform="translate(474.000000, 580.000000)">
                <polygon id="Rectangle-Copy-9" fill="#AFAFAF" opacity="0" points="5.68503128e-12 0 207.32 0 207.32 119.28 5.68503128e-12 119.28"></polygon>
                <path d="M16.3327734,37.63 L16.3327734,32.9151563 L15.8612891,23.2497266 L20.7564062,37.63 L23.9735937,37.63 L28.8548438,23.2635937 L28.3833594,32.9151563 L28.3833594,37.63 L33.2646094,37.63 L33.2646094,17.439375 L26.8579688,17.439375 L22.365,31.4868359 L17.8581641,17.439375 L11.4653906,17.439375 L11.4653906,37.63 L16.3327734,37.63 Z M39.9901953,37.63 L41.1550391,33.858125 L47.8251562,33.858125 L49.0038672,37.63 L54.2317969,37.63 L46.77125,17.439375 L42.1950781,17.439375 L34.79,37.63 L39.9901953,37.63 Z M46.6603125,30.1001172 L42.3198828,30.1001172 L44.4831641,23.0971875 L46.6603125,30.1001172 Z M60.5691016,37.63 L60.5691016,32.305 L62.5659766,30.1139844 L66.8648047,37.63 L72.6335547,37.63 L65.8108984,26.3698437 L72.6335547,17.439375 L66.6151953,17.439375 L62.2608984,23.7766797 L60.5691016,26.3421094 L60.5691016,17.439375 L55.7017187,17.439375 L55.7017187,37.63 L60.5691016,37.63 Z M87.7765234,37.63 L87.7765234,33.8858594 L78.7351172,33.8858594 L78.7351172,29.0739453 L86.3898047,29.0739453 L86.3898047,25.4546094 L78.7351172,25.4546094 L78.7351172,21.1973828 L87.8042578,21.1973828 L87.8042578,17.439375 L73.8677344,17.439375 L73.8677344,37.63 L87.7765234,37.63 Z M147.169687,37.9073437 C148.796771,37.9073437 150.206602,37.6207552 151.39918,37.0475781 C152.591758,36.474401 153.506992,35.6400586 154.144883,34.5445508 C154.782773,33.449043 155.101719,32.1524609 155.101719,30.6548047 L155.101719,30.6548047 L155.101719,17.439375 L150.234336,17.439375 L150.234336,30.6270703 C150.234336,31.8751172 149.975482,32.7764844 149.457773,33.3311719 C148.940065,33.8858594 148.17737,34.1632031 147.169687,34.1632031 C145.172812,34.1632031 144.146641,33.0584505 144.091172,30.8489453 L144.091172,30.8489453 L144.091172,17.439375 L139.196055,17.439375 L139.196055,30.751875 C139.223789,32.970625 139.944883,34.7178906 141.359336,35.9936719 C142.773789,37.2694531 144.710573,37.9073437 147.169687,37.9073437 Z M162.271055,37.63 L165.668516,30.7934766 L169.065977,37.63 L174.682187,37.63 L168.885703,27.4514844 L174.529648,17.439375 L168.968906,17.439375 L165.668516,24.1510937 L162.368125,17.439375 L156.82125,17.439375 L162.451328,27.4514844 L156.668711,37.63 L162.271055,37.63 Z M15.0985937,69.58 L16.2634375,65.808125 L22.9335547,65.808125 L24.1122656,69.58 L29.3401953,69.58 L21.8796484,49.389375 L17.3034766,49.389375 L9.89839844,69.58 L15.0985937,69.58 Z M21.7687109,62.0501172 L17.4282812,62.0501172 L19.5915625,55.0471875 L21.7687109,62.0501172 Z M38.6173438,69.8573437 C40.9377865,69.8573437 42.7636328,69.3535026 44.0948828,68.3458203 C45.4261328,67.338138 46.0917578,65.9514193 46.0917578,64.1856641 C46.0917578,61.9761589 45.0008724,60.2427604 42.8191016,58.9854688 C41.9223568,58.4677604 40.7760026,57.9847201 39.3800391,57.5363477 C37.9840755,57.0879753 37.00875,56.6534701 36.4540625,56.232832 C35.899375,55.812194 35.6220312,55.3430208 35.6220312,54.8253125 C35.6220312,54.2336458 35.8739518,53.7459831 36.377793,53.3623242 C36.8816341,52.9786654 37.5680599,52.7868359 38.4370703,52.7868359 C39.2968359,52.7868359 39.9786393,53.0133333 40.4824805,53.4663281 C40.9863216,53.9193229 41.2382422,54.5572135 41.2382422,55.38 L41.2382422,55.38 L46.0917578,55.38 C46.0917578,54.1504427 45.7728125,53.0572461 45.1349219,52.1004102 C44.4970312,51.1435742 43.6025977,50.4063021 42.4516211,49.8885937 C41.3006445,49.3708854 39.9994401,49.1120313 38.5480078,49.1120313 C37.0595964,49.1120313 35.7191016,49.3500846 34.5265234,49.8261914 C33.3339453,50.3022982 32.4117773,50.9679232 31.7600195,51.8230664 C31.1082617,52.6782096 30.7823828,53.6650911 30.7823828,54.7837109 C30.7823828,57.0301953 32.0905208,58.7959505 34.7067969,60.0809766 C35.5110938,60.4785026 36.5465104,60.8898958 37.8130469,61.3151563 C39.0795833,61.7404167 39.9647721,62.1518099 40.4686133,62.5493359 C40.9724544,62.946862 41.224375,63.5015495 41.224375,64.2133984 C41.224375,64.8420443 40.990944,65.329707 40.524082,65.6763867 C40.0572201,66.0230664 39.4216406,66.1964062 38.6173438,66.1964062 C37.3600521,66.1964062 36.4517513,65.9398633 35.8924414,65.4267773 C35.3331315,64.9136914 35.0534766,64.1163281 35.0534766,63.0346875 L35.0534766,63.0346875 L30.1722266,63.0346875 C30.1722266,64.3659375 30.5073503,65.5423372 31.1775977,66.5638867 C31.8478451,67.5854362 32.8462826,68.3897331 34.1729102,68.9767773 C35.4995378,69.5638216 36.9810156,69.8573437 38.6173438,69.8573437 Z M64.1607031,69.8573437 C65.8802344,69.8573437 67.4610937,69.603112 68.9032812,69.0946484 C70.3454687,68.5861849 71.4409766,67.9159375 72.1898047,67.0839062 L72.1898047,67.0839062 L72.1898047,58.7913281 L63.9388281,58.7913281 L63.9388281,62.1333203 L67.3224219,62.1333203 L67.3224219,65.2673047 C66.7030208,65.831237 65.7600521,66.1132031 64.4935156,66.1132031 C63.014349,66.1132031 61.9303971,65.6070508 61.2416602,64.5947461 C60.5529232,63.5824414 60.2085547,62.0686068 60.2085547,60.0532422 L60.2085547,60.0532422 L60.2085547,58.8329297 C60.2177995,56.910013 60.5552344,55.4308464 61.2208594,54.3954297 C61.8864844,53.360013 62.8294531,52.8423047 64.0497656,52.8423047 C65.0666927,52.8423047 65.8525,53.0826693 66.4071875,53.5633984 C66.961875,54.0441276 67.3224219,54.8484245 67.4888281,55.9762891 L67.4888281,55.9762891 L72.1759375,55.9762891 C71.9448177,53.6928255 71.1335872,51.9756055 69.7422461,50.8246289 C68.3509049,49.6736523 66.3979427,49.0981641 63.8833594,49.0981641 C62.1638281,49.0981641 60.6499935,49.4980013 59.3418555,50.2976758 C58.0337174,51.0973503 57.0283464,52.239082 56.3257422,53.7228711 C55.623138,55.2066602 55.2718359,56.9423698 55.2718359,58.93 L55.2718359,58.93 L55.2857031,60.6772656 C55.3966406,63.5616406 56.2425391,65.8127474 57.8233984,67.4305859 C59.4042578,69.0484245 61.5166927,69.8573437 64.1607031,69.8573437 Z M83.3112891,69.8573437 C85.0308203,69.8573437 86.5631445,69.4482617 87.9082617,68.6300977 C89.2533789,67.8119336 90.2911068,66.6447786 91.0214453,65.1286328 C91.7517839,63.612487 92.1169531,61.8698438 92.1169531,59.9007031 L92.1169531,59.9007031 L92.1169531,58.9716016 C92.1077083,57.0301953 91.7309831,55.3083529 90.9867773,53.8060742 C90.2425716,52.3037956 89.2002214,51.1458854 87.8597266,50.3323437 C86.5192318,49.5188021 84.9938411,49.1120313 83.2835547,49.1120313 C81.5547786,49.1120313 80.0132096,49.5234245 78.6588477,50.3462109 C77.3044857,51.1689974 76.2644466,52.3361523 75.5387305,53.8476758 C74.8130143,55.3591992 74.4501562,57.1041536 74.4501562,59.0825391 L74.4501562,59.0825391 L74.4501562,60.2196484 C74.4871354,62.1240755 74.8777279,63.81125 75.6219336,65.2811719 C76.3661393,66.7510937 77.4038672,67.8812695 78.7351172,68.6716992 C80.0663672,69.4621289 81.5917578,69.8573437 83.3112891,69.8573437 Z M83.3112891,66.0577344 C82.0170182,66.0577344 81.0416927,65.5261589 80.3853125,64.4630078 C79.7289323,63.3998568 79.4007422,61.8790885 79.4007422,59.9007031 L79.4007422,59.9007031 L79.4146094,58.4169141 C79.5532812,54.7559766 80.8429297,52.9255078 83.2835547,52.9255078 C84.5316016,52.9255078 85.4907487,53.4455273 86.1609961,54.4855664 C86.8312435,55.5256055 87.1663672,57.0486849 87.1663672,59.0548047 L87.1663672,59.0548047 L87.1663672,59.9839063 C87.1571224,61.9438021 86.8196875,63.4460807 86.1540625,64.4907422 C85.4884375,65.5354036 84.5408464,66.0577344 83.3112891,66.0577344 Z M102.919492,69.8573437 C104.639023,69.8573437 106.171348,69.4482617 107.516465,68.6300977 C108.861582,67.8119336 109.89931,66.6447786 110.629648,65.1286328 C111.359987,63.612487 111.725156,61.8698438 111.725156,59.9007031 L111.725156,59.9007031 L111.725156,58.9716016 C111.715911,57.0301953 111.339186,55.3083529 110.59498,53.8060742 C109.850775,52.3037956 108.808424,51.1458854 107.46793,50.3323437 C106.127435,49.5188021 104.602044,49.1120313 102.891758,49.1120313 C101.162982,49.1120313 99.6214128,49.5234245 98.2670508,50.3462109 C96.9126888,51.1689974 95.8726497,52.3361523 95.1469336,53.8476758 C94.4212174,55.3591992 94.0583594,57.1041536 94.0583594,59.0825391 L94.0583594,59.0825391 L94.0583594,60.2196484 C94.0953385,62.1240755 94.485931,63.81125 95.2301367,65.2811719 C95.9743424,66.7510937 97.0120703,67.8812695 98.3433203,68.6716992 C99.6745703,69.4621289 101.199961,69.8573437 102.919492,69.8573437 Z M102.919492,66.0577344 C101.625221,66.0577344 100.649896,65.5261589 99.9935156,64.4630078 C99.3371354,63.3998568 99.0089453,61.8790885 99.0089453,59.9007031 L99.0089453,59.9007031 L99.0228125,58.4169141 C99.1614844,54.7559766 100.451133,52.9255078 102.891758,52.9255078 C104.139805,52.9255078 105.098952,53.4455273 105.769199,54.4855664 C106.439447,55.5256055 106.77457,57.0486849 106.77457,59.0548047 L106.77457,59.0548047 L106.77457,59.9839063 C106.765326,61.9438021 106.427891,63.4460807 105.762266,64.4907422 C105.096641,65.5354036 104.149049,66.0577344 102.919492,66.0577344 Z M120.8775,69.58 C122.624766,69.5707552 124.207936,69.1524284 125.627012,68.3250195 C127.046087,67.4976107 128.146217,66.3512565 128.927402,64.885957 C129.708587,63.4206576 130.09918,61.7635286 130.09918,59.9145703 L130.09918,59.9145703 L130.09918,58.9854688 C130.089935,57.155 129.685475,55.5024935 128.885801,54.0279492 C128.086126,52.5534049 126.97444,51.4116732 125.550742,50.6027539 C124.127044,49.7938346 122.523073,49.389375 120.738828,49.389375 L120.738828,49.389375 L114.235117,49.389375 L114.235117,69.58 L120.8775,69.58 Z M120.794297,65.8358594 L119.1025,65.8358594 L119.1025,53.1473828 L120.738828,53.1473828 C122.171771,53.1473828 123.262656,53.6419792 124.011484,54.6311719 C124.760312,55.6203646 125.134727,57.0902865 125.134727,59.0409375 L125.134727,59.0409375 L125.134727,59.9145703 C125.134727,61.8744661 124.760312,63.3513216 124.011484,64.3451367 C123.262656,65.3389518 122.19026,65.8358594 120.794297,65.8358594 L120.794297,65.8358594 Z M143.300742,69.58 L144.465586,65.808125 L151.135703,65.808125 L152.314414,69.58 L157.542344,69.58 L150.081797,49.389375 L145.505625,49.389375 L138.100547,69.58 L143.300742,69.58 Z M149.970859,62.0501172 L145.63043,62.0501172 L147.793711,55.0471875 L149.970859,62.0501172 Z M166.819492,69.8573437 C169.139935,69.8573437 170.965781,69.3535026 172.297031,68.3458203 C173.628281,67.338138 174.293906,65.9514193 174.293906,64.1856641 C174.293906,61.9761589 173.203021,60.2427604 171.02125,58.9854688 C170.124505,58.4677604 168.978151,57.9847201 167.582187,57.5363477 C166.186224,57.0879753 165.210898,56.6534701 164.656211,56.232832 C164.101523,55.812194 163.82418,55.3430208 163.82418,54.8253125 C163.82418,54.2336458 164.0761,53.7459831 164.579941,53.3623242 C165.083783,52.9786654 165.770208,52.7868359 166.639219,52.7868359 C167.498984,52.7868359 168.180788,53.0133333 168.684629,53.4663281 C169.18847,53.9193229 169.440391,54.5572135 169.440391,55.38 L169.440391,55.38 L174.293906,55.38 C174.293906,54.1504427 173.974961,53.0572461 173.33707,52.1004102 C172.69918,51.1435742 171.804746,50.4063021 170.65377,49.8885937 C169.502793,49.3708854 168.201589,49.1120313 166.750156,49.1120313 C165.261745,49.1120313 163.92125,49.3500846 162.728672,49.8261914 C161.536094,50.3022982 160.613926,50.9679232 159.962168,51.8230664 C159.31041,52.6782096 158.984531,53.6650911 158.984531,54.7837109 C158.984531,57.0301953 160.292669,58.7959505 162.908945,60.0809766 C163.713242,60.4785026 164.748659,60.8898958 166.015195,61.3151563 C167.281732,61.7404167 168.166921,62.1518099 168.670762,62.5493359 C169.174603,62.946862 169.426523,63.5015495 169.426523,64.2133984 C169.426523,64.8420443 169.193092,65.329707 168.72623,65.6763867 C168.259368,66.0230664 167.623789,66.1964062 166.819492,66.1964062 C165.562201,66.1964062 164.6539,65.9398633 164.09459,65.4267773 C163.53528,64.9136914 163.255625,64.1163281 163.255625,63.0346875 L163.255625,63.0346875 L158.374375,63.0346875 C158.374375,64.3659375 158.709499,65.5423372 159.379746,66.5638867 C160.049993,67.5854362 161.048431,68.3897331 162.375059,68.9767773 C163.701686,69.5638216 165.183164,69.8573437 166.819492,69.8573437 Z M16.3327734,101.53 L16.3327734,94.6796094 L19.4390234,94.6796094 C21.898138,94.6796094 23.8326107,94.0902539 25.2424414,92.911543 C26.6522721,91.732832 27.3571875,90.1589063 27.3571875,88.1897656 C27.3571875,86.8585156 27.0313086,85.6682487 26.3795508,84.6189648 C25.727793,83.569681 24.8079362,82.7607617 23.6199805,82.192207 C22.4320247,81.6236523 21.0661068,81.339375 19.5222266,81.339375 L19.5222266,81.339375 L11.4653906,81.339375 L11.4653906,101.53 L16.3327734,101.53 Z M19.5222266,90.9216016 L16.3327734,90.9216016 L16.3327734,85.0973828 L19.5776953,85.0973828 C20.4559505,85.1066276 21.1493099,85.3932161 21.6577734,85.9571484 C22.166237,86.5210807 22.4204687,87.2745312 22.4204687,88.2175 C22.4204687,89.0772656 22.1731706,89.7428906 21.6785742,90.214375 C21.1839779,90.6858594 20.4651953,90.9216016 19.5222266,90.9216016 L19.5222266,90.9216016 Z M38.2429297,101.807344 C39.9624609,101.807344 41.4947852,101.398262 42.8399023,100.580098 C44.1850195,99.7619336 45.2227474,98.5947786 45.9530859,97.0786328 C46.6834245,95.562487 47.0485938,93.8198438 47.0485938,91.8507031 L47.0485938,91.8507031 L47.0485938,90.9216016 C47.039349,88.9801953 46.6626237,87.2583529 45.918418,85.7560742 C45.1742122,84.2537956 44.131862,83.0958854 42.7913672,82.2823437 C41.4508724,81.4688021 39.9254818,81.0620312 38.2151953,81.0620312 C36.4864193,81.0620312 34.9448503,81.4734245 33.5904883,82.2962109 C32.2361263,83.1189974 31.1960872,84.2861523 30.4703711,85.7976758 C29.7446549,87.3091992 29.3817969,89.0541536 29.3817969,91.0325391 L29.3817969,91.0325391 L29.3817969,92.1696484 C29.418776,94.0740755 29.8093685,95.76125 30.5535742,97.2311719 C31.2977799,98.7010937 32.3355078,99.8312695 33.6667578,100.621699 C34.9980078,101.412129 36.5233984,101.807344 38.2429297,101.807344 Z M38.2429297,98.0077344 C36.9486589,98.0077344 35.9733333,97.4761589 35.3169531,96.4130078 C34.6605729,95.3498568 34.3323828,93.8290885 34.3323828,91.8507031 L34.3323828,91.8507031 L34.34625,90.3669141 C34.4849219,86.7059766 35.7745703,84.8755078 38.2151953,84.8755078 C39.4632422,84.8755078 40.4223893,85.3955273 41.0926367,86.4355664 C41.7628841,87.4756055 42.0980078,88.9986849 42.0980078,91.0048047 L42.0980078,91.0048047 L42.0980078,91.9339062 C42.088763,93.8938021 41.7513281,95.3960807 41.0857031,96.4407422 C40.4200781,97.4854036 39.472487,98.0077344 38.2429297,98.0077344 Z M57.3657813,101.807344 C59.686224,101.807344 61.5120703,101.303503 62.8433203,100.29582 C64.1745703,99.288138 64.8401953,97.9014193 64.8401953,96.1356641 C64.8401953,93.9261589 63.7493099,92.1927604 61.5675391,90.9354687 C60.6707943,90.4177604 59.5244401,89.9347201 58.1284766,89.4863477 C56.732513,89.0379753 55.7571875,88.6034701 55.2025,88.182832 C54.6478125,87.762194 54.3704688,87.2930208 54.3704688,86.7753125 C54.3704688,86.1836458 54.6223893,85.6959831 55.1262305,85.3123242 C55.6300716,84.9286654 56.3164974,84.7368359 57.1855078,84.7368359 C58.0452734,84.7368359 58.7270768,84.9633333 59.230918,85.4163281 C59.7347591,85.8693229 59.9866797,86.5072135 59.9866797,87.33 L59.9866797,87.33 L64.8401953,87.33 C64.8401953,86.1004427 64.52125,85.0072461 63.8833594,84.0504102 C63.2454688,83.0935742 62.3510352,82.3563021 61.2000586,81.8385938 C60.049082,81.3208854 58.7478776,81.0620312 57.2964453,81.0620312 C55.8080339,81.0620312 54.4675391,81.3000846 53.2749609,81.7761914 C52.0823828,82.2522982 51.1602148,82.9179232 50.508457,83.7730664 C49.8566992,84.6282096 49.5308203,85.6150911 49.5308203,86.7337109 C49.5308203,88.9801953 50.8389583,90.7459505 53.4552344,92.0309766 C54.2595313,92.4285026 55.2949479,92.8398958 56.5614844,93.2651563 C57.8280208,93.6904167 58.7132096,94.1018099 59.2170508,94.4993359 C59.7208919,94.896862 59.9728125,95.4515495 59.9728125,96.1633984 C59.9728125,96.7920443 59.7393815,97.279707 59.2725195,97.6263867 C58.8056576,97.9730664 58.1700781,98.1464062 57.3657813,98.1464062 C56.1084896,98.1464062 55.2001888,97.8898633 54.6408789,97.3767773 C54.081569,96.8636914 53.8019141,96.0663281 53.8019141,94.9846875 L53.8019141,94.9846875 L48.9206641,94.9846875 C48.9206641,96.3159375 49.2557878,97.4923372 49.9260352,98.5138867 C50.5962826,99.5354362 51.5947201,100.339733 52.9213477,100.926777 C54.2479753,101.513822 55.7294531,101.807344 57.3657813,101.807344 Z M75.1435156,101.807344 C77.4639583,101.807344 79.2898047,101.303503 80.6210547,100.29582 C81.9523047,99.288138 82.6179297,97.9014193 82.6179297,96.1356641 C82.6179297,93.9261589 81.5270443,92.1927604 79.3452734,90.9354687 C78.4485286,90.4177604 77.3021745,89.9347201 75.9062109,89.4863477 C74.5102474,89.0379753 73.5349219,88.6034701 72.9802344,88.182832 C72.4255469,87.762194 72.1482031,87.2930208 72.1482031,86.7753125 C72.1482031,86.1836458 72.4001237,85.6959831 72.9039648,85.3123242 C73.407806,84.9286654 74.0942318,84.7368359 74.9632422,84.7368359 C75.8230078,84.7368359 76.5048112,84.9633333 77.0086523,85.4163281 C77.5124935,85.8693229 77.7644141,86.5072135 77.7644141,87.33 L77.7644141,87.33 L82.6179297,87.33 C82.6179297,86.1004427 82.2989844,85.0072461 81.6610937,84.0504102 C81.0232031,83.0935742 80.1287695,82.3563021 78.977793,81.8385938 C77.8268164,81.3208854 76.525612,81.0620312 75.0741797,81.0620312 C73.5857682,81.0620312 72.2452734,81.3000846 71.0526953,81.7761914 C69.8601172,82.2522982 68.9379492,82.9179232 68.2861914,83.7730664 C67.6344336,84.6282096 67.3085547,85.6150911 67.3085547,86.7337109 C67.3085547,88.9801953 68.6166927,90.7459505 71.2329687,92.0309766 C72.0372656,92.4285026 73.0726823,92.8398958 74.3392187,93.2651563 C75.6057552,93.6904167 76.490944,94.1018099 76.9947852,94.4993359 C77.4986263,94.896862 77.7505469,95.4515495 77.7505469,96.1633984 C77.7505469,96.7920443 77.5171159,97.279707 77.0502539,97.6263867 C76.5833919,97.9730664 75.9478125,98.1464062 75.1435156,98.1464062 C73.886224,98.1464062 72.9779232,97.8898633 72.4186133,97.3767773 C71.8593034,96.8636914 71.5796484,96.0663281 71.5796484,94.9846875 L71.5796484,94.9846875 L66.6983984,94.9846875 C66.6983984,96.3159375 67.0335221,97.4923372 67.7037695,98.5138867 C68.3740169,99.5354362 69.3724544,100.339733 70.699082,100.926777 C72.0257096,101.513822 73.5071875,101.807344 75.1435156,101.807344 Z M120.778018,101.53 L120.778018,81.339375 L115.924502,81.339375 L115.924502,101.53 L120.778018,101.53 Z M133.04311,101.53 C135.502224,101.51151 137.358116,101.005358 138.610786,100.011543 C139.863455,99.0177279 140.48979,97.5316276 140.48979,95.5532422 C140.48979,94.4623568 140.207823,93.5378776 139.643891,92.7798047 C139.079959,92.0217318 138.27104,91.5040234 137.217133,91.2266797 C138.150857,90.8753776 138.858084,90.3299349 139.338813,89.5903516 C139.819542,88.8507682 140.059907,87.9586458 140.059907,86.9139844 C140.059907,85.1020052 139.382726,83.7199089 138.028364,82.7676953 C136.674002,81.8154818 134.697928,81.339375 132.100141,81.339375 L132.100141,81.339375 L124.847602,81.339375 L124.847602,101.53 L133.04311,101.53 Z M132.25268,89.7567578 L129.714985,89.7567578 L129.714985,85.0973828 L132.100141,85.0973828 C133.191027,85.0973828 133.981456,85.2845898 134.47143,85.6590039 C134.961404,86.033418 135.206391,86.6458854 135.206391,87.4964063 C135.206391,88.2359896 134.979894,88.7952995 134.526899,89.1743359 C134.073904,89.5533724 133.315831,89.747513 132.25268,89.7567578 L132.25268,89.7567578 Z M132.904438,97.7858594 L129.714985,97.7858594 L129.714985,92.9462109 L133.126313,92.9462109 C134.79962,92.9554557 135.636274,93.8013542 135.636274,95.4839063 C135.636274,96.2142448 135.400532,96.7804883 134.929047,97.1826367 C134.457563,97.5847852 133.782693,97.7858594 132.904438,97.7858594 L132.904438,97.7858594 Z M157.192381,101.53 L157.192381,97.7858594 L148.71953,97.7858594 L148.71953,81.339375 L143.852147,81.339375 L143.852147,101.53 L157.192381,101.53 Z M173.839505,101.53 L173.839505,97.7858594 L164.798098,97.7858594 L164.798098,92.9739453 L172.452786,92.9739453 L172.452786,89.3546094 L164.798098,89.3546094 L164.798098,85.0973828 L173.867239,85.0973828 L173.867239,81.339375 L159.930716,81.339375 L159.930716,101.53 L173.839505,101.53 Z" id="MAKEUXASGOODASPOSSIBLE" fill="#000000" fill-rule="nonzero"></path>
            </g>
        </g>
    </g>
</svg>