<?xml version="1.0" encoding="UTF-8"?>
<svg width="337px" height="207px" viewBox="0 0 337 207" version="1.1" xmlns="http://www.w3.org/2000/svg" xmlns:xlink="http://www.w3.org/1999/xlink">
    <!-- Generator: Sketch 61.2 (89653) - https://sketch.com -->
    <title>m_ico_b_about03</title>
    <desc>Created with Sketch.</desc>
    <g id="Page-1" stroke="none" stroke-width="1" fill="none" fill-rule="evenodd">
        <g id="m_02about-" transform="translate(-295.000000, -9104.000000)">
            <g id="m_ico_b_about03" transform="translate(284.000000, 9100.000000)">
                <polygon id="Rectangle" fill="#FFFFFF" opacity="0" points="0 0 376 0 376 216 0 216"></polygon>
                <path d="M59.3875,208 L59.3875,137.325 L85.5125,137.325 L120.85,208 L172.55,208 L172.55,205.9375 L130.75,125.225 C142.758333,119.541667 151.58125,112.116667 157.21875,102.95 C162.85625,93.7833333 165.675,82.2333333 165.675,68.3 C165.675,49.05 158.983333,34.1541667 145.6,23.6125 C132.216667,13.0708333 113.654167,7.8 89.9125,7.8 L89.9125,7.8 L11.125,7.8 L11.125,208 L59.3875,208 Z M89.9125,100.0625 L59.3875,100.0625 L59.3875,45.0625 L89.9125,45.0625 C98.9875,45.0625 105.8625,47.5145833 110.5375,52.41875 C115.2125,57.3229167 117.55,64.0833333 117.55,72.7 C117.55,81.3166667 115.235417,88.03125 110.60625,92.84375 C105.977083,97.65625 99.0791667,100.0625 89.9125,100.0625 L89.9125,100.0625 Z" id="R" fill="#DDDDDD" fill-rule="nonzero"></path>
                <path d="M277.73,210.75 C290.838333,210.75 302.777917,207.747917 313.54875,201.74375 C324.319583,195.739583 332.707083,187.420833 338.71125,176.7875 C344.715417,166.154167 347.7175,154.466667 347.7175,141.725 C347.7175,121.191667 342.584167,104.6 332.3175,91.95 C322.050833,79.3 308.255,72.975 290.93,72.975 C274.98,72.975 261.78,78.1083333 251.33,88.375 C253.896667,73.6166667 260.74875,62.0895833 271.88625,53.79375 C283.02375,45.4979167 297.255,41.35 314.58,41.35 L314.58,41.35 L316.6425,41.35 L316.6425,4.9125 L309.63,4.9125 C289.646667,4.9125 271.450833,9.5875 255.0425,18.9375 C238.634167,28.2875 226.007083,41.1895833 217.16125,57.64375 C208.315417,74.0979167 203.8925,92.6375 203.8925,113.2625 L203.8925,113.2625 L203.8925,131.825 C204.075833,147.5 207.284167,161.341667 213.5175,173.35 C219.750833,185.358333 228.459167,194.59375 239.6425,201.05625 C250.825833,207.51875 263.521667,210.75 277.73,210.75 Z M276.4925,175 C258.984167,175 250.23,162.35 250.23,137.05 L250.23,137.05 L250.23,123.1625 C252.246667,119.0375 255.3175,115.554167 259.4425,112.7125 C263.5675,109.870833 268.700833,108.45 274.8425,108.45 C282.8175,108.45 289.21125,111.54375 294.02375,117.73125 C298.83625,123.91875 301.2425,131.916667 301.2425,141.725 C301.2425,151.258333 298.882083,159.1875 294.16125,165.5125 C289.440417,171.8375 283.550833,175 276.4925,175 Z" id="6" fill="#000000" fill-rule="nonzero"></path>
            </g>
        </g>
    </g>
</svg>