<?xml version="1.0" encoding="UTF-8"?>
<svg width="592px" height="266px" viewBox="0 0 592 266" version="1.1" xmlns="http://www.w3.org/2000/svg" xmlns:xlink="http://www.w3.org/1999/xlink">
    <title>m_ico_b_about01</title>
    <defs>
        <polygon id="path-1" points="40.3027344 159.709 40.3027344 149.689469 16.1074219 149.689469 16.1074219 136.812516 36.5917969 136.812516 36.5917969 127.126969 16.1074219 127.126969 16.1074219 115.734391 40.3769531 115.734391 40.3769531 105.67775 3.08203125 105.67775 3.08203125 159.709"></polygon>
    </defs>
    <g id="Publish_M" stroke="none" stroke-width="1" fill="none" fill-rule="evenodd">
        <g id="m_02about-" transform="translate(-64.000000, -1507.000000)" fill-rule="nonzero">
            <g id="m_ico_b_about01" transform="translate(64.000000, 1507.000000)">
                <path d="M23.234375,55.7421875 C27.5885417,55.7421875 31.3613281,54.9752604 34.5527344,53.4414062 C37.7441406,51.9075521 40.1933594,49.6748047 41.9003906,46.7431641 C43.6074219,43.8115234 44.4609375,40.3417969 44.4609375,36.3339844 L44.4609375,36.3339844 L44.4609375,0.96875 L31.4355469,0.96875 L31.4355469,36.2597656 C31.4355469,39.5996094 30.7428385,42.0117188 29.3574219,43.4960938 C27.9720052,44.9804688 25.9309896,45.7226562 23.234375,45.7226562 C17.890625,45.7226562 15.1445312,42.766276 14.9960938,36.8535156 L14.9960938,36.8535156 L14.9960938,0.96875 L1.89648438,0.96875 L1.89648438,36.59375 C1.97070312,42.53125 3.90039062,47.2070312 7.68554688,50.6210938 C11.4707031,54.0351562 16.6536458,55.7421875 23.234375,55.7421875 Z" id="U" fill="#FF3D32"></path>
                <polygon id="X" fill="#FF3D32" points="64.140625 159.709 73.2324219 141.414078 82.3242188 159.709 97.3535156 159.709 81.8417969 132.470719 96.9453125 105.67775 82.0644531 105.67775 73.2324219 123.638688 64.4003906 105.67775 49.5566406 105.67775 64.6230469 132.470719 49.1484375 159.709"></polygon>
                <g id="E">
                    <use fill="#ED4947" xlink:href="#path-1"></use>
                    <use fill="#000000" xlink:href="#path-1"></use>
                </g>
                <path d="M23.4570312,265.742188 C27.7617187,265.742188 31.5901693,264.950521 34.9423828,263.367188 C38.2945964,261.783854 40.8984375,259.551107 42.7539062,256.668945 C44.609375,253.786784 45.6236979,250.465495 45.796875,246.705078 L45.796875,246.705078 L32.8457031,246.705078 C32.7467448,249.772786 31.905599,252.011719 30.3222656,253.421875 C28.7389323,254.832031 26.4505208,255.537109 23.4570312,255.537109 C19.9192708,255.537109 17.4267578,254.30013 15.9794922,251.826172 C14.5322266,249.352214 13.8085938,245.233073 13.8085938,239.46875 L13.8085938,239.46875 L13.8085938,235.646484 C13.8828125,230.327474 14.6744792,226.455729 16.1835938,224.03125 C17.6927083,221.606771 20.0677083,220.394531 23.3085938,220.394531 C26.5,220.394531 28.875,221.111979 30.4335938,222.546875 C31.9921875,223.981771 32.8209635,226.344401 32.9199219,229.634766 L32.9199219,229.634766 L45.9082031,229.634766 C45.3639323,223.573568 43.1002604,218.817383 39.1171875,215.366211 C35.1341146,211.915039 29.8645833,210.189453 23.3085938,210.189453 C18.7565104,210.189453 14.7486979,211.27181 11.2851562,213.436523 C7.82161458,215.601237 5.16829427,218.668945 3.32519531,222.639648 C1.48209635,226.610352 0.560546875,231.242839 0.560546875,236.537109 L0.560546875,236.537109 L0.560546875,239.208984 C0.560546875,247.645182 2.6015625,254.176432 6.68359375,258.802734 C10.765625,263.429036 16.3567708,265.742188 23.4570312,265.742188 Z M80.1484375,265.742188 C84.75,265.742188 88.8505859,264.647461 92.4501953,262.458008 C96.0498047,260.268555 98.8268229,257.145182 100.78125,253.087891 C102.735677,249.030599 103.712891,244.367188 103.712891,239.097656 L103.712891,239.097656 L103.712891,236.611328 C103.688151,231.416016 102.680013,226.808268 100.688477,222.788086 C98.6969401,218.767904 95.9075521,215.669271 92.3203125,213.492188 C88.7330729,211.315104 84.6510417,210.226562 80.0742188,210.226562 C75.4479167,210.226562 71.3225911,211.327474 67.6982422,213.529297 C64.0738932,215.73112 61.2906901,218.854492 59.3486328,222.899414 C57.4065755,226.944336 56.4355469,231.613932 56.4355469,236.908203 L56.4355469,236.908203 L56.4355469,239.951172 C56.5345052,245.047526 57.5797526,249.5625 59.5712891,253.496094 C61.5628255,257.429688 64.3398438,260.454102 67.9023438,262.569336 C71.4648438,264.68457 75.546875,265.742188 80.1484375,265.742188 Z M80.1484375,255.574219 C76.6848958,255.574219 74.0748698,254.151693 72.3183594,251.306641 C70.561849,248.461589 69.6835938,244.391927 69.6835938,239.097656 L69.6835938,239.097656 L69.7207031,235.126953 C70.0917969,225.330078 73.5429688,220.431641 80.0742188,220.431641 C83.4140625,220.431641 85.9807943,221.823242 87.7744141,224.606445 C89.5680339,227.389648 90.4648438,231.465495 90.4648438,236.833984 L90.4648438,236.833984 L90.4648438,239.320312 C90.4401042,244.565104 89.5371094,248.585286 87.7558594,251.380859 C85.9746094,254.176432 83.4388021,255.574219 80.1484375,255.574219 Z M129.455078,265 L129.455078,231.378906 L148.603516,265 L161.554688,265 L161.554688,210.96875 L148.566406,210.96875 L148.566406,244.589844 L129.455078,210.96875 L116.429688,210.96875 L116.429688,265 L129.455078,265 Z M196.685547,265.742188 C202.895182,265.742188 207.78125,264.39388 211.34375,261.697266 C214.90625,259.000651 216.6875,255.289714 216.6875,250.564453 C216.6875,244.651693 213.768229,240.013021 207.929688,236.648438 C205.529948,235.263021 202.46224,233.970378 198.726562,232.770508 C194.990885,231.570638 192.380859,230.407878 190.896484,229.282227 C189.412109,228.156576 188.669922,226.901042 188.669922,225.515625 C188.669922,223.932292 189.344076,222.627279 190.692383,221.600586 C192.04069,220.573893 193.877604,220.060547 196.203125,220.060547 C198.503906,220.060547 200.328451,220.666667 201.676758,221.878906 C203.025065,223.091146 203.699219,224.798177 203.699219,227 L203.699219,227 L216.6875,227 C216.6875,223.709635 215.833984,220.78418 214.126953,218.223633 C212.419922,215.663086 210.026367,213.690104 206.946289,212.304688 C203.866211,210.919271 200.384115,210.226562 196.5,210.226562 C192.516927,210.226562 188.929688,210.863607 185.738281,212.137695 C182.546875,213.411784 180.079102,215.193034 178.334961,217.481445 C176.59082,219.769857 175.71875,222.410807 175.71875,225.404297 C175.71875,231.416016 179.219401,236.141276 186.220703,239.580078 C188.373047,240.64388 191.14388,241.744792 194.533203,242.882812 C197.922526,244.020833 200.291341,245.121745 201.639648,246.185547 C202.987956,247.249349 203.662109,248.733724 203.662109,250.638672 C203.662109,252.320964 203.037435,253.625977 201.788086,254.553711 C200.538737,255.481445 198.837891,255.945312 196.685547,255.945312 C193.320964,255.945312 190.890299,255.258789 189.393555,253.885742 C187.89681,252.512695 187.148438,250.378906 187.148438,247.484375 L187.148438,247.484375 L174.085938,247.484375 C174.085938,251.046875 174.982747,254.194987 176.776367,256.928711 C178.569987,259.662435 181.241862,261.814779 184.791992,263.385742 C188.342122,264.956706 192.306641,265.742188 196.685547,265.742188 Z M250.519531,265.742188 C254.873698,265.742188 258.646484,264.97526 261.837891,263.441406 C265.029297,261.907552 267.478516,259.674805 269.185547,256.743164 C270.892578,253.811523 271.746094,250.341797 271.746094,246.333984 L271.746094,246.333984 L271.746094,210.96875 L258.720703,210.96875 L258.720703,246.259766 C258.720703,249.599609 258.027995,252.011719 256.642578,253.496094 C255.257161,254.980469 253.216146,255.722656 250.519531,255.722656 C245.175781,255.722656 242.429688,252.766276 242.28125,246.853516 L242.28125,246.853516 L242.28125,210.96875 L229.181641,210.96875 L229.181641,246.59375 C229.255859,252.53125 231.185547,257.207031 234.970703,260.621094 C238.755859,264.035156 243.938802,265.742188 250.519531,265.742188 Z M321.572266,265 L321.572266,254.980469 L298.898438,254.980469 L298.898438,210.96875 L285.873047,210.96875 L285.873047,265 L321.572266,265 Z M351.65625,265 L351.65625,221.025391 L367.873047,221.025391 L367.873047,210.96875 L322.710938,210.96875 L322.710938,221.025391 L338.630859,221.025391 L338.630859,265 L351.65625,265 Z M384.634766,265 L387.751953,254.90625 L405.601562,254.90625 L408.755859,265 L422.746094,265 L402.78125,210.96875 L390.535156,210.96875 L370.71875,265 L384.634766,265 Z M402.484375,244.849609 L390.869141,244.849609 L396.658203,226.109375 L402.484375,244.849609 Z M445.705078,265 L445.705078,231.378906 L464.853516,265 L477.804688,265 L477.804688,210.96875 L464.816406,210.96875 L464.816406,244.589844 L445.705078,210.96875 L432.679688,210.96875 L432.679688,265 L445.705078,265 Z M513.417969,265.742188 C517.722656,265.742188 521.551107,264.950521 524.90332,263.367188 C528.255534,261.783854 530.859375,259.551107 532.714844,256.668945 C534.570312,253.786784 535.584635,250.465495 535.757812,246.705078 L535.757812,246.705078 L522.806641,246.705078 C522.707682,249.772786 521.866536,252.011719 520.283203,253.421875 C518.69987,254.832031 516.411458,255.537109 513.417969,255.537109 C509.880208,255.537109 507.387695,254.30013 505.94043,251.826172 C504.493164,249.352214 503.769531,245.233073 503.769531,239.46875 L503.769531,239.46875 L503.769531,235.646484 C503.84375,230.327474 504.635417,226.455729 506.144531,224.03125 C507.653646,221.606771 510.028646,220.394531 513.269531,220.394531 C516.460938,220.394531 518.835938,221.111979 520.394531,222.546875 C521.953125,223.981771 522.781901,226.344401 522.880859,229.634766 L522.880859,229.634766 L535.869141,229.634766 C535.32487,223.573568 533.061198,218.817383 529.078125,215.366211 C525.095052,211.915039 519.825521,210.189453 513.269531,210.189453 C508.717448,210.189453 504.709635,211.27181 501.246094,213.436523 C497.782552,215.601237 495.129232,218.668945 493.286133,222.639648 C491.443034,226.610352 490.521484,231.242839 490.521484,236.537109 L490.521484,236.537109 L490.521484,239.208984 C490.521484,247.645182 492.5625,254.176432 496.644531,258.802734 C500.726562,263.429036 506.317708,265.742188 513.417969,265.742188 Z M574.302734,265 L574.302734,245.591797 L591.707031,210.96875 L577.642578,210.96875 L567.697266,234.421875 L557.714844,210.96875 L543.724609,210.96875 L561.091797,245.591797 L561.091797,265 L574.302734,265 Z" id="CONSULTANCY" fill="#000000"></path>
                <path d="M207.308594,160 L207.308594,141.667969 L215.621094,141.667969 C222.201823,141.667969 227.378581,140.09082 231.151367,136.936523 C234.924154,133.782227 236.810547,129.570312 236.810547,124.300781 C236.810547,120.738281 235.938477,117.55306 234.194336,114.745117 C232.450195,111.937174 229.988607,109.772461 226.80957,108.250977 C223.630534,106.729492 219.97526,105.96875 215.84375,105.96875 L215.84375,105.96875 L194.283203,105.96875 L194.283203,160 L207.308594,160 Z M215.84375,131.611328 L207.308594,131.611328 L207.308594,116.025391 L215.992188,116.025391 C218.342448,116.05013 220.197917,116.817057 221.558594,118.326172 C222.919271,119.835286 223.599609,121.851562 223.599609,124.375 C223.599609,126.675781 222.937826,128.457031 221.614258,129.71875 C220.29069,130.980469 218.367188,131.611328 215.84375,131.611328 L215.84375,131.611328 Z M286.970703,160 L286.970703,149.980469 L262.775391,149.980469 L262.775391,137.103516 L283.259766,137.103516 L283.259766,127.417969 L262.775391,127.417969 L262.775391,116.025391 L287.044922,116.025391 L287.044922,105.96875 L249.75,105.96875 L249.75,160 L286.970703,160 Z M311.302734,160 L311.302734,140.925781 L318.353516,140.925781 L327.890625,160 L341.84375,160 L341.84375,159.443359 L330.5625,137.660156 C333.803385,136.126302 336.18457,134.122396 337.706055,131.648438 C339.227539,129.174479 339.988281,126.057292 339.988281,122.296875 C339.988281,117.101562 338.182292,113.08138 334.570312,110.236328 C330.958333,107.391276 325.948568,105.96875 319.541016,105.96875 L319.541016,105.96875 L298.277344,105.96875 L298.277344,160 L311.302734,160 Z M319.541016,130.869141 L311.302734,130.869141 L311.302734,116.025391 L319.541016,116.025391 C321.990234,116.025391 323.845703,116.687174 325.107422,118.010742 C326.369141,119.33431 327,121.158854 327,123.484375 C327,125.809896 326.375326,127.62207 325.125977,128.920898 C323.876628,130.219727 322.014974,130.869141 319.541016,130.869141 L319.541016,130.869141 Z M367.734375,160 L367.734375,105.96875 L354.746094,105.96875 L354.746094,160 L367.734375,160 Z M420.009766,160 L420.009766,149.980469 L395.814453,149.980469 L395.814453,137.103516 L416.298828,137.103516 L416.298828,127.417969 L395.814453,127.417969 L395.814453,116.025391 L420.083984,116.025391 L420.083984,105.96875 L382.789062,105.96875 L382.789062,160 L420.009766,160 Z M444.341797,160 L444.341797,126.378906 L463.490234,160 L476.441406,160 L476.441406,105.96875 L463.453125,105.96875 L463.453125,139.589844 L444.341797,105.96875 L431.316406,105.96875 L431.316406,160 L444.341797,160 Z M512.054688,160.742188 C516.359375,160.742188 520.187826,159.950521 523.540039,158.367188 C526.892253,156.783854 529.496094,154.551107 531.351562,151.668945 C533.207031,148.786784 534.221354,145.465495 534.394531,141.705078 L534.394531,141.705078 L521.443359,141.705078 C521.344401,144.772786 520.503255,147.011719 518.919922,148.421875 C517.336589,149.832031 515.048177,150.537109 512.054688,150.537109 C508.516927,150.537109 506.024414,149.30013 504.577148,146.826172 C503.129883,144.352214 502.40625,140.233073 502.40625,134.46875 L502.40625,134.46875 L502.40625,130.646484 C502.480469,125.327474 503.272135,121.455729 504.78125,119.03125 C506.290365,116.606771 508.665365,115.394531 511.90625,115.394531 C515.097656,115.394531 517.472656,116.111979 519.03125,117.546875 C520.589844,118.981771 521.41862,121.344401 521.517578,124.634766 L521.517578,124.634766 L534.505859,124.634766 C533.961589,118.573568 531.697917,113.817383 527.714844,110.366211 C523.731771,106.915039 518.46224,105.189453 511.90625,105.189453 C507.354167,105.189453 503.346354,106.27181 499.882812,108.436523 C496.419271,110.601237 493.765951,113.668945 491.922852,117.639648 C490.079753,121.610352 489.158203,126.242839 489.158203,131.537109 L489.158203,131.537109 L489.158203,134.208984 C489.158203,142.645182 491.199219,149.176432 495.28125,153.802734 C499.363281,158.429036 504.954427,160.742188 512.054688,160.742188 Z M583.775391,160 L583.775391,149.980469 L559.580078,149.980469 L559.580078,137.103516 L580.064453,137.103516 L580.064453,127.417969 L559.580078,127.417969 L559.580078,116.025391 L583.849609,116.025391 L583.849609,105.96875 L546.554688,105.96875 L546.554688,160 L583.775391,160 Z" id="PERIENCE" fill="#000000"></path>
                <path d="M465.294922,55.7421875 C471.504557,55.7421875 476.390625,54.3938802 479.953125,51.6972656 C483.515625,49.000651 485.296875,45.2897135 485.296875,40.5644531 C485.296875,34.6516927 482.377604,30.0130208 476.539062,26.6484375 C474.139323,25.2630208 471.071615,23.9703776 467.335938,22.7705078 C463.60026,21.570638 460.990234,20.4078776 459.505859,19.2822266 C458.021484,18.1565755 457.279297,16.9010417 457.279297,15.515625 C457.279297,13.9322917 457.953451,12.6272786 459.301758,11.6005859 C460.650065,10.5738932 462.486979,10.0605469 464.8125,10.0605469 C467.113281,10.0605469 468.937826,10.6666667 470.286133,11.8789062 C471.63444,13.0911458 472.308594,14.7981771 472.308594,17 L472.308594,17 L485.296875,17 C485.296875,13.7096354 484.443359,10.7841797 482.736328,8.22363281 C481.029297,5.66308594 478.635742,3.69010417 475.555664,2.3046875 C472.475586,0.919270833 468.99349,0.2265625 465.109375,0.2265625 C461.126302,0.2265625 457.539062,0.863606771 454.347656,2.13769531 C451.15625,3.41178385 448.688477,5.19303385 446.944336,7.48144531 C445.200195,9.76985677 444.328125,12.4108073 444.328125,15.4042969 C444.328125,21.4160156 447.828776,26.141276 454.830078,29.5800781 C456.982422,30.6438802 459.753255,31.7447917 463.142578,32.8828125 C466.531901,34.0208333 468.900716,35.1217448 470.249023,36.1855469 C471.597331,37.249349 472.271484,38.733724 472.271484,40.6386719 C472.271484,42.3209635 471.64681,43.6259766 470.397461,44.5537109 C469.148112,45.4814453 467.447266,45.9453125 465.294922,45.9453125 C461.930339,45.9453125 459.499674,45.2587891 458.00293,43.8857422 C456.506185,42.5126953 455.757812,40.3789062 455.757812,37.484375 L455.757812,37.484375 L442.695312,37.484375 C442.695312,41.046875 443.592122,44.194987 445.385742,46.9287109 C447.179362,49.6624349 449.851237,51.8147786 453.401367,53.3857422 C456.951497,54.9567057 460.916016,55.7421875 465.294922,55.7421875 Z M535.197266,55 L535.197266,44.9804688 L511.001953,44.9804688 L511.001953,32.1035156 L531.486328,32.1035156 L531.486328,22.4179688 L511.001953,22.4179688 L511.001953,11.0253906 L535.271484,11.0253906 L535.271484,0.96875 L497.976562,0.96875 L497.976562,55 L535.197266,55 Z M559.529297,55 L559.529297,35.9257812 L566.580078,35.9257812 L576.117188,55 L590.070312,55 L590.070312,54.4433594 L578.789062,32.6601562 C582.029948,31.1263021 584.411133,29.1223958 585.932617,26.6484375 C587.454102,24.1744792 588.214844,21.0572917 588.214844,17.296875 C588.214844,12.1015625 586.408854,8.08138021 582.796875,5.23632812 C579.184896,2.39127604 574.17513,0.96875 567.767578,0.96875 L567.767578,0.96875 L546.503906,0.96875 L546.503906,55 L559.529297,55 Z M567.767578,25.8691406 L559.529297,25.8691406 L559.529297,11.0253906 L567.767578,11.0253906 C570.216797,11.0253906 572.072266,11.6871745 573.333984,13.0107422 C574.595703,14.3343099 575.226562,16.1588542 575.226562,18.484375 C575.226562,20.8098958 574.601888,22.6220703 573.352539,23.9208984 C572.10319,25.2197266 570.241536,25.8691406 567.767578,25.8691406 L567.767578,25.8691406 Z" id="SER" fill="#000000"></path>
            </g>
        </g>
    </g>
</svg>