<?xml version="1.0" encoding="UTF-8"?>
<svg width="377px" height="183px" viewBox="0 0 377 183" version="1.1" xmlns="http://www.w3.org/2000/svg" xmlns:xlink="http://www.w3.org/1999/xlink">
    <!-- Generator: Sketch 64 (93537) - https://sketch.com -->
    <title>Group 5</title>
    <desc>Created with Sketch.</desc>
    <g id="Publish_M" stroke="none" stroke-width="1" fill="none" fill-rule="evenodd">
        <g id="m_05contact" transform="translate(-331.000000, -794.000000)">
            <g id="Group-5" transform="translate(331.000000, 794.000000)">
                <g id="pc_ico_contact_03_1" stroke="#000000" stroke-width="4">
                    <circle id="Oval-Copy-3" cx="91.5" cy="91.5" r="89.5"></circle>
                </g>
                <g id="Group-4" transform="translate(194.000000, 0.000000)">
                    <g id="m_ico_contact_03_2" transform="translate(25.000000, 24.000000)">
                        <rect id="Rectangle" fill="#D8D8D8" opacity="0" x="0" y="1.36424205e-12" width="158" height="158"></rect>
                        <path d="M1,132.077621 C36.9062123,167.983833 95.1328159,167.972702 131.052759,132.052759 C166.972702,96.1328159 166.983833,37.9062123 131.077621,2 L1,132.077621 Z" id="Mask" fill="#000000" fill-rule="nonzero"></path>
                    </g>
                    <g id="m_ico_contact_03_3" fill="#000000" fill-rule="nonzero">
                        <path d="M153.977352,24.1810822 C154.693784,24.839883 155.402283,25.5121459 156.102524,26.1978708 L156.8,26.888083 L26.888083,156.8 C25.9618169,155.873734 25.0594833,154.932595 24.1810822,153.977352 L153.977352,24.1810822 Z M148.104564,19.2147725 C149.28098,20.1282449 150.440283,21.0742883 151.581254,22.052903 L22.0522154,151.580453 C21.0738452,150.43974 20.128031,149.280704 19.2147725,148.104564 L148.104564,19.2147725 Z M142.250709,15.0271811 C143.352007,15.7512292 144.441146,16.501443 145.517249,17.2778226 L17.2778226,145.517249 C16.501443,144.441146 15.7512292,143.352007 15.0271811,142.250709 L142.250709,15.0271811 Z M135.46391,10.9752084 C136.817117,11.7054418 138.15585,12.4721155 139.478667,13.2752298 L13.2752298,139.478667 C12.4721155,138.15585 11.7054418,136.817117 10.9752084,135.46391 L135.46391,10.9752084 Z M128.714244,7.68459161 C129.979255,8.23801608 131.234331,8.82133332 132.478397,9.43454356 L9.43454356,132.478397 C8.82133332,131.234331 8.23801608,129.979255 7.68459161,128.714244 L128.714244,7.68459161 Z M120.88042,4.67846811 C122.437314,5.1952176 123.983103,5.75477509 125.515947,6.35714092 L6.35714092,125.515947 C5.75477509,123.983103 5.1952176,122.437314 4.67846811,120.88042 L120.88042,4.67846811 Z M113.056673,2.46200465 C114.520424,2.80739244 115.977331,3.18912078 117.425959,3.60718996 L3.60718996,117.425959 C3.18912078,115.977331 2.80739244,114.520424 2.46200465,113.056673 L113.056673,2.46200465 Z M103.893185,0.784503946 C105.711776,1.02311881 107.524572,1.3161669 109.32894,1.66364872 L1.66364872,109.32894 C1.3161669,107.524572 1.02311881,105.711776 0.784503946,103.893185 L103.893185,0.784503946 Z M93.8168419,0.0203129027 C95.8173428,0.0622632809 97.8167117,0.169190936 99.811512,0.341096525 L0.341096525,99.811512 C0.169190936,97.8167117 0.0622632809,95.8173428 0.0203129027,93.8168419 L93.8168419,0.0203129027 Z M89.2765902,0.036654618 L0.036654618,89.2765902 C0.0918080436,87.3189046 0.20920252,85.3626249 0.38883743,83.410973 L83.410973,0.38883743 C84.9722945,0.245129502 86.5365778,0.141255451 88.1021733,0.0772155945 L89.2765902,0.036654618 Z M78.2634709,1.00887552 L1.00887552,78.2634709 C1.40051029,75.6363471 1.90616553,73.0229035 2.52583971,70.4311291 L70.4311291,2.52583971 C72.65265,1.99469041 74.8900912,1.54731013 77.1384216,1.18369983 L78.2634709,1.00887552 Z M64.1766719,4.25712448 L4.25712448,64.1766719 C5.19499862,61.2022215 6.28783548,58.2660214 7.53563262,55.3807296 L55.3807296,7.53563262 C57.9454334,6.4264796 60.5503611,5.43976435 63.1866225,4.57548855 L64.1766719,4.25712448 Z M46.3291869,12.061934 L12.061934,46.3291869 C16.0321797,39.3825151 20.9825189,32.8433076 26.9129133,26.9129133 C32.8433076,20.9825189 39.3825151,16.0321797 46.3291869,12.061934 Z" id="Shape"></path>
                    </g>
                </g>
            </g>
        </g>
    </g>
</svg>