<?xml version="1.0" encoding="UTF-8"?>
<svg width="168px" height="168px" viewBox="0 0 168 168" version="1.1" xmlns="http://www.w3.org/2000/svg" xmlns:xlink="http://www.w3.org/1999/xlink">
    <!-- Generator: Sketch 64 (93537) - https://sketch.com -->
    <title>m_ico_m_about07_1</title>
    <desc>Created with Sketch.</desc>
    <defs>
        <path d="M104.026576,165.597939 C97.6087171,167.167679 90.901558,168 84,168 C77.0983979,168 70.3911972,167.167668 63.9733011,165.597909 Z M124.520539,157.598234 C121.839387,159.077528 119.068762,160.414572 116.218838,161.599191 L51.7811622,161.599191 C48.9312381,160.414572 46.1606126,159.077528 43.4794613,157.598234 Z M136.47337,149.597734 C134.72089,151.00141 132.910946,152.336316 131.047627,153.598361 L36.9527959,153.598647 C35.0892552,152.336469 33.2791005,151.001412 31.5264245,149.597569 Z M145.144637,141.596637 C143.845629,142.975153 142.500521,144.309745 141.111778,145.597949 L26.8887617,145.59845 C25.499827,144.31009 24.1545392,142.975331 22.8553631,141.596637 Z M151.802342,133.596388 C150.801876,134.961789 149.761161,136.295849 148.681945,137.596821 L19.3180555,137.596821 C18.2388391,136.295849 17.198124,134.961789 16.1976575,133.596388 Z M156.993534,125.597695 C156.218315,126.955083 155.406324,128.28876 154.558919,129.597369 L13.4410811,129.597369 C12.5936757,128.28876 11.781685,126.955083 11.0064658,125.597695 Z M161.011516,117.597598 C160.420763,118.949802 159.79544,120.283447 159.136665,121.597415 L8.86333518,121.597415 C8.2045596,120.283447 7.57923696,118.949802 6.98848435,117.597598 Z M164.028612,109.59721 C163.597618,110.945822 163.133479,112.27962 162.637154,113.597647 L5.36284645,113.597647 C4.86652102,112.27962 4.40238203,110.945822 3.97138754,109.59721 Z M166.154033,101.596214 C165.86719,102.941965 165.548118,104.275785 165.197663,105.596828 L2.8023365,105.596828 C2.45188176,104.275785 2.13280967,102.941965 1.84596673,101.596214 Z M167.457842,93.5963112 C167.305084,94.9395132 167.120647,96.2731022 166.905294,97.5963128 L1.09470569,97.5963128 C0.879353479,96.2731022 0.69491566,94.9395132 0.542157666,93.5963112 Z M167.985131,85.5965415 C167.960132,86.9376789 167.903701,88.2711305 167.816545,89.5961906 L0.183454854,89.5961906 C0.0962988025,88.2711305 0.0398681934,86.9376789 0.014868763,85.5965415 Z M167.75954,77.5961005 C167.859418,78.9210219 167.928561,80.2545212 167.966258,81.5958874 L0.0337416905,81.5958874 C0.071438903,80.2545212 0.140582172,78.9210219 0.240460451,77.5961005 Z M166.769782,69.5959749 C166.998386,70.9188765 167.196048,72.2523758 167.361994,73.5957003 L0.638006496,73.5957003 C0.803952318,72.2523758 1.00161352,70.9188765 1.23021778,69.5959749 Z M164.979068,61.5955498 C165.343668,62.9162808 165.676823,64.2500592 165.977677,65.5960288 L2.02232327,65.5960288 C2.32317736,64.2500592 2.65633218,62.9162808 3.02093163,61.5955498 Z M162.328652,53.5957922 C162.840468,54.9134247 163.319996,56.2471734 163.766264,57.5960669 L4.23373593,57.5960669 C4.68000371,56.2471734 5.15953157,54.9134247 5.67134803,53.5957922 Z M158.726509,45.5954299 C159.402948,46.9089733 160.04577,48.2426584 160.653838,49.5953483 L7.34616173,49.5953483 C7.95423015,48.2426584 8.5970523,46.9089733 9.27349117,45.5954299 Z M154.030255,37.5964049 C154.898498,38.9040944 155.73109,40.2375029 156.526647,41.5952436 L11.4733532,41.5952436 C12.2689095,40.2375029 13.1015023,38.9040944 13.9697446,37.5964049 Z M148.003313,29.5954265 C149.109222,30.8951831 150.176242,32.2290519 151.202571,33.5952336 L16.7974285,33.5952336 C17.8237585,32.2290519 18.8907777,30.8951831 19.9966868,29.5954265 Z M140.228632,21.5943987 C141.65538,22.8807503 143.037794,24.2153335 144.373303,25.5955793 L23.6266969,25.5955793 C24.9620153,24.2155309 26.3442245,22.881132 27.7707564,21.5949505 Z M129.832807,13.5940999 C131.761594,14.8522681 133.635492,16.1875504 135.450127,17.5955721 L32.5500876,17.5954054 C34.3646559,16.187445 36.2384825,14.8522184 38.167193,13.5940999 Z M114.209906,5.59615343 C117.235675,6.76278196 120.176912,8.09952126 123.021897,9.5946497 L44.9781032,9.5946497 C47.823088,8.09952126 50.7643253,6.76278196 53.7900936,5.59615343 Z M84,-4.54747351e-13 C89.6048363,-4.54747351e-13 95.0814616,0.54893683 100.379046,1.59598054 L67.6209541,1.59598054 C72.9185384,0.54893683 78.3951637,-4.54747351e-13 84,-4.54747351e-13 Z" id="path-1"></path>
    </defs>
    <g id="Publish_M" stroke="none" stroke-width="1" fill="none" fill-rule="evenodd">
        <g id="m_02about-" transform="translate(-370.000000, -5707.000000)">
            <g id="m_ico_m_about07_1" transform="translate(370.000000, 5707.000000)">
                <mask id="mask-2" fill="white">
                    <use xlink:href="#path-1"></use>
                </mask>
                <use id="Combined-Shape" fill="#000000" xlink:href="#path-1"></use>
            </g>
        </g>
    </g>
</svg>