<?xml version="1.0" encoding="UTF-8"?>
<svg width="580px" height="149px" viewBox="0 0 580 149" version="1.1" xmlns="http://www.w3.org/2000/svg" xmlns:xlink="http://www.w3.org/1999/xlink">
    <!-- Generator: Sketch 61.2 (89653) - https://sketch.com -->
    <title>m_ico_contact_01</title>
    <desc>Created with Sketch.</desc>
    <g id="Page-1" stroke="none" stroke-width="1" fill="none" fill-rule="evenodd">
        <g id="m_05contact" transform="translate(-69.000000, -297.000000)">
            <g id="m_ico_contact_01" transform="translate(60.000000, 286.000000)">
                <polygon id="Rectangle" fill="#494949" opacity="0" points="0 0 596 0 596 170 0 170"></polygon>
                <path d="M33.4296875,60.5820312 L33.4296875,46.0722656 L46.0839844,46.0722656 L46.0839844,35.3476562 L33.4296875,35.3476562 L33.4296875,21.2460938 L21.7402344,21.2460938 L21.7402344,35.3476562 L9.04882812,35.3476562 L9.04882812,46.0722656 L21.7402344,46.0722656 L21.7402344,60.5820312 L33.4296875,60.5820312 Z M75.0566406,66.7421875 C80.8951823,66.7421875 85.4781901,65.344401 88.8056641,62.5488281 C92.133138,59.7532552 93.796875,55.9433594 93.796875,51.1191406 C93.796875,48.125651 93.0423177,45.5341797 91.5332031,43.3447266 C90.0240885,41.1552734 87.9830729,39.4296875 85.4101562,38.1679688 C87.6861979,36.9557292 89.4736328,35.3476562 90.7724609,33.34375 C92.0712891,31.3398438 92.7207031,29.0266927 92.7207031,26.4042969 C92.7207031,21.703776 91.125,17.9928385 87.9335938,15.2714844 C84.7421875,12.5501302 80.4127604,11.1894531 74.9453125,11.1894531 C69.5273438,11.1894531 65.2226562,12.5501302 62.03125,15.2714844 C58.8398438,17.9928385 57.2441406,21.703776 57.2441406,26.4042969 C57.2441406,29.0266927 57.8997396,31.3398438 59.2109375,33.34375 C60.5221354,35.3476562 62.328125,36.9557292 64.6289062,38.1679688 C61.9075521,39.4544271 59.8046875,41.2109375 58.3203125,43.4375 C56.8359375,45.6640625 56.09375,48.2246094 56.09375,51.1191406 C56.09375,55.9186198 57.7884115,59.7223307 61.1777344,62.5302734 C64.5670573,65.3382161 69.1933594,66.7421875 75.0566406,66.7421875 Z M75.0566406,33.5292969 C73.3248698,33.5292969 72.0136719,32.9355469 71.1230469,31.7480469 C70.2324219,30.5605469 69.7871094,29.0019531 69.7871094,27.0722656 C69.7871094,25.1178385 70.226237,23.5901693 71.1044922,22.4892578 C71.9827474,21.3883464 73.2630208,20.8378906 74.9453125,20.8378906 C76.6770833,20.8378906 77.9820964,21.3945312 78.8603516,22.5078125 C79.7386068,23.6210938 80.1777344,25.1425781 80.1777344,27.0722656 C80.1777344,29.0019531 79.7509766,30.5605469 78.8974609,31.7480469 C78.0439453,32.9355469 76.7636719,33.5292969 75.0566406,33.5292969 Z M75.0566406,57.09375 C73.1516927,57.09375 71.6116536,56.4690755 70.4365234,55.2197266 C69.2613932,53.9703776 68.6738281,52.2695312 68.6738281,50.1171875 C68.6738281,47.890625 69.2552083,46.1774089 70.4179688,44.9775391 C71.5807292,43.7776693 73.1022135,43.1777344 74.9824219,43.1777344 C76.8626302,43.1777344 78.3779297,43.7776693 79.5283203,44.9775391 C80.6787109,46.1774089 81.2539062,47.890625 81.2539062,50.1171875 C81.2539062,52.2942708 80.6848958,54.0013021 79.546875,55.2382812 C78.4088542,56.4752604 76.9121094,57.09375 75.0566406,57.09375 Z M142.994141,66 L142.994141,56.3515625 L121.730469,56.3515625 L128.707031,48.2988281 C132.417969,44.5878906 135.108398,41.6253255 136.77832,39.4111328 C138.448242,37.1969401 139.679036,35.0817057 140.470703,33.0654297 C141.26237,31.0491536 141.658203,28.9772135 141.658203,26.8496094 C141.658203,21.8027344 140.081055,17.9309896 136.926758,15.234375 C133.772461,12.5377604 129.276042,11.1894531 123.4375,11.1894531 C119.800781,11.1894531 116.510417,11.9811198 113.566406,13.5644531 C110.622396,15.1477865 108.321615,17.3434245 106.664062,20.1513672 C105.00651,22.9593099 104.177734,26.0208333 104.177734,29.3359375 L104.177734,29.3359375 L116.720703,29.3359375 C116.720703,26.9114583 117.314453,24.8889974 118.501953,23.2685547 C119.689453,21.648112 121.235677,20.8378906 123.140625,20.8378906 C125.070312,20.8378906 126.542318,21.4440104 127.556641,22.65625 C128.570964,23.8684896 129.078125,25.6373698 129.078125,27.9628906 C129.078125,30.8326823 126.938151,34.7044271 122.658203,39.578125 L122.658203,39.578125 L105.291016,57.8359375 L105.291016,66 L142.994141,66 Z" id="+82" fill="#000000" fill-rule="nonzero"></path>
                <path d="M352.019531,66.7421875 C357.981771,66.7421875 362.601888,64.7630208 365.879883,60.8046875 C369.157878,56.8463542 370.796875,51.218099 370.796875,43.9199219 L370.796875,43.9199219 L370.796875,34.0859375 C370.796875,26.8125 369.151693,21.1842448 365.861328,17.2011719 C362.570964,13.218099 357.932292,11.2265625 351.945312,11.2265625 C345.958333,11.2265625 341.325846,13.2057292 338.047852,17.1640625 C334.769857,21.1223958 333.130859,26.750651 333.130859,34.0488281 L333.130859,34.0488281 L333.130859,43.9199219 C333.130859,51.1686198 334.776042,56.7845052 338.066406,60.7675781 C341.356771,64.750651 346.007812,66.7421875 352.019531,66.7421875 Z M352.019531,57.09375 C349.817708,57.09375 348.209635,56.1598307 347.195312,54.2919922 C346.18099,52.4241536 345.673828,49.4739583 345.673828,45.4414062 L345.673828,45.4414062 L345.673828,31.6367188 C345.748047,28.0247396 346.273763,25.328125 347.250977,23.546875 C348.22819,21.765625 349.792969,20.875 351.945312,20.875 C354.147135,20.875 355.755208,21.8336589 356.769531,23.7509766 C357.783854,25.6682943 358.291016,28.5690104 358.291016,32.453125 L358.291016,32.453125 L358.291016,45.8125 C358.266276,49.6966146 357.746745,52.5478516 356.732422,54.3662109 C355.718099,56.1845703 354.147135,57.09375 352.019531,57.09375 Z M419.994141,66 L419.994141,56.3515625 L398.730469,56.3515625 L405.707031,48.2988281 C409.417969,44.5878906 412.108398,41.6253255 413.77832,39.4111328 C415.448242,37.1969401 416.679036,35.0817057 417.470703,33.0654297 C418.26237,31.0491536 418.658203,28.9772135 418.658203,26.8496094 C418.658203,21.8027344 417.081055,17.9309896 413.926758,15.234375 C410.772461,12.5377604 406.276042,11.1894531 400.4375,11.1894531 C396.800781,11.1894531 393.510417,11.9811198 390.566406,13.5644531 C387.622396,15.1477865 385.321615,17.3434245 383.664062,20.1513672 C382.00651,22.9593099 381.177734,26.0208333 381.177734,29.3359375 L381.177734,29.3359375 L393.720703,29.3359375 C393.720703,26.9114583 394.314453,24.8889974 395.501953,23.2685547 C396.689453,21.648112 398.235677,20.8378906 400.140625,20.8378906 C402.070312,20.8378906 403.542318,21.4440104 404.556641,22.65625 C405.570964,23.8684896 406.078125,25.6373698 406.078125,27.9628906 C406.078125,30.8326823 403.938151,34.7044271 399.658203,39.578125 L399.658203,39.578125 L382.291016,57.8359375 L382.291016,66 L419.994141,66 Z" id="02" fill="#000000" fill-rule="nonzero"></path>
                <path d="M469.583203,66.7421875 C475.619661,66.7421875 480.493359,65.2949219 484.204296,62.4003906 C487.915234,59.5058594 489.770703,55.6464844 489.770703,50.8222656 C489.770703,47.7050781 488.954296,45.0888672 487.321484,42.9736328 C485.688671,40.8583984 483.437369,39.28125 480.567578,38.2421875 C483.288932,36.9557292 485.360872,35.2796224 486.783398,33.2138672 C488.205924,31.148112 488.917187,28.952474 488.917187,26.6269531 C488.917187,21.827474 487.197786,18.0546875 483.758984,15.3085938 C480.320182,12.5625 475.594921,11.1894531 469.583203,11.1894531 C466.218619,11.1894531 463.132356,11.8141276 460.324413,13.0634766 C457.516471,14.3128255 455.320833,16.0507812 453.737499,18.2773438 C452.154166,20.5039062 451.362499,23.0397135 451.362499,25.8847656 L451.362499,25.8847656 L463.868359,25.8847656 C463.868359,24.4498698 464.480663,23.25 465.705273,22.2851562 C466.929882,21.3203125 468.370963,20.8378906 470.028515,20.8378906 C472.057161,20.8378906 473.628124,21.4007161 474.741406,22.5263672 C475.854687,23.6520182 476.411328,25.1054688 476.411328,26.8867188 C476.411328,31.4635417 474.073437,33.7519531 469.397656,33.7519531 L469.397656,33.7519531 L463.497265,33.7519531 L463.497265,43.0664062 L469.583203,43.0664062 C471.982942,43.0664062 473.86315,43.6354167 475.223828,44.7734375 C476.584505,45.9114583 477.264843,47.8411458 477.264843,50.5625 C477.264843,52.4674479 476.609244,54.0322266 475.298046,55.2568359 C473.986848,56.4814453 472.230338,57.09375 470.028515,57.09375 C468.074088,57.09375 466.428906,56.4876302 465.092968,55.2753906 C463.757031,54.063151 463.089062,52.6282552 463.089062,50.9707031 L463.089062,50.9707031 L450.508984,50.9707031 C450.508984,54.0136719 451.288281,56.7288411 452.846874,59.1162109 C454.405468,61.5035807 456.700065,63.3714193 459.730663,64.7197266 C462.761262,66.0680339 466.045442,66.7421875 469.583203,66.7421875 Z M538.849088,66 L538.849088,56.3515625 L517.585416,56.3515625 L524.561979,48.2988281 C528.272916,44.5878906 530.963346,41.6253255 532.633268,39.4111328 C534.30319,37.1969401 535.533984,35.0817057 536.325651,33.0654297 C537.117317,31.0491536 537.513151,28.9772135 537.513151,26.8496094 C537.513151,21.8027344 535.936002,17.9309896 532.781705,15.234375 C529.627408,12.5377604 525.130989,11.1894531 519.292448,11.1894531 C515.655729,11.1894531 512.365364,11.9811198 509.421354,13.5644531 C506.477343,15.1477865 504.176562,17.3434245 502.51901,20.1513672 C500.861458,22.9593099 500.032682,26.0208333 500.032682,29.3359375 L500.032682,29.3359375 L512.575651,29.3359375 C512.575651,26.9114583 513.169401,24.8889974 514.356901,23.2685547 C515.544401,21.648112 517.090625,20.8378906 518.995573,20.8378906 C520.92526,20.8378906 522.397265,21.4440104 523.411588,22.65625 C524.425911,23.8684896 524.933073,25.6373698 524.933073,27.9628906 C524.933073,30.8326823 522.793099,34.7044271 518.513151,39.578125 L518.513151,39.578125 L501.145963,57.8359375 L501.145963,66 L538.849088,66 Z M583.251693,66 L583.251693,54.5332031 L588.74388,54.5332031 L588.74388,44.8847656 L583.251693,44.8847656 L583.251693,11.96875 L570.745833,11.96875 L570.745833,12.0800781 L549.111068,46.8886719 L549.853255,54.5332031 L570.745833,54.5332031 L570.745833,66 L583.251693,66 Z M570.745833,44.8847656 L561.023177,44.8847656 L569.966536,29.5214844 L570.745833,28.2597656 L570.745833,44.8847656 Z" id="324" fill="#000000" fill-rule="nonzero"></path>
                <path d="M28.7714844,159.742188 C34.8079427,159.742188 39.6816406,158.294922 43.3925781,155.400391 C47.1035156,152.505859 48.9589844,148.646484 48.9589844,143.822266 C48.9589844,140.705078 48.1425781,138.088867 46.5097656,135.973633 C44.8769531,133.858398 42.625651,132.28125 39.7558594,131.242188 C42.4772135,129.955729 44.5491536,128.279622 45.9716797,126.213867 C47.3942057,124.148112 48.1054688,121.952474 48.1054688,119.626953 C48.1054688,114.827474 46.3860677,111.054688 42.9472656,108.308594 C39.5084635,105.5625 34.7832031,104.189453 28.7714844,104.189453 C25.406901,104.189453 22.320638,104.814128 19.5126953,106.063477 C16.7047526,107.312826 14.5091146,109.050781 12.9257812,111.277344 C11.3424479,113.503906 10.5507812,116.039714 10.5507812,118.884766 L10.5507812,118.884766 L23.0566406,118.884766 C23.0566406,117.44987 23.6689453,116.25 24.8935547,115.285156 C26.1181641,114.320312 27.5592448,113.837891 29.2167969,113.837891 C31.2454427,113.837891 32.8164062,114.400716 33.9296875,115.526367 C35.0429688,116.652018 35.5996094,118.105469 35.5996094,119.886719 C35.5996094,124.463542 33.2617188,126.751953 28.5859375,126.751953 L28.5859375,126.751953 L22.6855469,126.751953 L22.6855469,136.066406 L28.7714844,136.066406 C31.171224,136.066406 33.0514323,136.635417 34.4121094,137.773438 C35.7727865,138.911458 36.453125,140.841146 36.453125,143.5625 C36.453125,145.467448 35.797526,147.032227 34.4863281,148.256836 C33.1751302,149.481445 31.4186198,150.09375 29.2167969,150.09375 C27.2623698,150.09375 25.6171875,149.48763 24.28125,148.275391 C22.9453125,147.063151 22.2773438,145.628255 22.2773438,143.970703 L22.2773438,143.970703 L9.69726562,143.970703 C9.69726562,147.013672 10.4765625,149.728841 12.0351562,152.116211 C13.59375,154.503581 15.8883464,156.371419 18.9189453,157.719727 C21.9495443,159.068034 25.233724,159.742188 28.7714844,159.742188 Z M93.2949219,159 L93.2949219,147.533203 L98.7871094,147.533203 L98.7871094,137.884766 L93.2949219,137.884766 L93.2949219,104.96875 L80.7890625,104.96875 L80.7890625,105.080078 L59.1542969,139.888672 L59.8964844,147.533203 L80.7890625,147.533203 L80.7890625,159 L93.2949219,159 Z M80.7890625,137.884766 L71.0664062,137.884766 L80.0097656,122.521484 L80.7890625,121.259766 L80.7890625,137.884766 Z M142.306641,159 L142.306641,147.533203 L147.798828,147.533203 L147.798828,137.884766 L142.306641,137.884766 L142.306641,104.96875 L129.800781,104.96875 L129.800781,105.080078 L108.166016,139.888672 L108.908203,147.533203 L129.800781,147.533203 L129.800781,159 L142.306641,159 Z M129.800781,137.884766 L120.078125,137.884766 L129.021484,122.521484 L129.800781,121.259766 L129.800781,137.884766 Z M175.658203,159 L195.845703,111.648438 L195.845703,104.96875 L156.917969,104.96875 L156.917969,114.617188 L182.671875,114.617188 L162.447266,159 L175.658203,159 Z" id="3447" fill="#000000" fill-rule="nonzero"></path>
            </g>
        </g>
    </g>
</svg>