<?xml version="1.0" encoding="UTF-8"?>
<svg width="319px" height="401px" viewBox="0 0 319 401" version="1.1" xmlns="http://www.w3.org/2000/svg" xmlns:xlink="http://www.w3.org/1999/xlink">
    <title>m_ico_b_about04</title>
    <g id="Publish_M" stroke="none" stroke-width="1" fill="none" fill-rule="evenodd">
        <g id="m_02about-" transform="translate(-341.000000, -8841.000000)">
            <g id="m_ico_b_about04" transform="translate(341.000000, 8841.000000)">
                <polygon id="Rectangle" fill="#FFFFFF" opacity="0" points="0 -6.40265618e-13 319 -6.40265618e-13 319 400 0 400"></polygon>
                <path d="M49.9599659,177 L49.9599659,116.986264 L72.1320273,116.986264 L102.122658,177 L146,177 L146,175.248626 L110.524702,106.711538 C120.71607,101.885531 128.204003,95.5805861 132.988501,87.7967033 C137.772998,80.0128205 140.165247,70.2051282 140.165247,58.3736264 C140.165247,42.0274725 134.486087,29.378663 123.127768,20.4271978 C111.769449,11.4757326 96.0156161,7 75.8662692,7 L75.8662692,7 L9,7 L9,177 L49.9599659,177 Z M75.7163121,86 L50,86 L50,39 L75.7163121,39 C83.3617021,39 89.1536643,41.0954167 93.0921986,45.28625 C97.0307329,49.4770833 99,55.2541667 99,62.6175 C99,69.9808333 97.0500394,75.71875 93.1501182,79.83125 C89.250197,83.94375 83.4389283,86 75.7163121,86 L75.7163121,86 Z" id="R" fill="#DDDDDD" fill-rule="nonzero"></path>
                <path d="M238.632887,179 C249.752071,179 259.87986,176.447673 269.016252,171.343019 C278.152645,166.238366 285.267368,159.165887 290.360421,150.125585 C295.453474,141.085282 298,131.148742 298,120.315965 C298,102.858829 293.645634,88.752839 284.936902,77.997996 C276.228171,67.243153 264.525813,61.8657315 249.829828,61.8657315 C236.300191,61.8657315 225.10325,66.2300156 216.239006,74.9585838 C218.416189,62.411267 224.228489,52.6111111 233.675908,45.5581162 C243.123327,38.5051214 255.195029,34.9786239 269.891013,34.9786239 L269.891013,34.9786239 L271.640535,34.9786239 L271.640535,4 L265.692161,4 C248.741236,4 233.306565,7.9746159 219.388145,15.9238477 C205.469726,23.8730795 194.758764,34.84224 187.255258,48.8313293 C179.751753,62.8204186 176,78.5824983 176,96.1175685 L176,96.1175685 L176,111.899132 C176.155513,125.225785 178.876992,136.993765 184.164436,147.203073 C189.45188,157.41238 196.838751,165.264195 206.325048,170.758517 C215.811345,176.252839 226.580625,179 238.632887,179 Z M237.137466,149 C222.379155,149 215,138.165289 215,116.495868 L215,116.495868 L215,104.60124 C216.69991,101.068182 219.28841,98.0847107 222.765499,95.6508264 C226.242588,93.2169421 230.569632,92 235.746631,92 C242.469003,92 247.858491,94.6497934 251.915094,99.9493802 C255.971698,105.248967 258,112.099174 258,120.5 C258,128.665289 256.010332,135.456612 252.030997,140.873967 C248.051662,146.291322 243.087152,149 237.137466,149 Z" id="6" fill="#000000" fill-rule="nonzero"></path>
                <polygon id="E" fill="#DDDDDD" fill-rule="nonzero" points="125.767164 394 125.767164 362.660714 49.8626866 362.660714 49.8626866 322.383929 114.125373 322.383929 114.125373 292.089286 49.8626866 292.089286 49.8626866 256.455357 126 256.455357 126 225 9 225 9 394"></polygon>
                <path d="M231.687937,394 C246.336538,393.922619 259.609411,390.421131 271.506556,383.495536 C283.4037,376.56994 292.626894,366.974702 299.176136,354.709821 C305.725379,342.44494 309,328.574405 309,313.098214 L309,313.098214 L309,305.321429 C308.922494,290 305.531614,276.168155 298.82736,263.825893 C292.123106,251.483631 282.80303,241.927083 270.867133,235.15625 C258.931235,228.385417 245.483974,225 230.52535,225 L230.52535,225 L176,225 L176,394 L231.687937,394 Z M231.303448,362 L217,362 L217,256 L230.834483,256 C242.949425,256 252.172414,260.131876 258.503448,268.395628 C264.834483,276.659381 268,288.939162 268,305.234973 L268,305.234973 L268,312.533333 C268,328.906375 264.834483,341.24408 258.503448,349.546448 C252.172414,357.848816 243.105747,362 231.303448,362 L231.303448,362 Z" id="D" fill="#FF3D32" fill-rule="nonzero"></path>
            </g>
        </g>
    </g>
</svg>