<?xml version="1.0" encoding="UTF-8"?>
<svg width="253px" height="153px" viewBox="0 0 253 153" version="1.1" xmlns="http://www.w3.org/2000/svg" xmlns:xlink="http://www.w3.org/1999/xlink">
    <!-- Generator: Sketch 61.2 (89653) - https://sketch.com -->
    <title>pc_ico_m_about06</title>
    <desc>Created with Sketch.</desc>
    <g id="Page-1" stroke="none" stroke-width="1" fill="none" fill-rule="evenodd">
        <g id="pc_01main_2-copy" transform="translate(-152.000000, -394.000000)">
            <g id="pc_ico_m_about06" transform="translate(278.500000, 470.500000) rotate(-90.000000) translate(-278.500000, -470.500000) translate(202.000000, 344.000000)">
                <g id="Group-3" transform="translate(0.000000, 0.000000)" fill="#BCBCBC">
                    <rect id="Rectangle" x="1" y="0" width="48" height="71"></rect>
                    <rect id="Rectangle-Copy" x="1.36424205e-12" y="75" width="49" height="38"></rect>
                    <rect id="Rectangle-Copy-3" x="1.36424205e-12" y="121" width="49" height="23"></rect>
                    <rect id="Rectangle-Copy-17" x="1" y="153" width="48" height="16"></rect>
                    <rect id="Rectangle-Copy-18" x="-1.36424205e-12" y="183" width="48" height="9"></rect>
                    <rect id="Rectangle-Copy-19" x="1.36779477e-12" y="214" width="49" height="6"></rect>
                    <rect id="Rectangle-Copy-20" x="-1.36424205e-12" y="251" width="48" height="2"></rect>
                </g>
                <g id="Group-3-Copy" transform="translate(25.000000, 0.000000)" fill="#000000">
                    <rect id="Rectangle" x="2" y="-7.43644645e-15" width="126" height="71"></rect>
                    <rect id="Rectangle-Copy" x="1" y="75" width="126" height="38"></rect>
                    <rect id="Rectangle-Copy-3" x="1" y="121" width="126" height="23"></rect>
                    <rect id="Rectangle-Copy-17" x="1" y="153" width="127" height="16"></rect>
                    <rect id="Rectangle-Copy-18" x="-5.97716321e-14" y="183" width="127" height="9"></rect>
                    <rect id="Rectangle-Copy-19" x="1" y="214" width="126" height="6"></rect>
                    <rect id="Rectangle-Copy-20" x="-4.64628336e-14" y="251" width="126" height="2"></rect>
                </g>
            </g>
        </g>
    </g>
</svg>