<?xml version="1.0" encoding="UTF-8"?>
<svg width="494px" height="226px" viewBox="0 0 494 226" version="1.1" xmlns="http://www.w3.org/2000/svg" xmlns:xlink="http://www.w3.org/1999/xlink">
    <!-- Generator: Sketch 60.1 (88133) - https://sketch.com -->
    <title>m_ico_list_title04</title>
    <desc>Created with Sketch.</desc>
    <g id="Publish" stroke="none" stroke-width="1" fill="none" fill-rule="evenodd">
        <g id="m_03list" transform="translate(-61.000000, -754.000000)">
            <g id="m_ico_list_title04" transform="translate(60.000000, 747.000000)">
                <polygon id="Rectangle" fill="#606060" opacity="0" points="0 0 496 0 496 240 0 240"></polygon>
                <path d="M21.25,143.625 C24.9166667,143.625 28.09375,142.979167 30.78125,141.6875 C33.46875,140.395833 35.53125,138.515625 36.96875,136.046875 C38.40625,133.578125 39.125,130.65625 39.125,127.28125 L39.125,127.28125 L39.125,97.5 L28.15625,97.5 L28.15625,127.21875 C28.15625,130.03125 27.5729167,132.0625 26.40625,133.3125 C25.2395833,134.5625 23.5208333,135.1875 21.25,135.1875 C16.75,135.1875 14.4375,132.697917 14.3125,127.71875 L14.3125,127.71875 L14.3125,97.5 L3.28125,97.5 L3.28125,127.5 C3.34375,132.5 4.96875,136.4375 8.15625,139.3125 C11.34375,142.1875 15.7083333,143.625 21.25,143.625 Z M67.3272059,143.625 C72.5563725,143.625 76.6709559,142.489583 79.6709559,140.21875 C82.6709559,137.947917 84.1709559,134.822917 84.1709559,130.84375 C84.1709559,125.864583 81.7126225,121.958333 76.7959559,119.125 C74.7751225,117.958333 72.1917892,116.869792 69.0459559,115.859375 C65.9001225,114.848958 63.7022059,113.869792 62.4522059,112.921875 C61.2022059,111.973958 60.5772059,110.916667 60.5772059,109.75 C60.5772059,108.416667 61.1449142,107.317708 62.2803309,106.453125 C63.4157475,105.588542 64.9626225,105.15625 66.9209559,105.15625 C68.8584559,105.15625 70.3949142,105.666667 71.5303309,106.6875 C72.6657475,107.708333 73.2334559,109.145833 73.2334559,111 L73.2334559,111 L84.1709559,111 C84.1709559,108.229167 83.4522059,105.765625 82.0147059,103.609375 C80.5772059,101.453125 78.5615809,99.7916667 75.9678309,98.625 C73.3740809,97.4583333 70.4417892,96.875 67.1709559,96.875 C63.8167892,96.875 60.7959559,97.4114583 58.1084559,98.484375 C55.4209559,99.5572917 53.3428309,101.057292 51.8740809,102.984375 C50.4053309,104.911458 49.6709559,107.135417 49.6709559,109.65625 C49.6709559,114.71875 52.6188725,118.697917 58.5147059,121.59375 C60.3272059,122.489583 62.6605392,123.416667 65.5147059,124.375 C68.3688725,125.333333 70.3636642,126.260417 71.4990809,127.15625 C72.6344975,128.052083 73.2022059,129.302083 73.2022059,130.90625 C73.2022059,132.322917 72.6761642,133.421875 71.6240809,134.203125 C70.5719975,134.984375 69.1397059,135.375 67.3272059,135.375 C64.4938725,135.375 62.4469975,134.796875 61.1865809,133.640625 C59.9261642,132.484375 59.2959559,130.6875 59.2959559,128.25 L59.2959559,128.25 L48.2959559,128.25 C48.2959559,131.25 49.0511642,133.901042 50.5615809,136.203125 C52.0719975,138.505208 54.3219975,140.317708 57.3115809,141.640625 C60.3011642,142.963542 63.6397059,143.625 67.3272059,143.625 Z M101.748162,143 L104.373162,134.5 L119.404412,134.5 L122.060662,143 L133.841912,143 L117.029412,97.5 L106.716912,97.5 L90.0294118,143 L101.748162,143 Z M116.779412,126.03125 L106.998162,126.03125 L111.873162,110.25 L116.779412,126.03125 Z M159.387868,143 C164.929534,142.958333 169.111826,141.817708 171.934743,139.578125 C174.757659,137.338542 176.169118,133.989583 176.169118,129.53125 C176.169118,127.072917 175.533701,124.989583 174.262868,123.28125 C172.992034,121.572917 171.169118,120.40625 168.794118,119.78125 C170.898284,118.989583 172.492034,117.760417 173.575368,116.09375 C174.658701,114.427083 175.200368,112.416667 175.200368,110.0625 C175.200368,105.979167 173.674326,102.864583 170.622243,100.71875 C167.570159,98.5729167 163.117034,97.5 157.262868,97.5 L157.262868,97.5 L140.919118,97.5 L140.919118,143 L159.387868,143 Z M157.606618,116.46875 L151.887868,116.46875 L151.887868,105.96875 L157.262868,105.96875 C159.721201,105.96875 161.502451,106.390625 162.606618,107.234375 C163.710784,108.078125 164.262868,109.458333 164.262868,111.375 C164.262868,113.041667 163.752451,114.302083 162.731618,115.15625 C161.710784,116.010417 160.002451,116.447917 157.606618,116.46875 L157.606618,116.46875 Z M159.075368,134.5625 L151.887868,134.5625 L151.887868,123.65625 L159.575368,123.65625 C163.346201,123.677083 165.231618,125.583333 165.231618,129.375 C165.231618,131.020833 164.700368,132.296875 163.637868,133.203125 C162.575368,134.109375 161.054534,134.5625 159.075368,134.5625 L159.075368,134.5625 Z M197.652574,143 L197.652574,97.5 L186.715074,97.5 L186.715074,143 L197.652574,143 Z" id="USABI" fill="#000000" fill-rule="nonzero"></path>
                <path d="M382.5,143 L382.5,134.5625 L363.40625,134.5625 L363.40625,97.5 L352.4375,97.5 L352.4375,143 L382.5,143 Z M402.577206,143 L402.577206,97.5 L391.639706,97.5 L391.639706,143 L402.577206,143 Z M435.123162,143 L435.123162,105.96875 L448.779412,105.96875 L448.779412,97.5 L410.748162,97.5 L410.748162,105.96875 L424.154412,105.96875 L424.154412,143 L435.123162,143 Z M479.887868,143 L479.887868,126.65625 L494.544118,97.5 L482.700368,97.5 L474.325368,117.25 L465.919118,97.5 L454.137868,97.5 L468.762868,126.65625 L468.762868,143 L479.887868,143 Z" id="LITY" fill="#000000" fill-rule="nonzero"></path>
                <path d="M15.125,232 L15.125,186.5 L4.1875,186.5 L4.1875,232 L15.125,232 Z M37.4834559,232 L37.4834559,221.375 L36.4209559,199.59375 L47.4522059,232 L54.7022059,232 L65.7022059,199.625 L64.6397059,221.375 L64.6397059,232 L75.6397059,232 L75.6397059,186.5 L61.2022059,186.5 L51.0772059,218.15625 L40.9209559,186.5 L26.5147059,186.5 L26.5147059,232 L37.4834559,232 Z M97.3419118,232 L97.3419118,216.5625 L104.341912,216.5625 C109.883578,216.5625 114.242953,215.234375 117.420037,212.578125 C120.59712,209.921875 122.185662,206.375 122.185662,201.9375 C122.185662,198.9375 121.451287,196.255208 119.982537,193.890625 C118.513787,191.526042 116.44087,189.703125 113.763787,188.421875 C111.086703,187.140625 108.008578,186.5 104.529412,186.5 L104.529412,186.5 L86.3731618,186.5 L86.3731618,232 L97.3419118,232 Z M104.529412,208.09375 L97.3419118,208.09375 L97.3419118,194.96875 L104.654412,194.96875 C106.633578,194.989583 108.196078,195.635417 109.341912,196.90625 C110.487745,198.177083 111.060662,199.875 111.060662,202 C111.060662,203.9375 110.50337,205.4375 109.388787,206.5 C108.274203,207.5625 106.654412,208.09375 104.529412,208.09375 L104.529412,208.09375 Z M142.762868,232 L142.762868,215.9375 L148.700368,215.9375 L156.731618,232 L168.481618,232 L168.481618,231.53125 L158.981618,213.1875 C161.710784,211.895833 163.715993,210.208333 164.997243,208.125 C166.278493,206.041667 166.919118,203.416667 166.919118,200.25 C166.919118,195.875 165.398284,192.489583 162.356618,190.09375 C159.314951,187.697917 155.096201,186.5 149.700368,186.5 L149.700368,186.5 L131.794118,186.5 L131.794118,232 L142.762868,232 Z M149.700368,207.46875 L142.762868,207.46875 L142.762868,194.96875 L149.700368,194.96875 C151.762868,194.96875 153.325368,195.526042 154.387868,196.640625 C155.450368,197.755208 155.981618,199.291667 155.981618,201.25 C155.981618,203.208333 155.455576,204.734375 154.403493,205.828125 C153.351409,206.921875 151.783701,207.46875 149.700368,207.46875 L149.700368,207.46875 Z M195.996324,232.625 C199.871324,232.625 203.324449,231.703125 206.355699,229.859375 C209.386949,228.015625 211.72549,225.385417 213.371324,221.96875 C215.017157,218.552083 215.840074,214.625 215.840074,210.1875 L215.840074,210.1875 L215.840074,208.09375 C215.81924,203.71875 214.970282,199.838542 213.293199,196.453125 C211.616115,193.067708 209.267157,190.458333 206.246324,188.625 C203.22549,186.791667 199.78799,185.875 195.933824,185.875 C192.03799,185.875 188.564032,186.802083 185.511949,188.65625 C182.459865,190.510417 180.116115,193.140625 178.480699,196.546875 C176.845282,199.953125 176.027574,203.885417 176.027574,208.34375 L176.027574,208.34375 L176.027574,210.90625 C176.110907,215.197917 176.991115,219 178.668199,222.3125 C180.345282,225.625 182.683824,228.171875 185.683824,229.953125 C188.683824,231.734375 192.121324,232.625 195.996324,232.625 Z M195.996324,224.0625 C193.079657,224.0625 190.88174,222.864583 189.402574,220.46875 C187.923407,218.072917 187.183824,214.645833 187.183824,210.1875 L187.183824,210.1875 L187.215074,206.84375 C187.527574,198.59375 190.433824,194.46875 195.933824,194.46875 C198.746324,194.46875 200.907782,195.640625 202.418199,197.984375 C203.928615,200.328125 204.683824,203.760417 204.683824,208.28125 L204.683824,208.28125 L204.683824,210.375 C204.66299,214.791667 203.902574,218.177083 202.402574,220.53125 C200.902574,222.885417 198.767157,224.0625 195.996324,224.0625 Z M248.229779,232 L263.542279,186.5 L251.292279,186.5 L242.229779,219.625 L233.198529,186.5 L221.042279,186.5 L236.229779,232 L248.229779,232 Z M301.963235,232 L301.963235,223.5625 L281.588235,223.5625 L281.588235,212.71875 L298.838235,212.71875 L298.838235,204.5625 L281.588235,204.5625 L281.588235,194.96875 L302.025735,194.96875 L302.025735,186.5 L270.619485,186.5 L270.619485,232 L301.963235,232 Z M321.165441,232 L321.165441,221.375 L320.102941,199.59375 L331.134191,232 L338.384191,232 L349.384191,199.625 L348.321691,221.375 L348.321691,232 L359.321691,232 L359.321691,186.5 L344.884191,186.5 L334.759191,218.15625 L324.602941,186.5 L310.196691,186.5 L310.196691,232 L321.165441,232 Z M401.398897,232 L401.398897,223.5625 L381.023897,223.5625 L381.023897,212.71875 L398.273897,212.71875 L398.273897,204.5625 L381.023897,204.5625 L381.023897,194.96875 L401.461397,194.96875 L401.461397,186.5 L370.055147,186.5 L370.055147,232 L401.398897,232 Z M420.601103,232 L420.601103,203.6875 L436.726103,232 L447.632353,232 L447.632353,186.5 L436.694853,186.5 L436.694853,214.8125 L420.601103,186.5 L409.632353,186.5 L409.632353,232 L420.601103,232 Z M479.490809,232 L479.490809,194.96875 L493.147059,194.96875 L493.147059,186.5 L455.115809,186.5 L455.115809,194.96875 L468.522059,194.96875 L468.522059,232 L479.490809,232 Z" id="IMPROVEMENT" fill="#000000" fill-rule="nonzero"></path>
                <path d="M193.209559,54 L193.209559,37.9375 L199.147059,37.9375 L207.178309,54 L218.928309,54 L218.928309,53.53125 L209.428309,35.1875 C212.157475,33.8958333 214.162684,32.2083333 215.443934,30.125 C216.725184,28.0416667 217.365809,25.4166667 217.365809,22.25 C217.365809,17.875 215.844975,14.4895833 212.803309,12.09375 C209.761642,9.69791667 205.542892,8.5 200.147059,8.5 L200.147059,8.5 L182.240809,8.5 L182.240809,54 L193.209559,54 Z M200.147059,29.46875 L193.209559,29.46875 L193.209559,16.96875 L200.147059,16.96875 C202.209559,16.96875 203.772059,17.5260417 204.834559,18.640625 C205.897059,19.7552083 206.428309,21.2916667 206.428309,23.25 C206.428309,25.2083333 205.902267,26.734375 204.850184,27.828125 C203.7981,28.921875 202.230392,29.46875 200.147059,29.46875 L200.147059,29.46875 Z M246.443015,54.625 C250.318015,54.625 253.77114,53.703125 256.80239,51.859375 C259.83364,50.015625 262.172181,47.3854167 263.818015,43.96875 C265.463848,40.5520833 266.286765,36.625 266.286765,32.1875 L266.286765,32.1875 L266.286765,30.09375 C266.265931,25.71875 265.416973,21.8385417 263.73989,18.453125 C262.062806,15.0677083 259.713848,12.4583333 256.693015,10.625 C253.672181,8.79166667 250.234681,7.875 246.380515,7.875 C242.484681,7.875 239.010723,8.80208333 235.95864,10.65625 C232.906556,12.5104167 230.562806,15.140625 228.92739,18.546875 C227.291973,21.953125 226.474265,25.8854167 226.474265,30.34375 L226.474265,30.34375 L226.474265,32.90625 C226.557598,37.1979167 227.437806,41 229.11489,44.3125 C230.791973,47.625 233.130515,50.171875 236.130515,51.953125 C239.130515,53.734375 242.568015,54.625 246.443015,54.625 Z M246.443015,46.0625 C243.526348,46.0625 241.328431,44.8645833 239.849265,42.46875 C238.370098,40.0729167 237.630515,36.6458333 237.630515,32.1875 L237.630515,32.1875 L237.661765,28.84375 C237.974265,20.59375 240.880515,16.46875 246.380515,16.46875 C249.193015,16.46875 251.354473,17.640625 252.86489,19.984375 C254.375306,22.328125 255.130515,25.7604167 255.130515,30.28125 L255.130515,30.28125 L255.130515,32.375 C255.109681,36.7916667 254.349265,40.1770833 252.849265,42.53125 C251.349265,44.8854167 249.213848,46.0625 246.443015,46.0625 Z M283.238971,54 L285.863971,45.5 L300.895221,45.5 L303.551471,54 L315.332721,54 L298.520221,8.5 L288.207721,8.5 L271.520221,54 L283.238971,54 Z M298.270221,37.03125 L288.488971,37.03125 L293.363971,21.25 L298.270221,37.03125 Z M333.378676,54 L333.378676,43.375 L332.316176,21.59375 L343.347426,54 L350.597426,54 L361.597426,21.625 L360.534926,43.375 L360.534926,54 L371.534926,54 L371.534926,8.5 L357.097426,8.5 L346.972426,40.15625 L336.816176,8.5 L322.409926,8.5 L322.409926,54 L333.378676,54 Z M393.955882,54 L393.955882,8.5 L383.018382,8.5 L383.018382,54 L393.955882,54 Z M416.314338,54 L416.314338,25.6875 L432.439338,54 L443.345588,54 L443.345588,8.5 L432.408088,8.5 L432.408088,36.8125 L416.314338,8.5 L405.345588,8.5 L405.345588,54 L416.314338,54 Z M473.204044,54.625 C477.079044,54.625 480.641544,54.0520833 483.891544,52.90625 C487.141544,51.7604167 489.610294,50.25 491.297794,48.375 L491.297794,48.375 L491.297794,29.6875 L472.704044,29.6875 L472.704044,37.21875 L480.329044,37.21875 L480.329044,44.28125 C478.933211,45.5520833 476.808211,46.1875 473.954044,46.1875 C470.620711,46.1875 468.178002,45.046875 466.625919,42.765625 C465.073836,40.484375 464.297794,37.0729167 464.297794,32.53125 L464.297794,32.53125 L464.297794,29.78125 C464.318627,25.4479167 465.079044,22.1145833 466.579044,19.78125 C468.079044,17.4479167 470.204044,16.28125 472.954044,16.28125 C475.245711,16.28125 477.016544,16.8229167 478.266544,17.90625 C479.516544,18.9895833 480.329044,20.8020833 480.704044,23.34375 L480.704044,23.34375 L491.266544,23.34375 C490.745711,18.1979167 488.917586,14.328125 485.782169,11.734375 C482.646752,9.140625 478.245711,7.84375 472.579044,7.84375 C468.704044,7.84375 465.292586,8.74479167 462.344669,10.546875 C459.396752,12.3489583 457.131127,14.921875 455.547794,18.265625 C453.964461,21.609375 453.172794,25.5208333 453.172794,30 L453.172794,30 L453.204044,33.9375 C453.454044,40.4375 455.360294,45.5104167 458.922794,49.15625 C462.485294,52.8020833 467.245711,54.625 473.204044,54.625 Z" id="ROAMING" fill="#000000" fill-rule="nonzero"></path>
                <polygon id="T" fill="#000000" fill-rule="nonzero" points="25.5 54 25.5 16.96875 39.15625 16.96875 39.15625 8.5 1.125 8.5 1.125 16.96875 14.53125 16.96875 14.53125 54"></polygon>
            </g>
        </g>
    </g>
</svg>