<?xml version="1.0" encoding="UTF-8"?>
<svg width="492px" height="226px" viewBox="0 0 492 226" version="1.1" xmlns="http://www.w3.org/2000/svg" xmlns:xlink="http://www.w3.org/1999/xlink">
    <!-- Generator: Sketch 61.2 (89653) - https://sketch.com -->
    <title>m_ico_list_title02</title>
    <desc>Created with Sketch.</desc>
    <g id="Page-1" stroke="none" stroke-width="1" fill="none" fill-rule="evenodd">
        <g id="m_03list" transform="translate(-62.000000, -1917.000000)">
            <g id="m_ico_list_title02" transform="translate(60.000000, 1910.000000)">
                <polygon id="Rectangle" fill="#606060" opacity="0" points="0 0 496 0 496 240 0 240"></polygon>
                <path d="M14.40625,143 L14.40625,124.875 L32.09375,124.875 L32.09375,116.4375 L14.40625,116.4375 L14.40625,105.96875 L33.875,105.96875 L33.875,97.5 L3.4375,97.5 L3.4375,143 L14.40625,143 Z M53.8897059,143 L53.8897059,97.5 L42.9522059,97.5 L42.9522059,143 L53.8897059,143 Z M76.2481618,143 L76.2481618,126.9375 L82.1856618,126.9375 L90.2169118,143 L101.966912,143 L101.966912,142.53125 L92.4669118,124.1875 C95.1960784,122.895833 97.2012868,121.208333 98.4825368,119.125 C99.7637868,117.041667 100.404412,114.416667 100.404412,111.25 C100.404412,106.875 98.8835784,103.489583 95.8419118,101.09375 C92.8002451,98.6979167 88.5814951,97.5 83.1856618,97.5 L83.1856618,97.5 L65.2794118,97.5 L65.2794118,143 L76.2481618,143 Z M83.1856618,118.46875 L76.2481618,118.46875 L76.2481618,105.96875 L83.1856618,105.96875 C85.2481618,105.96875 86.8106618,106.526042 87.8731618,107.640625 C88.9356618,108.755208 89.4669118,110.291667 89.4669118,112.25 C89.4669118,114.208333 88.9408701,115.734375 87.8887868,116.828125 C86.8367034,117.921875 85.2689951,118.46875 83.1856618,118.46875 L83.1856618,118.46875 Z M142.137868,143 L142.137868,134.5625 L121.762868,134.5625 L121.762868,123.71875 L139.012868,123.71875 L139.012868,115.5625 L121.762868,115.5625 L121.762868,105.96875 L142.200368,105.96875 L142.200368,97.5 L110.794118,97.5 L110.794118,143 L142.137868,143 Z M183.261029,143.65625 C185.552696,143.65625 187.609988,143.40625 189.432904,142.90625 C191.255821,142.40625 193.042279,141.635417 194.792279,140.59375 L194.792279,140.59375 L196.917279,143 L208.667279,143 L201.729779,135.03125 C204.563113,131.322917 205.979779,126.395833 205.979779,120.25 L205.979779,120.25 L197.136029,120.25 C197.136029,122.979167 196.563113,125.489583 195.417279,127.78125 L195.417279,127.78125 L188.417279,119.75 L190.792279,118.09375 C195.063113,115.09375 197.198529,111.65625 197.198529,107.78125 C197.198529,104.677083 196.073529,102.078125 193.823529,99.984375 C191.573529,97.890625 188.729779,96.84375 185.292279,96.84375 C181.458946,96.84375 178.354779,97.9739583 175.979779,100.234375 C173.604779,102.494792 172.417279,105.458333 172.417279,109.125 C172.417279,110.8125 172.766238,112.447917 173.464154,114.03125 C174.162071,115.614583 175.125613,117.28125 176.354779,119.03125 L176.354779,119.03125 L176.261029,119.09375 C173.156863,121.364583 171.068321,123.354167 169.995404,125.0625 C168.922488,126.770833 168.386029,128.677083 168.386029,130.78125 C168.386029,134.635417 169.740196,137.744792 172.448529,140.109375 C175.156863,142.473958 178.761029,143.65625 183.261029,143.65625 Z M183.886029,114.3125 C182.302696,112.229167 181.511029,110.458333 181.511029,109 C181.511029,107.791667 181.844363,106.817708 182.511029,106.078125 C183.177696,105.338542 184.094363,104.96875 185.261029,104.96875 C186.240196,104.96875 187.063113,105.322917 187.729779,106.03125 C188.396446,106.739583 188.729779,107.572917 188.729779,108.53125 C188.729779,109.552083 188.511029,110.395833 188.073529,111.0625 C187.636029,111.729167 186.938113,112.375 185.979779,113 L185.979779,113 L183.886029,114.3125 Z M183.948529,135.53125 C182.531863,135.53125 181.344363,135 180.386029,133.9375 C179.427696,132.875 178.948529,131.583333 178.948529,130.0625 C178.948529,128.229167 179.542279,126.583333 180.729779,125.125 L180.729779,125.125 L181.011029,124.9375 L189.198529,134.25 C187.531863,135.104167 185.781863,135.53125 183.948529,135.53125 Z M247.634191,143 L247.634191,132.375 L246.571691,110.59375 L257.602941,143 L264.852941,143 L275.852941,110.625 L274.790441,132.375 L274.790441,143 L285.790441,143 L285.790441,97.5 L271.352941,97.5 L261.227941,129.15625 L251.071691,97.5 L236.665441,97.5 L236.665441,143 L247.634191,143 Z M305.273897,143 L307.898897,134.5 L322.930147,134.5 L325.586397,143 L337.367647,143 L320.555147,97.5 L310.242647,97.5 L293.555147,143 L305.273897,143 Z M320.305147,126.03125 L310.523897,126.03125 L315.398897,110.25 L320.305147,126.03125 Z M355.413603,143 L355.413603,126.9375 L361.351103,126.9375 L369.382353,143 L381.132353,143 L381.132353,142.53125 L371.632353,124.1875 C374.36152,122.895833 376.366728,121.208333 377.647978,119.125 C378.929228,117.041667 379.569853,114.416667 379.569853,111.25 C379.569853,106.875 378.04902,103.489583 375.007353,101.09375 C371.965686,98.6979167 367.746936,97.5 362.351103,97.5 L362.351103,97.5 L344.444853,97.5 L344.444853,143 L355.413603,143 Z M362.351103,118.46875 L355.413603,118.46875 L355.413603,105.96875 L362.351103,105.96875 C364.413603,105.96875 365.976103,106.526042 367.038603,107.640625 C368.101103,108.755208 368.632353,110.291667 368.632353,112.25 C368.632353,114.208333 368.106311,115.734375 367.054228,116.828125 C366.002145,117.921875 364.434436,118.46875 362.351103,118.46875 L362.351103,118.46875 Z M401.647059,143 L401.647059,97.5 L390.709559,97.5 L390.709559,143 L401.647059,143 Z M424.005515,143 L424.005515,114.6875 L440.130515,143 L451.036765,143 L451.036765,97.5 L440.099265,97.5 L440.099265,125.8125 L424.005515,97.5 L413.036765,97.5 L413.036765,143 L424.005515,143 Z M493.082721,143 L493.082721,134.5625 L472.707721,134.5625 L472.707721,123.71875 L489.957721,123.71875 L489.957721,115.5625 L472.707721,115.5625 L472.707721,105.96875 L493.145221,105.96875 L493.145221,97.5 L461.738971,97.5 L461.738971,143 L493.082721,143 Z" id="FIRE&amp;MARINE" fill="#000000" fill-rule="nonzero"></path>
                <path d="M15.125,232 L15.125,186.5 L4.1875,186.5 L4.1875,232 L15.125,232 Z M37.4834559,232 L37.4834559,203.6875 L53.6084559,232 L64.5147059,232 L64.5147059,186.5 L53.5772059,186.5 L53.5772059,214.8125 L37.4834559,186.5 L26.5147059,186.5 L26.5147059,232 L37.4834559,232 Z" id="IN" fill="#000000" fill-rule="nonzero"></path>
                <path d="M201.03125,232.625 C206.260417,232.625 210.375,231.489583 213.375,229.21875 C216.375,226.947917 217.875,223.822917 217.875,219.84375 C217.875,214.864583 215.416667,210.958333 210.5,208.125 C208.479167,206.958333 205.895833,205.869792 202.75,204.859375 C199.604167,203.848958 197.40625,202.869792 196.15625,201.921875 C194.90625,200.973958 194.28125,199.916667 194.28125,198.75 C194.28125,197.416667 194.848958,196.317708 195.984375,195.453125 C197.119792,194.588542 198.666667,194.15625 200.625,194.15625 C202.5625,194.15625 204.098958,194.666667 205.234375,195.6875 C206.369792,196.708333 206.9375,198.145833 206.9375,200 L206.9375,200 L217.875,200 C217.875,197.229167 217.15625,194.765625 215.71875,192.609375 C214.28125,190.453125 212.265625,188.791667 209.671875,187.625 C207.078125,186.458333 204.145833,185.875 200.875,185.875 C197.520833,185.875 194.5,186.411458 191.8125,187.484375 C189.125,188.557292 187.046875,190.057292 185.578125,191.984375 C184.109375,193.911458 183.375,196.135417 183.375,198.65625 C183.375,203.71875 186.322917,207.697917 192.21875,210.59375 C194.03125,211.489583 196.364583,212.416667 199.21875,213.375 C202.072917,214.333333 204.067708,215.260417 205.203125,216.15625 C206.338542,217.052083 206.90625,218.302083 206.90625,219.90625 C206.90625,221.322917 206.380208,222.421875 205.328125,223.203125 C204.276042,223.984375 202.84375,224.375 201.03125,224.375 C198.197917,224.375 196.151042,223.796875 194.890625,222.640625 C193.630208,221.484375 193,219.6875 193,217.25 L193,217.25 L182,217.25 C182,220.25 182.755208,222.901042 184.265625,225.203125 C185.776042,227.505208 188.026042,229.317708 191.015625,230.640625 C194.005208,231.963542 197.34375,232.625 201.03125,232.625 Z M245.077206,232.625 C248.743873,232.625 251.920956,231.979167 254.608456,230.6875 C257.295956,229.395833 259.358456,227.515625 260.795956,225.046875 C262.233456,222.578125 262.952206,219.65625 262.952206,216.28125 L262.952206,216.28125 L262.952206,186.5 L251.983456,186.5 L251.983456,216.21875 C251.983456,219.03125 251.400123,221.0625 250.233456,222.3125 C249.066789,223.5625 247.348039,224.1875 245.077206,224.1875 C240.577206,224.1875 238.264706,221.697917 238.139706,216.71875 L238.139706,216.71875 L238.139706,186.5 L227.108456,186.5 L227.108456,216.5 C227.170956,221.5 228.795956,225.4375 231.983456,228.3125 C235.170956,231.1875 239.535539,232.625 245.077206,232.625 Z M284.529412,232 L284.529412,215.9375 L290.466912,215.9375 L298.498162,232 L310.248162,232 L310.248162,231.53125 L300.748162,213.1875 C303.477328,211.895833 305.482537,210.208333 306.763787,208.125 C308.045037,206.041667 308.685662,203.416667 308.685662,200.25 C308.685662,195.875 307.164828,192.489583 304.123162,190.09375 C301.081495,187.697917 296.862745,186.5 291.466912,186.5 L291.466912,186.5 L273.560662,186.5 L273.560662,232 L284.529412,232 Z M291.466912,207.46875 L284.529412,207.46875 L284.529412,194.96875 L291.466912,194.96875 C293.529412,194.96875 295.091912,195.526042 296.154412,196.640625 C297.216912,197.755208 297.748162,199.291667 297.748162,201.25 C297.748162,203.208333 297.22212,204.734375 296.170037,205.828125 C295.117953,206.921875 293.550245,207.46875 291.466912,207.46875 L291.466912,207.46875 Z M327.262868,232 L329.887868,223.5 L344.919118,223.5 L347.575368,232 L359.356618,232 L342.544118,186.5 L332.231618,186.5 L315.544118,232 L327.262868,232 Z M342.294118,215.03125 L332.512868,215.03125 L337.387868,199.25 L342.294118,215.03125 Z M377.402574,232 L377.402574,203.6875 L393.527574,232 L404.433824,232 L404.433824,186.5 L393.496324,186.5 L393.496324,214.8125 L377.402574,186.5 L366.433824,186.5 L366.433824,232 L377.402574,232 Z M433.136029,232.625 C436.761029,232.625 439.984988,231.958333 442.807904,230.625 C445.630821,229.291667 447.823529,227.411458 449.386029,224.984375 C450.948529,222.557292 451.802696,219.760417 451.948529,216.59375 L451.948529,216.59375 L441.042279,216.59375 C440.958946,219.177083 440.250613,221.0625 438.917279,222.25 C437.583946,223.4375 435.656863,224.03125 433.136029,224.03125 C430.156863,224.03125 428.057904,222.989583 426.839154,220.90625 C425.620404,218.822917 425.011029,215.354167 425.011029,210.5 L425.011029,210.5 L425.011029,207.28125 C425.073529,202.802083 425.740196,199.541667 427.011029,197.5 C428.281863,195.458333 430.281863,194.4375 433.011029,194.4375 C435.698529,194.4375 437.698529,195.041667 439.011029,196.25 C440.323529,197.458333 441.021446,199.447917 441.104779,202.21875 L441.104779,202.21875 L452.042279,202.21875 C451.583946,197.114583 449.677696,193.109375 446.323529,190.203125 C442.969363,187.296875 438.531863,185.84375 433.011029,185.84375 C429.177696,185.84375 425.802696,186.755208 422.886029,188.578125 C419.969363,190.401042 417.734988,192.984375 416.182904,196.328125 C414.630821,199.671875 413.854779,203.572917 413.854779,208.03125 L413.854779,208.03125 L413.854779,210.28125 C413.854779,217.385417 415.573529,222.885417 419.011029,226.78125 C422.448529,230.677083 427.156863,232.625 433.136029,232.625 Z M492.244485,232 L492.244485,223.5625 L471.869485,223.5625 L471.869485,212.71875 L489.119485,212.71875 L489.119485,204.5625 L471.869485,204.5625 L471.869485,194.96875 L492.306985,194.96875 L492.306985,186.5 L460.900735,186.5 L460.900735,232 L492.244485,232 Z" id="SURANCE" fill="#000000" fill-rule="nonzero"></path>
                <path d="M473.204044,54.625 C477.079044,54.625 480.641544,54.0520833 483.891544,52.90625 C487.141544,51.7604167 489.610294,50.25 491.297794,48.375 L491.297794,48.375 L491.297794,29.6875 L472.704044,29.6875 L472.704044,37.21875 L480.329044,37.21875 L480.329044,44.28125 C478.933211,45.5520833 476.808211,46.1875 473.954044,46.1875 C470.620711,46.1875 468.178002,45.046875 466.625919,42.765625 C465.073836,40.484375 464.297794,37.0729167 464.297794,32.53125 L464.297794,32.53125 L464.297794,29.78125 C464.318627,25.4479167 465.079044,22.1145833 466.579044,19.78125 C468.079044,17.4479167 470.204044,16.28125 472.954044,16.28125 C475.245711,16.28125 477.016544,16.8229167 478.266544,17.90625 C479.516544,18.9895833 480.329044,20.8020833 480.704044,23.34375 L480.704044,23.34375 L491.266544,23.34375 C490.745711,18.1979167 488.917586,14.328125 485.782169,11.734375 C482.646752,9.140625 478.245711,7.84375 472.579044,7.84375 C468.704044,7.84375 465.292586,8.74479167 462.344669,10.546875 C459.396752,12.3489583 457.131127,14.921875 455.547794,18.265625 C453.964461,21.609375 453.172794,25.5208333 453.172794,30 L453.172794,30 L453.204044,33.9375 C453.454044,40.4375 455.360294,45.5104167 458.922794,49.15625 C462.485294,52.8020833 467.245711,54.625 473.204044,54.625 Z" id="G" fill="#000000" fill-rule="nonzero"></path>
                <path d="M21.03125,54.625 C26.2604167,54.625 30.375,53.4895833 33.375,51.21875 C36.375,48.9479167 37.875,45.8229167 37.875,41.84375 C37.875,36.8645833 35.4166667,32.9583333 30.5,30.125 C28.4791667,28.9583333 25.8958333,27.8697917 22.75,26.859375 C19.6041667,25.8489583 17.40625,24.8697917 16.15625,23.921875 C14.90625,22.9739583 14.28125,21.9166667 14.28125,20.75 C14.28125,19.4166667 14.8489583,18.3177083 15.984375,17.453125 C17.1197917,16.5885417 18.6666667,16.15625 20.625,16.15625 C22.5625,16.15625 24.0989583,16.6666667 25.234375,17.6875 C26.3697917,18.7083333 26.9375,20.1458333 26.9375,22 L26.9375,22 L37.875,22 C37.875,19.2291667 37.15625,16.765625 35.71875,14.609375 C34.28125,12.453125 32.265625,10.7916667 29.671875,9.625 C27.078125,8.45833333 24.1458333,7.875 20.875,7.875 C17.5208333,7.875 14.5,8.41145833 11.8125,9.484375 C9.125,10.5572917 7.046875,12.0572917 5.578125,13.984375 C4.109375,15.9114583 3.375,18.1354167 3.375,20.65625 C3.375,25.71875 6.32291667,29.6979167 12.21875,32.59375 C14.03125,33.4895833 16.3645833,34.4166667 19.21875,35.375 C22.0729167,36.3333333 24.0677083,37.2604167 25.203125,38.15625 C26.3385417,39.0520833 26.90625,40.3020833 26.90625,41.90625 C26.90625,43.3229167 26.3802083,44.421875 25.328125,45.203125 C24.2760417,45.984375 22.84375,46.375 21.03125,46.375 C18.1979167,46.375 16.1510417,45.796875 14.890625,44.640625 C13.6302083,43.484375 13,41.6875 13,39.25 L13,39.25 L2,39.25 C2,42.25 2.75520833,44.9010417 4.265625,47.203125 C5.77604167,49.5052083 8.02604167,51.3177083 11.015625,52.640625 C14.0052083,53.9635417 17.34375,54.625 21.03125,54.625 Z M55.4522059,54 L58.0772059,45.5 L73.1084559,45.5 L75.7647059,54 L87.5459559,54 L70.7334559,8.5 L60.4209559,8.5 L43.7334559,54 L55.4522059,54 Z M70.4834559,37.03125 L60.7022059,37.03125 L65.5772059,21.25 L70.4834559,37.03125 Z M105.591912,54 L105.591912,43.375 L104.529412,21.59375 L115.560662,54 L122.810662,54 L133.810662,21.625 L132.748162,43.375 L132.748162,54 L143.748162,54 L143.748162,8.5 L129.310662,8.5 L119.185662,40.15625 L109.029412,8.5 L94.6231618,8.5 L94.6231618,54 L105.591912,54 Z M172.075368,54.625 C177.304534,54.625 181.419118,53.4895833 184.419118,51.21875 C187.419118,48.9479167 188.919118,45.8229167 188.919118,41.84375 C188.919118,36.8645833 186.460784,32.9583333 181.544118,30.125 C179.523284,28.9583333 176.939951,27.8697917 173.794118,26.859375 C170.648284,25.8489583 168.450368,24.8697917 167.200368,23.921875 C165.950368,22.9739583 165.325368,21.9166667 165.325368,20.75 C165.325368,19.4166667 165.893076,18.3177083 167.028493,17.453125 C168.163909,16.5885417 169.710784,16.15625 171.669118,16.15625 C173.606618,16.15625 175.143076,16.6666667 176.278493,17.6875 C177.413909,18.7083333 177.981618,20.1458333 177.981618,22 L177.981618,22 L188.919118,22 C188.919118,19.2291667 188.200368,16.765625 186.762868,14.609375 C185.325368,12.453125 183.309743,10.7916667 180.715993,9.625 C178.122243,8.45833333 175.189951,7.875 171.919118,7.875 C168.564951,7.875 165.544118,8.41145833 162.856618,9.484375 C160.169118,10.5572917 158.090993,12.0572917 156.622243,13.984375 C155.153493,15.9114583 154.419118,18.1354167 154.419118,20.65625 C154.419118,25.71875 157.367034,29.6979167 163.262868,32.59375 C165.075368,33.4895833 167.408701,34.4166667 170.262868,35.375 C173.117034,36.3333333 175.111826,37.2604167 176.247243,38.15625 C177.382659,39.0520833 177.950368,40.3020833 177.950368,41.90625 C177.950368,43.3229167 177.424326,44.421875 176.372243,45.203125 C175.320159,45.984375 173.887868,46.375 172.075368,46.375 C169.242034,46.375 167.195159,45.796875 165.934743,44.640625 C164.674326,43.484375 164.044118,41.6875 164.044118,39.25 L164.044118,39.25 L153.044118,39.25 C153.044118,42.25 153.799326,44.9010417 155.309743,47.203125 C156.820159,49.5052083 159.070159,51.3177083 162.059743,52.640625 C165.049326,53.9635417 168.387868,54.625 172.075368,54.625 Z M216.121324,54.625 C219.78799,54.625 222.965074,53.9791667 225.652574,52.6875 C228.340074,51.3958333 230.402574,49.515625 231.840074,47.046875 C233.277574,44.578125 233.996324,41.65625 233.996324,38.28125 L233.996324,38.28125 L233.996324,8.5 L223.027574,8.5 L223.027574,38.21875 C223.027574,41.03125 222.44424,43.0625 221.277574,44.3125 C220.110907,45.5625 218.392157,46.1875 216.121324,46.1875 C211.621324,46.1875 209.308824,43.6979167 209.183824,38.71875 L209.183824,38.71875 L209.183824,8.5 L198.152574,8.5 L198.152574,38.5 C198.215074,43.5 199.840074,47.4375 203.027574,50.3125 C206.215074,53.1875 210.579657,54.625 216.121324,54.625 Z M255.573529,54 L255.573529,25.6875 L271.698529,54 L282.604779,54 L282.604779,8.5 L271.667279,8.5 L271.667279,36.8125 L255.573529,8.5 L244.604779,8.5 L244.604779,54 L255.573529,54 Z" id="SAMSUN" fill="#000000" fill-rule="nonzero"></path>
            </g>
        </g>
    </g>
</svg>