<?xml version="1.0" encoding="UTF-8"?>
<svg width="593px" height="41px" viewBox="0 0 593 41" version="1.1" xmlns="http://www.w3.org/2000/svg" xmlns:xlink="http://www.w3.org/1999/xlink">
    <!-- Generator: Sketch 64 (93537) - https://sketch.com -->
    <title>m_ico_contact_02</title>
    <desc>Created with Sketch.</desc>
    <g id="Publish_M" stroke="none" stroke-width="1" fill="none" fill-rule="evenodd">
        <g id="m_05contact" transform="translate(-61.000000, -496.000000)" fill="#000000" fill-rule="nonzero">
            <g id="m_ico_contact_02" transform="translate(61.000000, 496.000000)">
                <path d="M13.0683594,31.4101562 C15.4472656,31.4101562 17.5629883,30.9726562 19.4155273,30.0976562 C21.2680664,29.2226562 22.7070312,27.9887695 23.7324219,26.3959961 C24.7578125,24.8032227 25.3183594,22.9677734 25.4140625,20.8896484 L25.4140625,20.8896484 L18.2568359,20.8896484 C18.2021484,22.5849609 17.7373047,23.8222656 16.8623047,24.6015625 C15.9873047,25.3808594 14.7226562,25.7705078 13.0683594,25.7705078 C11.1132812,25.7705078 9.73583984,25.0869141 8.93603516,23.7197266 C8.13623047,22.3525391 7.73632812,20.0761719 7.73632812,16.890625 L7.73632812,16.890625 L7.73632812,14.7783203 C7.77734375,11.8388672 8.21484375,9.69921875 9.04882812,8.359375 C9.8828125,7.01953125 11.1953125,6.34960938 12.9863281,6.34960938 C14.75,6.34960938 16.0625,6.74609375 16.9238281,7.5390625 C17.7851562,8.33203125 18.2431641,9.63769531 18.2978516,11.4560547 L18.2978516,11.4560547 L25.4755859,11.4560547 C25.1748047,8.10644531 23.9238281,5.47802734 21.7226562,3.57080078 C19.5214844,1.66357422 16.609375,0.709960938 12.9863281,0.709960938 C10.4707031,0.709960938 8.25585938,1.30810547 6.34179688,2.50439453 C4.42773438,3.70068359 2.96142578,5.39599609 1.94287109,7.59033203 C0.924316406,9.78466797 0.415039062,12.3447266 0.415039062,15.2705078 L0.415039062,15.2705078 L0.415039062,16.7470703 C0.415039062,21.4091797 1.54296875,25.0185547 3.79882813,27.5751953 C6.0546875,30.1318359 9.14453125,31.4101562 13.0683594,31.4101562 Z M43.1820313,31.4101562 C45.725,31.4101562 47.9911133,30.8051758 49.9803711,29.5952148 C51.9696289,28.3852539 53.5042969,26.6591797 54.584375,24.4169922 C55.6644531,22.1748047 56.2044922,19.5976562 56.2044922,16.6855469 L56.2044922,16.6855469 L56.2044922,15.3115234 C56.1908203,12.4404297 55.6336914,9.89404297 54.5331055,7.67236328 C53.4325195,5.45068359 51.8910156,3.73828125 49.9085938,2.53515625 C47.9261719,1.33203125 45.6703125,0.73046875 43.1410156,0.73046875 C40.584375,0.73046875 38.3045898,1.33886719 36.3016602,2.55566406 C34.2987305,3.77246094 32.7606445,5.49853516 31.6874023,7.73388672 C30.6141602,9.96923828 30.0775391,12.5498047 30.0775391,15.4755859 L30.0775391,15.4755859 L30.0775391,17.1572266 C30.1322266,19.9736328 30.7098633,22.46875 31.8104492,24.6425781 C32.9110352,26.8164062 34.4457031,28.487793 36.4144531,29.6567383 C38.3832031,30.8256836 40.6390625,31.4101562 43.1820313,31.4101562 Z M43.1820313,25.7910156 C41.2679688,25.7910156 39.8255859,25.0048828 38.8548828,23.4326172 C37.8841797,21.8603516 37.3988281,19.6113281 37.3988281,16.6855469 L37.3988281,16.6855469 L37.4193359,14.4912109 C37.6244141,9.07714844 39.5316406,6.37011719 43.1410156,6.37011719 C44.9867188,6.37011719 46.4051758,7.13916016 47.3963867,8.67724609 C48.3875977,10.215332 48.8832031,12.4677734 48.8832031,15.4345703 L48.8832031,15.4345703 L48.8832031,16.8085938 C48.8695313,19.7070312 48.3705078,21.9287109 47.3861328,23.4736328 C46.4017578,25.0185547 45.0003906,25.7910156 43.1820313,25.7910156 Z M69.2146484,31 L69.2146484,12.4199219 L79.7966797,31 L86.9539063,31 L86.9539063,1.140625 L79.7761719,1.140625 L79.7761719,19.7207031 L69.2146484,1.140625 L62.0164063,1.140625 L62.0164063,31 L69.2146484,31 Z M107.49043,31 L107.49043,6.69824219 L116.452344,6.69824219 L116.452344,1.140625 L91.4943359,1.140625 L91.4943359,6.69824219 L100.292188,6.69824219 L100.292188,31 L107.49043,31 Z M124.499609,31 L126.222266,25.421875 L136.086523,25.421875 L137.829688,31 L145.561133,31 L134.52793,1.140625 L127.760352,1.140625 L116.80918,31 L124.499609,31 Z M134.363867,19.8642578 L127.944922,19.8642578 L131.144141,9.5078125 L134.363867,19.8642578 Z M161.216797,31.4101562 C163.595703,31.4101562 165.711426,30.9726562 167.563965,30.0976562 C169.416504,29.2226562 170.855469,27.9887695 171.880859,26.3959961 C172.90625,24.8032227 173.466797,22.9677734 173.5625,20.8896484 L173.5625,20.8896484 L166.405273,20.8896484 C166.350586,22.5849609 165.885742,23.8222656 165.010742,24.6015625 C164.135742,25.3808594 162.871094,25.7705078 161.216797,25.7705078 C159.261719,25.7705078 157.884277,25.0869141 157.084473,23.7197266 C156.284668,22.3525391 155.884766,20.0761719 155.884766,16.890625 L155.884766,16.890625 L155.884766,14.7783203 C155.925781,11.8388672 156.363281,9.69921875 157.197266,8.359375 C158.03125,7.01953125 159.34375,6.34960938 161.134766,6.34960938 C162.898438,6.34960938 164.210938,6.74609375 165.072266,7.5390625 C165.933594,8.33203125 166.391602,9.63769531 166.446289,11.4560547 L166.446289,11.4560547 L173.624023,11.4560547 C173.323242,8.10644531 172.072266,5.47802734 169.871094,3.57080078 C167.669922,1.66357422 164.757812,0.709960938 161.134766,0.709960938 C158.619141,0.709960938 156.404297,1.30810547 154.490234,2.50439453 C152.576172,3.70068359 151.109863,5.39599609 150.091309,7.59033203 C149.072754,9.78466797 148.563477,12.3447266 148.563477,15.2705078 L148.563477,15.2705078 L148.563477,16.7470703 C148.563477,21.4091797 149.691406,25.0185547 151.947266,27.5751953 C154.203125,30.1318359 157.292969,31.4101562 161.216797,31.4101562 Z M192.950586,31 L192.950586,6.69824219 L201.9125,6.69824219 L201.9125,1.140625 L176.954492,1.140625 L176.954492,6.69824219 L185.752344,6.69824219 L185.752344,31 L192.950586,31 Z M223.105273,40.2900391 C224.527148,40.2900391 225.945605,40.1225586 227.360645,39.7875977 C228.775684,39.4526367 229.900195,39.0117188 230.73418,38.4648438 L230.73418,38.4648438 L229.975391,35.0605469 C229.16875,35.4160156 228.122852,35.7270508 226.837695,35.9936523 C225.552539,36.2602539 224.335742,36.3935547 223.187305,36.3935547 C218.92168,36.3935547 215.722461,35.1254883 213.589648,32.5893555 C211.456836,30.0532227 210.499805,26.3925781 210.718555,21.6074219 C210.868945,18.4902344 211.535449,15.7114258 212.718066,13.2709961 C213.900684,10.8305664 215.507129,8.94384766 217.537402,7.61083984 C219.567676,6.27783203 221.888477,5.61132812 224.499805,5.61132812 C228.601367,5.61132812 231.715137,6.85546875 233.841113,9.34375 C235.96709,11.8320312 236.913867,15.359375 236.681445,19.9257812 C236.599414,22.2363281 236.165332,24.1333008 235.379199,25.6166992 C234.593066,27.1000977 233.618945,27.8417969 232.456836,27.8417969 C230.911914,27.8417969 230.255664,26.8916016 230.488086,24.9912109 L230.488086,24.9912109 L231.533984,12.953125 L230.241992,12.0917969 C228.792773,11.1621094 227.063281,10.6972656 225.053516,10.6972656 C222.455859,10.6972656 220.261523,11.7363281 218.470508,13.8144531 C216.679492,15.8925781 215.578906,18.640625 215.16875,22.0585938 C214.991016,23.8632812 215.131152,25.4765625 215.58916,26.8984375 C216.047168,28.3203125 216.768359,29.4174805 217.752734,30.1899414 C218.737109,30.9624023 219.885547,31.3486328 221.198047,31.3486328 C223.453906,31.3486328 225.251758,30.4462891 226.591602,28.6416016 C227.070117,29.5302734 227.740039,30.2172852 228.601367,30.7026367 C229.462695,31.1879883 230.453906,31.4306641 231.575,31.4306641 C234.309375,31.4306641 236.496875,30.3710938 238.1375,28.2519531 C239.778125,26.1328125 240.666797,23.2890625 240.803516,19.7207031 C240.953906,16.1796875 240.400195,13.0693359 239.142383,10.3896484 C237.88457,7.70996094 236.004687,5.65576172 233.502734,4.22705078 C231.000781,2.79833984 228.027148,2.08398438 224.581836,2.08398438 C221.136523,2.08398438 218.043262,2.90087891 215.302051,4.53466797 C212.56084,6.16845703 210.400684,8.47900391 208.821582,11.4663086 C207.24248,14.4536133 206.370898,17.8339844 206.206836,21.6074219 C206.070117,25.5996094 206.630664,28.9970703 207.888477,31.7998047 C209.146289,34.6025391 211.06377,36.7182617 213.640918,38.1469727 C216.218066,39.5756836 219.372852,40.2900391 223.105273,40.2900391 Z M222.797656,27.4521484 C221.840625,27.4521484 221.146777,26.9975586 220.716113,26.0883789 C220.285449,25.1791992 220.145312,23.8359375 220.295703,22.0585938 C220.555469,19.4882812 221.098926,17.6049805 221.926074,16.4086914 C222.753223,15.2124023 223.932422,14.6142578 225.463672,14.6142578 C225.901172,14.6142578 226.325,14.6689453 226.735156,14.7783203 L226.735156,14.7783203 L225.914844,24.1298828 C225.559375,25.1962891 225.111621,26.0166016 224.571582,26.5908203 C224.031543,27.1650391 223.440234,27.4521484 222.797656,27.4521484 Z M253.957227,31 L253.957227,12.4199219 L264.539258,31 L271.696484,31 L271.696484,1.140625 L264.51875,1.140625 L264.51875,19.7207031 L253.957227,1.140625 L246.758984,1.140625 L246.758984,31 L253.957227,31 Z M298.918555,31 L298.918555,25.4628906 L285.547461,25.4628906 L285.547461,18.3466797 L296.867773,18.3466797 L296.867773,12.9941406 L285.547461,12.9941406 L285.547461,6.69824219 L298.95957,6.69824219 L298.95957,1.140625 L278.349219,1.140625 L278.349219,31 L298.918555,31 Z M318.839844,31 L318.839844,6.69824219 L327.801758,6.69824219 L327.801758,1.140625 L302.84375,1.140625 L302.84375,6.69824219 L311.641602,6.69824219 L311.641602,31 L318.839844,31 Z M340.606836,31 L340.606836,1.140625 L333.429102,1.140625 L333.429102,31 L340.606836,31 Z M363.235156,31 L373.283984,1.140625 L365.244922,1.140625 L359.297656,22.8789062 L353.370898,1.140625 L345.393359,1.140625 L355.360156,31 L363.235156,31 Z M398.127148,31 L398.127148,25.4628906 L384.756055,25.4628906 L384.756055,18.3466797 L396.076367,18.3466797 L396.076367,12.9941406 L384.756055,12.9941406 L384.756055,6.69824219 L398.168164,6.69824219 L398.168164,1.140625 L377.557813,1.140625 L377.557813,31 L398.127148,31 Z M410.358008,31 L410.358008,20.4589844 L414.254492,20.4589844 L419.525,31 L427.235938,31 L427.235938,30.6923828 L421.001563,18.6542969 C422.792578,17.8066406 424.108496,16.6992188 424.949316,15.3320312 C425.790137,13.9648438 426.210547,12.2421875 426.210547,10.1640625 C426.210547,7.29296875 425.2125,5.07128906 423.216406,3.49902344 C421.220313,1.92675781 418.451758,1.140625 414.910742,1.140625 L414.910742,1.140625 L403.159766,1.140625 L403.159766,31 L410.358008,31 Z M414.910742,14.9013672 L410.358008,14.9013672 L410.358008,6.69824219 L414.910742,6.69824219 C416.264258,6.69824219 417.289648,7.06396484 417.986914,7.79541016 C418.68418,8.52685547 419.032813,9.53515625 419.032813,10.8203125 C419.032813,12.1054688 418.687598,13.1069336 417.997168,13.824707 C417.306738,14.5424805 416.27793,14.9013672 414.910742,14.9013672 L414.910742,14.9013672 Z M453.227539,31 L453.227539,25.4628906 L439.856445,25.4628906 L439.856445,18.3466797 L451.176758,18.3466797 L451.176758,12.9941406 L439.856445,12.9941406 L439.856445,6.69824219 L453.268555,6.69824219 L453.268555,1.140625 L432.658203,1.140625 L432.658203,31 L453.227539,31 Z M468.083398,31 C470.667383,30.9863281 473.008691,30.3676758 475.107324,29.144043 C477.205957,27.9204102 478.83291,26.2250977 479.988184,24.0581055 C481.143457,21.8911133 481.721094,19.4404297 481.721094,16.7060547 L481.721094,16.7060547 L481.721094,15.3320312 C481.707422,12.625 481.109277,10.1811523 479.92666,8.00048828 C478.744043,5.81982422 477.1,4.13134766 474.994531,2.93505859 C472.889063,1.73876953 470.516992,1.140625 467.87832,1.140625 L467.87832,1.140625 L458.260156,1.140625 L458.260156,31 L468.083398,31 Z M467.960352,25.4628906 L465.458398,25.4628906 L465.458398,6.69824219 L467.87832,6.69824219 C469.997461,6.69824219 471.610742,7.4296875 472.718164,8.89257812 C473.825586,10.3554688 474.379297,12.5292969 474.379297,15.4140625 L474.379297,15.4140625 L474.379297,16.7060547 C474.379297,19.6044922 473.825586,21.7885742 472.718164,23.2583008 C471.610742,24.7280273 470.024805,25.4628906 467.960352,25.4628906 L467.960352,25.4628906 Z M488.968555,31.2255859 C490.062305,31.2255859 490.971484,30.9008789 491.696094,30.2514648 C492.420703,29.6020508 492.783008,28.7714844 492.783008,27.7597656 C492.783008,26.7480469 492.420703,25.9174805 491.696094,25.2680664 C490.971484,24.6186523 490.062305,24.2939453 488.968555,24.2939453 C487.861133,24.2939453 486.948535,24.6220703 486.230762,25.2783203 C485.512988,25.9345703 485.154102,26.7617188 485.154102,27.7597656 C485.154102,28.7578125 485.512988,29.5849609 486.230762,30.2412109 C486.948535,30.8974609 487.861133,31.2255859 488.968555,31.2255859 Z M511.617383,31.4101562 C513.996289,31.4101562 516.112012,30.9726562 517.964551,30.0976562 C519.81709,29.2226562 521.256055,27.9887695 522.281445,26.3959961 C523.306836,24.8032227 523.867383,22.9677734 523.963086,20.8896484 L523.963086,20.8896484 L516.805859,20.8896484 C516.751172,22.5849609 516.286328,23.8222656 515.411328,24.6015625 C514.536328,25.3808594 513.27168,25.7705078 511.617383,25.7705078 C509.662305,25.7705078 508.284863,25.0869141 507.485059,23.7197266 C506.685254,22.3525391 506.285352,20.0761719 506.285352,16.890625 L506.285352,16.890625 L506.285352,14.7783203 C506.326367,11.8388672 506.763867,9.69921875 507.597852,8.359375 C508.431836,7.01953125 509.744336,6.34960938 511.535352,6.34960938 C513.299023,6.34960938 514.611523,6.74609375 515.472852,7.5390625 C516.33418,8.33203125 516.792188,9.63769531 516.846875,11.4560547 L516.846875,11.4560547 L524.024609,11.4560547 C523.723828,8.10644531 522.472852,5.47802734 520.27168,3.57080078 C518.070508,1.66357422 515.158398,0.709960938 511.535352,0.709960938 C509.019727,0.709960938 506.804883,1.30810547 504.89082,2.50439453 C502.976758,3.70068359 501.510449,5.39599609 500.491895,7.59033203 C499.47334,9.78466797 498.964063,12.3447266 498.964063,15.2705078 L498.964063,15.2705078 L498.964063,16.7470703 C498.964063,21.4091797 500.091992,25.0185547 502.347852,27.5751953 C504.603711,30.1318359 507.693555,31.4101562 511.617383,31.4101562 Z M541.731055,31.4101562 C544.274023,31.4101562 546.540137,30.8051758 548.529395,29.5952148 C550.518652,28.3852539 552.05332,26.6591797 553.133398,24.4169922 C554.213477,22.1748047 554.753516,19.5976562 554.753516,16.6855469 L554.753516,16.6855469 L554.753516,15.3115234 C554.739844,12.4404297 554.182715,9.89404297 553.082129,7.67236328 C551.981543,5.45068359 550.440039,3.73828125 548.457617,2.53515625 C546.475195,1.33203125 544.219336,0.73046875 541.690039,0.73046875 C539.133398,0.73046875 536.853613,1.33886719 534.850684,2.55566406 C532.847754,3.77246094 531.309668,5.49853516 530.236426,7.73388672 C529.163184,9.96923828 528.626563,12.5498047 528.626563,15.4755859 L528.626563,15.4755859 L528.626563,17.1572266 C528.68125,19.9736328 529.258887,22.46875 530.359473,24.6425781 C531.460059,26.8164062 532.994727,28.487793 534.963477,29.6567383 C536.932227,30.8256836 539.188086,31.4101562 541.731055,31.4101562 Z M541.731055,25.7910156 C539.816992,25.7910156 538.374609,25.0048828 537.403906,23.4326172 C536.433203,21.8603516 535.947852,19.6113281 535.947852,16.6855469 L535.947852,16.6855469 L535.968359,14.4912109 C536.173438,9.07714844 538.080664,6.37011719 541.690039,6.37011719 C543.535742,6.37011719 544.954199,7.13916016 545.94541,8.67724609 C546.936621,10.215332 547.432227,12.4677734 547.432227,15.4345703 L547.432227,15.4345703 L547.432227,16.8085938 C547.418555,19.7070312 546.919531,21.9287109 545.935156,23.4736328 C544.950781,25.0185547 543.549414,25.7910156 541.731055,25.7910156 Z M567.763672,31 L567.763672,24.0273438 L567.066406,9.73339844 L574.305664,31 L579.063477,31 L586.282227,9.75390625 L585.584961,24.0273438 L585.584961,31 L592.803711,31 L592.803711,1.140625 L583.329102,1.140625 L576.68457,21.9150391 L570.019531,1.140625 L560.56543,1.140625 L560.56543,31 L567.763672,31 Z" id="CONTACT@NETIVERED.COM"></path>
            </g>
        </g>
    </g>
</svg>