<?xml version="1.0" encoding="UTF-8"?>
<svg width="588px" height="268px" viewBox="0 0 588 268" version="1.1" xmlns="http://www.w3.org/2000/svg" xmlns:xlink="http://www.w3.org/1999/xlink">
    <title>m_ico_b_about02</title>
    <g id="Publish_M" stroke="none" stroke-width="1" fill="none" fill-rule="evenodd">
        <g id="m_02about-" transform="translate(-67.000000, -4167.000000)" fill-rule="nonzero">
            <g id="m_ico_b_about02" transform="translate(67.000000, 4167.000000)">
                <g id="DYN" transform="translate(0.082031, 212.648750)">
                    <path d="M17.7753906,54.03125 C22.4511719,54.0065104 26.6878255,52.8870443 30.4853516,50.6728516 C34.2828776,48.4586589 37.226888,45.3909505 39.3173828,41.4697266 C41.4078776,37.5485026 42.453125,33.1139323 42.453125,28.1660156 L42.453125,28.1660156 L42.453125,25.6796875 C42.4283854,20.78125 41.3460286,16.3590495 39.2060547,12.4130859 C37.0660807,8.4671224 34.0911458,5.41178385 30.28125,3.24707031 C26.4713542,1.08235677 22.1790365,-2.27373675e-13 17.4042969,-2.27373675e-13 L17.4042969,-2.27373675e-13 L0,-2.27373675e-13 L0,54.03125 L17.7753906,54.03125 Z M17.5527344,44.0117187 L13.0253906,44.0117187 L13.0253906,10.0566406 L17.4042969,10.0566406 C21.2389323,10.0566406 24.1582031,11.3802083 26.1621094,14.0273437 C28.1660156,16.6744792 29.1679688,20.6080729 29.1679688,25.828125 L29.1679688,25.828125 L29.1679688,28.1660156 C29.1679688,33.4108073 28.1660156,37.3629557 26.1621094,40.0224609 C24.1582031,42.6819661 21.2884115,44.0117187 17.5527344,44.0117187 L17.5527344,44.0117187 Z" id="D" fill="#FF3D32"></path>
                    <path d="M79.921875,54.03125 L79.921875,34.6230469 L97.3261719,-2.27373675e-13 L83.2617188,-2.27373675e-13 L73.3164062,23.453125 L63.3339844,-2.27373675e-13 L49.34375,-2.27373675e-13 L66.7109375,34.6230469 L66.7109375,54.03125 L79.921875,54.03125 Z M120.285156,54.03125 L120.285156,20.4101562 L139.433594,54.03125 L152.384766,54.03125 L152.384766,-2.27373675e-13 L139.396484,-2.27373675e-13 L139.396484,33.6210937 L120.285156,-2.27373675e-13 L107.259766,-2.27373675e-13 L107.259766,54.03125 L120.285156,54.03125 Z" id="YN" fill="#000000"></path>
                </g>
                <polygon id="E" fill="#FF3D32" points="37.3027344 160.84 37.3027344 150.820469 13.1074219 150.820469 13.1074219 137.943516 33.5917969 137.943516 33.5917969 128.257969 13.1074219 128.257969 13.1074219 116.865391 37.3769531 116.865391 37.3769531 106.80875 0.08203125 106.80875 0.08203125 160.84"></polygon>
                <path d="M62.4550781,160.84 L62.4550781,139.316562 L83.4589844,139.316562 L83.4589844,129.297031 L62.4550781,129.297031 L62.4550781,116.865391 L85.5742188,116.865391 L85.5742188,106.80875 L49.4296875,106.80875 L49.4296875,160.84 L62.4550781,160.84 Z M110.017578,160.84 L110.017578,139.316562 L131.021484,139.316562 L131.021484,129.297031 L110.017578,129.297031 L110.017578,116.865391 L133.136719,116.865391 L133.136719,106.80875 L96.9921875,106.80875 L96.9921875,160.84 L110.017578,160.84 Z M181.775391,160.84 L181.775391,150.820469 L157.580078,150.820469 L157.580078,137.943516 L178.064453,137.943516 L178.064453,128.257969 L157.580078,128.257969 L157.580078,116.865391 L181.849609,116.865391 L181.849609,106.80875 L144.554688,106.80875 L144.554688,160.84 L181.775391,160.84 Z" id="FFE" fill="#000000"></path>
                <path d="M214.582031,161.582187 C218.886719,161.582187 222.715169,160.790521 226.067383,159.207187 C229.419596,157.623854 232.023438,155.391107 233.878906,152.508945 C235.734375,149.626784 236.748698,146.305495 236.921875,142.545078 L236.921875,142.545078 L223.970703,142.545078 C223.871745,145.612786 223.030599,147.851719 221.447266,149.261875 C219.863932,150.672031 217.575521,151.377109 214.582031,151.377109 C211.044271,151.377109 208.551758,150.14013 207.104492,147.666172 C205.657227,145.192214 204.933594,141.073073 204.933594,135.30875 L204.933594,135.30875 L204.933594,131.486484 C205.007812,126.167474 205.799479,122.295729 207.308594,119.87125 C208.817708,117.446771 211.192708,116.234531 214.433594,116.234531 C217.625,116.234531 220,116.951979 221.558594,118.386875 C223.117188,119.821771 223.945964,122.184401 224.044922,125.474766 L224.044922,125.474766 L237.033203,125.474766 C236.488932,119.413568 234.22526,114.657383 230.242188,111.206211 C226.259115,107.755039 220.989583,106.029453 214.433594,106.029453 C209.88151,106.029453 205.873698,107.11181 202.410156,109.276523 C198.946615,111.441237 196.293294,114.508945 194.450195,118.479648 C192.607096,122.450352 191.685547,127.082839 191.685547,132.377109 L191.685547,132.377109 L191.685547,135.048984 C191.685547,143.485182 193.726562,150.016432 197.808594,154.642734 C201.890625,159.269036 207.481771,161.582187 214.582031,161.582187 Z" id="C" fill="#000000"></path>
                <path d="M432.273125,160.84 L432.273125,116.865391 L448.489922,116.865391 L448.489922,106.80875 L403.327812,106.80875 L403.327812,116.865391 L419.247734,116.865391 L419.247734,160.84 L432.273125,160.84 Z M473.861016,160.84 L473.861016,106.80875 L460.872734,106.80875 L460.872734,160.84 L473.861016,160.84 Z M517.0075,160.84 L535.191094,106.80875 L520.644219,106.80875 L509.8825,146.144688 L499.157891,106.80875 L484.722344,106.80875 L502.7575,160.84 L517.0075,160.84 Z M582.345391,160.84 L582.345391,150.820469 L558.150078,150.820469 L558.150078,137.943516 L578.634453,137.943516 L578.634453,128.257969 L558.150078,128.257969 L558.150078,116.865391 L582.419609,116.865391 L582.419609,106.80875 L545.124687,106.80875 L545.124687,160.84 L582.345391,160.84 Z" id="TIVE" fill="#000000"></path>
                <path d="M13.1074219,55 L13.1074219,35.9257812 L20.1582031,35.9257812 L29.6953125,55 L43.6484375,55 L43.6484375,54.4433594 L32.3671875,32.6601562 C35.6080729,31.1263021 37.9892578,29.1223958 39.5107422,26.6484375 C41.0322266,24.1744792 41.7929688,21.0572917 41.7929688,17.296875 C41.7929688,12.1015625 39.9869792,8.08138021 36.375,5.23632812 C32.7630208,2.39127604 27.7532552,0.96875 21.3457031,0.96875 L21.3457031,0.96875 L0.08203125,0.96875 L0.08203125,55 L13.1074219,55 Z M21.3457031,25.8691406 L13.1074219,25.8691406 L13.1074219,11.0253906 L21.3457031,11.0253906 C23.7949219,11.0253906 25.6503906,11.6871745 26.9121094,13.0107422 C28.1738281,14.3343099 28.8046875,16.1588542 28.8046875,18.484375 C28.8046875,20.8098958 28.180013,22.6220703 26.9306641,23.9208984 C25.6813151,25.2197266 23.8196615,25.8691406 21.3457031,25.8691406 L21.3457031,25.8691406 Z" id="R" fill="#FF3D32"></path>
                <path d="M411.623906,55 L414.741094,44.90625 L432.590703,44.90625 L435.745,55 L449.735234,55 L429.770391,0.96875 L417.524297,0.96875 L397.707891,55 L411.623906,55 Z M429.473516,34.8496094 L417.858281,34.8496094 L423.647344,16.109375 L429.473516,34.8496094 Z M472.694219,55 L472.694219,36.6679688 L481.006719,36.6679688 C487.587448,36.6679688 492.764206,35.0908203 496.536992,31.9365234 C500.309779,28.7822266 502.196172,24.5703125 502.196172,19.3007812 C502.196172,15.7382812 501.324102,12.5530599 499.579961,9.74511719 C497.83582,6.93717448 495.374232,4.77246094 492.195195,3.25097656 C489.016159,1.72949219 485.360885,0.96875 481.229375,0.96875 L481.229375,0.96875 L459.668828,0.96875 L459.668828,55 L472.694219,55 Z M481.229375,26.6113281 L472.694219,26.6113281 L472.694219,11.0253906 L481.377813,11.0253906 C483.728073,11.0501302 485.583542,11.8170573 486.944219,13.3261719 C488.304896,14.8352865 488.985234,16.8515625 488.985234,19.375 C488.985234,21.6757812 488.323451,23.4570312 486.999883,24.71875 C485.676315,25.9804688 483.752813,26.6113281 481.229375,26.6113281 L481.229375,26.6113281 Z M529.014531,55 L529.014531,0.96875 L516.02625,0.96875 L516.02625,55 L529.014531,55 Z M561.844609,55 C566.520391,54.9752604 570.757044,53.8557943 574.55457,51.6416016 C578.352096,49.4274089 581.296107,46.3597005 583.386602,42.4384766 C585.477096,38.5172526 586.522344,34.0826823 586.522344,29.1347656 L586.522344,29.1347656 L586.522344,26.6484375 C586.497604,21.75 585.415247,17.3277995 583.275273,13.3818359 C581.135299,9.4358724 578.160365,6.38053385 574.350469,4.21582031 C570.540573,2.05110677 566.248255,0.96875 561.473516,0.96875 L561.473516,0.96875 L544.069219,0.96875 L544.069219,55 L561.844609,55 Z M561.621953,44.9804688 L557.094609,44.9804688 L557.094609,11.0253906 L561.473516,11.0253906 C565.308151,11.0253906 568.227422,12.3489583 570.231328,14.9960938 C572.235234,17.6432292 573.237188,21.5768229 573.237188,26.796875 L573.237188,26.796875 L573.237188,29.1347656 C573.237188,34.3795573 572.235234,38.3317057 570.231328,40.9912109 C568.227422,43.6507161 565.35763,44.9804688 561.621953,44.9804688 L561.621953,44.9804688 Z" id="APID" fill="#000000"></path>
                <path d="M394.097187,266.68 L397.214375,256.58625 L415.063984,256.58625 L418.218281,266.68 L432.208516,266.68 L412.243672,212.64875 L399.997578,212.64875 L380.181172,266.68 L394.097187,266.68 Z M411.946797,246.529609 L400.331562,246.529609 L406.120625,227.789375 L411.946797,246.529609 Z M455.1675,266.68 L455.1675,254.062813 L453.905781,228.197578 L467.005391,266.68 L475.614766,266.68 L488.677266,228.234688 L487.415547,254.062813 L487.415547,266.68 L500.478047,266.68 L500.478047,212.64875 L483.333516,212.64875 L471.310078,250.240547 L459.249531,212.64875 L442.142109,212.64875 L442.142109,266.68 L455.1675,266.68 Z M528.632344,266.68 L528.632344,212.64875 L515.644062,212.64875 L515.644062,266.68 L528.632344,266.68 Z M565.062031,267.422188 C569.366719,267.422188 573.195169,266.630521 576.547383,265.047188 C579.899596,263.463854 582.503437,261.231107 584.358906,258.348945 C586.214375,255.466784 587.228698,252.145495 587.401875,248.385078 L587.401875,248.385078 L574.450703,248.385078 C574.351745,251.452786 573.510599,253.691719 571.927266,255.101875 C570.343932,256.512031 568.055521,257.217109 565.062031,257.217109 C561.524271,257.217109 559.031758,255.98013 557.584492,253.506172 C556.137227,251.032214 555.413594,246.913073 555.413594,241.14875 L555.413594,241.14875 L555.413594,237.326484 C555.487812,232.007474 556.279479,228.135729 557.788594,225.71125 C559.297708,223.286771 561.672708,222.074531 564.913594,222.074531 C568.105,222.074531 570.48,222.791979 572.038594,224.226875 C573.597187,225.661771 574.425964,228.024401 574.524922,231.314766 L574.524922,231.314766 L587.513203,231.314766 C586.968932,225.253568 584.70526,220.497383 580.722187,217.046211 C576.739115,213.595039 571.469583,211.869453 564.913594,211.869453 C560.36151,211.869453 556.353698,212.95181 552.890156,215.116523 C549.426615,217.281237 546.773294,220.348945 544.930195,224.319648 C543.087096,228.290352 542.165547,232.922839 542.165547,238.217109 L542.165547,238.217109 L542.165547,240.888984 C542.165547,249.325182 544.206562,255.856432 548.288594,260.482734 C552.370625,265.109036 557.961771,267.422188 565.062031,267.422188 Z" id="AMIC" fill="#000000"></path>
            </g>
        </g>
    </g>
</svg>